<svg width="33" height="32" viewBox="0 0 33 32" fill="none" xmlns="http://www.w3.org/2000/svg">
<path d="M23.7521 24.6252L32.1896 16.1809L27.1479 11.1393V13.5435L29.7849 16.1809L25.45 20.5211V11.8383V9.43401L23.7521 7.73614V7.73881L20.6568 4.64814V7.05228V25.3117L18.8307 27.1398V5.21894V2.82267L17.1328 1.11694V1.12414L16.3817 0.373076L13.9849 2.77734V5.18147V27.1877L12.2568 25.4596V6.90961V4.50548L10.5516 6.20334V6.20801L7.47085 9.28361V11.6877V20.6679L2.97813 16.1809L5.74324 13.4159V11.0116L0.581787 16.1809L7.47085 23.0705V23.0779L9.17657 24.7757V22.3716V9.98508L10.5516 8.61214V23.7539V26.158L15.6828 31.282V28.8856V3.47828L16.3817 2.77734L17.1328 3.52627V28.8403V31.2445L22.3547 26.0153V23.6112V8.74761L23.7521 10.1429V22.2216V24.6252Z" fill="#4961B6"/>
<path fill-rule="evenodd" clip-rule="evenodd" d="M23.7521 24.6252L32.1896 16.1809L27.1479 11.1393V13.5435L29.7849 16.1809L25.45 20.5211V11.8383V9.43401L23.7521 7.73614V7.73881L20.6568 4.64814V7.05228V25.3117L18.8307 27.1398V5.21894V2.82267L17.1328 1.11694V1.12414L16.3817 0.373076L13.9849 2.77734V5.18147V27.1877L12.2568 25.4596V6.90961V4.50548L10.5516 6.20334V6.20801L7.47085 9.28361V11.6877V20.6679L2.97813 16.1809L5.74324 13.4159V11.0116L0.581787 16.1809L7.47085 23.0705V23.0779L9.17657 24.7757V22.3716V9.98508L10.5516 8.61214V23.7539V26.158L15.6828 31.282V28.8856V3.47828L16.3817 2.77734L17.1328 3.52627V28.8403V31.2445L22.3547 26.0153V23.6112V8.74761L23.7521 10.1429V22.2216V24.6252Z" fill="#64A4BB"/>
<path fill-rule="evenodd" clip-rule="evenodd" d="M9.1802 16.1507V24.7419L7.47029 23.0497V23.0408L0.5802 16.1507H2.98072L7.47029 20.6408V16.1507H9.1802Z" fill="#64A4BB"/>
<path fill-rule="evenodd" clip-rule="evenodd" d="M15.6817 16.1507V31.2523L10.553 26.132V16.1507H12.2536V25.433L13.9896 27.1596V16.1507H15.6817Z" fill="#64A4BB"/>
<path fill-rule="evenodd" clip-rule="evenodd" d="M22.3563 16.1507V25.9851L17.1323 31.2179V16.1507H18.8333V27.108L20.6552 25.2862V16.1507H22.3563Z" fill="#64A4BB"/>
<path fill-rule="evenodd" clip-rule="evenodd" d="M32.1906 16.1507L23.7546 24.595V16.1507H25.4469V20.494L29.7817 16.1507H32.1906Z" fill="#64A4BB"/>
<path fill-rule="evenodd" clip-rule="evenodd" d="M9.18075 16.134V24.7247L7.47137 23.0325V23.0236L0.581787 16.134H2.98179L7.47137 20.6236V16.134H9.18075Z" fill="#C7E21C"/>
<path fill-rule="evenodd" clip-rule="evenodd" d="M15.6817 16.134V31.2346L10.553 26.1148V16.134H12.2541V25.4153L13.9896 27.1419V16.134H15.6817Z" fill="#C7E21C"/>
<path fill-rule="evenodd" clip-rule="evenodd" d="M22.3552 16.134V25.9679L17.1323 31.1997V16.134H18.8328V27.0903L20.6547 25.2685V16.134H22.3552Z" fill="#C7E21C"/>
<path fill-rule="evenodd" clip-rule="evenodd" d="M32.1896 16.134L23.7542 24.5778V16.134H25.4464V20.4768L29.7803 16.134H32.1896Z" fill="#C7E21C"/>
</svg>
