<svg xmlns="http://www.w3.org/2000/svg" width="41.688" height="40.377" viewBox="774.655 2461.887 41.688 40.377"><g data-name="Icon_Like"><path d="M785.72 2476.01c2.694-3.697 4.376-7.938 5.05-12.74.065-.458.4-.838.86-.976 4.64-1.386 7.278.817 7.235 5.84-.009.975-.055 1.842-.154 3.167-.222 2.96-.204 3.769.139 4.313.33.522 1.401.7 3.936.236.8-.146 1.601-.313 2.49-.512.392-.088 3.217-.754 3.94-.904 1.377-.287 2.365-.409 3.234-.357 2.355.139 3.604 1.602 3.82 4.406.38 4.938-.795 14.857-1.967 18.51-1.197 3.734-3.286 5.143-8.3 5.228-3.223.055-8.18.055-14.895 0-1.714-.039-3.268-.36-4.65-.958a5.705 5.705 0 0 0 .606-2.561V2479.7a5.755 5.755 0 0 0-1.344-3.691ZM778.377 2476.138c-2.056 0-3.722 1.595-3.722 3.563v19c0 1.968 1.666 3.563 3.722 3.563h2.482c2.056 0 3.723-1.595 3.723-3.562V2479.7c0-1.968-1.667-3.563-3.723-3.563h-2.482Z" fill="#61a3ba" fill-rule="evenodd" data-name="Path"/></g></svg>