<svg xmlns="http://www.w3.org/2000/svg" width="42.397" height="40.931" viewBox="774.838 2216.1 42.397 40.931"><g data-name="Icon_Workflow"><path d="M796.036 2255.57c-.404 0-.784-.153-1.07-.428l-4.039-3.9a1.429 1.429 0 0 1 0-2.067l4.039-3.898a1.53 1.53 0 0 1 1.07-.428c.405 0 .785.152 1.071.428.59.57.59 1.498 0 2.068l-1.453 1.403h9.972v2.923h-9.972l1.453 1.403c.59.57.59 1.498 0 2.068a1.534 1.534 0 0 1-1.07.427Zm-12.618-9.746h-3.029v-9.627l-1.453 1.403a1.531 1.531 0 0 1-1.07.427c-.404 0-.785-.152-1.07-.427a1.428 1.428 0 0 1 0-2.068l4.037-3.899a1.534 1.534 0 0 1 1.071-.427c.404 0 .785.152 1.07.427l4.038 3.9a1.425 1.425 0 0 1 0 2.067 1.534 1.534 0 0 1-1.07.427c-.405 0-.785-.152-1.071-.427l-1.453-1.403V2245.824Zm26.75-3.899c-.403 0-.784-.152-1.07-.427l-4.038-3.898a1.428 1.428 0 0 1 0-2.068 1.532 1.532 0 0 1 1.07-.428c.405 0 .785.152 1.072.428l1.453 1.403v-9.628h3.028v9.628l1.453-1.403a1.532 1.532 0 0 1 1.07-.428c.405 0 .785.152 1.072.428.59.57.59 1.497 0 2.068l-4.039 3.898a1.531 1.531 0 0 1-1.07.427Zm-14.132-13.643a1.53 1.53 0 0 1-1.07-.428 1.427 1.427 0 0 1 0-2.068l1.453-1.403h-9.973v-2.923h9.973l-1.453-1.403a1.425 1.425 0 0 1 0-2.067 1.53 1.53 0 0 1 1.07-.428c.405 0 .785.152 1.071.428l4.038 3.898c.59.57.59 1.498 0 2.068l-4.038 3.898a1.533 1.533 0 0 1-1.07.428Z" fill="#61a3ba" fill-rule="evenodd" data-name="path"/><path d="M806.131 2257.031c-1.673 0-3.03-1.308-3.03-2.924v-7.795c0-1.616 1.357-2.925 3.03-2.925h8.075c1.674 0 3.029 1.31 3.029 2.925v7.795c0 1.616-1.355 2.924-3.029 2.924h-8.075Zm-28.265 0c-1.672 0-3.028-1.308-3.028-2.924v-7.795c0-1.616 1.356-2.925 3.028-2.925h8.076c1.672 0 3.028 1.31 3.028 2.925v7.795c0 1.616-1.356 2.924-3.028 2.924h-8.076Zm28.265-27.287c-1.673 0-3.03-1.31-3.03-2.924v-7.796c0-1.615 1.357-2.924 3.03-2.924h8.075c1.674 0 3.029 1.31 3.029 2.924v7.796c0 1.615-1.355 2.924-3.029 2.924h-8.075Zm-28.265 0c-1.672 0-3.028-1.31-3.028-2.924v-7.796c0-1.615 1.356-2.924 3.028-2.924h8.076c1.672 0 3.028 1.31 3.028 2.924v7.796c0 1.615-1.356 2.924-3.028 2.924h-8.076Z" fill="#61a3ba" fill-rule="evenodd" data-name="path"/></g></svg>