<svg xmlns="http://www.w3.org/2000/svg" width="38.953" height="37.606" viewBox="169.154 2218.327 38.953 37.606"><g data-name="Icon_Rocket"><path d="M182.549 2251.975c-.274 0-.532-.103-.725-.29l-8.27-7.983a.964.964 0 0 1-.078-1.314l13.134-16.029c4.121-5.03 10.397-8.032 16.787-8.032 1.198 0 2.397.106 3.562.316.42.075.742.385.821.791.682 3.538.293 7.25-1.126 10.734-1.417 3.482-3.792 6.564-6.868 8.914l-16.601 12.68c-.18.137-.407.213-.636.213Zm14.282-27.71a5.183 5.183 0 0 0-3.624 1.449 4.832 4.832 0 0 0-1.501 3.499c0 1.321.533 2.564 1.501 3.498a5.183 5.183 0 0 0 3.624 1.45 5.186 5.186 0 0 0 3.624-1.45 4.829 4.829 0 0 0 1.502-3.498 4.832 4.832 0 0 0-1.502-3.5 5.186 5.186 0 0 0-3.624-1.449Zm0 7.917a3.11 3.11 0 0 1-2.174-.87 2.897 2.897 0 0 1 0-4.199c.58-.56 1.353-.87 2.174-.87.822 0 1.594.31 2.175.87a2.9 2.9 0 0 1 0 4.199 3.11 3.11 0 0 1-2.175.87ZM191.396 2255.933c-.353 0-.68-.17-.875-.455l-2.916-4.244 11.926-9.156a6.014 6.014 0 0 1-1.03 5.935l-6.284 7.536c-.2.244-.5.384-.82.384Zm-14.877-1.98c-.746 0-1.447-.28-1.975-.79l-2.522-2.433a2.633 2.633 0 0 1 0-3.815l.911-.878 6.472 6.248-.911.878c-.528.51-1.23.79-1.975.79Zm-2.5-15.833h-.002l-4.393-2.82a1 1 0 0 1-.469-.803.992.992 0 0 1 .396-.838l7.931-6.085a6.53 6.53 0 0 1 3.955-1.33c.705 0 1.4.112 2.065.333l-9.483 11.542Z" fill="#61a3ba" fill-rule="evenodd" data-name="Path"/></g></svg>