<svg xmlns="http://www.w3.org/2000/svg" width="43.053" height="37.607" viewBox="167.104 2462.523 43.053 37.607"><g data-name="Icon_Opened_File"><path d="M209.135 2500.13c-.091 0-.182-.012-.271-.035-1.604-.423-4.465-1.27-6.764-1.95a161.502 161.502 0 0 0-2.991-.873c-2.077-.536-4.015-.843-6.285-.993 3.01-1.398 6.427-2.106 10.157-2.106 1.696 0 3.076-1.336 3.076-2.979v-22.733c2.376.467 4.1 2.513 4.1 4.864v25.811c0 .548-.459.994-1.022.994Zm-41.008 0c-.268 0-.523-.102-.717-.286a.97.97 0 0 1-.306-.708v-25.81c0-2.352 1.724-4.398 4.1-4.865v22.733c0 1.643 1.38 2.979 3.075 2.979 3.763 0 7.187.708 10.177 2.105-2.275.15-4.22.456-6.304.994-.372.096-1.523.437-2.981.87-2.305.682-5.168 1.53-6.773 1.953-.09.023-.18.035-.27.035Z" fill="#61a3ba" fill-rule="evenodd" data-name="Path"/><path d="M189.655 2496.17v-30.419c3.904-2.142 8.387-3.228 13.327-3.228.565 0 1.025.45 1.025 1.003v28.086c0 .553-.46 1.003-1.025 1.003-4.995 0-9.478 1.196-13.325 3.555h-.002Zm-2.05-.001-.002-.002c-3.807-2.357-8.29-3.552-13.324-3.552-.565 0-1.025-.45-1.025-1.003v-28.086c0-.553.46-1.003 1.025-1.003 4.982 0 9.465 1.083 13.326 3.218v30.428Z" fill="#61a3ba" fill-rule="evenodd" data-name="Path"/></g></svg>