<svg width="68" height="68" viewBox="0 0 68 68" fill="none" xmlns="http://www.w3.org/2000/svg">
<g id="bi:house-fill">
<g id="Group">
<path id="Vector" d="M37.0047 6.37502C36.2078 5.57827 35.1269 5.13068 34 5.13068C32.8731 5.13068 31.7922 5.57827 30.9953 6.37502L2.7455 34.6205C2.54793 34.8181 2.3912 35.0526 2.28427 35.3108C2.17735 35.5689 2.12231 35.8456 2.12231 36.125C2.12231 36.4044 2.17735 36.6811 2.28427 36.9392C2.3912 37.1974 2.54793 37.4319 2.7455 37.6295C3.14452 38.0285 3.6857 38.2527 4.25 38.2527C4.52941 38.2527 4.80609 38.1977 5.06423 38.0907C5.32237 37.9838 5.55692 37.8271 5.7545 37.6295L34 9.37977L62.2455 37.6295C62.6445 38.0285 63.1857 38.2527 63.75 38.2527C64.3143 38.2527 64.8555 38.0285 65.2545 37.6295C65.6535 37.2305 65.8777 36.6893 65.8777 36.125C65.8777 35.5607 65.6535 35.0195 65.2545 34.6205L55.25 24.6203V10.625C55.25 10.0614 55.0261 9.52093 54.6276 9.12242C54.2291 8.7239 53.6886 8.50002 53.125 8.50002H48.875C48.3114 8.50002 47.7709 8.7239 47.3724 9.12242C46.9739 9.52093 46.75 10.0614 46.75 10.625V16.1203L37.0047 6.37502Z" fill="#2C2C2C"/>
<path id="Vector_2" d="M34 13.9952L59.5 39.4952V57.375C59.5 59.0657 58.8284 60.6873 57.6328 61.8828C56.4373 63.0783 54.8158 63.75 53.125 63.75H14.875C13.1842 63.75 11.5627 63.0783 10.3672 61.8828C9.17165 60.6873 8.5 59.0657 8.5 57.375V39.4952L34 13.9952Z" fill="#2C2C2C"/>
</g>
</g>
</svg>
