<svg width="71" height="70" viewBox="0 0 71 70" fill="none" xmlns="http://www.w3.org/2000/svg">
<g filter="url(#filter0_d_45_22)">
<rect x="17" y="8" width="34" height="34" rx="8" fill="white"/>
</g>
<rect x="13" y="4" width="41" height="41" rx="7" stroke="white" stroke-opacity="0.2" stroke-width="2"/>
<g clip-path="url(#clip0_45_22)">
<path fill-rule="evenodd" clip-rule="evenodd" d="M37.326 17.28C37.3783 17.1961 37.4542 17.1295 37.5443 17.0888C37.6343 17.048 37.7345 17.0349 37.832 17.051L40.403 17.48C40.5337 17.5018 40.6504 17.5746 40.7275 17.6824C40.8046 17.7903 40.8357 17.9243 40.814 18.055L40.386 20.627C40.3697 20.7245 40.3248 20.815 40.2571 20.887C40.1893 20.959 40.1018 21.0093 40.0055 21.0316C39.9091 21.0538 39.8084 21.047 39.7159 21.012C39.6235 20.9771 39.5435 20.9155 39.486 20.835L38.792 19.865L35.218 22.149C35.0656 22.2465 34.8831 22.2857 34.7041 22.2592C34.5251 22.2327 34.3617 22.1425 34.244 22.005L32.251 19.675L28.524 21.59C28.3471 21.681 28.1413 21.6979 27.9519 21.6372C27.7625 21.5764 27.605 21.4429 27.514 21.266C27.423 21.0891 27.4061 20.8833 27.4668 20.6939C27.5276 20.5045 27.6611 20.347 27.838 20.256L32.093 18.069C32.2432 17.9918 32.4151 17.9676 32.5808 18.0003C32.7465 18.033 32.8963 18.1206 33.006 18.249L34.96 20.534L37.92 18.642L37.343 17.835C37.2856 17.7545 37.2534 17.6589 37.2504 17.5601C37.2473 17.4613 37.2737 17.3638 37.326 17.28ZM30.78 22.19L27.878 23.85C27.7634 23.9155 27.668 24.0101 27.6017 24.1242C27.5353 24.2383 27.5002 24.368 27.5 24.5V30.25C27.5 30.664 27.836 31 28.25 31H30.78V22.19ZM32.03 31H35.698V24.188L34.049 25.012L32.401 22.128C32.3178 21.9813 32.1874 21.8671 32.031 21.804L32.03 31ZM39.75 31H36.948V23.563L39.415 22.329C39.5293 22.2719 39.6564 22.245 39.784 22.2508C39.9117 22.2566 40.0358 22.2949 40.1445 22.3622C40.2532 22.4294 40.3429 22.5233 40.4051 22.6349C40.4673 22.7465 40.5 22.8722 40.5 23V30.25C40.5 30.4489 40.421 30.6397 40.2803 30.7803C40.1397 30.921 39.9489 31 39.75 31Z" fill="#4B4551"/>
</g>
<rect x="38" width="33" height="18" rx="9" fill="#FFF4B9"/>
<path d="M46.192 11V9.448H44.64V8.544H46.192V7H47.096V8.544H48.64V9.448H47.096V11H46.192ZM50.6653 11V5.968H49.5133V5.04H51.7533V11H50.6653ZM52.8758 11V10.176L54.4918 8.488C54.8118 8.152 55.0571 7.88533 55.2278 7.688C55.4038 7.48533 55.5265 7.312 55.5958 7.168C55.6651 7.024 55.6998 6.87733 55.6998 6.728C55.6998 6.47733 55.6198 6.28 55.4598 6.136C55.3051 5.992 55.1051 5.92 54.8598 5.92C54.6038 5.92 54.3825 5.99467 54.1958 6.144C54.0091 6.288 53.8731 6.50133 53.7878 6.784L52.8358 6.488C52.8998 6.17333 53.0305 5.90133 53.2278 5.672C53.4251 5.43733 53.6651 5.25867 53.9478 5.136C54.2358 5.008 54.5398 4.944 54.8598 4.944C55.2438 4.944 55.5798 5.01333 55.8678 5.152C56.1611 5.29067 56.3878 5.48533 56.5478 5.736C56.7131 5.98667 56.7958 6.28 56.7958 6.616C56.7958 6.82933 56.7558 7.04 56.6758 7.248C56.5958 7.456 56.4758 7.66933 56.3158 7.888C56.1558 8.10133 55.9478 8.34133 55.6918 8.608L54.2918 10.08H56.8758V11H52.8758ZM58.5053 11L63.3373 5.04H64.4573L59.6253 11H58.5053ZM59.4333 8.064C59.1399 8.064 58.8733 7.99467 58.6333 7.856C58.3986 7.712 58.2119 7.52267 58.0733 7.288C57.9346 7.05333 57.8653 6.792 57.8653 6.504C57.8653 6.216 57.9346 5.95467 58.0733 5.72C58.2119 5.48 58.3986 5.29067 58.6333 5.152C58.8733 5.01333 59.1399 4.944 59.4333 4.944C59.7319 4.944 59.9986 5.01333 60.2333 5.152C60.4679 5.29067 60.6546 5.48 60.7933 5.72C60.9319 5.95467 61.0013 6.216 61.0013 6.504C61.0013 6.792 60.9319 7.05333 60.7933 7.288C60.6546 7.52267 60.4679 7.712 60.2333 7.856C59.9986 7.99467 59.7319 8.064 59.4333 8.064ZM59.4333 7.256C59.5933 7.256 59.7266 7.22133 59.8333 7.152C59.9399 7.07733 60.0199 6.984 60.0733 6.872C60.1319 6.75467 60.1613 6.632 60.1613 6.504C60.1613 6.37067 60.1319 6.248 60.0733 6.136C60.0199 6.024 59.9399 5.93067 59.8333 5.856C59.7266 5.78133 59.5933 5.744 59.4333 5.744C59.2839 5.744 59.1533 5.78133 59.0413 5.856C58.9346 5.93067 58.8519 6.02667 58.7933 6.144C58.7346 6.256 58.7053 6.376 58.7053 6.504C58.7053 6.62667 58.7346 6.74667 58.7933 6.864C58.8519 6.98133 58.9346 7.07733 59.0413 7.152C59.1533 7.22133 59.2839 7.256 59.4333 7.256ZM63.4973 11.096C63.2039 11.096 62.9373 11.0267 62.6973 10.888C62.4626 10.744 62.2759 10.5547 62.1373 10.32C61.9986 10.0853 61.9293 9.824 61.9293 9.536C61.9293 9.248 61.9986 8.98667 62.1373 8.752C62.2759 8.512 62.4626 8.32267 62.6973 8.184C62.9373 8.04533 63.2039 7.976 63.4973 7.976C63.7959 7.976 64.0626 8.04533 64.2973 8.184C64.5319 8.32267 64.7186 8.512 64.8573 8.752C64.9959 8.98667 65.0653 9.248 65.0653 9.536C65.0653 9.824 64.9959 10.0853 64.8573 10.32C64.7186 10.5547 64.5319 10.744 64.2973 10.888C64.0626 11.0267 63.7959 11.096 63.4973 11.096ZM63.4973 10.288C63.6519 10.288 63.7826 10.2533 63.8893 10.184C64.0013 10.1093 64.0839 10.016 64.1373 9.904C64.1959 9.78667 64.2253 9.664 64.2253 9.536C64.2253 9.40267 64.1959 9.28 64.1373 9.168C64.0839 9.056 64.0013 8.96267 63.8893 8.888C63.7826 8.81333 63.6519 8.776 63.4973 8.776C63.3479 8.776 63.2173 8.81333 63.1053 8.888C62.9986 8.96267 62.9159 9.05867 62.8573 9.176C62.7986 9.288 62.7693 9.408 62.7693 9.536C62.7693 9.65867 62.7986 9.77867 62.8573 9.896C62.9159 10.0133 62.9986 10.1093 63.1053 10.184C63.2173 10.2533 63.3479 10.288 63.4973 10.288Z" fill="#4B4551"/>
<defs>
<filter id="filter0_d_45_22" x="0" y="2" width="68" height="68" filterUnits="userSpaceOnUse" color-interpolation-filters="sRGB">
<feFlood flood-opacity="0" result="BackgroundImageFix"/>
<feColorMatrix in="SourceAlpha" type="matrix" values="0 0 0 0 0 0 0 0 0 0 0 0 0 0 0 0 0 0 127 0" result="hardAlpha"/>
<feOffset dy="11"/>
<feGaussianBlur stdDeviation="8.5"/>
<feComposite in2="hardAlpha" operator="out"/>
<feColorMatrix type="matrix" values="0 0 0 0 0.528671 0 0 0 0 0.349479 0 0 0 0 0.6875 0 0 0 0.2 0"/>
<feBlend mode="normal" in2="BackgroundImageFix" result="effect1_dropShadow_45_22"/>
<feBlend mode="normal" in="SourceGraphic" in2="effect1_dropShadow_45_22" result="shape"/>
</filter>
<clipPath id="clip0_45_22">
<rect width="14" height="14" fill="white" transform="translate(27 17)"/>
</clipPath>
</defs>
</svg>
