<svg width="75" height="139" viewBox="0 0 75 139" fill="none" xmlns="http://www.w3.org/2000/svg">
<g id="Asset 43">
<g id="Clip path group">
<mask id="mask0_365_489" style="mask-type:luminance" maskUnits="userSpaceOnUse" x="0" y="0" width="95" height="158">
<g id="clip0_3_49765">
<path id="Vector" d="M94.4167 0.896973H0.95459V157.76H94.4167V0.896973Z" fill="white"/>
</g>
</mask>
<g mask="url(#mask0_365_489)">
<g id="Asset 43_2">
<g id="Layer 2">
<g id="Layer 1">
<path id="Vector_2" d="M28.5994 126.825V131.618C28.5966 132.458 28.847 133.28 29.3188 133.979C29.7906 134.679 30.4626 135.225 31.2496 135.547C31.7115 135.739 32.2464 135.955 32.83 136.147L33.1217 136.842V140.556C33.1201 141.202 33.3134 141.834 33.6771 142.372C34.0407 142.909 34.5583 143.328 35.1641 143.575L36.2096 143.959V144.869C36.3479 147.883 37.6597 150.727 39.872 152.811C42.0842 154.895 45.0266 156.058 48.0868 156.058C51.147 156.058 54.0896 154.895 56.3016 152.811C58.5141 150.727 59.8258 147.883 59.9642 144.869L60.3532 143.839L61.0581 143.575C61.6639 143.328 62.1817 142.909 62.545 142.372C62.9088 141.834 63.102 141.202 63.1005 140.556V136.866V137.129V136.338L65.1188 135.572C65.9057 135.249 66.5775 134.703 67.0494 134.004C67.5214 133.304 67.7715 132.482 67.769 131.641V126.849L28.5994 126.825Z" fill="#D9E1E4"/>
<path id="Vector_3" d="M48.5126 133.541C41.7622 133.564 35.0558 132.47 28.6726 130.306C28.3824 130.195 28.1489 129.975 28.0235 129.693C27.8982 129.413 27.8911 129.094 28.004 128.808C28.1168 128.522 28.3403 128.292 28.6253 128.168C28.9102 128.045 29.2334 128.038 29.5236 128.149C29.7181 128.149 48.391 135.147 65.751 128.149C65.8949 128.094 66.0479 128.067 66.2018 128.071C66.3563 128.074 66.5083 128.107 66.6492 128.168C66.7906 128.23 66.9179 128.318 67.0245 128.427C67.1312 128.537 67.2147 128.666 67.2706 128.808C67.3264 128.95 67.3536 129.101 67.3501 129.253C67.3466 129.405 67.3129 129.555 67.251 129.693C67.1891 129.833 67.0995 129.958 66.9883 130.063C66.8771 130.168 66.7458 130.251 66.6019 130.306C60.8405 132.524 54.6977 133.623 48.5126 133.541Z" fill="#94B5BF"/>
<path id="Vector_4" d="M62.6139 136.195V136.986V136.722V139.31L62.152 139.478C57.3874 141.202 52.3697 142.15 47.2963 142.282C42.3195 142.179 37.3926 141.281 32.7081 139.622V136.722L32.5622 136.363C37.2399 138.053 42.1694 138.968 47.1504 139.071L62.6139 136.195Z" fill="#94B5BF"/>
<path id="Vector_5" d="M70.6616 123.908V114.634C70.6616 114.634 69.5436 97.4528 77.6397 84.6084C85.7363 71.764 93.0792 63.9998 93.0792 45.764C93.0792 27.5279 77.1295 2.19873 47.6853 2.19873C18.2414 2.19873 2.26733 27.5279 2.26733 45.764C2.26733 63.9998 9.56146 71.7883 17.7308 84.6084C22.5384 92.0651 24.9689 100.771 24.7089 109.602V123.98C24.7018 124.39 24.815 124.794 25.035 125.143C25.2549 125.491 25.5722 125.77 25.9489 125.945C32.7881 128.941 40.189 130.489 47.6732 130.489C55.1572 130.489 62.5585 128.941 69.3976 125.945C69.7901 125.769 70.1207 125.48 70.3461 125.117C70.5711 124.754 70.6813 124.333 70.6616 123.908Z" fill="#FBE481"/>
<path id="Vector_6" opacity="0.5" d="M76.8368 85.1783C72.0294 92.635 69.5991 101.34 69.8587 110.172V124.55C69.8577 124.961 69.7385 125.365 69.5151 125.712C69.2911 126.06 68.9721 126.338 68.5947 126.515C63.5514 128.771 58.1755 130.218 52.6692 130.804C52.6692 129.103 52.5233 127.018 52.4015 124.55V110.172C52.1051 101.346 54.5108 92.637 59.3066 85.1783C67.4032 72.3576 74.7461 64.5934 74.7461 46.3337C74.7461 29.9907 61.9327 7.99246 38.0566 3.58321C40.9572 3.03391 43.9046 2.76107 46.8582 2.76846C76.3266 2.76846 92.2763 28.0976 92.2763 46.4295C92.2763 64.7616 84.9093 72.3576 76.8368 85.1783Z" fill="#F8A547"/>
<path id="Vector_7" d="M76.4483 84.7706C72.834 90.745 70.9582 97.5848 71.0266 104.54C71.0266 108.23 71.0266 110.387 71.0266 110.387L69.3973 124.07C69.3963 124.482 69.2771 124.885 69.0537 125.233C68.8297 125.581 68.5107 125.859 68.1333 126.035C63.1126 128.278 57.7614 129.718 52.2808 130.3C52.2808 130.133 52.2808 130.013 52.2808 129.845C56.6252 129.466 60.8961 128.499 64.9724 126.97C65.7503 126.61 66.1881 127.186 66.1881 126.347V109.74C65.9259 100.919 68.3477 92.2234 73.142 84.7706C81.2381 71.95 88.6297 64.1863 88.6297 45.9261C88.6297 27.666 73.1661 3.29544 44.7191 2.38483C45.327 2.38483 45.9591 2.38483 46.567 2.38483C75.9381 2.33691 91.912 27.666 91.912 45.9021C91.912 64.1382 84.545 71.9262 76.4483 84.7706Z" fill="#FCA100"/>
<path id="Vector_8" d="M17.7308 84.7751C22.5337 92.2254 24.964 100.922 24.7089 109.745V124.123C24.7121 124.537 24.8349 124.942 25.0632 125.29C25.2914 125.638 25.6155 125.915 25.9975 126.088C31.0354 128.321 36.4038 129.745 41.8987 130.305C41.8987 130.138 41.8987 130.018 41.8987 129.85C37.5326 129.121 33.2821 127.832 29.2556 126.016C28.4532 125.657 27.9912 127.19 27.9912 126.351L30.1308 117.198C32.4197 107.03 30.9812 96.3926 26.0704 87.1714C25.6328 86.3809 25.1465 85.5899 24.6359 84.7751C16.5638 71.9307 9.1724 64.167 9.1724 45.9067C9.1724 27.6468 21.0132 3.30008 49.5818 2.38947C48.9982 2.38947 48.3661 2.38947 47.734 2.38947C40.9582 2.2914 34.2499 3.72669 28.1253 6.5849C22.0007 9.44311 16.623 13.6481 12.4061 18.8762C6.09729 26.5394 2.53312 36.0417 2.26733 45.9067C2.26733 64.167 9.63437 71.9307 17.7308 84.7751Z" fill="white"/>
<path id="Vector_9" d="M12.6738 78.1782C12.4511 78.1802 12.2316 78.1261 12.036 78.021C11.8403 77.9164 11.6749 77.7641 11.5553 77.5791C5.54988 68.4492 0.95459 60.3016 0.95459 45.7559C1.12183 38.3359 3.17855 31.0763 6.93578 24.6443C7.02182 24.4931 7.13725 24.3601 7.27552 24.2529C7.4138 24.1457 7.5722 24.0665 7.74157 24.0198C7.91099 23.973 8.08805 23.9597 8.26271 23.9805C8.43731 24.0013 8.60607 24.0559 8.75929 24.1411C8.90984 24.2255 9.04193 24.3386 9.14795 24.4736C9.25396 24.6087 9.33186 24.7631 9.37704 24.9279C9.42223 25.0927 9.4339 25.2648 9.41136 25.4341C9.38877 25.6034 9.33241 25.7666 9.24556 25.9143C5.70872 31.9581 3.7691 38.7808 3.60478 45.7559C3.60478 59.6068 7.81105 67.1072 13.7679 76.1653C13.8661 76.3071 13.9341 76.4673 13.9678 76.6359C14.0014 76.8045 14 76.9781 13.9636 77.1457C13.9273 77.3138 13.8567 77.473 13.7562 77.6134C13.6557 77.7537 13.5273 77.8722 13.3789 77.9625C13.1708 78.1018 12.9253 78.1772 12.6738 78.1782Z" fill="#3E3126"/>
<path id="Vector_10" d="M70.7832 105.715C70.437 105.679 70.1185 105.511 69.8961 105.247C69.6737 104.983 69.5645 104.643 69.5916 104.301C69.7894 102.367 70.1059 100.446 70.5401 98.5504C71.7221 93.3655 73.7856 88.4152 76.6427 83.9087C77.883 81.9434 79.074 80.0747 80.3143 78.277C86.7817 68.5241 91.8874 60.8081 91.8874 45.7591C91.8874 28.0502 76.5697 3.51187 47.8067 3.51187C37.0568 3.35177 26.6431 7.20384 18.6546 14.2953C18.5311 14.4383 18.3781 14.5536 18.2057 14.6336C18.0334 14.7135 17.8457 14.7563 17.6552 14.7589C17.4647 14.7616 17.2759 14.7241 17.1013 14.649C16.9267 14.5739 16.7704 14.4629 16.6429 14.3234C16.5154 14.1839 16.4195 14.0192 16.3618 13.8403C16.3042 13.6614 16.2859 13.4724 16.3083 13.286C16.3307 13.0995 16.3933 12.92 16.4918 12.7593C16.5904 12.5986 16.7226 12.4605 16.8797 12.3543C25.3256 4.86092 36.3219 0.77213 47.6851 0.899878C78.1743 0.899878 94.4159 26.9479 94.4159 45.7591C94.4159 61.5986 88.8482 69.9861 82.405 79.6909C81.2382 81.4881 79.9737 83.3334 78.758 85.2983C76.067 89.5662 74.1192 94.2477 72.9956 99.1495C72.5855 100.934 72.2932 102.743 72.1206 104.565C72.0788 104.885 71.9198 105.178 71.6733 105.39C71.4267 105.602 71.1102 105.718 70.7832 105.715Z" fill="#3E3126"/>
<path id="Vector_11" d="M47.9537 131.762C40.1839 131.73 32.5067 130.098 25.4149 126.969C24.8033 126.696 24.285 126.254 23.9225 125.697C23.5601 125.14 23.3691 124.492 23.3725 123.83V113.046C23.4161 112.73 23.5743 112.441 23.818 112.231C24.0616 112.021 24.3742 111.906 24.6977 111.906C25.0212 111.906 25.3337 112.021 25.5773 112.231C25.821 112.441 25.9793 112.73 26.0228 113.046V123.83C26.0239 123.989 26.0699 124.146 26.1558 124.281C26.2416 124.416 26.3639 124.526 26.509 124.597C33.17 127.523 40.3812 129.036 47.6741 129.036C54.967 129.036 62.178 127.523 68.8391 124.597C68.9905 124.531 69.1198 124.424 69.2104 124.288C69.301 124.152 69.3493 123.993 69.3498 123.83V107.99C69.3498 107.645 69.4871 107.313 69.7327 107.066C69.9782 106.82 70.3124 106.679 70.6626 106.672C71.0173 106.672 71.3574 106.811 71.608 107.058C71.8591 107.305 72 107.641 72 107.99V123.902C71.994 124.568 71.7967 125.218 71.4309 125.778C71.0651 126.338 70.5458 126.784 69.9335 127.065C63.0334 130.166 55.5371 131.767 47.9537 131.762Z" fill="#3E3126"/>
<path id="Vector_12" d="M23.9552 101.542C23.6494 101.542 23.3534 101.436 23.1181 101.244C22.8828 101.051 22.7231 100.784 22.6665 100.488C21.9418 96.8112 20.7576 93.2376 19.141 89.8484C19.0672 89.6942 19.0249 89.5271 19.0167 89.357C19.0085 89.1864 19.0346 89.0163 19.0933 88.8561C19.152 88.6959 19.2424 88.5486 19.359 88.4226C19.4757 88.2967 19.6165 88.195 19.7732 88.1231C20.0926 87.9748 20.4584 87.9575 20.7909 88.074C21.1233 88.1905 21.3956 88.4321 21.5481 88.746C23.2622 92.3399 24.512 96.1318 25.2681 100.033C25.3326 100.372 25.2592 100.724 25.0637 101.01C24.8681 101.297 24.5661 101.497 24.2226 101.566L23.9552 101.542Z" fill="#3E3126"/>
<path id="Vector_13" d="M77.6099 63.4548C78.6746 60.6117 77.8735 57.7016 75.8201 56.9543C73.7666 56.2074 71.2387 57.9069 70.1739 60.7501C69.1092 63.5932 69.9103 66.5033 71.9637 67.2507C74.0172 67.9975 76.5452 66.2985 77.6099 63.4548Z" fill="#FFB320"/>
<path id="Vector_15" opacity="0.75" d="M71.9011 54.3163C72.4385 54.3163 72.8737 53.8873 72.8737 53.3577C72.8737 52.8285 72.4385 52.3995 71.9011 52.3995C71.3642 52.3995 70.929 52.8285 70.929 53.3577C70.929 53.8873 71.3642 54.3163 71.9011 54.3163Z" fill="#FFB320"/>
<path id="Vector_16" d="M67.9141 67.3466C68.8007 67.3466 69.5188 66.6384 69.5188 65.7651C69.5188 64.8913 68.8007 64.1831 67.9141 64.1831C67.0281 64.1831 66.3095 64.8913 66.3095 65.7651C66.3095 66.6384 67.0281 67.3466 67.9141 67.3466Z" fill="#FFB320"/>
<path id="Vector_17" opacity="0.35" d="M76.1817 46.0237C77.1755 46.0237 77.9805 45.2297 77.9805 44.2504C77.9805 43.271 77.1755 42.4771 76.1817 42.4771C75.1879 42.4771 74.3823 43.271 74.3823 44.2504C74.3823 45.2297 75.1879 46.0237 76.1817 46.0237Z" fill="#FFB320"/>
<path id="Vector_18" opacity="0.35" d="M70.3464 49.2314C71.1922 49.2314 71.878 48.5555 71.878 47.7217C71.878 46.8879 71.1922 46.212 70.3464 46.212C69.5 46.212 68.8142 46.8879 68.8142 47.7217C68.8142 48.5555 69.5 49.2314 70.3464 49.2314Z" fill="#FFB320"/>
<path id="Vector_19" opacity="0.35" d="M66.5772 58.2445C67.2892 58.2445 67.8658 57.6756 67.8658 56.9744C67.8658 56.2727 67.2892 55.7043 66.5772 55.7043C65.8657 55.7043 65.2886 56.2727 65.2886 56.9744C65.2886 57.6756 65.8657 58.2445 66.5772 58.2445Z" fill="#FFB320"/>
<path id="Vector_20" opacity="0.75" d="M62.5165 32.3661C63.0539 32.3661 63.4892 31.9369 63.4892 31.4075C63.4892 30.8781 63.0539 30.449 62.5165 30.449C61.9796 30.449 61.5444 30.8781 61.5444 31.4075C61.5444 31.9369 61.9796 32.3661 62.5165 32.3661Z" fill="#E2AB63"/>
<path id="Vector_21" opacity="0.35" d="M58.2368 24.0732C59.2306 24.0732 60.0362 23.2792 60.0362 22.2999C60.0362 21.3205 59.2306 20.5266 58.2368 20.5266C57.2436 20.5266 56.438 21.3205 56.438 22.2999C56.438 23.2792 57.2436 24.0732 58.2368 24.0732Z" fill="#E2AB63"/>
<path id="Vector_22" opacity="0.35" d="M57.1434 30.4714C57.9892 30.4714 58.675 29.7955 58.675 28.9617C58.675 28.1279 57.9892 27.452 57.1434 27.452C56.2975 27.452 55.6117 28.1279 55.6117 28.9617C55.6117 29.7955 56.2975 30.4714 57.1434 30.4714Z" fill="#E2AB63"/>
<path id="Vector_23" opacity="0.35" d="M61.8839 39.0255C62.5958 39.0255 63.1725 38.4569 63.1725 37.7554C63.1725 37.054 62.5958 36.4854 61.8839 36.4854C61.1724 36.4854 60.5952 37.054 60.5952 37.7554C60.5952 38.4569 61.1724 39.0255 61.8839 39.0255Z" fill="#E2AB63"/>
<path id="Vector_24" d="M50.7735 130.157C50.6373 130.157 50.5025 130.13 50.377 130.078C50.2515 130.026 50.1378 129.949 50.0426 129.854C49.9475 129.757 49.8728 129.644 49.8229 129.519C49.773 129.394 49.749 129.261 49.7523 129.126V92.5105H44.5492V128.719C44.5112 128.962 44.3861 129.184 44.1966 129.344C44.007 129.504 43.7656 129.593 43.5158 129.593C43.2661 129.593 43.0246 129.504 42.835 129.344C42.6455 129.184 42.5205 128.962 42.4825 128.719V92.5105H37.4252C35.5552 92.5105 33.7618 91.7785 32.4395 90.4752C31.1171 89.172 30.3743 87.404 30.3743 85.5611V84.2673C30.3743 82.4239 31.1171 80.6564 32.4395 79.3531C33.7618 78.0499 35.5552 77.3179 37.4252 77.3179C39.2953 77.3179 41.0887 78.0499 42.411 79.3531C43.7334 80.6564 44.4762 82.4239 44.4762 84.2673V90.4738H49.6793V84.2673C49.7851 82.4914 50.5753 80.8226 51.8882 79.6026C53.201 78.3821 54.938 77.7022 56.7424 77.7022C58.5473 77.7022 60.2838 78.3821 61.5965 79.6026C62.9098 80.8226 63.6998 82.4914 63.8055 84.2673V85.5611C63.7994 87.3817 63.0714 89.1278 61.7767 90.4266C60.482 91.725 58.7229 92.4728 56.8762 92.5105H52.0135V129.126C52.0161 129.279 51.9844 129.431 51.9199 129.57C51.8555 129.71 51.7609 129.833 51.6422 129.932C51.5234 130.031 51.3836 130.102 51.2336 130.141C51.0832 130.18 50.9261 130.185 50.7735 130.157ZM51.8188 90.4738H56.6815C57.3417 90.4797 57.9958 90.3577 58.6077 90.1137C59.2195 89.8702 59.776 89.5097 60.246 89.0534C60.716 88.5967 61.0898 88.0532 61.346 87.4541C61.6021 86.8545 61.7359 86.2113 61.7389 85.5611V84.2673C61.6509 83.0205 61.0858 81.8531 60.1585 81.0006C59.2311 80.1486 58.0104 79.6745 56.7424 79.6745C55.4744 79.6745 54.2537 80.1486 53.3263 81.0006C52.399 81.8531 51.8344 83.0205 51.7458 84.2673L51.8188 90.4738ZM37.4252 79.3546C36.1453 79.3849 34.9263 79.8997 34.0209 80.7918C33.1156 81.6845 32.5933 82.8856 32.5625 84.1473V85.4411C32.5621 86.7236 33.0705 87.9555 33.9791 88.8734C34.8877 89.7914 36.1245 90.3225 37.4252 90.3537H42.288V84.2673C42.2883 82.9848 41.7799 81.7529 40.8713 80.835C39.9628 79.917 38.7259 79.3859 37.4252 79.3546Z" fill="#3E3126"/>
<path id="Vector_25" d="M73.8209 36.4112C77.4458 35.4786 79.3865 30.9543 78.1552 26.306C76.9245 21.6576 72.9876 18.6454 69.3627 19.5779C65.7378 20.5106 63.7971 25.0349 65.0284 29.6833C66.2596 34.3316 70.196 37.3438 73.8209 36.4112Z" fill="#FFB320"/>
<path id="Vector_26" d="M39.0784 138.158H38.8353C36.1639 137.57 33.5456 136.769 31.0063 135.762C30.0268 135.437 29.2016 134.771 28.6865 133.888C28.1714 133.005 28.002 131.967 28.2102 130.969C28.247 130.666 28.402 130.389 28.6426 130.196C28.8832 130.004 29.1903 129.912 29.4989 129.939C29.6514 129.951 29.7999 129.992 29.9357 130.062C30.0714 130.132 30.1916 130.228 30.2892 130.344C30.3866 130.46 30.4595 130.594 30.5033 130.739C30.5471 130.883 30.5611 131.035 30.5444 131.185C30.3498 133.102 31.6871 133.581 31.76 133.581C34.2235 134.5 36.7504 135.245 39.3216 135.81C39.6267 135.879 39.8921 136.063 40.0605 136.323C40.2289 136.583 40.2866 136.898 40.2212 137.2C40.1755 137.467 40.0358 137.709 39.8269 137.884C39.6179 138.059 39.3529 138.156 39.0784 138.158Z" fill="white"/>
<path id="Vector_27" d="M40.2943 139.499H40.0998C36.7678 138.889 33.5086 137.942 30.3743 136.672C29.4073 136.282 28.5792 135.619 27.9949 134.766C27.4106 133.913 27.0963 132.908 27.0919 131.879V127.086C27.069 126.939 27.0786 126.789 27.12 126.647C27.1614 126.504 27.2336 126.371 27.3318 126.259C27.4299 126.146 27.5517 126.055 27.6886 125.993C27.8256 125.931 27.9745 125.899 28.1253 125.899C28.276 125.899 28.425 125.931 28.5619 125.993C28.6989 126.055 28.8206 126.146 28.9188 126.259C29.0169 126.371 29.0892 126.504 29.1306 126.647C29.172 126.789 29.1815 126.939 29.1586 127.086V131.879C29.1546 132.516 29.3417 133.14 29.6964 133.673C30.0511 134.206 30.5576 134.624 31.1523 134.874C34.173 136.036 37.2993 136.911 40.4888 137.486C40.6216 137.509 40.7484 137.558 40.8619 137.63C40.9754 137.701 41.0734 137.794 41.1503 137.904C41.2271 138.013 41.2813 138.136 41.3097 138.266C41.338 138.395 41.34 138.53 41.3155 138.66C41.2704 138.895 41.1438 139.107 40.9575 139.26C40.7712 139.413 40.5368 139.498 40.2943 139.499Z" fill="#3E3126"/>
<path id="Vector_28" d="M47.1504 140.245C46.9035 140.208 46.6785 140.084 46.5158 139.897C46.3533 139.711 46.2639 139.473 46.2639 139.226C46.2639 138.98 46.3533 138.742 46.5158 138.556C46.6785 138.369 46.9035 138.245 47.1504 138.208C52.9914 138.129 58.7654 136.966 64.17 134.781C64.7693 134.535 65.281 134.119 65.6403 133.585C65.9996 133.052 66.1898 132.426 66.1882 131.786V126.993C66.1651 126.846 66.1747 126.696 66.2159 126.553C66.2577 126.41 66.3296 126.278 66.4278 126.165C66.5259 126.053 66.6476 125.962 66.7845 125.9C66.9219 125.838 67.0708 125.806 67.2213 125.806C67.3722 125.806 67.5212 125.838 67.658 125.9C67.7949 125.962 67.9167 126.053 68.0148 126.165C68.1129 126.278 68.1854 126.41 68.2266 126.553C68.2679 126.696 68.2774 126.846 68.2548 126.993V131.786C68.2483 132.818 67.9303 133.825 67.3415 134.678C66.7528 135.531 65.9196 136.193 64.9479 136.578C59.3053 138.902 53.2652 140.146 47.1504 140.245Z" fill="#3E3126"/>
<path id="Vector_29" d="M48.0264 147.433C43.3209 147.366 38.6697 146.431 34.3134 144.677C33.5181 144.349 32.8393 143.796 32.3631 143.088C31.887 142.38 31.6349 141.548 31.6389 140.699V137.008C31.616 136.861 31.6256 136.712 31.667 136.569C31.7084 136.426 31.7806 136.294 31.8788 136.181C31.9769 136.068 32.0986 135.978 32.2356 135.915C32.3726 135.853 32.5215 135.821 32.6723 135.821C32.823 135.821 32.972 135.853 33.1089 135.915C33.2459 135.978 33.3676 136.068 33.4658 136.181C33.5639 136.294 33.6362 136.426 33.6776 136.569C33.719 136.712 33.7285 136.861 33.7056 137.008V140.699C33.6996 141.143 33.8283 141.579 34.0752 141.95C34.3221 142.322 34.676 142.612 35.0915 142.783C39.1981 144.448 43.5864 145.334 48.0264 145.395C48.1754 145.373 48.3275 145.382 48.4725 145.423C48.6174 145.464 48.7517 145.535 48.8661 145.632C48.9805 145.729 49.0723 145.849 49.1353 145.984C49.1983 146.118 49.2308 146.265 49.2308 146.414C49.2308 146.563 49.1983 146.71 49.1353 146.844C49.0723 146.979 48.9805 147.099 48.8661 147.196C48.7517 147.293 48.6174 147.364 48.4725 147.405C48.3275 147.446 48.1754 147.455 48.0264 147.433Z" fill="#3E3126"/>
<path id="Vector_30" d="M47.3447 147.433C47.1957 147.455 47.0435 147.446 46.8986 147.405C46.7536 147.364 46.6194 147.293 46.505 147.196C46.3906 147.099 46.2988 146.979 46.2358 146.844C46.1728 146.71 46.1403 146.563 46.1403 146.414C46.1403 146.265 46.1728 146.118 46.2358 145.984C46.2988 145.849 46.3906 145.729 46.505 145.632C46.6194 145.535 46.7536 145.464 46.8986 145.423C47.0435 145.382 47.1957 145.373 47.3447 145.395C51.7771 145.335 56.1573 144.449 60.2551 142.783C60.6728 142.614 61.0285 142.325 61.2761 141.953C61.5231 141.581 61.6504 141.143 61.6414 140.699V137.008C61.6182 136.861 61.6278 136.712 61.6691 136.569C61.7108 136.426 61.7828 136.294 61.8809 136.181C61.979 136.068 62.1008 135.978 62.2376 135.915C62.375 135.853 62.524 135.821 62.6744 135.821C62.8254 135.821 62.9743 135.853 63.1112 135.915C63.248 135.978 63.3698 136.068 63.4679 136.181C63.566 136.294 63.6385 136.426 63.6798 136.569C63.721 136.712 63.7306 136.861 63.7079 137.008V140.699C63.7104 141.545 63.4609 142.373 62.9899 143.08C62.5184 143.788 61.8467 144.343 61.0577 144.677C56.7012 146.431 52.0503 147.366 47.3447 147.433Z" fill="#3E3126"/>
<path id="Vector_32" d="M18.3383 86.8768C19.144 86.8768 19.7971 86.2331 19.7971 85.4392C19.7971 84.6447 19.144 84.001 18.3383 84.001C17.5326 84.001 16.8795 84.6447 16.8795 85.4392C16.8795 86.2331 17.5326 86.8768 18.3383 86.8768Z" fill="#3E3126"/>
<path id="Vector_33" d="M24.7087 106.795C25.5144 106.795 26.1675 106.151 26.1675 105.357C26.1675 104.563 25.5144 103.919 24.7087 103.919C23.903 103.919 23.2499 104.563 23.2499 105.357C23.2499 106.151 23.903 106.795 24.7087 106.795Z" fill="#3E3126"/>
<path id="Vector_34" d="M10.6797 23.3265C11.4854 23.3265 12.1386 22.6828 12.1386 21.8887C12.1386 21.0946 11.4854 20.4509 10.6797 20.4509C9.87401 20.4509 9.22089 21.0946 9.22089 21.8887C9.22089 22.6828 9.87401 23.3265 10.6797 23.3265Z" fill="#3E3126"/>
<path id="Vector_35" d="M13.574 57.7869H13.3066C13.217 57.7527 13.1352 57.7011 13.0659 57.6356C12.9966 57.5697 12.9412 57.4913 12.9027 57.4045C12.8643 57.3177 12.8437 57.224 12.8421 57.1293C12.8404 57.0346 12.8578 56.9408 12.8932 56.8526L16.8807 47.5069C16.919 47.4188 16.9745 47.339 17.0442 47.272C17.1138 47.2051 17.1961 47.1522 17.2864 47.1166C17.3767 47.081 17.4732 47.0633 17.5705 47.0645C17.6678 47.0657 17.7638 47.0857 17.8532 47.1235C17.9426 47.1612 18.0236 47.216 18.0915 47.2846C18.1595 47.3532 18.213 47.4343 18.2492 47.5233C18.2853 47.6123 18.3033 47.7075 18.3021 47.8033C18.3009 47.8992 18.2806 47.9939 18.2422 48.082L14.2548 57.3316C14.201 57.4665 14.1072 57.5821 13.9858 57.6629C13.8643 57.7442 13.7208 57.7874 13.574 57.7869Z" fill="#3E3126"/>
<path id="Vector_36" d="M18.8983 53.2798H18.6308C18.5413 53.2455 18.4595 53.194 18.3902 53.1285C18.3209 53.0626 18.2654 52.9842 18.227 52.8974C18.1886 52.8106 18.168 52.7169 18.1664 52.6222C18.1648 52.5274 18.1821 52.4337 18.2175 52.3454L20.4057 47.2652C20.4403 47.177 20.4926 47.0966 20.5598 47.029C20.6269 46.9614 20.7073 46.9081 20.7961 46.8722C20.8848 46.8363 20.9801 46.8186 21.076 46.8203C21.1719 46.8219 21.2665 46.8429 21.354 46.8818C21.4435 46.9158 21.5251 46.9675 21.5937 47.0336C21.6622 47.0998 21.7163 47.179 21.7528 47.2665C21.7892 47.354 21.8071 47.4479 21.8054 47.5424C21.8037 47.637 21.7825 47.7302 21.743 47.8164L19.6034 52.8245C19.5481 52.9634 19.4506 53.0814 19.3243 53.1627C19.198 53.2446 19.0492 53.2852 18.8983 53.2798Z" fill="#3E3126"/>
<path id="Vector_37" d="M24.5659 38.1621C26.9712 34.7651 27.0287 30.7097 24.6942 29.1039C22.3597 27.4982 18.5173 28.9504 16.1119 32.3474C13.7067 35.7444 13.6492 39.7998 15.9837 41.4055C18.3182 43.0112 22.1606 41.5591 24.5659 38.1621Z" fill="#FFEFAE"/>
<path id="Vector_38" d="M34.704 28.6617C35.9029 26.9686 35.9285 24.9453 34.7613 24.1425C33.594 23.3396 31.6759 24.0613 30.4771 25.7543C29.2783 27.4474 29.2527 29.4707 30.4199 30.2736C31.5872 31.0764 33.5052 30.3548 34.704 28.6617Z" fill="#FFEFAE"/>
</g>
</g>
</g>
</g>
</g>
</g>
</svg>
