<svg width="136" height="108" viewBox="0 0 136 108" fill="none" xmlns="http://www.w3.org/2000/svg">
<g filter="url(#filter0_d_45_45)">
<circle cx="50" cy="50" r="30" fill="white"/>
</g>
<circle cx="50" cy="50" r="38" stroke="white" stroke-opacity="0.2" stroke-width="2"/>
<circle cx="50" cy="50" r="43" stroke="white" stroke-opacity="0.15" stroke-width="2"/>
<circle cx="49.5" cy="49.5" r="48.5" stroke="white" stroke-opacity="0.1" stroke-width="2"/>
<path d="M38 49.9972C38.0006 47.3664 38.8658 44.8086 40.4624 42.7176C42.059 40.6265 44.2985 39.1182 46.8363 38.4245C49.3741 37.7309 52.0695 37.8906 54.5077 38.8788C56.9459 39.8671 58.9918 41.6293 60.3304 43.8941C61.6691 46.159 62.2263 48.801 61.9164 51.4136C61.6065 54.0261 60.4466 56.4644 58.6153 58.3533C56.7839 60.2421 54.3825 61.4767 51.7808 61.8671C49.1791 62.2575 46.5211 61.7821 44.216 60.514L39.5504 61.9348C39.3423 61.9982 39.1209 62.0039 38.9098 61.9511C38.6988 61.8984 38.506 61.7893 38.3522 61.6354C38.1984 61.4816 38.0893 61.2889 38.0365 61.0778C37.9838 60.8668 37.9894 60.6453 38.0528 60.4372L39.4736 55.7644C38.5058 53.9963 37.999 52.0129 38 49.9972ZM45.2 48.7972C45.2 49.1155 45.3264 49.4207 45.5515 49.6458C45.7765 49.8708 46.0817 49.9972 46.4 49.9972H53.6C53.9182 49.9972 54.2235 49.8708 54.4485 49.6458C54.6736 49.4207 54.8 49.1155 54.8 48.7972C54.8 48.479 54.6736 48.1738 54.4485 47.9487C54.2235 47.7237 53.9182 47.5973 53.6 47.5973H46.4C46.0817 47.5973 45.7765 47.7237 45.5515 47.9487C45.3264 48.1738 45.2 48.479 45.2 48.7972ZM46.4 52.3972C46.0817 52.3972 45.7765 52.5237 45.5515 52.7487C45.3264 52.9738 45.2 53.279 45.2 53.5972C45.2 53.9155 45.3264 54.2207 45.5515 54.4458C45.7765 54.6708 46.0817 54.7972 46.4 54.7972H51.2C51.5183 54.7972 51.8235 54.6708 52.0485 54.4458C52.2736 54.2207 52.4 53.9155 52.4 53.5972C52.4 53.279 52.2736 52.9738 52.0485 52.7487C51.8235 52.5237 51.5183 52.3972 51.2 52.3972H46.4Z" fill="#4B4551"/>
<rect x="64" y="11" width="72" height="18" rx="9" fill="#FFF4B9"/>
<path d="M69.688 22L68.088 16.04H69.256L70.512 21.12H70.208L71.52 16.04H72.648L73.952 21.12H73.648L74.904 16.04H76.072L74.472 22H73.224L71.904 17.056H72.256L70.936 22H69.688ZM76.3239 22V17.648H77.3079V18.616L77.2279 18.472C77.3293 18.1467 77.4866 17.92 77.6999 17.792C77.9186 17.664 78.1799 17.6 78.4839 17.6H78.7399V18.528H78.3639C78.0653 18.528 77.8253 18.6213 77.6439 18.808C77.4626 18.9893 77.3719 19.2453 77.3719 19.576V22H76.3239ZM79.3161 22V17.648H80.3641V22H79.3161ZM79.3161 17.16V16.04H80.3641V17.16H79.3161ZM83.3158 22.048C82.8251 22.048 82.4438 21.9147 82.1718 21.648C81.9051 21.376 81.7718 20.9947 81.7718 20.504V18.584H81.0198V17.648H81.0998C81.3131 17.648 81.4784 17.592 81.5958 17.48C81.7131 17.368 81.7718 17.2053 81.7718 16.992V16.656H82.8198V17.648H83.8198V18.584H82.8198V20.448C82.8198 20.592 82.8438 20.7147 82.8918 20.816C82.9451 20.9173 83.0251 20.9947 83.1318 21.048C83.2438 21.1013 83.3851 21.128 83.5558 21.128C83.5931 21.128 83.6358 21.1253 83.6838 21.12C83.7371 21.1147 83.7878 21.1093 83.8358 21.104V22C83.7611 22.0107 83.6758 22.0213 83.5798 22.032C83.4838 22.0427 83.3958 22.048 83.3158 22.048ZM84.6364 22V17.648H85.6844V22H84.6364ZM84.6364 17.16V16.04H85.6844V17.16H84.6364ZM86.6521 22V17.648H87.6361V18.504L87.5561 18.352C87.6574 18.0907 87.8227 17.8933 88.0521 17.76C88.2867 17.6213 88.5587 17.552 88.8681 17.552C89.1881 17.552 89.4707 17.6213 89.7161 17.76C89.9667 17.8987 90.1614 18.0933 90.3001 18.344C90.4387 18.5893 90.5081 18.8747 90.5081 19.2V22H89.4601V19.448C89.4601 19.256 89.4227 19.0907 89.3481 18.952C89.2734 18.8133 89.1694 18.7067 89.0361 18.632C88.9081 18.552 88.7561 18.512 88.5801 18.512C88.4094 18.512 88.2574 18.552 88.1241 18.632C87.9907 18.7067 87.8867 18.8133 87.8121 18.952C87.7374 19.0907 87.7001 19.256 87.7001 19.448V22H86.6521ZM93.5063 23.76C93.1809 23.76 92.8796 23.7067 92.6023 23.6C92.3249 23.4933 92.0849 23.344 91.8823 23.152C91.6849 22.9653 91.5409 22.744 91.4503 22.488L92.4263 22.12C92.4903 22.3227 92.6156 22.4853 92.8023 22.608C92.9943 22.736 93.2289 22.8 93.5063 22.8C93.7196 22.8 93.9063 22.76 94.0663 22.68C94.2316 22.6 94.3596 22.4827 94.4503 22.328C94.5409 22.1787 94.5863 21.9973 94.5863 21.784V20.792L94.7863 21.032C94.6369 21.2933 94.4369 21.4907 94.1863 21.624C93.9356 21.7573 93.6503 21.824 93.3303 21.824C92.9249 21.824 92.5623 21.7307 92.2423 21.544C91.9223 21.3573 91.6716 21.1013 91.4903 20.776C91.3089 20.4507 91.2183 20.0853 91.2183 19.68C91.2183 19.2693 91.3089 18.904 91.4903 18.584C91.6716 18.264 91.9196 18.0133 92.2343 17.832C92.5489 17.6453 92.9063 17.552 93.3063 17.552C93.6316 17.552 93.9169 17.6213 94.1623 17.76C94.4129 17.8933 94.6209 18.088 94.7863 18.344L94.6423 18.608V17.648H95.6343V21.784C95.6343 22.1627 95.5409 22.5013 95.3543 22.8C95.1729 23.0987 94.9223 23.3333 94.6023 23.504C94.2876 23.6747 93.9223 23.76 93.5063 23.76ZM93.4583 20.856C93.6823 20.856 93.8769 20.808 94.0423 20.712C94.2129 20.6107 94.3463 20.472 94.4423 20.296C94.5383 20.12 94.5863 19.9173 94.5863 19.688C94.5863 19.464 94.5356 19.264 94.4343 19.088C94.3383 18.9067 94.2049 18.7653 94.0343 18.664C93.8689 18.5627 93.6769 18.512 93.4583 18.512C93.2396 18.512 93.0423 18.5627 92.8663 18.664C92.6903 18.7653 92.5516 18.9067 92.4503 19.088C92.3543 19.264 92.3063 19.464 92.3063 19.688C92.3063 19.912 92.3543 20.112 92.4503 20.288C92.5516 20.464 92.6876 20.6027 92.8583 20.704C93.0343 20.8053 93.2343 20.856 93.4583 20.856ZM98.0349 22V17.648H99.0189V18.616L98.9389 18.472C99.0402 18.1467 99.1975 17.92 99.4109 17.792C99.6295 17.664 99.8909 17.6 100.195 17.6H100.451V18.528H100.075C99.7762 18.528 99.5362 18.6213 99.3549 18.808C99.1735 18.9893 99.0829 19.2453 99.0829 19.576V22H98.0349ZM103.091 22.096C102.643 22.096 102.251 21.9947 101.915 21.792C101.579 21.5893 101.318 21.3147 101.131 20.968C100.944 20.6213 100.851 20.2373 100.851 19.816C100.851 19.3787 100.944 18.992 101.131 18.656C101.323 18.3147 101.582 18.0453 101.907 17.848C102.238 17.6507 102.606 17.552 103.011 17.552C103.352 17.552 103.651 17.608 103.907 17.72C104.168 17.832 104.39 17.9867 104.571 18.184C104.752 18.3813 104.891 18.608 104.987 18.864C105.083 19.1147 105.131 19.3867 105.131 19.68C105.131 19.7547 105.126 19.832 105.115 19.912C105.11 19.992 105.096 20.0613 105.075 20.12H101.715V19.32H104.483L103.987 19.696C104.035 19.4507 104.022 19.232 103.947 19.04C103.878 18.848 103.76 18.696 103.595 18.584C103.435 18.472 103.24 18.416 103.011 18.416C102.792 18.416 102.598 18.472 102.427 18.584C102.256 18.6907 102.126 18.8507 102.035 19.064C101.95 19.272 101.918 19.5253 101.939 19.824C101.918 20.0907 101.952 20.328 102.043 20.536C102.139 20.7387 102.278 20.896 102.459 21.008C102.646 21.12 102.859 21.176 103.099 21.176C103.339 21.176 103.542 21.1253 103.707 21.024C103.878 20.9227 104.011 20.7867 104.107 20.616L104.955 21.032C104.87 21.24 104.736 21.424 104.555 21.584C104.374 21.744 104.158 21.8693 103.907 21.96C103.662 22.0507 103.39 22.096 103.091 22.096ZM107.159 22L105.447 17.648H106.591L107.831 21.072H107.407L108.655 17.648H109.799L108.087 22H107.159ZM110.379 22V17.648H111.427V22H110.379ZM110.379 17.16V16.04H111.427V17.16H110.379ZM114.458 22.096C114.01 22.096 113.618 21.9947 113.282 21.792C112.946 21.5893 112.685 21.3147 112.498 20.968C112.312 20.6213 112.218 20.2373 112.218 19.816C112.218 19.3787 112.312 18.992 112.498 18.656C112.69 18.3147 112.949 18.0453 113.274 17.848C113.605 17.6507 113.973 17.552 114.378 17.552C114.72 17.552 115.018 17.608 115.274 17.72C115.536 17.832 115.757 17.9867 115.938 18.184C116.12 18.3813 116.258 18.608 116.354 18.864C116.45 19.1147 116.498 19.3867 116.498 19.68C116.498 19.7547 116.493 19.832 116.482 19.912C116.477 19.992 116.464 20.0613 116.442 20.12H113.082V19.32H115.85L115.354 19.696C115.402 19.4507 115.389 19.232 115.314 19.04C115.245 18.848 115.128 18.696 114.962 18.584C114.802 18.472 114.608 18.416 114.378 18.416C114.16 18.416 113.965 18.472 113.794 18.584C113.624 18.6907 113.493 18.8507 113.402 19.064C113.317 19.272 113.285 19.5253 113.306 19.824C113.285 20.0907 113.32 20.328 113.41 20.536C113.506 20.7387 113.645 20.896 113.826 21.008C114.013 21.12 114.226 21.176 114.466 21.176C114.706 21.176 114.909 21.1253 115.074 21.024C115.245 20.9227 115.378 20.7867 115.474 20.616L116.322 21.032C116.237 21.24 116.104 21.424 115.922 21.584C115.741 21.744 115.525 21.8693 115.274 21.96C115.029 22.0507 114.757 22.096 114.458 22.096ZM118.389 22L116.893 17.648H117.997L119.093 20.952L118.709 20.944L119.877 17.648H120.805L121.965 20.944L121.581 20.952L122.677 17.648H123.781L122.285 22H121.349L120.165 18.552H120.517L119.317 22H118.389ZM124.531 22V20.88H125.587V22H124.531ZM127.554 22V20.88H128.61V22H127.554ZM130.578 22V20.88H131.634V22H130.578Z" fill="#4B4551"/>
<defs>
<filter id="filter0_d_45_45" x="3" y="14" width="94" height="94" filterUnits="userSpaceOnUse" color-interpolation-filters="sRGB">
<feFlood flood-opacity="0" result="BackgroundImageFix"/>
<feColorMatrix in="SourceAlpha" type="matrix" values="0 0 0 0 0 0 0 0 0 0 0 0 0 0 0 0 0 0 127 0" result="hardAlpha"/>
<feOffset dy="11"/>
<feGaussianBlur stdDeviation="8.5"/>
<feComposite in2="hardAlpha" operator="out"/>
<feColorMatrix type="matrix" values="0 0 0 0 0.528671 0 0 0 0 0.349479 0 0 0 0 0.6875 0 0 0 0.2 0"/>
<feBlend mode="normal" in2="BackgroundImageFix" result="effect1_dropShadow_45_45"/>
<feBlend mode="normal" in="SourceGraphic" in2="effect1_dropShadow_45_45" result="shape"/>
</filter>
</defs>
</svg>
