<svg width="166" height="86" viewBox="0 0 166 86" fill="none" xmlns="http://www.w3.org/2000/svg">
<g filter="url(#filter0_d_45_10)">
<rect x="17" y="6" width="132" height="51.3334" rx="25.6667" fill="white"/>
</g>
<path d="M27 32C27 41.9411 35.0589 50 45 50C54.9411 50 63 41.9411 63 32C63 22.0589 54.9411 14 45 14" stroke="#FFF4B9" stroke-width="3"/>
<path d="M32.192 34V32.448H30.64V31.544H32.192V30H33.096V31.544H34.64V32.448H33.096V34H32.192ZM35.6493 34V33.176L37.2653 31.488C37.5853 31.152 37.8306 30.8853 38.0013 30.688C38.1773 30.4853 38.2999 30.312 38.3693 30.168C38.4386 30.024 38.4733 29.8773 38.4733 29.728C38.4733 29.4773 38.3933 29.28 38.2333 29.136C38.0786 28.992 37.8786 28.92 37.6332 28.92C37.3773 28.92 37.1559 28.9947 36.9693 29.144C36.7826 29.288 36.6466 29.5013 36.5613 29.784L35.6093 29.488C35.6733 29.1733 35.8039 28.9013 36.0013 28.672C36.1986 28.4373 36.4386 28.2587 36.7213 28.136C37.0093 28.008 37.3133 27.944 37.6332 27.944C38.0173 27.944 38.3533 28.0133 38.6413 28.152C38.9346 28.2907 39.1613 28.4853 39.3212 28.736C39.4866 28.9867 39.5693 29.28 39.5693 29.616C39.5693 29.8293 39.5293 30.04 39.4493 30.248C39.3693 30.456 39.2493 30.6693 39.0893 30.888C38.9293 31.1013 38.7213 31.3413 38.4653 31.608L37.0653 33.08H39.6493V34H35.6493ZM42.8867 34.096C42.412 34.096 41.996 33.968 41.6387 33.712C41.2814 33.456 41.0014 33.096 40.7987 32.632C40.6014 32.168 40.5027 31.6293 40.5027 31.016C40.5027 30.3973 40.6014 29.8587 40.7987 29.4C40.996 28.9413 41.2734 28.584 41.6307 28.328C41.988 28.072 42.404 27.944 42.8787 27.944C43.364 27.944 43.7827 28.072 44.1347 28.328C44.492 28.584 44.772 28.944 44.9747 29.408C45.1774 29.8667 45.2787 30.4027 45.2787 31.016C45.2787 31.6293 45.1774 32.168 44.9747 32.632C44.7774 33.0907 44.5 33.4507 44.1427 33.712C43.7854 33.968 43.3667 34.096 42.8867 34.096ZM42.8947 33.104C43.1667 33.104 43.3987 33.0213 43.5907 32.856C43.7827 32.6853 43.9294 32.4453 44.0307 32.136C44.1374 31.8213 44.1907 31.448 44.1907 31.016C44.1907 30.584 44.1374 30.2133 44.0307 29.904C43.9294 29.5893 43.78 29.3493 43.5827 29.184C43.3907 29.0187 43.156 28.936 42.8787 28.936C42.612 28.936 42.3827 29.0187 42.1907 29.184C41.9987 29.3493 41.8494 29.5893 41.7427 29.904C41.6414 30.2133 41.5907 30.584 41.5907 31.016C41.5907 31.4427 41.6414 31.8133 41.7427 32.128C41.8494 32.4373 41.9987 32.6773 42.1907 32.848C42.388 33.0187 42.6227 33.104 42.8947 33.104ZM48.5508 34.096C48.0761 34.096 47.6601 33.968 47.3028 33.712C46.9454 33.456 46.6654 33.096 46.4628 32.632C46.2654 32.168 46.1668 31.6293 46.1668 31.016C46.1668 30.3973 46.2654 29.8587 46.4628 29.4C46.6601 28.9413 46.9374 28.584 47.2948 28.328C47.6521 28.072 48.0681 27.944 48.5428 27.944C49.0281 27.944 49.4468 28.072 49.7988 28.328C50.1561 28.584 50.4361 28.944 50.6388 29.408C50.8414 29.8667 50.9428 30.4027 50.9428 31.016C50.9428 31.6293 50.8414 32.168 50.6388 32.632C50.4414 33.0907 50.1641 33.4507 49.8068 33.712C49.4494 33.968 49.0308 34.096 48.5508 34.096ZM48.5588 33.104C48.8308 33.104 49.0628 33.0213 49.2548 32.856C49.4468 32.6853 49.5934 32.4453 49.6948 32.136C49.8014 31.8213 49.8548 31.448 49.8548 31.016C49.8548 30.584 49.8014 30.2133 49.6948 29.904C49.5934 29.5893 49.4441 29.3493 49.2468 29.184C49.0548 29.0187 48.8201 28.936 48.5428 28.936C48.2761 28.936 48.0468 29.0187 47.8548 29.184C47.6628 29.3493 47.5134 29.5893 47.4068 29.904C47.3054 30.2133 47.2548 30.584 47.2548 31.016C47.2548 31.4427 47.3054 31.8133 47.4068 32.128C47.5134 32.4373 47.6628 32.6773 47.8548 32.848C48.0521 33.0187 48.2868 33.104 48.5588 33.104ZM52.6068 34L57.4388 28.04H58.5588L53.7268 34H52.6068ZM53.5348 31.064C53.2415 31.064 52.9748 30.9947 52.7348 30.856C52.5001 30.712 52.3135 30.5227 52.1748 30.288C52.0361 30.0533 51.9668 29.792 51.9668 29.504C51.9668 29.216 52.0361 28.9547 52.1748 28.72C52.3135 28.48 52.5001 28.2907 52.7348 28.152C52.9748 28.0133 53.2415 27.944 53.5348 27.944C53.8335 27.944 54.1001 28.0133 54.3348 28.152C54.5695 28.2907 54.7561 28.48 54.8948 28.72C55.0335 28.9547 55.1028 29.216 55.1028 29.504C55.1028 29.792 55.0335 30.0533 54.8948 30.288C54.7561 30.5227 54.5695 30.712 54.3348 30.856C54.1001 30.9947 53.8335 31.064 53.5348 31.064ZM53.5348 30.256C53.6948 30.256 53.8281 30.2213 53.9348 30.152C54.0415 30.0773 54.1215 29.984 54.1748 29.872C54.2335 29.7547 54.2628 29.632 54.2628 29.504C54.2628 29.3707 54.2335 29.248 54.1748 29.136C54.1215 29.024 54.0415 28.9307 53.9348 28.856C53.8281 28.7813 53.6948 28.744 53.5348 28.744C53.3855 28.744 53.2548 28.7813 53.1428 28.856C53.0361 28.9307 52.9535 29.0267 52.8948 29.144C52.8361 29.256 52.8068 29.376 52.8068 29.504C52.8068 29.6267 52.8361 29.7467 52.8948 29.864C52.9535 29.9813 53.0361 30.0773 53.1428 30.152C53.2548 30.2213 53.3855 30.256 53.5348 30.256ZM57.5988 34.096C57.3055 34.096 57.0388 34.0267 56.7988 33.888C56.5641 33.744 56.3775 33.5547 56.2388 33.32C56.1001 33.0853 56.0308 32.824 56.0308 32.536C56.0308 32.248 56.1001 31.9867 56.2388 31.752C56.3775 31.512 56.5641 31.3227 56.7988 31.184C57.0388 31.0453 57.3055 30.976 57.5988 30.976C57.8975 30.976 58.1641 31.0453 58.3988 31.184C58.6335 31.3227 58.8201 31.512 58.9588 31.752C59.0975 31.9867 59.1668 32.248 59.1668 32.536C59.1668 32.824 59.0975 33.0853 58.9588 33.32C58.8201 33.5547 58.6335 33.744 58.3988 33.888C58.1641 34.0267 57.8975 34.096 57.5988 34.096ZM57.5988 33.288C57.7535 33.288 57.8841 33.2533 57.9908 33.184C58.1028 33.1093 58.1855 33.016 58.2388 32.904C58.2975 32.7867 58.3268 32.664 58.3268 32.536C58.3268 32.4027 58.2975 32.28 58.2388 32.168C58.1855 32.056 58.1028 31.9627 57.9908 31.888C57.8841 31.8133 57.7535 31.776 57.5988 31.776C57.4495 31.776 57.3188 31.8133 57.2068 31.888C57.1001 31.9627 57.0175 32.0587 56.9588 32.176C56.9001 32.288 56.8708 32.408 56.8708 32.536C56.8708 32.6587 56.9001 32.7787 56.9588 32.896C57.0175 33.0133 57.1001 33.1093 57.2068 33.184C57.3188 33.2533 57.4495 33.288 57.5988 33.288Z" fill="#4B4551"/>
<path d="M74.4 30.096C73.9733 30.096 73.5787 30.0187 73.216 29.864C72.8533 29.7093 72.536 29.4933 72.264 29.216C71.992 28.9387 71.7787 28.6133 71.624 28.24C71.4747 27.8667 71.4 27.4587 71.4 27.016C71.4 26.5733 71.472 26.1653 71.616 25.792C71.7653 25.4133 71.9733 25.088 72.24 24.816C72.512 24.5387 72.8293 24.3253 73.192 24.176C73.5547 24.0213 73.9493 23.944 74.376 23.944C74.8027 23.944 75.184 24.016 75.52 24.16C75.8613 24.304 76.1493 24.496 76.384 24.736C76.6187 24.9707 76.7867 25.2293 76.888 25.512L75.92 25.976C75.808 25.6667 75.6187 25.416 75.352 25.224C75.0853 25.032 74.76 24.936 74.376 24.936C74.0027 24.936 73.672 25.024 73.384 25.2C73.1013 25.376 72.88 25.6187 72.72 25.928C72.5653 26.2373 72.488 26.6 72.488 27.016C72.488 27.432 72.568 27.7973 72.728 28.112C72.8933 28.4213 73.12 28.664 73.408 28.84C73.696 29.016 74.0267 29.104 74.4 29.104C74.704 29.104 74.984 29.0453 75.24 28.928C75.496 28.8053 75.7013 28.6347 75.856 28.416C76.0107 28.192 76.088 27.928 76.088 27.624V27.168L76.584 27.6H74.376V26.68H77.176V27.28C77.176 27.7387 77.0987 28.144 76.944 28.496C76.7893 28.848 76.5787 29.144 76.312 29.384C76.0507 29.6187 75.7547 29.7973 75.424 29.92C75.0933 30.0373 74.752 30.096 74.4 30.096ZM77.9489 30V25.648H78.9329V26.616L78.8529 26.472C78.9543 26.1467 79.1116 25.92 79.3249 25.792C79.5436 25.664 79.8049 25.6 80.1089 25.6H80.3649V26.528H79.9889C79.6903 26.528 79.4503 26.6213 79.2689 26.808C79.0876 26.9893 78.9969 27.2453 78.9969 27.576V30H77.9489ZM83.0691 30.096C82.6425 30.096 82.2531 29.9973 81.9011 29.8C81.5545 29.6027 81.2771 29.3333 81.0691 28.992C80.8665 28.6507 80.7651 28.2613 80.7651 27.824C80.7651 27.3867 80.8665 26.9973 81.0691 26.656C81.2771 26.3147 81.5545 26.0453 81.9011 25.848C82.2478 25.6507 82.6371 25.552 83.0691 25.552C83.4958 25.552 83.8825 25.6507 84.2291 25.848C84.5758 26.0453 84.8505 26.3147 85.0531 26.656C85.2611 26.992 85.3651 27.3813 85.3651 27.824C85.3651 28.2613 85.2611 28.6507 85.0531 28.992C84.8451 29.3333 84.5678 29.6027 84.2211 29.8C83.8745 29.9973 83.4905 30.096 83.0691 30.096ZM83.0691 29.136C83.3038 29.136 83.5091 29.08 83.6851 28.968C83.8665 28.856 84.0078 28.7013 84.1091 28.504C84.2158 28.3013 84.2691 28.0747 84.2691 27.824C84.2691 27.568 84.2158 27.344 84.1091 27.152C84.0078 26.9547 83.8665 26.8 83.6851 26.688C83.5091 26.5707 83.3038 26.512 83.0691 26.512C82.8291 26.512 82.6185 26.5707 82.4371 26.688C82.2558 26.8 82.1118 26.9547 82.0051 27.152C81.9038 27.344 81.8531 27.568 81.8531 27.824C81.8531 28.0747 81.9038 28.3013 82.0051 28.504C82.1118 28.7013 82.2558 28.856 82.4371 28.968C82.6185 29.08 82.8291 29.136 83.0691 29.136ZM87.1778 30L85.6818 25.648H86.7858L87.8818 28.952L87.4978 28.944L88.6658 25.648H89.5938L90.7538 28.944L90.3698 28.952L91.4658 25.648H92.5698L91.0738 30H90.1378L88.9538 26.552H89.3058L88.1058 30H87.1778ZM95.1283 30.048C94.6376 30.048 94.2563 29.9147 93.9843 29.648C93.7176 29.376 93.5843 28.9947 93.5843 28.504V26.584H92.8323V25.648H92.9123C93.1256 25.648 93.2909 25.592 93.4083 25.48C93.5256 25.368 93.5843 25.2053 93.5843 24.992V24.656H94.6323V25.648H95.6323V26.584H94.6323V28.448C94.6323 28.592 94.6563 28.7147 94.7043 28.816C94.7576 28.9173 94.8376 28.9947 94.9443 29.048C95.0563 29.1013 95.1976 29.128 95.3683 29.128C95.4056 29.128 95.4483 29.1253 95.4963 29.12C95.5496 29.1147 95.6003 29.1093 95.6483 29.104V30C95.5736 30.0107 95.4883 30.0213 95.3923 30.032C95.2963 30.0427 95.2083 30.048 95.1283 30.048ZM96.4489 30V23.944H97.4969V26.504L97.3529 26.352C97.4543 26.0907 97.6196 25.8933 97.8489 25.76C98.0836 25.6213 98.3556 25.552 98.6649 25.552C98.9849 25.552 99.2676 25.6213 99.5129 25.76C99.7636 25.8987 99.9583 26.0933 100.097 26.344C100.236 26.5893 100.305 26.8747 100.305 27.2V30H99.2569V27.448C99.2569 27.256 99.2196 27.0907 99.1449 26.952C99.0703 26.8133 98.9663 26.7067 98.8329 26.632C98.7049 26.552 98.5529 26.512 98.3769 26.512C98.2063 26.512 98.0543 26.552 97.9209 26.632C97.7876 26.7067 97.6836 26.8133 97.6089 26.952C97.5343 27.0907 97.4969 27.256 97.4969 27.448V30H96.4489ZM104.597 30.048C104.106 30.048 103.725 29.9147 103.453 29.648C103.186 29.376 103.053 28.9947 103.053 28.504V26.584H102.301V25.648H102.381C102.594 25.648 102.76 25.592 102.877 25.48C102.994 25.368 103.053 25.2053 103.053 24.992V24.656H104.101V25.648H105.101V26.584H104.101V28.448C104.101 28.592 104.125 28.7147 104.173 28.816C104.226 28.9173 104.306 28.9947 104.413 29.048C104.525 29.1013 104.666 29.128 104.837 29.128C104.874 29.128 104.917 29.1253 104.965 29.12C105.018 29.1147 105.069 29.1093 105.117 29.104V30C105.042 30.0107 104.957 30.0213 104.861 30.032C104.765 30.0427 104.677 30.048 104.597 30.048ZM105.918 30V23.944H106.966V26.504L106.822 26.352C106.923 26.0907 107.088 25.8933 107.318 25.76C107.552 25.6213 107.824 25.552 108.134 25.552C108.454 25.552 108.736 25.6213 108.982 25.76C109.232 25.8987 109.427 26.0933 109.566 26.344C109.704 26.5893 109.774 26.8747 109.774 27.2V30H108.726V27.448C108.726 27.256 108.688 27.0907 108.614 26.952C108.539 26.8133 108.435 26.7067 108.302 26.632C108.174 26.552 108.022 26.512 107.846 26.512C107.675 26.512 107.523 26.552 107.39 26.632C107.256 26.7067 107.152 26.8133 107.078 26.952C107.003 27.0907 106.966 27.256 106.966 27.448V30H105.918ZM110.66 30V25.648H111.708V30H110.66ZM110.66 25.16V24.04H111.708V25.16H110.66ZM114.332 30.096C113.868 30.096 113.462 29.9867 113.116 29.768C112.774 29.544 112.54 29.2427 112.412 28.864L113.196 28.488C113.308 28.7333 113.462 28.9253 113.66 29.064C113.862 29.2027 114.086 29.272 114.332 29.272C114.524 29.272 114.676 29.2293 114.788 29.144C114.9 29.0587 114.956 28.9467 114.956 28.808C114.956 28.7227 114.932 28.6533 114.884 28.6C114.841 28.5413 114.78 28.4933 114.7 28.456C114.625 28.4133 114.542 28.3787 114.452 28.352L113.74 28.152C113.372 28.0453 113.092 27.8827 112.9 27.664C112.713 27.4453 112.62 27.1867 112.62 26.888C112.62 26.6213 112.686 26.3893 112.82 26.192C112.958 25.9893 113.148 25.832 113.388 25.72C113.633 25.608 113.913 25.552 114.228 25.552C114.638 25.552 115.001 25.6507 115.316 25.848C115.63 26.0453 115.854 26.3227 115.988 26.68L115.188 27.056C115.113 26.8587 114.988 26.7013 114.812 26.584C114.636 26.4667 114.438 26.408 114.22 26.408C114.044 26.408 113.905 26.448 113.804 26.528C113.702 26.608 113.652 26.712 113.652 26.84C113.652 26.92 113.673 26.9893 113.716 27.048C113.758 27.1067 113.817 27.1547 113.892 27.192C113.972 27.2293 114.062 27.264 114.164 27.296L114.86 27.504C115.217 27.6107 115.492 27.7707 115.684 27.984C115.881 28.1973 115.98 28.4587 115.98 28.768C115.98 29.0293 115.91 29.2613 115.772 29.464C115.633 29.6613 115.441 29.816 115.196 29.928C114.95 30.04 114.662 30.096 114.332 30.096ZM71.488 40V35.648H72.472V36.656L72.36 36.488C72.44 36.1733 72.6 35.9387 72.84 35.784C73.08 35.6293 73.3627 35.552 73.688 35.552C74.0453 35.552 74.36 35.6453 74.632 35.832C74.904 36.0187 75.08 36.264 75.16 36.568L74.864 36.592C74.9973 36.2453 75.1973 35.9867 75.464 35.816C75.7307 35.64 76.0373 35.552 76.384 35.552C76.6933 35.552 76.968 35.6213 77.208 35.76C77.4533 35.8987 77.6453 36.0933 77.784 36.344C77.9227 36.5893 77.992 36.8747 77.992 37.2V40H76.944V37.448C76.944 37.256 76.9093 37.0907 76.84 36.952C76.7707 36.8133 76.6747 36.7067 76.552 36.632C76.4293 36.552 76.28 36.512 76.104 36.512C75.9387 36.512 75.792 36.552 75.664 36.632C75.536 36.7067 75.4373 36.8133 75.368 36.952C75.2987 37.0907 75.264 37.256 75.264 37.448V40H74.216V37.448C74.216 37.256 74.1813 37.0907 74.112 36.952C74.0427 36.8133 73.944 36.7067 73.816 36.632C73.6933 36.552 73.5467 36.512 73.376 36.512C73.2107 36.512 73.064 36.552 72.936 36.632C72.808 36.7067 72.7093 36.8133 72.64 36.952C72.5707 37.0907 72.536 37.256 72.536 37.448V40H71.488ZM81.0066 40.096C80.58 40.096 80.1906 39.9973 79.8386 39.8C79.492 39.6027 79.2146 39.3333 79.0066 38.992C78.804 38.6507 78.7026 38.2613 78.7026 37.824C78.7026 37.3867 78.804 36.9973 79.0066 36.656C79.2146 36.3147 79.492 36.0453 79.8386 35.848C80.1853 35.6507 80.5746 35.552 81.0066 35.552C81.4333 35.552 81.82 35.6507 82.1666 35.848C82.5133 36.0453 82.788 36.3147 82.9906 36.656C83.1986 36.992 83.3026 37.3813 83.3026 37.824C83.3026 38.2613 83.1986 38.6507 82.9906 38.992C82.7826 39.3333 82.5053 39.6027 82.1586 39.8C81.812 39.9973 81.428 40.096 81.0066 40.096ZM81.0066 39.136C81.2413 39.136 81.4466 39.08 81.6226 38.968C81.804 38.856 81.9453 38.7013 82.0466 38.504C82.1533 38.3013 82.2066 38.0747 82.2066 37.824C82.2066 37.568 82.1533 37.344 82.0466 37.152C81.9453 36.9547 81.804 36.8 81.6226 36.688C81.4466 36.5707 81.2413 36.512 81.0066 36.512C80.7666 36.512 80.556 36.5707 80.3746 36.688C80.1933 36.8 80.0493 36.9547 79.9426 37.152C79.8413 37.344 79.7906 37.568 79.7906 37.824C79.7906 38.0747 79.8413 38.3013 79.9426 38.504C80.0493 38.7013 80.1933 38.856 80.3746 38.968C80.556 39.08 80.7666 39.136 81.0066 39.136ZM84.0974 40V35.648H85.0814V36.504L85.0014 36.352C85.1027 36.0907 85.268 35.8933 85.4974 35.76C85.732 35.6213 86.004 35.552 86.3134 35.552C86.6334 35.552 86.916 35.6213 87.1614 35.76C87.412 35.8987 87.6067 36.0933 87.7454 36.344C87.884 36.5893 87.9534 36.8747 87.9534 37.2V40H86.9054V37.448C86.9054 37.256 86.868 37.0907 86.7934 36.952C86.7187 36.8133 86.6147 36.7067 86.4814 36.632C86.3534 36.552 86.2014 36.512 86.0254 36.512C85.8547 36.512 85.7027 36.552 85.5694 36.632C85.436 36.7067 85.332 36.8133 85.2574 36.952C85.1827 37.0907 85.1454 37.256 85.1454 37.448V40H84.0974ZM90.8236 40.048C90.3329 40.048 89.9516 39.9147 89.6796 39.648C89.4129 39.376 89.2796 38.9947 89.2796 38.504V36.584H88.5276V35.648H88.6076C88.8209 35.648 88.9862 35.592 89.1036 35.48C89.2209 35.368 89.2796 35.2053 89.2796 34.992V34.656H90.3276V35.648H91.3276V36.584H90.3276V38.448C90.3276 38.592 90.3516 38.7147 90.3996 38.816C90.4529 38.9173 90.5329 38.9947 90.6396 39.048C90.7516 39.1013 90.8929 39.128 91.0636 39.128C91.1009 39.128 91.1436 39.1253 91.1916 39.12C91.2449 39.1147 91.2956 39.1093 91.3436 39.104V40C91.2689 40.0107 91.1836 40.0213 91.0876 40.032C90.9916 40.0427 90.9036 40.048 90.8236 40.048ZM92.1443 40V33.944H93.1923V36.504L93.0483 36.352C93.1496 36.0907 93.3149 35.8933 93.5443 35.76C93.7789 35.6213 94.0509 35.552 94.3603 35.552C94.6803 35.552 94.9629 35.6213 95.2083 35.76C95.4589 35.8987 95.6536 36.0933 95.7923 36.344C95.9309 36.5893 96.0003 36.8747 96.0003 37.2V40H94.9523V37.448C94.9523 37.256 94.9149 37.0907 94.8403 36.952C94.7656 36.8133 94.6616 36.7067 94.5283 36.632C94.4003 36.552 94.2483 36.512 94.0723 36.512C93.9016 36.512 93.7496 36.552 93.6163 36.632C93.4829 36.7067 93.3789 36.8133 93.3043 36.952C93.2296 37.0907 93.1923 37.256 93.1923 37.448V40H92.1443Z" fill="#4B4551"/>
<defs>
<filter id="filter0_d_45_10" x="0" y="0" width="166" height="85.3334" filterUnits="userSpaceOnUse" color-interpolation-filters="sRGB">
<feFlood flood-opacity="0" result="BackgroundImageFix"/>
<feColorMatrix in="SourceAlpha" type="matrix" values="0 0 0 0 0 0 0 0 0 0 0 0 0 0 0 0 0 0 127 0" result="hardAlpha"/>
<feOffset dy="11"/>
<feGaussianBlur stdDeviation="8.5"/>
<feComposite in2="hardAlpha" operator="out"/>
<feColorMatrix type="matrix" values="0 0 0 0 0.528671 0 0 0 0 0.349479 0 0 0 0 0.6875 0 0 0 0.2 0"/>
<feBlend mode="normal" in2="BackgroundImageFix" result="effect1_dropShadow_45_10"/>
<feBlend mode="normal" in="SourceGraphic" in2="effect1_dropShadow_45_10" result="shape"/>
</filter>
</defs>
</svg>
