<svg width="203" height="59" viewBox="0 0 203 59" fill="none" xmlns="http://www.w3.org/2000/svg">
<g id="5f43cb31a09dd4e4d62b0a20_logo 1">
<path id="Vector" d="M18.4691 17.9765C21.477 16.2398 25.1829 16.2396 28.1911 17.9761L37.4942 23.3466C39.4993 24.5041 41.9701 24.5041 43.9753 23.3464L47.8192 21.127L47.819 29.3071L45.5959 30.5908C42.5881 32.3275 38.882 32.3278 35.874 30.5912L26.5707 25.2205C24.5653 24.063 22.0946 24.063 20.0893 25.221L5.93262 33.3951L5.93293 25.2149L18.4691 17.9765Z" fill="#083161"/>
<path id="Vector_2" d="M37.9932 15.8287L30.9092 11.7391L38.9139 7.11714C41.9163 5.38361 45.6145 5.38 48.6203 7.10767L58.0548 12.5306C60.0496 13.6772 62.5027 13.6803 64.5005 12.5387L68.4331 10.2915L68.4326 18.4715L66.1123 19.7971C63.1158 21.5091 59.4361 21.5041 56.4441 19.784L47.003 14.3562C44.9987 13.2038 42.5323 13.2064 40.5303 14.363L37.9932 15.8287Z" fill="#083161"/>
<path id="Vector_3" d="M26.5708 41.5814C24.5653 40.4234 22.0944 40.4234 20.0889 41.5814L5.93237 49.7553L5.93267 41.5753L20.0889 33.4014C22.0944 32.2436 24.5653 32.2436 26.5708 33.4014L35.5287 38.5739C38.7374 40.4266 42.6908 40.4266 45.8995 38.5739L68.3475 25.6123L68.3473 33.7923L45.5754 46.9408C42.5672 48.6778 38.8608 48.6778 35.8528 46.9408L26.5708 41.5814Z" fill="#15D16C"/>
<path id="Vector_4" d="M197.053 7.02344V7.62276H196.195V10.2016H195.568V7.62276H194.715V7.02344H197.053Z" fill="#083161"/>
<path id="Vector_5" d="M200.467 7.02344V10.2016H199.845V8.14034L198.951 9.61591H198.878L197.984 8.14488V10.2016H197.357V7.02344H198.002L198.915 8.52625L199.823 7.02344H200.467Z" fill="#083161"/>
<path id="Vector_6" d="M81.0027 33.267V18.1326V14.4446V12.8442C81.0027 10.7336 81.6056 9.09834 82.8119 7.93863C84.0294 6.7673 85.7285 6.18164 87.9087 6.18164C88.6046 6.18164 89.457 6.29762 90.4659 6.52956L90.4138 10.4262C89.9963 10.3218 89.4861 10.2697 88.8829 10.2697C86.9925 10.2697 86.0475 11.1568 86.0475 12.9312V14.4446H89.7874V18.1326H86.0475V33.267H81.0027Z" fill="#083161"/>
<path id="Vector_7" d="M91.1631 23.6817C91.1631 21.8146 91.5224 20.1504 92.2415 18.6892C92.9605 17.2279 93.9927 16.0972 95.3379 15.297C96.6948 14.4968 98.2663 14.0967 100.052 14.0967C102.592 14.0967 104.662 14.8737 106.262 16.4277C107.875 17.9818 108.773 20.0924 108.959 22.7599L108.994 24.0471C108.994 26.9347 108.188 29.2543 106.576 31.0055C104.964 32.745 102.801 33.6147 100.087 33.6147C97.3733 33.6147 95.2046 32.745 93.581 31.0055C91.969 29.2658 91.1631 26.9 91.1631 23.908V23.6817ZM96.1903 24.0471C96.1903 25.8331 96.5268 27.2015 97.1994 28.1525C97.872 29.0919 98.8345 29.5615 100.087 29.5615C101.305 29.5615 102.256 29.0978 102.94 28.1698C103.624 27.2306 103.966 25.7345 103.966 23.6817C103.966 21.9306 103.624 20.5737 102.94 19.6112C102.256 18.6486 101.293 18.1673 100.052 18.1673C98.823 18.1673 97.872 18.6486 97.1994 19.6112C96.5268 20.5621 96.1903 22.0408 96.1903 24.0471Z" fill="#083161"/>
<path id="Vector_8" d="M122.216 19.1589C121.531 19.0661 120.928 19.0197 120.406 19.0197C118.504 19.0197 117.258 19.6633 116.666 20.9506V33.2669H111.639V14.4446H116.388L116.527 16.6887C117.536 14.9607 118.934 14.0967 120.72 14.0967C121.276 14.0967 121.798 14.1721 122.285 14.3228L122.216 19.1589Z" fill="#083161"/>
<path id="Vector_9" d="M130.502 9.81738V14.4447H133.72V18.1326H130.502V27.5264C130.502 28.2222 130.636 28.7209 130.902 29.0223C131.169 29.3238 131.679 29.4747 132.433 29.4747C132.99 29.4747 133.483 29.4341 133.912 29.3529V33.1626C132.926 33.4641 131.911 33.6148 130.868 33.6148C127.342 33.6148 125.545 31.8347 125.475 28.2743V18.1326V14.4447V9.81738H130.502Z" fill="#083161"/>
<path id="Vector_10" d="M141.827 33.2666H136.782V14.4442H141.827V33.2666ZM136.486 9.57341C136.486 8.8196 136.736 8.19915 137.234 7.71206C137.744 7.225 138.435 6.98145 139.304 6.98145C140.163 6.98145 140.847 7.225 141.357 7.71206C141.867 8.19915 142.123 8.8196 142.123 9.57341C142.123 10.3388 141.862 10.9651 141.34 11.4522C140.829 11.9392 140.151 12.1828 139.304 12.1828C138.458 12.1828 137.774 11.9392 137.252 11.4522C136.741 10.9651 136.486 10.3388 136.486 9.57341Z" fill="#083161"/>
<path id="Vector_11" d="M157.257 31.3531C156.016 32.8607 154.3 33.6145 152.108 33.6145C150.09 33.6145 148.548 33.0346 147.48 31.875C146.425 30.7152 145.886 29.0163 145.863 26.7779V14.4443H150.89V26.604C150.89 28.5638 151.783 29.5439 153.569 29.5439C155.274 29.5439 156.445 28.9525 157.083 27.7694V14.4443H162.128V33.2667H157.396L157.257 31.3531Z" fill="#083161"/>
<path id="Vector_12" d="M170.634 14.4446L170.791 16.5495C172.124 14.9143 173.928 14.0967 176.201 14.0967C178.625 14.0967 180.289 15.0535 181.193 16.967C182.516 15.0535 184.4 14.0967 186.847 14.0967C188.888 14.0967 190.407 14.694 191.405 15.8884C192.402 17.0714 192.901 18.8573 192.901 21.2464V33.2669H187.856V21.2638C187.856 20.1968 187.647 19.4198 187.23 18.9327C186.812 18.434 186.076 18.1847 185.02 18.1847C183.513 18.1847 182.469 18.9037 181.889 20.3418L181.907 33.2669H176.879V21.2812C176.879 20.191 176.665 19.4024 176.236 18.9153C175.806 18.4282 175.076 18.1847 174.044 18.1847C172.617 18.1847 171.585 18.7762 170.947 19.9591V33.2669H165.92V14.4446H170.634Z" fill="#083161"/>
<path id="Vector_13" d="M135.15 44.9275C135.15 46.4116 134.813 47.5971 134.14 48.484C133.465 49.365 132.561 49.8056 131.426 49.8056C130.373 49.8056 129.531 49.4596 128.898 48.7678V53.3177H126.743V40.0318H128.729L128.818 41.0075C129.451 40.2388 130.311 39.8545 131.399 39.8545C132.57 39.8545 133.486 40.2921 134.148 41.167C134.816 42.0363 135.15 43.2455 135.15 44.7946V44.9275ZM133.004 44.7414C133.004 43.7834 132.812 43.0238 132.428 42.4619C132.049 41.9003 131.505 41.6195 130.796 41.6195C129.915 41.6195 129.282 41.9831 128.898 42.7103V46.9674C129.288 47.7124 129.927 48.0848 130.813 48.0848C131.499 48.0848 132.035 47.8101 132.419 47.2602C132.809 46.7044 133.004 45.8646 133.004 44.7414Z" fill="#083161"/>
<path id="Vector_14" d="M142.716 49.628C142.621 49.4449 142.538 49.1463 142.467 48.7324C141.781 49.4478 140.942 49.8056 139.949 49.8056C138.985 49.8056 138.198 49.5306 137.589 48.9807C136.98 48.4308 136.676 47.7507 136.676 46.9408C136.676 45.9179 137.054 45.1345 137.811 44.5905C138.574 44.0406 139.662 43.7656 141.075 43.7656H142.396V43.1361C142.396 42.6394 142.257 42.2431 141.979 41.9477C141.702 41.6461 141.279 41.4952 140.711 41.4952C140.22 41.4952 139.818 41.6195 139.505 41.8678C139.192 42.1103 139.035 42.4206 139.035 42.7989H136.88C136.88 42.2727 137.054 41.7821 137.403 41.3267C137.752 40.8657 138.225 40.505 138.822 40.2447C139.425 39.9846 140.096 39.8545 140.835 39.8545C141.959 39.8545 142.855 40.1382 143.523 40.706C144.191 41.2676 144.534 42.06 144.552 43.0829V47.4108C144.552 48.274 144.673 48.9629 144.915 49.4774V49.628H142.716ZM140.348 48.076C140.773 48.076 141.172 47.9725 141.545 47.7656C141.923 47.5586 142.207 47.2807 142.396 46.932V45.1226H141.234C140.436 45.1226 139.836 45.2615 139.434 45.5394C139.032 45.8173 138.831 46.2106 138.831 46.7191C138.831 47.1329 138.967 47.4641 139.239 47.7124C139.517 47.9549 139.886 48.076 140.348 48.076Z" fill="#083161"/>
<path id="Vector_15" d="M151.833 42.0009C151.549 41.9535 151.256 41.9298 150.955 41.9298C149.968 41.9298 149.302 42.3083 148.959 43.0651V49.628H146.804V40.0318H148.862L148.915 41.105C149.435 40.2713 150.157 39.8545 151.079 39.8545C151.387 39.8545 151.641 39.896 151.842 39.9785L151.833 42.0009Z" fill="#083161"/>
<path id="Vector_16" d="M155.802 37.6992V40.0317H157.496V41.6282H155.802V46.9851C155.802 47.3516 155.873 47.6178 156.015 47.7834C156.163 47.9428 156.423 48.0227 156.795 48.0227C157.044 48.0227 157.295 47.9931 157.549 47.934V49.6013C157.059 49.7373 156.586 49.8055 156.13 49.8055C154.475 49.8055 153.647 48.892 153.647 47.065V41.6282V40.0317V37.6992H155.802Z" fill="#083161"/>
<path id="Vector_17" d="M161.15 40.0318L161.212 41.1404C161.922 40.2833 162.853 39.8545 164.006 39.8545C166.004 39.8545 167.021 40.9985 167.057 43.2868V49.628H164.902V43.4111C164.902 42.8021 164.769 42.3525 164.503 42.0629C164.242 41.7672 163.814 41.6195 163.217 41.6195C162.348 41.6195 161.7 42.0126 161.274 42.7989V49.628H159.119V40.0318H161.15Z" fill="#083161"/>
<path id="Vector_18" d="M173.487 49.8056C172.121 49.8056 171.012 49.3768 170.161 48.5194C169.316 47.6562 168.893 46.5093 168.893 45.0784V44.8122C168.893 43.8545 169.076 43.0001 169.442 42.2492C169.815 41.4923 170.335 40.904 171.004 40.4842C171.672 40.0645 172.417 39.8545 173.238 39.8545C174.545 39.8545 175.553 40.2713 176.263 41.105C176.978 41.9386 177.336 43.1183 177.336 44.6437V45.5128H171.066C171.131 46.3052 171.394 46.932 171.855 47.393C172.322 47.8543 172.907 48.0848 173.611 48.0848C174.598 48.0848 175.403 47.6858 176.023 46.8875L177.185 47.9961C176.801 48.5697 176.286 49.0161 175.642 49.3355C175.003 49.6488 174.285 49.8056 173.487 49.8056ZM173.23 41.5841C172.638 41.5841 172.159 41.7909 171.793 42.2048C171.432 42.6187 171.202 43.1952 171.101 43.9341H175.207V43.7746C175.16 43.0533 174.968 42.5093 174.631 42.1428C174.294 41.7701 173.827 41.5841 173.23 41.5841Z" fill="#083161"/>
<path id="Vector_19" d="M184.041 42.0009C183.757 41.9535 183.464 41.9298 183.163 41.9298C182.175 41.9298 181.51 42.3083 181.167 43.0651V49.628H179.012V40.0318H181.07L181.123 41.105C181.643 40.2713 182.365 39.8545 183.287 39.8545C183.595 39.8545 183.849 39.896 184.05 39.9785L184.041 42.0009Z" fill="#083161"/>
<path id="Vector_20" d="M190.781 47.0206C190.781 46.6363 190.622 46.3437 190.302 46.1425C189.989 45.9416 189.466 45.7643 188.732 45.6104C187.999 45.4566 187.387 45.2615 186.897 45.0251C185.82 44.5048 185.283 43.751 185.283 42.7635C185.283 41.9357 185.631 41.2439 186.329 40.6881C187.027 40.1324 187.914 39.8545 188.99 39.8545C190.137 39.8545 191.062 40.1382 191.766 40.706C192.475 41.2735 192.83 42.0097 192.83 42.9144H190.675C190.675 42.5005 190.521 42.1574 190.214 41.8854C189.906 41.6075 189.498 41.4686 188.99 41.4686C188.517 41.4686 188.129 41.578 187.828 41.7968C187.532 42.0155 187.384 42.3083 187.384 42.6748C187.384 43.006 187.523 43.2631 187.801 43.4465C188.079 43.6296 188.641 43.8159 189.486 44.0052C190.332 44.1885 190.994 44.4103 191.473 44.6703C191.958 44.9245 192.316 45.232 192.546 45.5926C192.783 45.9533 192.901 46.3909 192.901 46.9054C192.901 47.7686 192.543 48.4691 191.828 49.0073C191.112 49.5394 190.175 49.8056 189.016 49.8056C188.23 49.8056 187.529 49.6635 186.914 49.3797C186.299 49.096 185.82 48.7057 185.478 48.2091C185.135 47.7124 184.963 47.1774 184.963 46.6038H187.056C187.086 47.1122 187.278 47.5056 187.633 47.7834C187.987 48.0552 188.457 48.1913 189.043 48.1913C189.61 48.1913 190.042 48.0848 190.338 47.8721C190.633 47.6533 190.781 47.3696 190.781 47.0206Z" fill="#083161"/>
</g>
</svg>
