<svg width="62" height="98" viewBox="0 0 62 98" fill="none" xmlns="http://www.w3.org/2000/svg">
<g id="cylinder-group">
<circle id="base-face" cx="8" cy="8" r="8" transform="matrix(0.612165 0.79073 -0.990875 0.134785 48.2931 5.24756)" fill="#44D0A9"/>
<path id="r-face-1" d="M36.1953 8.9411C35.6037 10.3868 36.0831 12.111 37.3364 13.73L7.03962 87.7712C5.78628 86.1523 5.30687 84.4281 5.89845 82.9823L36.1953 8.9411Z" fill="#7CDF7A"/>
<path id="r-face-2" d="M37.3364 13.73C40.0411 17.2236 45.7828 19.573 50.1607 18.9775L19.8639 93.0188C15.486 93.6143 9.74434 91.2649 7.03963 87.7712L37.3364 13.73Z" fill="#3FC3B8"/>
<path id="r-face-3" d="M54.3316 16.3623C53.74 17.808 52.1894 18.7016 50.1607 18.9775L19.8639 93.0188C21.8926 92.7428 23.4432 91.8492 24.0348 90.4035L54.3316 16.3623Z" fill="#3FC3B8"/>
</g>
</svg>
