<svg width="46" height="49" viewBox="0 0 46 49" fill="none" xmlns="http://www.w3.org/2000/svg">
<rect width="28.4389" height="16.7263" rx="8" transform="matrix(0.808753 0.588149 0 1 0 15.4495)" fill="#7CDF7A"/>
<rect width="28.4389" height="10.0358" transform="matrix(0.808753 -0.588149 0 1 23 35.5211)" fill="#3FC3B8"/>
<rect width="22.7511" height="28.4389" transform="matrix(0.808753 0.588149 -0.808753 0.588149 25.3 0.395874)" fill="#44D0A9"/>
<path d="M0.67366 16.9192C1.12276 16.5926 1.71138 16.6941 2.3 17.1221L25.3 0.395871C24.7114 -0.0321932 24.1228 -0.133656 23.6737 0.192943L0.67366 16.9192Z" fill="#44D0A9"/>
<path d="M23 35.521C23 33.6735 21.9703 31.4269 20.7 30.5032L43.7 13.7769C44.9703 14.7007 46 16.9472 46 18.7948L23 35.521Z" fill="#3FC3B8"/>
<path d="M22.3264 47.4324C22.7755 47.1058 23 46.4129 23 45.5568L46 28.8305C46 29.6867 45.7755 30.3795 45.3264 30.7061L22.3264 47.4324Z" fill="#3FC3B8"/>
</svg>
