<svg width="114" height="114" viewBox="0 0 114 114" fill="none" xmlns="http://www.w3.org/2000/svg">
<g id="pavan 3544">
<g id="SVGID 82">
<g id="Group">
<path id="Vector" d="M25.2121 110.205C22.8765 110.343 20.2343 110.607 18.9839 111.735C18.6891 111.999 18.5004 112.309 18.5593 112.62C18.7598 113.54 20.8713 113.804 22.5109 113.839C45.4772 114.345 68.4789 113.483 91.4568 113.655C98.275 113.701 105.341 113.828 111.628 112.333C112.76 112.068 114.057 111.447 113.503 110.826C113.125 110.412 112.158 110.343 111.332 110.32C99.6311 109.986 87.9298 109.733 76.2166 109.572C70.3072 109.492 64.3857 109.434 58.4761 109.388C53.7578 109.354 49.3343 109.802 44.6043 109.745C38.1285 109.676 31.6526 109.837 25.2121 110.205Z" fill="url(#paint0_linear_365_351)"/>
</g>
</g>
<path id="Vector_2" d="M25.2121 110.205C22.8765 110.343 20.2343 110.607 18.9839 111.735C18.6891 111.999 18.5004 112.309 18.5593 112.62C18.7598 113.54 20.8713 113.804 22.5109 113.839C45.4772 114.345 68.4789 113.483 91.4568 113.655C98.275 113.701 105.341 113.828 111.628 112.333C112.76 112.068 114.057 111.447 113.503 110.826C113.125 110.412 112.158 110.343 111.332 110.32C99.6311 109.986 87.9298 109.733 76.2166 109.572C70.3072 109.492 64.3857 109.434 58.4761 109.388C53.7578 109.354 49.3343 109.802 44.6043 109.745C38.1285 109.676 31.6526 109.837 25.2121 110.205Z" fill="url(#paint1_linear_365_351)"/>
<g id="Group_2">
<path id="Vector_3" d="M47.3556 104.106C46.1288 104.52 44.8548 104.106 43.7814 103.14C47.2022 93.549 45.9872 83.2674 50.0332 73.8025C50.3988 72.9631 50.8117 72.112 51.5431 71.4104C52.9585 70.0649 57.0399 69.5012 56.4973 71.8706C55.9429 74.3196 54.5509 76.8153 53.7252 79.2307C51.9441 84.4634 50.4224 89.7421 49.1839 95.055C48.4879 98.0568 47.8746 101.081 47.3556 104.106Z" fill="#E2CBB7"/>
<path id="Vector_4" d="M63.8891 105.038C62.9454 105.165 61.9782 105.188 61.0228 105.119C60.9284 94.5613 60.2442 84.0039 58.9585 73.4926C58.8406 72.5612 58.7344 71.6066 59.0647 70.7096C59.7842 68.7893 63.2993 67.9379 64.644 69.9504C65.8 71.6759 65.0333 74.8265 65.0569 76.6781C65.1277 82.716 64.9861 88.7538 64.6558 94.78C64.4671 98.207 64.2194 101.623 63.8891 105.038Z" fill="#E2CBB7"/>
<path id="Vector_5" d="M54.8693 25.745C54.0201 24.6294 52.7697 23.8244 51.9794 22.6628C51.2952 21.6623 51.0121 20.3742 51.425 19.2472C51.8379 18.1202 53.041 17.2576 54.2559 17.4071L52.9348 17.3381C51.6727 17.6831 50.2572 18.1431 49.7382 19.3277C49.3607 20.1902 49.6085 21.1793 49.7972 22.0878C50.0803 23.3988 50.2453 24.7789 49.8915 26.0785C49.6202 27.0675 49.0658 27.9645 48.7119 28.9306C48.3581 29.8967 48.2283 31.0352 48.7945 31.9092C49.2781 32.6452 50.1864 33.0477 51.0829 33.0938C51.9793 33.1398 52.8641 32.8522 53.6779 32.4842C54.3857 32.1622 55.0817 31.7367 55.5181 31.1042C55.9664 30.4371 56.0961 29.6091 56.0371 28.8155C55.9545 27.7 55.5417 26.6305 54.8693 25.745Z" fill="#534741"/>
<path id="Vector_6" d="M75.1445 7.35481C77.9638 17.3947 76.9143 17.3257 74.9912 23.0989C74.6254 24.203 73.7525 26.0431 73.1862 27.0551C72.2078 28.7801 70.6975 30.1257 69.1996 31.4483C68.8929 31.7243 68.5626 32.0003 68.1734 32.1498C67.8195 32.2763 67.4421 32.2763 67.0645 32.2188C65.944 32.0348 65.0004 31.2067 64.5993 30.1832C64.1157 28.9527 64.8588 28.4811 65.8142 27.7911C67.7016 26.4226 68.5862 25.1575 70.1197 23.3634C70.981 22.3629 71.5001 21.1208 71.9714 19.8903C73.175 16.7852 73.7412 16.7737 73.6941 12.1275C73.6821 11.3224 73.1391 8.79233 72.7621 8.06785C72.314 7.22828 71.9953 6.50375 71.6767 5.80222C71.4411 5.54921 71.3229 5.02019 71.2406 4.80169C71.0753 4.36466 70.7918 3.96215 70.4382 3.64013C70.2377 3.46762 70.0017 3.30662 69.9545 3.05361C69.9428 2.96161 69.9428 2.8811 69.9192 2.7891C69.8956 2.6971 69.8366 2.61659 69.7894 2.54759C69.6714 2.38658 69.5299 2.24857 69.3766 2.12207C69.2704 2.03007 69.1525 1.93806 69.0935 1.81156C68.9873 1.55855 68.9401 0.868521 69.1289 0.65001C69.2586 0.489004 70.0961 -0.0515199 70.4028 0.00598249C70.6151 0.0404839 70.8389 -0.0400189 71.0514 0.028984C71.3109 0.109487 71.5585 0.224491 71.7829 0.373997C72.0305 0.546505 72.2429 0.753518 72.4434 0.960522C73.1278 1.66206 73.175 3.07661 73.7412 3.88165L75.1445 7.35481Z" fill="#E2CBB7"/>
<path id="Vector_7" d="M59.9634 27.3078C61.78 27.1583 63.8442 26.7213 65.2597 27.7908C66.2978 28.5728 66.5809 29.8954 66.7578 31.1144C68.2087 40.9358 67.1352 50.9182 67.7604 60.8087C67.9492 63.8678 68.3149 66.9154 68.822 69.9401C68.9754 70.8714 69.1641 71.8144 69.6477 72.6428C69.9308 73.114 70.2965 73.5399 70.497 74.046C71.0865 75.5294 69.9308 77.2199 68.3856 77.9215C66.8403 78.6231 65.0474 78.5881 63.337 78.5422C57.9699 78.3927 52.6146 78.2548 47.2476 78.1053C45.8911 78.071 44.4049 77.9791 43.4494 77.0931C42.494 76.2077 42.3996 74.8278 42.4585 73.5742C42.7298 67.318 45.1126 61.3147 46.6815 55.2194C48.2385 49.1817 49.017 43.0059 50.5268 36.9567C51.2228 34.1735 51.8833 30.8269 53.4167 28.3083C54.8205 26.0312 57.5689 27.4918 59.9634 27.3078Z" fill="#D9924E"/>
<g id="Group_3">
<path id="Vector_8" d="M41.7966 34.724C40.8057 35.4946 39.52 36.2996 38.3523 35.8165C37.5384 35.483 37.1137 34.632 36.7363 33.85C35.0377 30.2388 33.2447 26.6737 31.4517 23.1085C30.7086 23.511 29.8711 24.0285 29.7767 24.8566C29.7295 25.2936 29.9183 25.7306 30.1071 26.1331C32.2421 30.8138 34.5658 35.414 37.0783 39.9222C37.3142 40.3477 37.5855 40.8078 38.022 41.0377C38.5528 41.3138 39.2015 41.2103 39.7913 41.0722C43.2711 40.2557 46.5149 38.7032 49.6171 36.9781C50.4429 36.5181 51.3157 36.0005 51.6814 35.1495C51.9881 34.471 51.9174 33.7005 51.8466 32.9644C51.6461 31.0094 50.5961 27.8237 48.1073 29.6638C45.9369 31.2394 43.9198 33.0794 41.7966 34.724Z" fill="#E2CBB7"/>
<path id="Vector_9" d="M30.9336 21.0174C30.6859 20.8334 30.3556 20.8334 30.0607 20.7299C29.3412 20.4654 29.0108 19.6029 28.3503 19.2118C27.7605 18.8553 26.923 18.9703 26.4394 19.4648C25.9676 19.9478 25.8379 20.6724 25.7435 21.3394C25.7081 21.581 25.6727 21.8224 25.7317 22.0524C25.8025 22.317 25.9912 22.5239 26.1681 22.7079C27.0646 23.628 28.1144 24.3871 29.2704 24.9506C29.5063 25.0655 29.7422 25.1691 30.0017 25.1806C31.0044 25.2496 31.5941 24.2721 31.5941 23.49C31.6059 23.007 31.3464 21.3164 30.9336 21.0174Z" fill="#E2CBB7"/>
</g>
<path id="Vector_10" d="M64.7995 15.4624C64.6108 14.6804 64.363 13.9099 64.021 13.1968C62.806 10.6667 59.1257 7.36609 56.0824 9.14864C55.3747 9.56266 54.8321 10.1952 54.3249 10.8277C53.8058 11.4833 53.3104 12.1618 52.9212 12.8978C52.1898 14.2894 51.8242 15.9569 52.0247 17.521C52.2134 18.9701 52.9448 20.3961 53.6407 21.6842C54.549 23.3862 55.7522 25.1113 57.6041 25.7669C60.0694 26.6409 62.9357 25.1573 64.2097 22.9263C65.4483 20.6951 65.4011 17.9465 64.7995 15.4624Z" fill="#E2CBB7"/>
<path id="Vector_11" d="M56.9335 11.7245C56.2965 12.7595 55.4 13.6106 54.4681 14.4041C53.7485 15.0251 52.9701 15.6692 52.687 16.5662C52.451 17.3022 52.5926 18.0958 52.4038 18.8433C51.8495 18.9353 51.4249 18.3948 51.1299 17.9232C50.6935 17.1987 50.2453 16.4512 50.0802 15.6232C49.9622 15.0136 50.0093 14.3811 50.0565 13.7715C50.1509 12.5985 50.2925 11.4025 50.8351 10.3674C51.4131 9.2749 52.4275 8.41236 53.6307 8.00986C54.6215 7.67628 56.4852 7.51532 57.3581 8.27431C58.3371 9.1254 57.4761 10.8735 56.9335 11.7245Z" fill="#534741"/>
<path id="Vector_12" d="M75.7234 26.9391C75.2394 26.134 74.5437 25.467 73.9655 24.7194C72.361 22.6839 71.6654 20.1308 70.5447 17.8077C70.0729 16.8416 69.4713 15.8526 68.5041 15.335C67.9379 15.036 66.8763 14.9325 66.1922 15.2776C66.2039 15.0591 66.2275 14.8291 66.2275 14.6106C66.2747 12.3335 65.6259 9.95282 63.9745 8.34275C62.3231 6.73272 59.5511 6.12319 57.5695 7.31925C56.2248 8.13578 55.5524 10.3668 57.4043 11.0684C58.0177 11.2984 58.7962 11.1949 59.445 11.3789C60.4241 11.6549 61.3677 12.1034 62.158 12.736C63.4555 13.7595 64.3403 15.3811 64.1751 17.0141C64.352 16.7611 64.4817 16.4851 64.5643 16.1976C65.0715 16.5196 64.8238 17.2672 64.6587 17.8307C64.3402 18.9577 64.5879 20.1537 64.8357 21.2923C65.2485 19.9583 65.6495 18.6012 65.9209 17.2441C66.3809 17.9687 67.1594 18.6817 67.5014 19.1532C69.4713 21.7983 69.9078 25.2715 69.7073 28.5376C69.6483 29.5036 69.5421 30.5157 69.9432 31.4013C70.474 32.5858 71.913 33.2873 73.234 33.1033C74.555 32.9193 75.6875 31.9188 76.1363 30.6997C76.5843 29.4691 76.3839 28.0661 75.7234 26.9391Z" fill="#534741"/>
<path id="Vector_13" d="M64.2446 103.109C64.4451 103.132 64.6574 103.166 64.8226 103.281C65.0349 103.431 65.1175 103.684 65.1647 103.937C65.3888 104.995 65.1882 106.156 65.6955 107.111C65.9549 107.605 66.3914 108.008 66.9104 108.227C67.453 108.456 68.0664 108.491 68.609 108.733C69.1516 108.963 69.6353 109.537 69.4583 110.089C69.246 110.745 68.3378 110.849 67.63 110.814C66.356 110.757 65.0703 110.711 63.7964 110.653C62.8881 110.619 61.8854 110.538 61.2366 109.917C60.7058 109.399 60.5525 108.629 60.4582 107.893C60.3167 106.812 59.7976 104.34 60.4935 103.385C61.1305 102.5 63.3363 103.006 64.2446 103.109Z" fill="#ACB18F"/>
<path id="Vector_14" d="M46.6594 101.934C46.9189 102.015 47.2021 102.118 47.3672 102.325C47.5678 102.567 47.5678 102.901 47.5678 103.211C47.5678 104.442 47.5559 105.672 47.5323 106.891C47.5206 107.432 47.5088 107.984 47.3082 108.489C46.8836 109.571 45.5861 110.227 44.4183 109.996C43.8403 109.881 43.3094 109.593 42.8023 109.294C42.6017 109.18 42.4013 109.053 42.2597 108.881C42.0709 108.639 42.0355 108.317 42.0355 108.018C42.0237 107.167 42.2833 106.339 42.5428 105.523C42.932 104.281 43.1915 102.877 43.746 101.693C44.2296 100.646 45.7984 101.647 46.6594 101.934Z" fill="#ACB18F"/>
<path id="Vector_15" d="M63.6589 9.97868C63.2343 9.6222 62.786 10.1052 62.5266 10.4272C62.0901 10.9793 61.6182 11.5773 61.2762 12.1868C61.1582 12.3938 61.3587 12.6123 61.5593 12.6008C61.6419 12.6813 61.7126 12.7503 61.807 12.8078C61.925 12.8653 62.0783 12.8768 62.1845 12.8078C62.4558 12.6353 62.6799 12.3478 62.8922 12.1293C63.1753 11.8418 63.4584 11.5543 63.7414 11.2668C64.2015 10.8298 64.1898 10.4157 63.6589 9.97868Z" fill="#DD7A8F"/>
<path id="Vector_16" d="M65.4709 11.8495C65.3529 11.5735 65.0462 11.3665 64.7396 11.5045C64.3621 11.677 64.02 12.114 63.7369 12.4015C63.4184 12.7466 63.1235 13.103 62.864 13.4941C62.7578 13.655 62.8877 13.8391 63.0528 13.8851C63.0646 14.0116 63.1471 14.1381 63.3241 14.2301C63.6897 14.4371 64.02 14.1036 64.2677 13.8736C64.6098 13.5746 64.9165 13.2296 65.1996 12.873C65.4355 12.5855 65.6361 12.229 65.4709 11.8495Z" fill="#DD7A8F"/>
</g>
<g id="Group_4">
<path id="Vector_17" d="M80.6798 49.9736C81.1047 50.2266 81.5887 50.4681 82.0839 50.3761C82.7795 50.2381 83.1453 49.5021 83.4049 48.858C84.3489 46.4889 85.2802 44.1083 86.2242 41.7393C87.0851 39.5771 87.9581 37.3231 87.8519 35C87.8047 33.9189 87.2033 32.5848 86.106 32.6769C85.4574 32.7229 84.9854 33.2749 84.6197 33.7924C83.1805 35.8165 83.0862 37.9096 82.4968 40.3132C82.2604 41.2908 81.73 43.6138 81.1638 44.4418C80.5856 45.2699 79.5713 44.5913 78.616 44.2233C77.8254 43.9128 76.4101 42.4638 75.8558 41.8312C74.6403 40.4397 74.3456 40.1867 73.4375 39.4622C72.848 38.9906 72.7531 39.0481 71.9863 39.0251C67.9643 38.9216 73.0246 43.9014 73.8623 44.7293C75.879 46.7649 78.1792 48.5361 80.6798 49.9736Z" fill="#B79A7D"/>
<g id="Group_5">
<path id="Vector_18" d="M98.41 54.1477C93.6212 54.2972 88.6079 53.1127 83.9133 54.4007C83.8894 72.0195 84.8918 91.5588 86.4611 109.063C87.9587 109.063 89.4569 109.063 90.9552 109.063C92.182 99.5519 91.8282 90.5466 92.1229 81.0131C92.6652 85.4517 93.7154 87.9933 94.8001 93.5141C95.308 96.0666 95.8974 98.574 96.3335 101.15C96.5579 102.461 96.7943 103.784 97.0531 105.084C97.2775 106.199 97.6904 107.372 97.6552 108.545C99.1176 108.786 100.628 108.177 102.055 107.832C102.055 105.475 102.055 103.105 102.055 100.748C102.055 97.6543 101.902 94.6751 101.618 91.6164C101.359 88.7408 100.946 85.7973 100.946 82.8991C100.792 80.9898 100.639 79.0805 100.522 77.1603C100.273 72.8363 101.512 66.8327 101.324 62.5085C101.229 60.358 99.8253 59.875 99.6016 57.7359C99.4954 56.7008 99.3772 55.6543 99.2119 54.6307C99.1528 54.2627 99.1767 53.7222 98.8461 53.6877C98.7758 53.6532 98.6224 54.1362 98.41 54.1477Z" fill="#B79A7D"/>
</g>
<path id="Vector_19" d="M91.6227 27.9307C92.5076 27.2637 93.2505 26.2516 93.7464 24.929C94.6545 22.4795 95.2911 19.8689 94.9372 17.2812C94.5131 14.3141 92.2242 10.8295 88.8393 10.588C84.8636 10.312 83.696 15.0731 83.0122 18.2703C82.4692 20.8119 82.6226 23.595 84.0027 25.8031C86.0552 29.1152 89.2994 29.6902 91.6227 27.9307Z" fill="#B79A7D"/>
<path id="Vector_20" d="M86.5196 13.6093C86.6961 13.9889 87.1681 14.2074 87.581 14.0924C87.9939 13.9889 88.2887 13.5633 88.2415 13.1493C88.7135 14.1039 90.2589 14.2994 90.9666 13.5059C90.6599 13.4253 90.7773 13.9774 91.0608 14.1153C91.6503 14.3799 92.3579 14.3914 92.9481 14.1269C92.5113 14.3684 92.7947 15.0124 93.1134 15.3919C93.361 15.6795 93.5966 15.9785 93.8442 16.266C93.4081 16.933 94.1987 17.9565 94.9767 17.738C94.4344 17.991 94.2811 18.7846 94.682 19.2101C94.3162 19.6241 94.0567 20.1301 93.9624 20.6706C94.293 20.6936 94.4224 21.2226 94.1277 21.3837C94.3873 21.5677 94.7411 21.6022 95.0358 21.4757C94.8593 21.5102 94.9296 21.8207 95.1069 21.8437C95.2834 21.8667 95.4368 21.7172 95.531 21.5561C95.8025 21.1192 95.8855 20.5787 95.7322 20.0841C96.2865 19.8311 96.4279 19.1411 96.4982 18.5431C96.5341 18.244 96.5693 17.945 96.6044 17.646C96.6403 17.3585 96.6755 17.0595 96.5573 16.795C96.4398 16.5305 96.1331 16.312 95.8497 16.4155C96.5221 16.312 96.8879 15.3919 96.463 14.8744C97.407 14.5409 97.4893 12.9883 96.5812 12.5628C96.864 11.9763 96.7346 11.2288 96.2506 10.7803C95.7793 10.3317 95.0006 10.2052 94.4105 10.4927C94.5047 10.6192 94.7411 10.5272 94.7882 10.3777C94.8353 10.2282 94.753 10.0672 94.6581 9.94069C94.0334 9.08967 92.7476 8.76768 91.7684 9.2162C91.2142 8.44562 90.0226 8.18111 89.1855 8.65267C89.3621 8.74464 89.5984 8.65267 89.6688 8.46867C89.1855 8.0316 88.5953 7.6291 87.9229 7.64062C87.2624 7.65208 86.6019 8.29612 86.8263 8.90566C85.8 8.38815 84.3727 9.41165 84.5732 10.5157C83.9007 10.4697 83.1692 10.6077 82.7092 11.0907C82.2491 11.5623 82.1788 12.4363 82.6972 12.8503C81.9305 12.8273 81.1877 13.4138 81.0463 14.1499C80.9049 14.8859 81.3762 15.6909 82.1077 15.944C81.4705 16.381 81.0111 17.0595 80.8339 17.7955C81.0463 18.083 81.3178 18.313 81.6358 18.4741C81.4472 18.566 81.353 18.796 81.4233 18.9916C81.8362 19.2906 82.3082 19.6126 82.8273 19.5436C83.3465 19.4861 83.7474 18.8076 83.3697 18.4625C84.1484 18.1061 84.5613 17.1285 84.2665 16.3465C84.455 16.3005 84.6436 16.2544 84.844 16.2084C85.0923 15.8174 85.2457 15.1734 84.8089 15.0354C85.2218 15.3574 85.8703 15.3344 86.272 15.0009C86.6842 14.6789 86.7791 14.0463 86.5196 13.6093Z" fill="#333333"/>
<path id="Vector_21" d="M97.9395 6.85919C98.4466 7.05472 98.3524 7.87124 97.8804 8.13575C97.4084 8.40027 96.8069 8.23931 96.3117 8.00929C96.5713 8.06676 96.7127 8.42331 96.5474 8.63029C95.8046 8.82581 94.9668 8.66479 94.3415 8.21627C94.5187 8.14728 94.696 8.40027 94.625 8.57282C94.5539 8.7453 94.3415 8.82581 94.141 8.86031C93.5164 8.95228 92.8559 8.68783 92.4901 8.18177C92.9501 8.04379 93.2681 8.7798 92.9501 9.13635C92.6315 9.49283 92.0533 9.46986 91.5932 9.30883C91.4638 9.26281 91.3224 9.19382 91.2746 9.06729C91.5581 9.05583 91.7114 9.43536 91.5581 9.66531C91.4047 9.89533 91.0629 9.94135 90.8146 9.83786C90.5557 9.73437 90.3665 9.51581 90.2251 9.28585C90.2961 9.42384 90.3074 9.59632 90.249 9.73437C89.7299 9.71133 89.2699 9.30883 89.1869 8.81429C89.1046 8.7453 89.2459 8.58427 89.3289 8.65327C88.7739 8.3773 88.3027 7.91726 88.0192 7.37677C87.5831 7.62977 86.9338 7.46874 86.6862 7.03174C86.3324 7.08921 85.9554 6.98572 85.6958 6.74422C85.5657 6.9742 85.247 7.05472 84.9994 6.9742C84.7518 6.89376 84.5513 6.67522 84.4332 6.4452C84.3748 6.3302 84.3389 6.2037 84.398 6.08869C84.469 5.98518 84.6808 5.99668 84.6808 6.12319C84.0561 6.10019 83.5131 5.55967 83.4779 4.96164C83.6665 4.96164 83.8557 5.04215 83.9731 5.19166C83.537 5.15715 83.2064 4.66263 83.3598 4.26012C83.5019 3.8576 84.0794 3.67359 84.4332 3.9151C84.1736 3.65059 84.0561 3.24808 84.1504 2.89156C84.3037 2.85705 84.469 2.81105 84.6224 2.77655C84.1624 2.60405 84.1504 1.85652 84.5865 1.63801C85.0114 1.408 85.6248 1.75301 85.6719 2.23604C85.259 2.04052 85.259 1.36199 85.6599 1.15499C86.0609 0.947978 86.6391 1.3275 86.58 1.76451C86.6039 1.454 86.8986 1.18949 87.2173 1.21249C87.5359 1.22399 87.8068 1.523 87.7955 1.83351C87.8658 1.477 88.0783 1.09748 88.456 1.02848C88.8211 0.959479 89.2108 1.4425 88.9393 1.70701C88.7859 1.22399 89.3873 0.77547 89.8952 0.855977C90.4024 0.924976 90.8033 1.316 91.1571 1.68401C91.2043 1.385 91.499 1.15499 91.8057 1.16649C92.1124 1.18949 92.3839 1.454 92.3839 1.75301C92.1595 1.5345 92.2537 1.10898 92.5492 0.993982C92.8439 0.878972 93.2097 1.14349 93.1977 1.4425C93.4102 1.08598 93.8582 0.901974 94.2592 0.993982C94.6601 1.08598 94.9788 1.454 95.014 1.85652C95.0379 1.59201 95.2974 1.408 95.5689 1.36199C95.8278 1.32749 96.0993 1.3965 96.3589 1.4655C96.6656 1.5575 96.9962 1.66101 97.1608 1.92552C97.3261 2.19003 97.1727 2.63855 96.8541 2.61555C97.2789 2.60405 97.7629 2.62705 98.0337 2.93756C98.3052 3.25958 97.9866 3.9036 97.6095 3.7311C98.1167 3.68509 98.683 3.9036 98.8595 4.36362C99.0368 4.82364 98.6239 5.44466 98.128 5.32966C98.5409 5.38716 98.8715 5.80118 98.8243 6.2037C98.7772 6.57171 98.3643 6.89376 97.9395 6.85919Z" fill="#333333"/>
<g id="Group_6">
<path id="Vector_22" d="M98.2193 31.9973L98.3371 32.2618C98.3021 32.1813 98.2551 32.0893 98.2193 31.9973Z" fill="#B79A7D"/>
</g>
<path id="Vector_23" d="M90.7904 110.628C90.8024 109.996 90.8143 109.352 90.8143 108.72C89.6818 108.329 88.3847 108.409 87.3226 108.95C87.2051 109.007 86.9807 108.973 87.0518 108.869C86.0606 109.743 84.9162 110.445 83.6894 110.939C83.4067 111.054 83.1119 111.158 82.8995 111.365C82.4514 111.79 82.5218 112.63 83.0409 112.975C83.5248 113.309 84.1853 113.193 84.7628 113.066C86.4025 112.711 88.0422 112.366 89.6818 112.009C89.9766 111.94 90.3072 111.87 90.5076 111.652C90.7672 111.388 90.7791 110.997 90.7904 110.628Z" fill="#4D4D4D"/>
<path id="Vector_24" d="M102.174 108.613C101.937 108.015 101.702 107.428 101.466 106.83C100.263 106.877 99.0949 107.428 98.3163 108.325C98.234 108.418 98.0096 108.464 98.0335 108.349C97.4433 109.511 96.6534 110.58 95.7094 111.488C95.497 111.696 95.2613 111.903 95.1432 112.167C94.8956 112.73 95.2733 113.478 95.8867 113.616C96.4642 113.743 97.0304 113.398 97.5144 113.075C98.8945 112.156 100.287 111.224 101.678 110.304C101.937 110.131 102.197 109.947 102.303 109.671C102.433 109.326 102.303 108.958 102.174 108.613Z" fill="#4D4D4D"/>
<path id="Vector_25" d="M80.9527 66.6857C80.5982 67.1687 80.1269 67.5597 79.7611 68.0427C78.7348 69.3997 78.7581 71.3549 79.6078 72.8267C80.4688 74.2874 82.0613 75.2647 83.7481 75.633C85.47 76.0013 87.263 75.7941 89.0089 76.0013C90.778 76.2193 92.4887 76.875 94.2698 77.0245C96.8998 77.2433 99.4835 76.3462 101.972 75.4718C103.765 74.8395 105.818 73.9191 106.207 72.0908C106.396 71.1821 106.112 70.2508 105.806 69.377C105.028 67.1572 104.119 64.9951 103.058 62.9021C102.904 62.5915 102.739 62.281 102.468 62.051C101.866 61.5565 100.97 61.6715 100.191 61.8095C96.3223 62.4995 92.3825 62.8905 88.4546 62.9826C87.5107 63.0055 86.5674 63.0171 85.6353 63.0055C84.7976 62.994 83.3232 62.649 82.5445 62.9021C81.7187 63.178 81.9783 63.6496 81.8017 64.5581C81.6484 65.3171 81.4127 66.0531 80.9527 66.6857Z" fill="#662E2A"/>
<path id="Vector_26" d="M94.4019 30.758C94.7086 30.7235 95.0385 30.7005 95.3333 30.7809C95.9825 30.965 96.2301 31.586 96.3835 32.1265C96.9617 34.0931 97.5272 36.0597 98.1054 38.0263C98.5655 39.5903 99.0135 41.1429 99.4736 42.7069C100.866 47.4682 102.258 52.2524 103.095 57.094C103.366 58.6811 103.591 60.2797 103.744 61.8782C103.756 62.0508 103.779 62.2463 103.673 62.3958C103.544 62.5798 103.284 62.6718 103.036 62.7523C96.1359 64.8914 88.2443 65.8344 81.4148 63.5688C81.5562 60.1302 81.6976 56.703 81.8509 53.2644C81.981 50.2743 82.0985 47.2957 82.4411 44.317C82.8652 40.5564 83.6439 36.8302 84.7525 33.173C84.9178 32.6441 85.0711 30.942 85.6374 30.62C86.2276 30.2865 87.3594 30.873 88.079 30.9765C90.1667 31.2755 92.3255 30.9649 94.4019 30.758Z" fill="#AA4A4D"/>
<path id="Vector_27" d="M97.1593 32.3232C99.648 37.6595 102.149 42.9842 104.638 48.3204C104.886 48.8494 105.145 49.413 105.074 49.988C105.004 50.655 104.52 51.207 104.06 51.7131C101.371 54.6917 98.5514 57.7623 94.824 59.3609C94.2226 59.6254 93.5614 59.8439 92.9008 59.7634C92.2403 59.6829 91.5918 59.2229 91.5095 58.5789C91.4033 57.6933 92.3114 57.0608 93.0781 56.5777C95.213 55.2552 97.1242 53.5646 98.6928 51.6211C99.2942 50.8735 99.8604 50.0455 99.9667 49.091C100.085 48.0444 99.6128 47.0209 99.1408 46.0664C97.5722 42.8347 95.7441 39.8101 94.0101 36.682C93.3609 35.5204 93.0542 34.5544 93.8329 33.3698C94.4814 32.4153 96.3926 30.6787 97.1593 32.3232Z" fill="#B79A7D"/>
<path id="Vector_28" d="M91.79 15.4707C91.6247 15.7697 91.4475 16.0917 91.4594 16.4367C91.4714 16.7817 91.7309 17.1497 92.0848 17.1382C91.4594 17.4488 91.4003 18.4608 91.9905 18.8518C91.5656 19.2199 91.6599 20.0019 92.1551 20.2779C91.8013 20.6229 91.9546 21.3244 92.4386 21.497C92.0967 21.7039 91.9666 22.1869 92.1551 22.532C92.3443 22.877 92.8163 23.0495 93.1933 22.9C92.9809 23.1185 92.7685 23.36 92.7572 23.659C92.7453 23.958 93.0639 24.2685 93.3347 24.142C92.8986 24.4756 92.9338 25.2346 93.4058 25.5336C93.8658 25.8326 94.5974 25.5566 94.7387 25.0276C94.9512 25.3151 95.4112 25.3381 95.7179 25.1426C96.0246 24.947 96.1899 24.6021 96.2602 24.2571C96.6612 24.2686 97.086 24.234 97.4047 24.0041C97.7233 23.774 97.8767 23.2795 97.6052 22.9805C97.959 23.015 98.3248 22.8195 98.4901 22.509C98.6547 22.1985 98.6075 21.796 98.3719 21.5314C98.82 21.3589 99.2329 21.0254 99.3039 20.5654C99.3743 20.1054 98.9733 19.5879 98.5013 19.6684C99.1738 19.3808 99.5635 18.5758 99.351 17.8858C99.2919 17.7018 99.0676 17.5062 98.9381 17.6557C99.3271 17.3682 99.5986 16.9197 99.5747 16.4482C99.5515 15.9767 99.1506 15.5282 98.6666 15.5052C99.0444 15.2982 99.209 14.7806 99.0204 14.3896C98.8319 14.0101 98.3008 13.8146 97.8999 13.9871C97.947 13.6881 97.9942 13.3891 98.03 13.1016C98.0413 12.9981 98.0532 12.8715 97.9822 12.7911C97.9238 12.722 97.8176 12.7106 97.7114 12.7106C97.3927 12.6991 97.0628 12.7451 96.7561 12.8486C96.8504 12.538 96.6851 12.1816 96.3904 12.0436C96.0949 11.9055 95.7059 11.986 95.5055 12.239C94.5502 11.4685 92.8866 11.8365 92.3563 12.9291C91.6599 12.423 91.1647 13.3776 91.0346 13.9181C90.9642 14.2401 90.9523 14.6311 91.0936 14.9301C91.1295 14.9877 91.6951 15.6432 91.79 15.4707Z" fill="#333333"/>
</g>
<g id="Group_7">
<path id="Vector_29" d="M56.9572 56.1278C56.9926 56.3119 57.028 56.4958 57.1224 56.6569C57.2167 56.8178 57.3819 56.9559 57.5706 56.9559C57.6532 56.9559 57.7476 56.9328 57.8302 56.9559C57.96 56.9789 58.0543 57.0939 58.1132 57.2203C58.3256 57.6689 58.2076 58.2439 58.5497 58.6005C58.821 58.888 59.2929 58.9109 59.6703 58.7845C59.9888 58.6694 60.2837 58.4279 60.4016 58.1174C60.5078 57.7954 60.4252 57.4389 60.3072 57.1284C59.8944 56.0589 59.0805 55.1273 58.9153 53.9887C58.8918 53.8277 58.8799 53.6437 58.7738 53.5172C58.5969 53.3102 58.2784 53.3217 58.0071 53.3792C57.6178 53.4597 56.7568 53.6207 56.627 54.0693C56.5444 54.3338 56.7096 54.7478 56.7685 55.0123C56.8275 55.3803 56.8865 55.7598 56.9572 56.1278Z" fill="#F9E9DE"/>
<g id="Group_8">
<path id="Vector_30" d="M8.7458 25.9273C8.56889 25.2372 8.49813 24.5357 8.2622 23.8572C8.20319 23.6732 8.12068 23.4892 7.96733 23.3626C7.86112 23.2707 7.71959 23.2246 7.60163 23.1557C6.97646 22.7761 6.91749 21.7871 6.24513 21.5225C5.85588 21.3616 5.38403 21.5226 5.05376 21.7871C4.53474 22.1896 4.20445 22.8221 4.19265 23.4662C4.16906 24.2597 4.59371 25.0072 5.07734 25.6397C5.56095 26.2722 6.13897 26.8588 6.50464 27.5603C6.65799 27.8478 6.77593 28.1584 6.96465 28.4229C7.15339 28.6874 7.43646 28.9174 7.76679 28.9404C8.1678 28.9749 8.50995 28.7104 8.82838 28.4689C9.24129 28.1468 9.80739 27.9054 9.42994 27.3763C9.09969 26.9278 8.8874 26.4678 8.7458 25.9273Z" fill="#F9E9DE"/>
<path id="Vector_31" d="M40.346 78.2116C40.4285 79.6031 40.5229 80.9946 40.7942 82.3628C41.0065 83.4327 41.325 84.4792 41.6553 85.5141C43.5426 91.4251 45.9017 97.1989 48.721 102.753C48.9568 103.225 49.2399 103.731 49.7354 103.938C50.5139 104.26 51.434 103.616 51.6935 102.823C51.953 102.029 51.7407 101.178 51.5401 100.373C50.4785 96.2669 49.4169 92.1726 48.3553 88.0674C48.0958 87.0784 47.848 86.0888 47.6947 85.0772C47.5178 83.8929 47.4824 82.6968 47.4588 81.5008C47.3998 79.2924 47.3409 77.0725 47.5886 74.8758C47.7655 73.3348 48.084 71.8055 48.3789 70.2761C48.9097 67.5274 49.3461 64.7558 49.6764 61.9726C49.7707 61.1791 49.8651 60.3626 49.6764 59.5805C49.2164 57.5795 47.0342 56.2684 44.9346 56.2684C43.3775 56.2684 41.6907 56.8549 40.4521 57.7635C39.4141 58.534 39.532 59.2701 39.5911 60.4431C39.7798 64.2152 39.8387 67.9989 40.0039 71.7712C40.11 73.9219 40.2163 76.0719 40.346 78.2116Z" fill="#ADADAD"/>
<path id="Vector_32" d="M28.7638 63.0196C28.7874 61.352 28.8228 59.6614 29.2592 58.0974C29.6956 56.5333 30.5685 55.0842 31.8307 54.4747C33.3523 53.7387 35.2397 54.3827 36.4428 55.8202C37.646 57.2578 38.2004 59.3509 38.1414 61.3405C38.106 62.3871 37.9172 63.4106 37.7993 64.4456C37.5633 66.3777 37.5752 68.3558 37.528 70.3111C37.3864 76.4408 36.7967 82.513 36.2069 88.5851C35.7822 92.9208 35.3694 97.2565 34.9447 101.592C34.8386 102.662 34.7442 103.743 34.6381 104.812C34.5083 106.054 34.3786 106.492 33.2108 106.376C31.7481 106.239 31.6774 105.065 31.5004 103.524C30.486 94.8644 29.6012 86.1814 29.1176 77.4757C28.8463 72.6682 28.6812 67.8267 28.7638 63.0196Z" fill="#ADADAD"/>
<path id="Vector_33" d="M24.5892 61.3528C23.9051 62.8364 22.8317 64.1474 22.3127 65.6885C21.8054 67.241 22.0768 69.2419 23.5394 70.0244C25.1436 70.8865 27.2905 69.8632 28.9301 70.6567C30.1569 71.2431 30.7584 72.6922 31.9733 73.3135C33.035 73.8539 34.3207 73.6468 35.4413 73.2443C36.5619 72.8417 37.6118 72.2437 38.7795 72.0139C40.0299 71.7609 41.3628 71.9563 42.4952 72.5427C43.4507 73.0488 44.3353 73.8423 45.4205 73.8656C47.3904 73.8999 48.6172 71.4159 50.5753 71.289C51.4009 71.2431 52.1913 71.623 53.017 71.5654C54.6094 71.4502 55.612 69.7021 55.5295 68.1496C55.4469 66.597 54.633 65.194 53.996 63.7679C53.2647 62.1233 52.7575 60.3867 52.498 58.6157C52.2856 57.1206 52.0969 55.3726 50.7757 54.602C50.1152 54.211 49.3013 54.165 48.5346 54.165C43.2501 54.1075 38.0128 55.154 32.7283 54.9586C30.9117 54.8896 28.2931 53.751 27.0192 55.2576C25.6155 56.9481 25.4739 59.4207 24.5892 61.3528Z" fill="#F2F2F2"/>
<path id="Vector_34" d="M30.8058 102.303C30.5817 102.867 30.7586 103.488 30.9002 104.074C31.1715 105.202 31.2894 106.374 31.2422 107.536C31.2422 107.628 31.2305 107.72 31.1951 107.812C31.1007 108.019 30.8412 108.1 30.6171 108.146C29.7206 108.341 28.7888 108.375 27.8923 108.249C27.3025 108.168 26.6419 108.042 26.1819 108.41C25.9106 108.617 25.7808 108.951 25.6865 109.273C25.5449 109.721 25.4506 110.17 25.3798 110.63C25.2972 111.228 25.309 111.941 25.8044 112.309C26.1229 112.539 26.5358 112.573 26.9368 112.585C29.3785 112.665 31.832 112.596 34.2737 112.355C34.7338 112.309 35.2528 112.217 35.4887 111.826C35.6185 111.607 35.6185 111.343 35.6185 111.09C35.6067 109.272 35.5595 107.456 35.4769 105.638C35.4297 104.73 35.3708 103.821 35.3118 102.913C35.2882 102.637 35.359 102.188 35.0523 102.05C34.7928 101.924 34.0851 102.165 33.802 102.2C33.5071 102.246 30.8294 102.246 30.8058 102.303Z" fill="#736357"/>
<path id="Vector_35" d="M51.4334 99.0615C51.9407 100.752 52.4597 102.443 52.9669 104.134C53.1557 104.743 53.3443 105.364 53.651 105.928C53.8279 106.249 54.0403 106.548 54.2408 106.847C54.807 107.71 55.2435 108.653 55.5383 109.642C55.5974 109.861 55.6563 110.079 55.6327 110.309C55.5973 110.573 55.4558 110.815 55.2906 111.022C54.5239 111.977 53.191 112.459 51.976 112.218C51.7283 112.172 51.4806 112.092 51.2919 111.942C51.0442 111.759 50.9026 111.471 50.7965 111.195C49.959 109.17 50.0179 106.871 49.0861 104.881C48.8619 104.398 48.5788 103.938 48.3547 103.443C48.1896 103.076 48.0598 102.696 47.9301 102.316C47.7768 101.868 47.3875 101.166 47.3875 100.695C47.3875 100.247 47.9301 100.143 48.3429 99.9702C49.3574 99.556 50.3836 99.257 51.4334 99.0615Z" fill="#736357"/>
<path id="Vector_36" d="M25.2734 56.0273C25.4504 56.1999 25.7334 56.2458 25.9339 56.3953C26.1817 56.5794 26.2878 56.9244 26.1699 57.2119C26.0637 57.4879 25.7689 57.7179 25.8278 58.0054C25.8986 58.3965 26.4766 58.431 26.8305 58.247C27.1843 58.063 27.5382 57.7639 27.9392 57.8214C28.3875 57.879 28.6352 58.3504 28.8476 58.753C29.0599 59.144 29.4373 59.581 29.8738 59.466C30.1922 59.3855 30.4046 59.029 30.7348 58.9945C31.2302 58.9369 31.4662 59.535 31.7257 59.9375C32.0442 60.432 32.6811 60.777 33.2473 60.5815C33.731 60.409 34.0494 59.9031 34.5566 59.8455C35.0756 59.788 35.4885 60.225 35.8542 60.5815C36.2198 60.9381 36.786 61.2831 37.2225 61.0186C37.364 60.9381 37.4584 60.8115 37.5646 60.6965C38.0954 60.133 38.9682 59.903 39.7231 60.1215C40.2068 60.2595 40.6196 60.5585 41.0797 60.7196C41.5515 60.8921 42.1413 60.8921 42.4716 60.5356C42.6249 60.363 42.7075 60.1445 42.8609 59.972C43.2501 59.558 43.9343 59.6615 44.4769 59.857C45.0195 60.041 45.6211 60.2825 46.14 60.041C46.659 59.788 46.9186 59.1095 47.4966 59.006C47.8387 58.9485 48.1689 59.1095 48.511 59.1325C49.1008 59.167 49.667 58.7185 49.7495 58.1549C50.1624 58.1894 50.5988 58.2125 50.9881 58.0399C51.3655 57.8674 51.6605 57.4304 51.4954 57.0509C52.0497 57.0739 52.4272 56.2804 52.0379 55.8894C51.8374 55.6938 51.4954 55.5903 51.4246 55.3143C51.3656 55.0728 51.5307 54.7623 51.3302 54.6128C50.7758 54.8428 50.4455 55.3833 50.0209 55.7973C49.3604 56.4414 48.452 56.7634 47.5437 56.9934C44.1584 57.8674 40.5843 57.5914 37.0927 57.2924C34.6156 57.0854 32.0913 56.8554 29.7676 55.9928C29.3665 55.8433 28.9655 55.6823 28.5526 55.5788C27.7505 55.3833 26.913 55.2108 26.1227 55.0383C25.5683 54.9118 24.719 55.4753 25.2734 56.0273Z" fill="white"/>
<path id="Vector_37" d="M38.5657 14.613C37.9405 15.1535 37.0912 15.3606 36.2891 15.602C35.4869 15.8436 34.6613 16.1426 34.1422 16.7866C33.7766 17.2351 33.6232 17.8101 33.4699 18.3621C33.1868 19.3742 32.9155 20.5013 33.4109 21.4443C33.6586 21.9273 34.095 22.3068 34.272 22.8244C34.4961 23.4684 34.2602 24.1699 33.9535 24.7795C33.6468 25.3889 33.2694 25.987 33.175 26.654C33.1042 27.1371 33.1868 27.6546 33.0453 28.1145C32.7858 28.9426 31.8421 29.4256 30.9574 29.4601C30.0727 29.4947 29.2116 29.1611 28.3859 28.8391C27.8197 28.6206 27.1945 28.3216 27.053 27.7465C26.9586 27.3211 27.171 26.8955 27.4423 26.5505C27.7136 26.2055 28.0556 25.918 28.268 25.5384C28.3742 25.343 28.4567 25.113 28.3623 24.9059C28.2444 24.6529 27.8905 24.561 27.7725 24.3079C27.631 23.9974 27.9023 23.6524 28.1972 23.4569C28.4803 23.2614 28.8342 23.0774 28.9168 22.7438C29.0583 22.1803 28.327 21.7663 28.15 21.2143C27.9494 20.6163 28.4213 20.0182 28.8577 19.5582C29.2942 19.0982 29.7542 18.5002 29.5537 17.9022C29.4357 17.5571 29.1054 17.2466 29.188 16.9016C29.306 16.4416 29.9901 16.4186 30.344 16.0966C30.9456 15.556 30.3912 14.5785 30.5681 13.808C30.7568 12.9914 31.7477 12.5544 31.9601 11.7494C32.019 11.5309 32.019 11.2894 32.1016 11.0824C32.2078 10.8178 32.4437 10.6223 32.6678 10.4383C33.4816 9.75978 34.3428 9.05827 35.3926 8.86281C36.0885 8.72476 36.808 8.82825 37.4922 8.9663C38.1056 9.09276 38.7426 9.26531 39.1554 9.72529C40.0873 10.7718 39.5919 13.739 38.5657 14.613Z" fill="#C6B697"/>
<path id="Vector_38" d="M12.8282 28.7712C16.0484 29.7027 19.4102 30.5998 22.7366 30.1283C26.5112 29.5877 29.9438 27.3222 33.7538 27.2877C33.9779 27.2877 34.2257 27.2991 34.4144 27.4141C34.5677 27.5176 34.6739 27.6786 34.7683 27.8397C35.6411 29.3922 35.8417 31.2898 35.3344 32.9919C35.0514 33.9349 34.5442 34.8204 33.8246 35.5105C33.2938 36.0165 32.6568 36.396 31.9963 36.7065C29.7433 37.7761 27.1482 38.0866 24.6475 37.8451C22.1468 37.615 19.7169 36.8675 17.3931 35.936C15.6238 35.2229 13.9016 34.3949 12.3446 33.3254C10.6224 32.1293 9.12435 30.6458 7.64992 29.1622C7.56734 29.0817 7.48476 28.9897 7.47294 28.8747C7.42574 28.0582 9.1361 27.3796 9.79667 27.5291C10.7993 27.7707 11.7902 28.4837 12.8282 28.7712Z" fill="#D5AFCB"/>
<path id="Vector_39" d="M41.9633 26.4117C42.5059 26.2737 43.0839 26.0897 43.6382 26.1932C44.3696 26.3197 44.8061 26.8487 45.1363 27.3433C47.4129 30.7359 48.2976 34.5196 49.0879 38.2572C50.2202 43.5704 51.7184 48.4811 51.6829 53.8633C51.6712 55.1514 51.506 56.6004 50.1614 57.417C49.4772 57.831 48.6042 58.015 47.7432 58.1415C44.0393 58.6935 39.7339 58.8775 35.971 58.6245C34.3196 58.5095 32.6565 58.3945 31.0641 58.0725C29.2239 57.7045 27.3719 56.98 26.5109 55.7264C25.7441 54.6224 25.8857 53.2998 26.0744 52.0692C26.7585 47.354 27.7258 42.6504 28.9762 37.9927C29.8137 34.8645 30.7809 31.7479 31.7364 28.6428C32.161 27.2512 32.8098 25.6987 35.0982 26.1127C37.5163 26.5382 39.4272 27.0557 41.9633 26.4117Z" fill="#D5AFCB"/>
<path id="Vector_40" d="M39.4832 25.8035C38.7283 25.8725 37.82 26.0106 37.0769 25.8841C35.0126 25.5276 33.7741 23.4575 32.7125 21.6404C31.7452 19.9843 32.0401 16.9367 32.3586 15.0277C32.4647 14.3836 32.5945 13.7166 32.9602 13.176C33.6915 12.1295 35.0952 11.8995 36.3455 11.842C38.5396 11.727 40.828 11.865 42.7152 12.9805C47.1977 15.6026 44.803 25.2976 39.4832 25.8035Z" fill="#F9E9DE"/>
<path id="Vector_41" d="M48.7672 30.0442C54.382 36.4844 56.6585 44.8337 58.7817 52.8956C58.8289 53.0681 58.8761 53.2636 58.8052 53.4246C58.6637 53.8041 57.3662 53.9881 56.7765 54.1721C56.5051 54.2526 56.222 54.1491 56.1159 53.8962C54.5706 50.2735 52.6479 46.2253 49.9585 42.6027C47.7998 39.6931 46.3136 36.9904 42.8575 35.2654C41.4184 34.5409 41.0881 33.8623 41.1943 32.2752C41.3004 30.7227 42.3738 29.1126 43.6832 28.3651C45.653 27.2151 47.5286 28.6181 48.7672 30.0442Z" fill="#D5AFCB"/>
<path id="Vector_42" d="M35.476 30.5306C35.8889 32.4397 36.1719 34.3602 36.4668 36.2924C36.514 36.5799 36.5848 36.9018 36.8443 37.0284C37.2217 37.2239 37.6464 36.8559 37.8823 36.5109C39.1916 34.6018 39.3922 32.1752 40.3123 30.0591C40.6897 29.1735 41.2088 28.334 41.4565 27.4025C41.5036 27.23 41.5391 27.046 41.4682 26.8735C41.3267 26.5169 40.8312 26.4824 40.442 26.4939C39.8286 26.5169 39.2153 26.5055 38.5901 26.4824C38.1065 26.4594 37.6228 26.4364 37.1628 26.2984C36.5966 26.1374 35.9478 25.7119 35.3463 25.7234C34.7918 25.7464 34.8273 26.1374 34.8273 26.5974C34.839 27.943 35.1929 29.2425 35.476 30.5306Z" fill="#F7F7F7"/>
<path id="Vector_43" d="M33.8722 27.1142C33.9194 27.3212 34.1553 27.4592 34.1907 27.6777C34.226 27.9192 33.9783 28.1147 33.7425 28.1952C33.5065 28.2642 33.2352 28.2757 33.0229 28.4022C32.8106 28.5287 32.7044 28.8622 32.8931 29.0117C32.9757 29.0693 33.0819 29.0808 33.1881 29.1038C33.5773 29.1957 33.9312 29.5868 33.7897 29.9548C33.6953 30.1848 33.4476 30.3228 33.2824 30.5183C33.1173 30.7138 33.0701 31.0703 33.306 31.1623C33.3886 31.1968 33.483 31.1853 33.5655 31.1853C33.8722 31.1968 34.1671 31.4729 34.1435 31.7719C34.1199 32.0249 33.9075 32.2089 33.7425 32.3929C33.5773 32.5769 33.4358 32.8529 33.5655 33.0714C33.6953 33.2899 34.0256 33.3129 34.1553 33.5314C34.4502 34.003 33.483 34.601 33.825 35.038C33.9901 35.245 34.3558 35.2105 34.521 35.429C34.7215 35.6935 34.4383 36.05 34.1788 36.2571C33.9194 36.4641 33.6363 36.8205 33.8368 37.0851C33.9901 37.2806 34.2968 37.2461 34.5446 37.2346C34.7922 37.2116 35.1226 37.2921 35.1579 37.5336C35.1815 37.7521 34.9338 37.9131 34.9103 38.1431C34.8513 38.5801 35.5944 38.6837 35.7949 39.0746C36.0426 39.5807 35.2995 40.0637 35.3231 40.6272C35.3349 41.0872 35.8656 41.4093 35.8893 41.8578C35.9128 42.2143 35.618 42.5478 35.7005 42.9043C35.7242 42.9963 35.7714 43.0883 35.7949 43.1803C35.8303 43.3988 35.7124 43.6059 35.6062 43.8014C35.4646 44.1004 35.382 44.4453 35.5118 44.7444C35.6415 45.0434 36.0662 45.2274 36.3375 45.0434C36.538 44.9054 36.597 44.6179 36.5616 44.3764C36.538 44.1349 36.4555 43.8933 36.479 43.6403C36.5262 43.0538 37.1396 42.6053 37.1278 42.0303C37.116 41.7083 36.9273 41.4207 36.9155 41.0987C36.8919 40.5812 37.3638 40.0982 37.2576 39.5922C37.1986 39.2931 36.9509 39.0631 36.8565 38.7756C36.6914 38.2811 37.0099 37.7636 37.0334 37.2346C37.0453 36.9816 36.9744 36.7286 36.9155 36.4756C36.7031 35.613 36.479 34.7505 36.2667 33.888C36.2195 33.6809 36.1606 33.4739 36.1723 33.2554C36.1723 33.0599 36.2313 32.8644 36.2549 32.6804C36.3611 31.9559 36.0898 31.2429 35.9128 30.5413C35.6652 29.6213 35.559 28.6668 35.5708 27.7122C35.5826 27.2407 35.6533 26.4011 35.0635 26.2516C34.6507 26.1481 33.7543 26.6311 33.8722 27.1142Z" fill="white"/>
<path id="Vector_44" d="M42.7639 27.277C43.0234 27.7715 42.8228 28.4041 42.4336 28.8181C42.351 28.9101 42.2449 29.0021 42.2095 29.1171C42.0325 29.5771 42.7993 29.9682 42.7049 30.4512C42.5987 31.0032 41.6079 30.9111 41.3956 31.4287C41.2777 31.7277 41.4781 32.0382 41.6551 32.3027C41.832 32.5672 41.9854 32.9352 41.773 33.1883C41.4309 33.6023 40.5345 33.1537 40.2632 33.6138C40.1098 33.8668 40.2986 34.1773 40.4047 34.4533C40.5345 34.7753 40.5109 35.2009 40.2161 35.3849C39.8976 35.5804 39.4139 35.4079 39.1308 35.6494C38.9302 35.8219 38.9303 36.1324 38.9185 36.3969C38.9067 36.6614 38.8241 36.9834 38.5646 37.0639C38.4938 37.0869 38.4112 37.0869 38.3523 37.1329C38.2815 37.1904 38.2697 37.294 38.2697 37.3859C38.2579 37.731 38.2579 38.076 38.2461 38.4095C37.963 38.329 37.621 38.559 37.6091 38.858C37.6091 39.0075 37.6682 39.1685 37.5973 39.295C37.5148 39.4445 37.2906 39.479 37.1373 39.3985C36.9839 39.3181 36.8778 39.1685 36.7952 39.019C36.5475 38.5705 36.3588 38.0415 36.524 37.5585C36.6537 37.1789 36.984 36.9029 37.2435 36.5809C37.7035 36.0174 37.9512 35.3273 38.1989 34.6603C38.8477 32.9352 39.5554 31.2217 40.3103 29.5311C40.6642 28.7491 40.9945 27.921 41.372 27.162C41.6787 26.633 42.4572 26.679 42.7639 27.277Z" fill="white"/>
<path id="Vector_45" d="M42.4094 16.0627C43.1643 16.5342 43.7894 17.2587 44.0018 18.1098C44.2848 19.2483 43.8012 20.4444 43.1525 21.4334C42.5155 22.4225 41.7133 23.331 41.2533 24.4121C41.0528 24.8836 40.9231 25.3896 40.8287 25.8956C40.6636 26.7697 40.6046 27.6897 40.8877 28.5292C41.1707 29.3687 41.8785 30.1163 42.775 30.2773C43.6715 30.4383 44.6977 29.8402 44.8039 28.9662C44.8628 28.4947 44.6859 27.9427 45.0044 27.5747C45.4291 27.0917 46.4435 27.3101 46.6676 26.7121C46.8917 26.1256 45.9952 25.6771 45.9127 25.0446C45.8064 24.1936 47.1984 23.8485 47.3989 23.009C47.5758 22.273 46.7383 21.5254 47.0096 20.8239C47.1394 20.4904 47.4815 20.2949 47.7528 20.0533C48.0241 19.8119 48.2482 19.4323 48.0713 19.1218C48.0005 19.0068 47.8943 18.9148 47.8117 18.8113C47.6112 18.5238 47.6584 18.1443 47.6938 17.7993C47.8589 16.1432 47.4461 14.4296 46.5379 13.0151C46.184 12.463 45.7593 11.9686 45.311 11.4855C44.8038 10.9565 44.2731 10.4504 43.6479 10.0595C42.5391 9.34643 41.1944 9.01293 39.885 9.09344C39.366 9.12794 38.847 9.23142 38.387 9.4729C37.113 10.1514 36.5704 12.2215 37.29 13.4406C38.4342 15.3497 40.6871 14.9701 42.4094 16.0627Z" fill="#C6B697"/>
<g id="Group_9">
<path id="Vector_46" d="M10.7983 21.7565C10.8809 21.9405 10.9753 22.159 10.8927 22.3545C10.8337 22.4695 10.7275 22.55 10.6214 22.6305C8.38016 24.1716 6.10362 25.7817 3.76806 27.1847C3.61472 27.2767 3.44959 27.3802 3.26086 27.4262C2.89519 27.5182 2.64748 27.8057 2.34079 27.5757C2.0341 27.3572 1.52687 26.4947 1.32634 26.1842C1.03145 25.7241 0.630404 25.1031 0.418081 24.6201C0.347307 24.4706 0.288333 24.2981 0.311924 24.1371C0.335516 23.9186 0.512449 23.746 0.677589 23.5851C1.22019 23.079 1.93972 22.7455 2.50591 22.274C3.31982 21.5955 4.18091 21.1009 5.08918 20.5374C5.71436 20.1464 6.32771 19.6289 6.98828 19.2954C7.43653 19.0769 7.96733 18.6859 8.45099 18.5823C8.80481 18.5133 8.96997 18.7549 9.14688 19.0079C9.76026 19.8819 10.3501 20.7904 10.7983 21.7565Z" fill="#FF8FA0"/>
<path id="Vector_47" d="M10.2932 21.7906C10.364 21.9517 10.4466 22.1472 10.3758 22.3082C10.3286 22.4117 10.2343 22.4807 10.1517 22.5382C8.2762 23.8492 6.54222 25.0798 4.58412 26.2644C4.45437 26.3448 4.02971 26.6669 3.87637 26.7014C3.56968 26.7819 3.65225 26.7819 3.39274 26.5864C3.13324 26.3908 2.69678 25.6548 2.53164 25.3788C2.28393 24.9878 1.94189 24.4473 1.75315 24.0103C1.69418 23.8723 1.63518 23.7342 1.65877 23.5962C1.68236 23.4007 1.82391 23.2512 1.95366 23.1247C2.4019 22.6877 2.83835 22.5612 3.32197 22.1586C4.00612 21.5721 4.72564 21.1581 5.48058 20.6751C5.99959 20.3416 6.51863 19.8931 7.06124 19.617C7.4269 19.433 7.87512 19.0881 8.28795 19.019C8.58289 18.9615 8.72442 19.18 8.87777 19.3985C9.39674 20.1576 9.90398 20.9511 10.2932 21.7906Z" fill="white"/>
<path id="Vector_48" d="M10.2932 21.7906C10.364 21.9517 10.4466 22.1472 10.3758 22.3082C10.3286 22.4117 10.2343 22.4807 10.1517 22.5382C8.2762 23.8492 6.54222 25.0798 4.58412 26.2644C4.45437 26.3448 4.02971 26.6669 3.87637 26.7014C3.56968 26.7819 3.65225 26.7819 3.39274 26.5864C3.13324 26.3908 2.69678 25.6548 2.53164 25.3788C2.28393 24.9878 1.94189 24.4473 1.75315 24.0103C1.69418 23.8723 1.63518 23.7342 1.65877 23.5962C1.68236 23.4007 1.82391 23.2512 1.95366 23.1247C2.4019 22.6877 2.83835 22.5612 3.32197 22.1586C4.00612 21.5721 4.72564 21.1581 5.48058 20.6751C5.99959 20.3416 6.51863 19.8931 7.06124 19.617C7.4269 19.433 7.87512 19.0881 8.28795 19.019C8.58289 18.9615 8.72442 19.18 8.87777 19.3985C9.39674 20.1576 9.90398 20.9511 10.2932 21.7906Z" fill="white"/>
<path id="Vector_49" d="M10.2932 21.7906C10.364 21.9517 10.4466 22.1472 10.3758 22.3082C10.3286 22.4117 10.2343 22.4807 10.1517 22.5382C8.2762 23.8492 6.54222 25.0798 4.58412 26.2644C4.45437 26.3448 4.02971 26.6669 3.87637 26.7014C3.56968 26.7819 3.65225 26.7819 3.39274 26.5864C3.13324 26.3908 2.69678 25.6548 2.53164 25.3788C2.28393 24.9878 1.94189 24.4473 1.75315 24.0103C1.69418 23.8723 1.63518 23.7342 1.65877 23.5962C1.68236 23.4007 1.82391 23.2512 1.95366 23.1247C2.4019 22.6877 2.83835 22.5612 3.32197 22.1586C4.00612 21.5721 4.72564 21.1581 5.48058 20.6751C5.99959 20.3416 6.51863 19.8931 7.06124 19.617C7.4269 19.433 7.87512 19.0881 8.28795 19.019C8.58289 18.9615 8.72442 19.18 8.87777 19.3985C9.39674 20.1576 9.90398 20.9511 10.2932 21.7906Z" fill="white"/>
<path id="Vector_50" d="M2.17826 25.2179C2.06031 25.1489 1.91877 25.1259 1.78902 25.1604C1.63568 25.2064 1.5295 25.3329 1.48232 25.4824C1.44694 25.6319 1.47054 25.7929 1.52952 25.9309C1.5531 25.9884 1.58849 26.0459 1.63567 26.0919C1.71824 26.1609 1.82439 26.1724 1.91876 26.1609C2.01312 26.1494 2.1075 26.1034 2.19007 26.0459C2.27264 25.9884 2.35521 25.9194 2.40239 25.8274C2.54393 25.5859 2.39059 25.3444 2.17826 25.2179Z" fill="#E5E5E5"/>
<path id="Vector_51" d="M10.1254 20.7568C10.149 20.7913 10.1726 20.8258 10.1726 20.8718C10.1726 20.9178 10.1372 20.9523 10.0901 20.9523C10.0546 20.9523 10.031 20.9178 10.0192 20.8833C9.91309 20.7108 9.80694 20.5383 9.68898 20.3543C9.66541 20.3083 9.61822 20.2163 9.68898 20.1818C9.75974 20.1588 9.80694 20.2393 9.83051 20.2853C9.93672 20.4463 10.031 20.6073 10.1254 20.7568Z" fill="#8A8A8A"/>
<path id="Vector_52" d="M9.63266 19.9856C9.60916 19.9511 9.56209 19.9511 9.52681 19.9741C9.50324 19.9971 9.50324 20.0546 9.53852 20.0776C9.57381 20.1006 9.62088 20.0891 9.64438 20.0546C9.64438 20.0316 9.64445 20.0086 9.63266 19.9856Z" fill="#8A8A8A"/>
<g id="Group_10">
<g id="Group_11">
<path id="Vector_53" d="M5.49253 25.7946C5.46894 25.8405 5.44536 25.8751 5.39818 25.8981C5.3392 25.9211 5.26842 25.8751 5.20944 25.8405C5.00891 25.691 4.80838 25.5415 4.60785 25.392C4.41912 25.254 4.23038 25.1161 4.12422 24.9205C4.07704 24.8286 4.05347 24.6905 4.14783 24.6445C4.20682 24.6215 4.26578 24.633 4.32476 24.6675C4.54888 24.7595 4.66684 24.932 4.84378 25.0931C4.91456 25.1621 5.07969 25.323 5.17406 25.369C5.26842 25.4035 5.31559 25.3001 5.37456 25.2195C5.42175 25.1505 5.46893 24.9665 5.48072 24.886C5.50431 24.7135 5.51615 24.6791 5.55153 24.5755C5.57512 24.5065 5.5869 24.5065 5.64588 24.472C5.97616 24.265 5.81102 24.9205 5.78742 25.0355C5.71665 25.3001 5.62228 25.553 5.49253 25.7946Z" fill="#B79A7D"/>
<path id="Vector_54" d="M6.35433 22.5167C6.36613 22.3787 6.42512 22.2522 6.43692 22.1142C6.43692 21.9992 6.40151 21.8727 6.30714 21.8037C6.21278 21.7346 6.07123 21.7232 5.97687 21.7922L6.08302 21.7232C6.20098 21.6887 6.34252 21.6542 6.44869 21.7232C6.51946 21.7807 6.55484 21.8727 6.59023 21.9532C6.63742 22.0797 6.69641 22.1947 6.79078 22.2867C6.86155 22.3557 6.9559 22.4017 7.03848 22.4592C7.12104 22.5167 7.19183 22.6087 7.19183 22.7122C7.19183 22.7927 7.13286 22.8732 7.06209 22.9192C6.99131 22.9652 6.90872 22.9882 6.81435 22.9997C6.74358 23.0112 6.661 23.0112 6.59023 22.9767C6.51945 22.9422 6.46049 22.8847 6.42511 22.8157C6.36613 22.7352 6.34255 22.6202 6.35433 22.5167Z" fill="#534741"/>
<path id="Vector_55" d="M3.71015 22.0106C4.00505 22.9767 4.08764 22.9192 4.54768 23.2987C4.63024 23.3677 4.80717 23.4827 4.90153 23.5287C5.06667 23.6207 5.2672 23.6552 5.45593 23.6898C5.49132 23.7012 5.53851 23.7012 5.5739 23.7012C5.60929 23.6897 5.64465 23.6783 5.66825 23.6552C5.75082 23.5862 5.78622 23.4712 5.76264 23.3677C5.73904 23.2413 5.65647 23.2413 5.53851 23.2297C5.31439 23.2067 5.17284 23.1492 4.94872 23.0802C4.83077 23.0457 4.71281 22.9652 4.61845 22.8847C4.35894 22.6892 4.31176 22.7122 4.06404 22.3327C4.01687 22.2637 3.9343 22.0337 3.9225 21.9532C3.91071 21.8611 3.89889 21.7807 3.89889 21.7116C3.91069 21.6771 3.88711 21.6312 3.88711 21.6081C3.87532 21.5621 3.8753 21.5162 3.89889 21.4702C3.91069 21.4472 3.92249 21.4241 3.91069 21.4012C3.91069 21.3896 3.89889 21.3896 3.89889 21.3781C3.89889 21.3667 3.89889 21.3551 3.89889 21.3551C3.89889 21.3322 3.8989 21.3206 3.91069 21.2977C3.91069 21.2862 3.9225 21.2746 3.9225 21.2631C3.9225 21.2401 3.88709 21.1827 3.8635 21.1711C3.83991 21.1596 3.74555 21.1596 3.72196 21.1827C3.71016 21.1941 3.68656 21.2056 3.67477 21.2172C3.66297 21.2401 3.63941 21.2631 3.62761 21.2862C3.61581 21.3091 3.604 21.3436 3.604 21.3667C3.5804 21.4586 3.65119 21.5736 3.65119 21.6771L3.71015 22.0106Z" fill="#E2CBB7"/>
<path id="Vector_56" d="M6.01266 22.8971C5.85931 22.9776 5.65878 23.0466 5.5998 23.1961C5.55262 23.3111 5.59982 23.4377 5.647 23.5412C6.04805 24.4267 6.64964 25.1857 7.12147 26.0367C7.26301 26.3013 7.39277 26.5658 7.51074 26.8418C7.54612 26.9223 7.5815 27.0143 7.5815 27.1063C7.5815 27.1638 7.56968 27.2098 7.5815 27.2674C7.60506 27.4169 7.79379 27.4973 7.95895 27.4859C8.12411 27.4628 8.26564 27.3708 8.40717 27.2903C8.84364 27.0143 9.28011 26.7268 9.70476 26.4508C9.8109 26.3818 9.92887 26.3013 9.96425 26.1748C9.99963 26.0598 9.92887 25.9333 9.8581 25.8298C9.50421 25.3238 8.99698 24.9557 8.54877 24.5302C8.10048 24.1162 7.71128 23.6446 7.27481 23.2192C7.07429 23.0236 6.83838 22.7821 6.57887 22.6556C6.36655 22.5406 6.22498 22.7936 6.01266 22.8971Z" fill="#D9924E"/>
<g id="Group_12">
<path id="Vector_57" d="M7.89998 22.6089C8.01795 22.6203 8.17129 22.6203 8.24205 22.5284C8.28925 22.4594 8.27744 22.3673 8.26569 22.2868C8.21849 21.9074 8.17129 21.5163 8.13591 21.1368C8.21849 21.1368 8.31282 21.1368 8.36002 21.1943C8.38358 21.2288 8.3954 21.2748 8.3954 21.3208C8.46616 21.8153 8.51336 22.3099 8.54874 22.8043C8.54874 22.8503 8.54874 22.9079 8.52518 22.9424C8.50161 22.9884 8.4426 23.0114 8.38365 23.0343C8.05333 23.1379 7.71126 23.1724 7.35744 23.1838C7.26304 23.1838 7.16866 23.1838 7.08609 23.1379C7.02711 23.0919 6.9917 23.0343 6.95632 22.9653C6.87375 22.7929 6.7912 22.4823 7.08609 22.5054C7.36919 22.5284 7.64049 22.5744 7.89998 22.6089Z" fill="#E2CBB7"/>
<path id="Vector_58" d="M8.07542 20.9318C8.08723 20.9088 8.1108 20.8858 8.13443 20.8628C8.18163 20.8053 8.158 20.7133 8.19345 20.6558C8.22883 20.5983 8.2996 20.5638 8.37036 20.5868C8.42931 20.5983 8.48832 20.6558 8.5237 20.7018C8.53552 20.7248 8.55909 20.7363 8.55909 20.7593C8.5709 20.7823 8.55909 20.8053 8.55909 20.8398C8.53552 20.9548 8.48832 21.0698 8.41756 21.1734C8.40574 21.1963 8.39392 21.2193 8.37036 21.2308C8.28778 21.2883 8.19338 21.2308 8.14625 21.1734C8.12262 21.1273 8.05185 20.9778 8.07542 20.9318Z" fill="#E2CBB7"/>
</g>
<path id="Vector_59" d="M7.10801 20.7918C7.19058 20.8033 7.27317 20.7802 7.34397 20.7573C7.42648 20.7343 7.50906 20.7228 7.57982 20.7457C7.63884 20.7688 7.67422 20.8033 7.72142 20.8378C7.79218 20.9068 7.87477 20.9873 7.88651 21.0908C7.88651 21.1483 7.87477 21.1943 7.88651 21.2518C7.89833 21.3208 7.95735 21.3668 8.01629 21.4013C8.07531 21.4358 8.13426 21.4703 8.18145 21.5163C8.21684 21.5508 8.22865 21.5968 8.26404 21.6313C8.3348 21.6888 8.42913 21.6773 8.51171 21.6428C8.58247 21.5968 8.64149 21.5278 8.68862 21.4588C8.724 21.4128 8.75945 21.3553 8.73582 21.2978C8.72407 21.2633 8.67687 21.2288 8.64149 21.2173C8.60611 21.2058 8.55891 21.1943 8.52353 21.1713C8.49989 21.1598 8.48814 21.1483 8.48814 21.1253C8.48814 21.1023 8.51171 21.0678 8.49996 21.0448C8.49996 21.0103 8.45276 20.9988 8.41738 20.9988C8.382 20.9988 8.34655 20.9988 8.32298 20.9758C8.27578 20.9413 8.32298 20.8608 8.31123 20.8148C8.29942 20.7573 8.22858 20.7343 8.16964 20.7113C8.11062 20.6998 8.03986 20.6653 8.02811 20.6078C8.01629 20.5733 8.02811 20.5273 8.00448 20.5043C7.96909 20.4698 7.91015 20.5043 7.86295 20.4928C7.78037 20.4812 7.78037 20.3663 7.72142 20.3203C7.6624 20.2627 7.55626 20.2743 7.49731 20.2167C7.4855 20.2053 7.47368 20.1822 7.45011 20.1708C7.42648 20.1592 7.40291 20.1477 7.36753 20.1477C7.26136 20.1363 7.15522 20.1132 7.06086 20.1477C7.00188 20.1708 6.94288 20.2167 6.8957 20.2627C6.84852 20.3088 6.81314 20.3548 6.80135 20.4122C6.77775 20.5502 6.97826 20.7688 7.10801 20.7918Z" fill="#C6B697"/>
<path id="Vector_60" d="M9.97247 20.6679C9.76011 20.9094 9.52419 21.1509 9.22931 21.2775C8.88724 21.427 8.48616 21.4039 8.16765 21.5879C8.14409 21.5995 8.13234 21.611 8.12052 21.634C8.1087 21.6455 8.1087 21.6685 8.1087 21.6914C8.12052 21.864 8.2031 22.025 8.33281 22.1399C8.40358 22.209 8.49797 22.255 8.59237 22.2665C8.66314 22.278 8.7339 22.278 8.80466 22.278C9.05234 22.255 9.27651 22.1515 9.46524 22.002C9.65397 21.864 9.81913 21.68 9.96066 21.4845C10.0668 21.3349 10.1729 21.1854 10.2437 21.013C10.3263 20.829 10.3735 20.6334 10.4089 20.4379C10.4089 20.4264 10.4089 20.4149 10.4089 20.4034C10.3735 20.3344 10.1966 20.3574 10.1494 20.4034C10.0786 20.4839 10.0432 20.5989 9.97247 20.6679Z" fill="#D5AFCB"/>
<path id="Vector_61" d="M7.45197 21.9288C7.40477 21.9403 7.34576 21.9633 7.29861 21.9978C7.23963 22.0438 7.23964 22.1128 7.23964 22.1703C7.22784 22.5613 7.35757 22.9178 7.48735 23.2629C7.67608 23.7574 7.80586 24.2404 8.08892 24.6774C8.15968 24.7809 8.24226 24.8959 8.3956 24.8959C8.47819 24.8959 8.56077 24.8614 8.63153 24.8384C8.96178 24.7004 9.32749 24.5049 9.62236 24.2864C9.75214 24.1944 9.88185 24.1024 9.99981 23.9989C10.1296 23.8724 10.2476 23.7229 10.2476 23.5734C10.2476 23.4469 10.1768 23.3434 10.0942 23.2513C9.78752 22.8949 9.46902 22.5613 9.11513 22.2393C8.87927 22.0208 8.64328 21.8138 8.3956 21.6068C8.28946 21.5148 8.14793 21.4228 7.98277 21.5608C7.81761 21.7103 7.6879 21.8483 7.45197 21.9288Z" fill="#D5AFCB"/>
<path id="Vector_62" d="M7.61363 21.7579C7.68446 21.7234 7.76697 21.6889 7.81417 21.643C7.96751 21.5049 7.9557 21.2749 7.9557 21.0794C7.94388 20.8954 7.76697 20.6539 7.63726 20.5159C7.59006 20.4699 7.55468 20.4239 7.49566 20.3894C7.3777 20.3434 7.24796 20.3894 7.1418 20.4469C6.95306 20.5504 6.77615 20.6769 6.68178 20.8609C6.44586 21.2979 7.15362 21.9765 7.61363 21.7579Z" fill="#F9E9DE"/>
<path id="Vector_63" d="M7.06882 22.563C6.93907 23.368 7.19859 24.1731 7.44633 24.9436C7.44633 24.9551 7.45807 24.9781 7.46989 24.9896C7.50527 25.0125 7.62324 24.9665 7.68225 24.9551C7.70582 24.9436 7.72938 24.9206 7.71763 24.8975C7.65862 24.518 7.59967 24.0925 7.63505 23.6555C7.65862 23.3105 7.63498 23.0115 7.83553 22.701C7.91811 22.5744 7.90636 22.4939 7.81196 22.3675C7.71756 22.2409 7.55247 22.1604 7.39913 22.1719C7.17498 22.1835 7.10421 22.3904 7.06882 22.563Z" fill="#D5AFCB"/>
<path id="Vector_64" d="M10.1518 20.2288C10.1283 20.1598 10.1048 20.1024 10.0813 20.0333C10.0813 20.0103 10.0695 19.9988 10.0813 19.9758C10.0813 19.9643 10.093 19.9529 10.1048 19.9413C10.1401 19.8838 10.093 19.7918 10.1283 19.7343C10.1518 19.6998 10.1989 19.6883 10.2342 19.6998C10.293 19.7113 10.3636 19.7458 10.3871 19.7918C10.4342 19.8608 10.4342 19.9413 10.4224 20.0103C10.4106 20.0908 10.3989 20.1598 10.4107 20.2403C10.4107 20.2748 10.4224 20.2978 10.4224 20.3323C10.4224 20.3668 10.4106 20.4014 10.3871 20.4128C10.3518 20.4359 10.3165 20.4359 10.2812 20.4243C10.2342 20.4128 10.1754 20.4243 10.1754 20.3669C10.1754 20.3323 10.1754 20.2864 10.1518 20.2288Z" fill="#F9E9DE"/>
<path id="Vector_65" d="M7.76818 25.1299C7.77996 25.1414 7.77996 25.1644 7.77996 25.1759C7.77996 25.1989 7.77996 25.2104 7.75639 25.2219C7.74468 25.2219 7.74461 25.2334 7.73289 25.2334C7.72111 25.2449 7.72111 25.2564 7.72111 25.2679C7.73289 25.3139 7.76818 25.3599 7.75639 25.4059C7.74468 25.4404 7.70939 25.4634 7.67411 25.4749C7.63876 25.4864 7.60347 25.4749 7.57997 25.4519C7.5564 25.4289 7.54469 25.3944 7.5329 25.3599C7.50941 25.2564 7.5329 25.1299 7.48584 25.0379C7.47412 25.0264 7.47412 25.0034 7.47412 24.9919C7.47412 24.9689 7.50941 24.9459 7.5329 24.9459C7.56819 24.9344 7.65054 24.8999 7.68583 24.9344C7.70939 24.9574 7.7094 24.9919 7.72111 25.0149C7.74468 25.0609 7.75639 25.0954 7.76818 25.1299Z" fill="#F9E9DE"/>
<path id="Vector_66" d="M8.19053 21.9425C8.26129 22.115 8.33205 22.2874 8.41463 22.4715C8.42645 22.4945 8.4382 22.529 8.42645 22.552C8.40282 22.5865 8.35569 22.575 8.30849 22.5635C8.0962 22.4715 7.9546 22.2875 7.76587 22.1495C7.68329 22.092 7.60078 22.0575 7.52995 21.9884C7.5182 21.977 7.50638 21.9655 7.50638 21.9425C7.49457 21.908 7.54177 21.8735 7.56533 21.862C7.61253 21.8275 7.67155 21.8044 7.71875 21.7699C7.75413 21.747 7.80126 21.7125 7.82489 21.6894C7.86027 21.6435 7.89565 21.5745 7.94285 21.5514C7.98998 21.5285 8.0018 21.563 8.03718 21.5975C8.10795 21.7009 8.15514 21.8275 8.19053 21.9425Z" fill="#F7F7F7"/>
<path id="Vector_67" d="M8.14546 21.5849C8.15728 21.6079 8.14546 21.6309 8.14546 21.6424C8.15728 21.6654 8.18091 21.6654 8.20447 21.6654C8.22804 21.6539 8.25167 21.6424 8.27524 21.6424C8.29887 21.6424 8.32244 21.6654 8.32244 21.6884C8.32244 21.6999 8.31062 21.6999 8.2988 21.7114C8.27524 21.7344 8.26342 21.7919 8.2988 21.8149C8.32244 21.8264 8.346 21.8264 8.36957 21.8379C8.3932 21.8494 8.41676 21.8724 8.40502 21.8954C8.40502 21.9069 8.3932 21.9069 8.38138 21.9069C8.35782 21.9184 8.346 21.9644 8.36957 21.9874C8.38138 22.0104 8.41676 22.0104 8.4404 22.0219C8.46396 22.0334 8.4876 22.0449 8.4876 22.0679C8.4876 22.0909 8.46396 22.1139 8.46396 22.1369C8.46396 22.1944 8.57011 22.1945 8.57011 22.2404C8.57011 22.2634 8.53473 22.2864 8.53473 22.3094C8.53473 22.3439 8.57011 22.3554 8.60556 22.3554C8.64094 22.3554 8.67633 22.3785 8.67633 22.4014C8.67633 22.4244 8.65269 22.4359 8.62913 22.4474C8.60549 22.4589 8.58193 22.4819 8.59374 22.5049C8.60549 22.528 8.62913 22.528 8.64094 22.5394C8.66451 22.5739 8.61731 22.6199 8.61731 22.6659C8.61731 22.7234 8.71171 22.7234 8.73527 22.7694C8.75884 22.8039 8.73527 22.8615 8.75884 22.896C8.77065 22.9305 8.81785 22.942 8.82967 22.9765C8.82967 22.9879 8.8296 22.9995 8.84142 22.9995C8.85323 23.0224 8.86505 23.034 8.88862 23.0455C8.91218 23.0569 8.93582 23.0915 8.94756 23.1145C8.94756 23.149 8.924 23.1835 8.90043 23.1835C8.8768 23.1835 8.85323 23.1605 8.84142 23.1374C8.8296 23.1145 8.8296 23.0915 8.80603 23.0684C8.77065 23.0224 8.69989 23.011 8.66451 22.965C8.65269 22.9419 8.65269 22.9075 8.62913 22.8729C8.60549 22.827 8.53473 22.8155 8.52298 22.7694C8.51116 22.7465 8.52291 22.712 8.51116 22.6775C8.49935 22.6314 8.4404 22.597 8.41676 22.5625C8.40502 22.5394 8.3932 22.5164 8.38138 22.4935C8.35782 22.413 8.32244 22.3324 8.2988 22.2519C8.28705 22.2289 8.28706 22.2174 8.27524 22.1945C8.26342 22.1829 8.25167 22.1599 8.23986 22.1484C8.19266 22.0909 8.18091 22.0219 8.15728 21.9529C8.13371 21.8609 8.08651 21.7804 8.03931 21.6999C8.01575 21.6654 7.96855 21.5964 8.00393 21.5504C8.02749 21.5389 8.13371 21.5389 8.14546 21.5849Z" fill="white"/>
<path id="Vector_68" d="M7.42501 22.0342C7.42501 22.0918 7.48402 22.1263 7.53122 22.1492C7.54297 22.1492 7.55479 22.1608 7.5666 22.1608C7.60199 22.1953 7.56653 22.2643 7.59017 22.2988C7.62555 22.3332 7.70813 22.2873 7.74351 22.3103C7.76708 22.3332 7.76708 22.3677 7.76708 22.3908C7.76708 22.4253 7.77889 22.4598 7.80246 22.4713C7.84966 22.4828 7.89686 22.4022 7.94406 22.4368C7.96762 22.4483 7.96762 22.4828 7.97944 22.5173C7.99126 22.5517 8.01482 22.5863 8.03838 22.5863C8.07377 22.5863 8.10915 22.5517 8.14453 22.5517C8.16816 22.5517 8.19173 22.5863 8.20355 22.5978C8.21536 22.6208 8.23893 22.6438 8.26249 22.6323C8.27431 22.6323 8.27431 22.6323 8.28613 22.6323C8.29787 22.6323 8.29794 22.6438 8.30969 22.6438C8.33333 22.6668 8.34507 22.7013 8.36871 22.7243C8.39227 22.7013 8.42765 22.7013 8.43947 22.7243C8.45122 22.7358 8.45122 22.7473 8.46304 22.7588C8.47485 22.7703 8.49842 22.7588 8.51024 22.7473C8.52198 22.7358 8.52205 22.7128 8.52205 22.7013C8.52205 22.6553 8.51024 22.5978 8.46304 22.5633C8.42765 22.5403 8.39227 22.5288 8.35689 22.5173C8.28613 22.4943 8.22711 22.4483 8.17991 22.4022C8.03838 22.2873 7.88504 22.1837 7.7317 22.0803C7.66093 22.0342 7.59017 21.9768 7.5194 21.9423C7.48402 21.9307 7.41326 21.9768 7.42501 22.0342Z" fill="white"/>
<path id="Vector_69" d="M6.8698 21.1004C6.83441 21.1809 6.82259 21.2729 6.84618 21.3534C6.88157 21.4569 6.98776 21.5374 7.09392 21.5834C7.20008 21.6294 7.31803 21.6639 7.4124 21.7329C7.45959 21.7674 7.49498 21.8019 7.53036 21.8364C7.58931 21.9054 7.64832 21.9744 7.66007 22.0549C7.6837 22.1354 7.66014 22.2389 7.60112 22.2964C7.53036 22.3539 7.42414 22.3539 7.3652 22.2849C7.32981 22.2504 7.31803 22.1929 7.27085 22.1814C7.21187 22.1584 7.1411 22.2274 7.09392 22.1929C7.04674 22.1584 7.0939 22.0779 7.0703 22.0204C7.03491 21.9399 6.90516 21.9859 6.84618 21.9284C6.799 21.8709 6.82262 21.7788 6.76364 21.7329C6.74005 21.7099 6.69284 21.7099 6.65745 21.7099C6.62206 21.6984 6.58668 21.6869 6.58668 21.6524C6.58668 21.6409 6.58668 21.6293 6.58668 21.6179C6.58668 21.5834 6.56311 21.5604 6.53952 21.5259C6.43335 21.3994 6.38617 21.2384 6.38617 21.0773C6.38617 21.0199 6.39795 20.9509 6.40975 20.8933C6.42154 20.8243 6.44516 20.7553 6.46875 20.6978C6.52772 20.5828 6.6103 20.4908 6.72825 20.4334C6.77544 20.4103 6.82262 20.3873 6.8698 20.3873C7.01134 20.3758 7.16469 20.5253 7.16469 20.6633C7.15289 20.8359 6.95237 20.9164 6.8698 21.1004Z" fill="#C6B697"/>
<path id="Vector_70" d="M4.99365 22.161C4.97006 22.092 4.94644 22.0115 4.93465 21.931C4.89926 21.6665 5.02901 21.2065 5.37109 21.2065C5.45365 21.2065 5.52445 21.2295 5.60701 21.2525C5.68959 21.2755 5.76036 21.31 5.83113 21.356C5.96089 21.4365 6.07884 21.5514 6.14961 21.6895C6.20859 21.816 6.22039 21.977 6.23219 22.115C6.24398 22.299 6.24398 22.506 6.12603 22.644C5.97268 22.8395 5.6542 22.8625 5.43008 22.736C5.20597 22.6326 5.06443 22.4025 4.99365 22.161Z" fill="#E2CBB7"/>
<path id="Vector_71" d="M5.44349 21.4717C5.54965 21.5292 5.66762 21.5522 5.78557 21.5752C5.87994 21.5867 5.97431 21.6097 6.04508 21.6672C6.10406 21.7132 6.12764 21.7937 6.18663 21.8397C6.23381 21.8167 6.24563 21.7592 6.24563 21.7017C6.24563 21.6212 6.24563 21.5407 6.21024 21.4602C6.18665 21.4027 6.15124 21.3567 6.11586 21.3107C6.04508 21.2187 5.97431 21.1266 5.86815 21.0692C5.762 21.0117 5.63222 20.9887 5.51426 21.0117C5.4199 21.0347 5.25476 21.1152 5.21937 21.2187C5.18398 21.3222 5.34913 21.4257 5.44349 21.4717Z" fill="#534741"/>
<path id="Vector_72" d="M4.69225 23.6554C4.69225 23.5634 4.71583 23.4714 4.71583 23.3909C4.73942 23.1379 4.66864 22.8964 4.63326 22.6549C4.62146 22.5513 4.62149 22.4363 4.66867 22.3444C4.70406 22.2868 4.7866 22.2293 4.85737 22.2293C4.84558 22.2063 4.83378 22.1948 4.82199 22.1718C4.70403 21.9878 4.62147 21.7578 4.68045 21.5393C4.72763 21.3208 4.92815 21.1368 5.15227 21.1368C5.30561 21.1368 5.48257 21.2863 5.36462 21.4358C5.32923 21.4818 5.25845 21.5163 5.21127 21.5623C5.1405 21.6313 5.0933 21.7233 5.05791 21.8038C4.99894 21.9533 5.02252 22.1259 5.11688 22.2523C5.09329 22.2409 5.0697 22.2293 5.04611 22.2064C5.02252 22.2523 5.08151 22.3099 5.12869 22.3444C5.21126 22.4249 5.25846 22.5284 5.29385 22.6434C5.18769 22.5513 5.08151 22.4594 4.98714 22.3673C4.98714 22.4478 4.96356 22.5513 4.95176 22.6089C4.92817 22.9309 5.06973 23.2299 5.25846 23.4944C5.31744 23.5749 5.3764 23.6439 5.3882 23.7474C5.41179 23.8739 5.32922 24.0004 5.21127 24.0464C5.09331 24.0924 4.95176 24.0694 4.8456 23.9889C4.75124 23.9084 4.70405 23.7819 4.69225 23.6554Z" fill="#534741"/>
<path id="Vector_73" d="M3.43922 24.5294C3.33307 24.5179 3.21511 24.4719 3.10894 24.3914C2.90842 24.2304 2.71967 24.0464 2.61351 23.8164C2.49555 23.5519 2.49556 23.1494 2.76686 22.9653C3.07355 22.7468 3.42742 23.0803 3.65154 23.3103C3.82847 23.4943 3.95821 23.7244 3.97001 23.9773C3.95821 24.3454 3.72232 24.5524 3.43922 24.5294Z" fill="#B79A7D"/>
<path id="Vector_74" d="M3.11066 23.095C3.11066 23.1295 3.08705 23.1755 3.05167 23.187C3.01628 23.1985 2.9691 23.1755 2.94551 23.141C2.9573 23.2445 2.83936 23.3365 2.745 23.3019C2.76859 23.279 2.78037 23.3365 2.76858 23.3595C2.73319 23.4055 2.67421 23.4515 2.61523 23.4515C2.66241 23.4515 2.67423 23.5205 2.67423 23.5665C2.67423 23.601 2.66242 23.6355 2.66242 23.67C2.7332 23.7045 2.72139 23.831 2.65061 23.8425C2.70959 23.831 2.76856 23.8885 2.75677 23.946C2.80395 23.9575 2.85117 23.992 2.89835 24.0265C2.87476 24.0495 2.88654 24.0955 2.92193 24.0955C2.91013 24.1185 2.88655 24.1415 2.85116 24.153C2.86295 24.1415 2.87472 24.176 2.86293 24.1875C2.85113 24.1991 2.82757 24.1875 2.81577 24.1875C2.76859 24.1645 2.73318 24.1185 2.72139 24.0725C2.6624 24.084 2.61523 24.0265 2.57984 23.9805C2.55625 23.9575 2.54447 23.9345 2.52088 23.9115C2.49728 23.8885 2.48548 23.8655 2.47368 23.8425C2.47368 23.8195 2.48548 23.785 2.50907 23.7735C2.45009 23.7965 2.36754 23.739 2.37934 23.6815C2.28497 23.7045 2.19058 23.578 2.24956 23.4975C2.19058 23.463 2.167 23.394 2.17879 23.3365C2.19059 23.279 2.24956 23.2215 2.32033 23.2215C2.32033 23.233 2.29675 23.2445 2.28495 23.233C2.27315 23.2215 2.27314 23.21 2.27314 23.187C2.28494 23.0834 2.36753 22.9915 2.47368 22.98C2.47368 22.888 2.56804 22.8075 2.65061 22.8075C2.63882 22.8189 2.61525 22.8305 2.60346 22.8189C2.61525 22.7615 2.65062 22.6925 2.69781 22.6694C2.75679 22.6349 2.83936 22.658 2.85116 22.7154C2.91013 22.6235 3.07525 22.6349 3.12244 22.7385C3.16962 22.704 3.2404 22.6809 3.31117 22.6925C3.37015 22.7039 3.42915 22.773 3.40556 22.842C3.46454 22.8075 3.55888 22.8075 3.60606 22.865C3.65325 22.9225 3.66505 23.0029 3.61787 23.0605C3.68864 23.0605 3.77123 23.095 3.81842 23.1525C3.81842 23.187 3.80662 23.2215 3.78303 23.2445C3.80662 23.2445 3.81839 23.256 3.83019 23.279C3.80659 23.325 3.79479 23.371 3.7476 23.394C3.70043 23.417 3.62966 23.3825 3.64145 23.3365C3.55888 23.348 3.4763 23.2905 3.45271 23.21C3.42913 23.2215 3.41734 23.2215 3.39375 23.2215C3.35836 23.1985 3.31119 23.1525 3.33478 23.1179C3.32299 23.164 3.26401 23.1985 3.21682 23.187C3.14604 23.1985 3.11066 23.1524 3.11066 23.095Z" fill="#333333"/>
<path id="Vector_75" d="M1.81143 23.1047C1.77605 23.1508 1.83502 23.2082 1.88221 23.2082C1.92938 23.2082 1.97658 23.1623 2.00017 23.1163C1.97658 23.1392 1.98839 23.1737 2.01197 23.1853C2.08275 23.1623 2.14171 23.1047 2.1771 23.0358C2.15351 23.0358 2.15351 23.0702 2.1771 23.0818C2.1889 23.0933 2.21247 23.0933 2.23606 23.0818C2.29504 23.0588 2.33044 23.0013 2.33044 22.9438C2.28327 22.9552 2.29507 23.0358 2.34225 23.0473C2.38944 23.0588 2.43659 23.0243 2.46018 22.9897C2.47198 22.9783 2.47199 22.9668 2.47199 22.9552C2.4484 22.9668 2.4602 23.0128 2.48379 23.0242C2.50739 23.0358 2.54277 23.0242 2.55457 23.0013C2.56636 22.9783 2.57814 22.9552 2.57814 22.9207C2.57814 22.9323 2.58997 22.9552 2.60176 22.9552C2.64894 22.9323 2.66074 22.8748 2.63715 22.8288C2.63715 22.8173 2.62533 22.8173 2.61353 22.8173C2.64892 22.7712 2.66071 22.7022 2.64892 22.6448C2.6961 22.6448 2.74331 22.5988 2.74331 22.5527C2.77869 22.5412 2.80228 22.5182 2.81408 22.4837C2.83767 22.4953 2.86125 22.4837 2.88485 22.4722C2.89664 22.4493 2.90843 22.4262 2.90843 22.4032C2.90843 22.3917 2.90845 22.3803 2.89666 22.3687C2.88486 22.3687 2.87304 22.3803 2.87304 22.3803C2.92022 22.3458 2.94381 22.2768 2.90843 22.2192C2.89663 22.2308 2.88485 22.2422 2.88485 22.2652C2.92024 22.2422 2.92024 22.1847 2.88485 22.1618C2.84946 22.1387 2.79048 22.1502 2.77869 22.1847C2.79048 22.1502 2.77869 22.1157 2.74331 22.0812C2.73151 22.0812 2.70791 22.0927 2.69611 22.0927C2.71971 22.0582 2.68433 21.9892 2.63715 22.0007C2.58996 22.0007 2.55456 22.0582 2.57814 22.1042C2.60174 22.0697 2.56637 22.0123 2.51918 22.0123C2.472 22.0123 2.4484 22.0697 2.47199 22.1042C2.4484 22.0812 2.413 22.0697 2.38941 22.0927C2.36582 22.1042 2.35405 22.1502 2.37764 22.1732C2.35405 22.1502 2.31864 22.1272 2.28325 22.1387C2.24787 22.1502 2.24787 22.2077 2.28325 22.2192C2.27145 22.1732 2.2007 22.1618 2.15352 22.1963C2.11813 22.2308 2.10631 22.2767 2.09452 22.3227C2.07093 22.2997 2.03556 22.2997 2.01197 22.3113C1.98839 22.3227 1.97658 22.3687 2.00017 22.3917C2.01196 22.3572 1.97656 22.3342 1.94117 22.3342C1.90578 22.3342 1.89399 22.3803 1.90578 22.4032C1.8704 22.3803 1.82322 22.3917 1.79962 22.4148C1.77603 22.4377 1.76426 22.4837 1.78785 22.5182C1.77606 22.4953 1.74067 22.4953 1.71708 22.5067C1.69349 22.5182 1.66988 22.5412 1.65808 22.5527C1.63449 22.5757 1.61088 22.5988 1.61088 22.6333C1.61088 22.6677 1.64629 22.6907 1.66989 22.6793C1.6345 22.7022 1.5991 22.7252 1.58731 22.7598C1.58731 22.7943 1.64629 22.8402 1.65808 22.8057C1.6109 22.8288 1.57552 22.8747 1.58731 22.9207C1.5991 22.9668 1.65808 23.0013 1.69347 22.9668C1.65808 22.9897 1.65807 23.0473 1.68166 23.0702C1.72884 23.1278 1.77605 23.1392 1.81143 23.1047Z" fill="#333333"/>
<path id="Vector_76" d="M3.35718 24.898C3.33359 24.9094 3.29821 24.921 3.28641 24.944C3.23923 24.9899 3.25101 25.0589 3.2746 25.105C3.33359 25.3005 3.38078 25.4845 3.43976 25.68C3.48694 25.8295 3.53411 25.979 3.5695 26.1285C3.69925 26.5885 3.84082 27.0485 4.02955 27.4971C4.08853 27.6466 4.15928 27.7846 4.23005 27.9226C4.24185 27.9341 4.24185 27.9571 4.26544 27.9571C4.28903 27.9686 4.31262 27.9571 4.33621 27.9571C5.02037 27.7846 5.71633 27.4741 6.16457 26.945C5.97584 26.669 5.77533 26.393 5.5866 26.117C5.42146 25.8755 5.25631 25.634 5.06758 25.404C4.83166 25.1165 4.57215 24.852 4.28906 24.599C4.24187 24.5645 4.14751 24.4264 4.07674 24.4379C4.00597 24.4379 3.94696 24.5414 3.89978 24.5874C3.73464 24.7369 3.53412 24.8175 3.35718 24.898Z" fill="#AA4A4D"/>
<path id="Vector_77" d="M3.21123 25.1621C3.28201 25.7256 3.36458 26.2891 3.43535 26.8526C3.44715 26.9101 3.44716 26.9677 3.48254 27.0136C3.52973 27.0596 3.5887 27.0826 3.65947 27.1056C4.03694 27.2207 4.42618 27.3241 4.82724 27.2781C4.88622 27.2666 4.95699 27.2551 5.00417 27.2207C5.05135 27.1862 5.08675 27.1056 5.05136 27.0481C5.01598 26.9677 4.9098 26.9677 4.81543 26.9677C4.56772 26.9677 4.32003 26.9216 4.09591 26.8411C4.00155 26.8066 3.91896 26.7721 3.85998 26.6916C3.801 26.6111 3.77743 26.5076 3.76563 26.4041C3.73025 26.0591 3.71845 25.7141 3.69486 25.3806C3.68307 25.254 3.65947 25.1621 3.54151 25.1045C3.43535 25.0355 3.18764 24.9895 3.21123 25.1621Z" fill="#B79A7D"/>
<path id="Vector_78" d="M2.76584 23.5086C2.80123 23.5201 2.82483 23.5431 2.84842 23.5776C2.86022 23.6006 2.8602 23.6466 2.83661 23.6697C2.90739 23.6697 2.96639 23.7501 2.931 23.8076C2.98998 23.8192 3.01356 23.8882 2.98996 23.9342C3.03715 23.9456 3.06074 24.0146 3.02535 24.0491C3.06074 24.0491 3.09614 24.0836 3.10793 24.1182C3.10793 24.1527 3.08434 24.1986 3.03716 24.1986C3.06075 24.2101 3.09614 24.2101 3.10793 24.2446C3.11972 24.2677 3.1197 24.3136 3.08431 24.3136C3.14329 24.3251 3.17868 24.3827 3.15509 24.4286C3.1315 24.4747 3.06073 24.4862 3.01354 24.4517C3.01354 24.4862 2.97816 24.5091 2.94277 24.5091C2.90738 24.5091 2.87202 24.4862 2.84842 24.4631C2.81303 24.4862 2.77765 24.4976 2.74226 24.4976C2.70688 24.4976 2.6597 24.4631 2.67149 24.4286C2.6479 24.4517 2.6007 24.4517 2.57711 24.4286C2.54172 24.4172 2.52992 24.3712 2.52992 24.3481C2.48273 24.3596 2.43557 24.3481 2.40018 24.3136C2.36479 24.2791 2.37657 24.2217 2.42376 24.1986C2.35299 24.2101 2.28223 24.1641 2.25864 24.0951C2.25864 24.0722 2.25862 24.0491 2.28222 24.0606C2.23503 24.0606 2.18784 24.0377 2.16425 23.9916C2.14066 23.9571 2.15248 23.8996 2.18787 23.8651C2.14068 23.8651 2.10529 23.8306 2.10529 23.7961C2.10529 23.7501 2.12887 23.7156 2.17606 23.7041C2.15246 23.6811 2.14068 23.6581 2.1171 23.6352C2.1053 23.6236 2.10529 23.6121 2.10529 23.6121C2.10529 23.6006 2.1171 23.6006 2.1171 23.5891C2.14068 23.5776 2.17604 23.5546 2.19963 23.5546C2.17604 23.5316 2.17607 23.4971 2.18787 23.4741C2.19966 23.4511 2.24681 23.4396 2.27041 23.4511C2.30579 23.3361 2.47093 23.2901 2.5653 23.3476C2.60069 23.2671 2.68327 23.3246 2.73046 23.3591C2.75405 23.3821 2.77765 23.4166 2.77765 23.4396C2.80124 23.4396 2.78943 23.5201 2.76584 23.5086Z" fill="#333333"/>
</g>
</g>
</g>
</g>
</g>
</g>
<defs>
<linearGradient id="paint0_linear_365_351" x1="18.5544" y1="111.69" x2="113.641" y2="111.69" gradientUnits="userSpaceOnUse">
<stop stop-color="#4D4D4D"/>
<stop offset="1"/>
</linearGradient>
<linearGradient id="paint1_linear_365_351" x1="18.5544" y1="111.69" x2="113.641" y2="111.69" gradientUnits="userSpaceOnUse">
<stop/>
<stop offset="1"/>
</linearGradient>
</defs>
</svg>
