<svg width="536" height="469" viewBox="0 0 536 469" fill="none" xmlns="http://www.w3.org/2000/svg">
<path d="M107.2 144.72C107.2 144.72 75.1412 49.8596 186.963 61.4372C298.784 73.0148 245.357 31.0281 287.612 4.97254C329.866 -21.083 454.367 59.978 402.28 138.163C350.193 216.347 485.521 144.827 513.75 262.401C531.17 334.958 487.951 388.361 452.295 418.634" stroke="#CCDDE2" stroke-width="5.47" stroke-miterlimit="10"/>
<path d="M463.199 327.986C454.796 279.323 425.042 235.776 376.701 220.19C364.335 216.226 351.689 213.19 338.871 211.108V211.174C338.203 215.213 336.62 219.048 334.244 222.382C329.205 229.285 322.261 234.954 314.221 237.908C306.014 240.946 295.848 241.339 288.231 236.562C283.645 233.692 279.196 228.635 278.392 223.18C277.475 217.034 280.608 211.215 285.015 207.154C247.662 207.458 212.524 213.604 184.366 220.601C185.342 224.688 186.694 228.675 188.404 232.513C190.798 237.862 194.18 242.712 198.374 246.806C203.604 241.624 208.184 235.824 212.012 229.535C215.673 230.733 218.902 232.982 221.297 236.001C223.69 239.02 225.144 242.675 225.477 246.514V246.711C226.954 260.653 213.53 271.128 202.251 277.572C189.22 285.064 174.694 290.674 160.425 295.338C154.541 297.267 146.894 298.911 140.682 296.898C140.013 296.685 139.361 296.424 138.729 296.118C132.535 293.081 128.39 286.714 125.156 280.895C115.943 264.369 109.951 246.353 105.89 227.861C77.7021 231.464 74.4742 212.377 72.8007 207.696L48.6867 275.107C47.4217 279.952 47.2853 285.023 48.2865 289.93C49.2882 294.837 51.4018 299.449 54.4647 303.411C57.5271 307.373 61.4578 310.58 65.9536 312.786C70.4501 314.992 75.392 316.138 80.4 316.135H180.227L225.573 432.447L238.425 465.458H311.833C305.877 465.458 302.62 464.005 300.255 461.635C297.813 459.192 296.439 455.881 296.432 452.427C296.432 445.281 302.298 439.42 311.833 439.42H312.506C311.785 439.42 311.094 439.355 310.374 439.289C310.82 439.241 311.264 439.167 311.702 439.069C311.23 439.058 310.759 439.022 310.29 438.962C314.591 438.454 318.576 436.451 321.549 433.302C324.522 430.154 326.294 426.061 326.555 421.738C326.567 421.514 326.567 421.289 326.555 421.065V420.72C326.453 416.289 324.758 412.042 321.783 408.756C318.808 405.47 314.749 403.364 310.35 402.824C310.85 402.782 311.327 402.74 311.809 402.74C311.374 402.633 310.892 402.567 310.439 402.502C311.154 402.436 311.875 402.389 312.565 402.389L366.273 402.675L376.153 402.716H387.879C388.421 402.716 388.969 402.716 389.487 402.782L406.907 402.871L418.545 402.937C423.408 402.977 428.057 404.943 431.476 408.403C434.894 411.862 436.804 416.535 436.786 421.399C436.78 424.149 436.143 426.861 434.922 429.326C439.915 428.687 444.545 426.378 448.06 422.775C456.44 414.217 460.049 401.406 462.544 390.019C466.957 369.735 466.695 348.36 463.199 327.986ZM327.508 329.356C317.389 344.93 300.16 343.53 300.16 343.53C300.16 343.53 298.731 344.924 295.396 338.992C292.06 333.06 282.561 329.004 282.561 329.004C281.805 334.96 280.239 344.012 264.695 332.28C249.151 320.548 253.838 303.443 255.166 294.409C256.494 285.374 261.788 282.378 261.788 282.378L268.042 279.079C268.042 279.079 249.955 274.428 249.085 274.255C248.216 274.082 232.106 260.593 248.454 257.032C264.802 253.47 290.286 267.632 295.211 270.432C300.136 273.231 328.919 297.577 328.919 297.577C328.919 297.577 337.68 313.806 327.508 329.356Z" fill="#353642"/>
<path d="M105.866 227.872C105.866 227.872 119.498 226.216 124.602 216.485L120.153 241.445C120.153 241.445 174.385 222.982 184.33 220.6C184.33 220.6 187.534 241.26 200.291 246.805L213.453 230.069C213.453 230.069 229.956 234.238 225.442 256.727C220.927 279.215 158.489 298.01 147.9 297.576C137.311 297.141 125.912 290.626 114.239 255.613L105.866 227.872Z" fill="#353642"/>
<path d="M128.074 172.271C131.528 177.893 135.001 183.503 138.586 189.042C140.795 192.454 144.821 197.32 140.539 200.887C139.146 201.956 137.463 202.579 135.709 202.674C132.958 202.918 130.069 202.257 128.396 199.893L120.058 186.076C118.396 183.32 115.758 181.292 112.668 180.393C109.577 179.495 106.263 179.793 103.382 181.228" stroke="black" stroke-width="5.47" stroke-miterlimit="10"/>
<path d="M159.609 190.47C161.789 195.651 160.312 198.992 157.763 200.672C153.594 203.405 148.013 202.095 145.059 198.105L128.104 172.299" stroke="black" stroke-width="5.47" stroke-miterlimit="10"/>
<path d="M142.427 164.767C148.597 172.271 156.381 186.207 160.687 192.026C164.993 197.844 171.651 194.337 171.651 194.337C177.059 191.424 176.142 186.594 173.777 180.728C167.953 166.328 159.639 156.751 150.366 150.474C121.63 131.035 92.1503 145.376 83.3778 178.93L48.6867 275.106C47.4217 279.952 47.2853 285.023 48.2865 289.93C49.2882 294.837 51.4018 299.449 54.4647 303.411C57.5271 307.373 61.4578 310.58 65.9536 312.786C70.4501 314.991 75.392 316.137 80.4 316.134H180.227L238.443 465.463" stroke="black" stroke-width="5.47" stroke-miterlimit="10"/>
<path d="M178.071 174.123C185.218 171.645 184.89 160.246 174.748 156.399C163.546 152.147 143.654 146.132 138.657 144.631C138.626 144.607 138.589 144.593 138.55 144.589C138.199 144.482 137.954 144.393 137.764 144.351L137.484 144.262" stroke="black" stroke-width="5.47" stroke-miterlimit="10"/>
<path d="M283.663 288.094C277.41 280.578 260.294 276.32 249.121 274.259C247.243 273.907 245.531 272.953 244.242 271.543C242.953 270.133 242.157 268.342 241.974 266.439C241.844 265.157 241.993 263.861 242.409 262.64C243.075 260.766 244.351 259.17 246.032 258.107C247.714 257.045 249.703 256.577 251.682 256.78C270.74 258.709 290.393 264.706 304.93 277.624C304.93 277.624 375.402 331.403 383.818 336.638C387.29 338.746 390.53 336.256 388.177 332.945L387.439 331.683C383.297 324.574 378.394 317.937 372.818 311.886" stroke="black" stroke-width="5.47" stroke-miterlimit="10"/>
<path d="M284.967 207.146C196.337 207.885 120.153 241.438 120.153 241.438L127.759 198.809" stroke="black" stroke-width="5.47" stroke-miterlimit="10"/>
<path d="M422.624 439.156C422.624 439.156 412.97 436.971 410.403 444.701C407.836 452.431 405.156 464.729 423.613 465.456C442.069 466.183 431.23 462.556 430.164 456.582C429.098 450.609 422.624 439.156 422.624 439.156Z" fill="#353642"/>
<path d="M275.147 297.904C275.147 297.904 264.73 290.006 255.35 298.011C254.956 298.359 254.611 298.759 254.326 299.202" stroke="black" stroke-width="5.47" stroke-miterlimit="10"/>
<g opacity="0.77">
<path opacity="0.77" d="M145.024 198.077C148.002 202.073 153.576 203.377 157.727 200.637C160.246 198.97 161.723 195.647 159.597 190.513C159.984 191.079 160.335 191.579 160.681 192.038C164.981 197.88 171.645 194.36 171.645 194.36C177.053 191.448 176.142 186.618 173.777 180.746C171.463 174.93 168.428 169.427 164.743 164.368C167.155 162.111 170.019 159.83 173.039 160.83C176.296 161.914 177.208 166 177.577 169.407C177.75 170.991 177.922 172.557 178.095 174.141L180.703 197.463C181.573 205.205 182.442 213.061 184.33 220.618C185.307 224.704 186.658 228.692 188.368 232.529C190.762 237.879 194.144 242.729 198.338 246.823C203.569 241.641 208.148 235.841 211.976 229.552C215.638 230.75 218.867 232.999 221.261 236.018C223.654 239.036 225.109 242.692 225.442 246.531V246.727C226.919 260.669 213.495 271.145 202.215 277.589C189.184 285.081 174.659 290.691 160.389 295.355C154.505 297.284 146.858 298.928 140.646 296.915C139.978 296.702 139.325 296.441 138.693 296.135C132.499 293.097 128.354 286.731 125.12 280.912C109.636 253.07 103.204 221.101 99.8151 189.441C106.593 188.506 113.346 187.464 120.016 186.028C120.016 186.028 120.016 186.076 120.058 186.094L127.747 198.845L128.378 199.905C130.046 202.287 132.934 202.924 135.691 202.686C137.445 202.599 139.129 201.976 140.515 200.899C144.791 197.326 140.777 192.478 138.562 189.066" fill="white"/>
<path opacity="0.77" d="M145.024 198.077C148.002 202.073 153.576 203.377 157.727 200.637C160.246 198.97 161.723 195.647 159.597 190.513C159.984 191.079 160.335 191.579 160.681 192.038C164.981 197.88 171.645 194.36 171.645 194.36C177.053 191.448 176.142 186.618 173.777 180.746C171.463 174.93 168.428 169.427 164.743 164.368C167.155 162.111 170.019 159.83 173.039 160.83C176.296 161.914 177.208 166 177.577 169.407C177.75 170.991 177.922 172.557 178.095 174.141L180.703 197.463C181.573 205.205 182.442 213.061 184.33 220.618C185.307 224.704 186.658 228.692 188.368 232.529C190.762 237.879 194.144 242.729 198.338 246.823C203.569 241.641 208.148 235.841 211.976 229.552C215.638 230.75 218.867 232.999 221.261 236.018C223.654 239.036 225.109 242.692 225.442 246.531V246.727C226.919 260.669 213.495 271.145 202.215 277.589C189.184 285.081 174.659 290.691 160.389 295.355C154.505 297.284 146.858 298.928 140.646 296.915C139.978 296.702 139.325 296.441 138.693 296.135C132.499 293.097 128.354 286.731 125.12 280.912C109.636 253.07 103.204 221.101 99.8151 189.441C106.593 188.506 113.346 187.464 120.016 186.028C120.016 186.028 120.016 186.076 120.058 186.094L127.747 198.845L128.378 199.905C130.046 202.287 132.934 202.924 135.691 202.686C137.445 202.599 139.129 201.976 140.515 200.899C144.791 197.326 140.777 192.478 138.562 189.066" fill="#3FBDF1"/>
<path opacity="0.77" d="M146.852 199.964C149.49 203.538 153.999 203.085 157.727 200.637C159.978 199.148 161.824 199.583 159.925 194.991C160.276 195.492 160.324 193.8 160.633 194.176C164.475 199.393 160.681 192.02 160.681 192.02C166.041 198.791 177.708 192.413 175.57 187.178C173.307 181.538 170.924 173.2 167.905 169.031C170.287 166.78 169.829 167.113 172.86 168.906C173.674 169.429 174.356 170.135 174.851 170.967C175.346 171.799 175.641 172.734 175.713 173.7C175.957 175.969 176.201 178.143 176.445 180.359L178.768 201.203C179.548 208.129 180.322 215.127 182.008 221.869C182.879 225.514 184.087 229.071 185.617 232.494C187.749 237.204 194.598 245.048 198.338 248.639C202.989 244.024 208.564 235.537 211.976 229.897C218.527 231.91 218.241 238.175 218.706 245.018V245.197C220.028 257.638 208.045 266.982 198.004 272.741C186.367 279.429 173.402 284.432 160.663 288.601C155.41 290.328 148.585 291.817 143.041 289.994C142.443 289.806 141.859 289.572 141.296 289.298C135.769 286.582 132.064 280.906 129.176 275.707C116.532 252.999 110.666 227.217 107.438 201.37C107.201 199.435 107.725 197.486 108.898 195.93C110.071 194.374 111.802 193.335 113.727 193.032C117.354 192.436 120.969 191.841 124.56 191.043L124.662 191.091L131.522 202.472C133.017 204.586 133.262 202.93 135.721 202.716C137.276 202.579 140.289 202.275 141.492 201.269C145.31 198.088 143.154 196.772 141.176 193.729" fill="#3FBDF1"/>
</g>
<path d="M273.89 309.399C273.89 309.399 254.112 302.895 253.814 313.829" stroke="black" stroke-width="5.47" stroke-miterlimit="10"/>
<path opacity="0.54" d="M96.8492 420.783L58.0607 321.408C57.5801 319.485 57.5444 317.478 57.9553 315.539C58.3668 313.6 59.2149 311.78 60.4346 310.218C61.6549 308.656 63.2147 307.392 64.9966 306.523C66.7779 305.655 68.7343 305.203 70.7163 305.203H224.786C228.246 305.203 231.605 306.367 234.323 308.508C237.039 310.649 238.957 313.643 239.765 317.007L282.228 416.358C282.687 418.274 282.705 420.27 282.283 422.195C281.859 424.119 281.006 425.923 279.785 427.471C278.565 429.019 277.01 430.269 275.237 431.13C273.464 431.99 271.519 432.437 269.548 432.438H111.792C108.358 432.44 105.022 431.294 102.315 429.182C99.6073 427.07 97.6836 424.114 96.8492 420.783Z" fill="white"/>
<path d="M280.328 326.161C280.328 326.161 283.538 329.103 282.317 333.308C281.412 336.422 278.315 338.388 275.248 337.322C265.481 333.945 256.684 328.21 254.54 318.46C253.527 313.525 253.308 308.458 253.891 303.452C254.362 298.813 255.047 293.804 256.607 289.391C258.989 282.614 266.285 277.891 273.366 281.155" stroke="black" stroke-width="5.47" stroke-miterlimit="10"/>
<path d="M96.8492 420.783L58.0607 321.408C57.5801 319.485 57.5444 317.478 57.9553 315.539C58.3668 313.6 59.2149 311.78 60.4346 310.218C61.6549 308.656 63.2147 307.392 64.9966 306.523C66.7779 305.655 68.7343 305.203 70.7163 305.203H224.786C228.246 305.203 231.605 306.367 234.323 308.508C237.039 310.649 238.957 313.643 239.765 317.007L282.228 416.358C282.687 418.274 282.705 420.27 282.283 422.195C281.859 424.119 281.006 425.923 279.785 427.471C278.565 429.019 277.01 430.269 275.237 431.13C273.464 431.99 271.519 432.437 269.548 432.438H111.792C108.358 432.44 105.022 431.294 102.315 429.182C99.6073 427.07 97.6836 424.114 96.8492 420.783Z" fill="#3FBDF1"/>
<path d="M96.8492 420.783L58.0607 321.408C57.5801 319.485 57.5444 317.478 57.9553 315.539C58.3668 313.6 59.2149 311.78 60.4346 310.218C61.6549 308.656 63.2147 307.392 64.9966 306.523C66.7779 305.655 68.7343 305.203 70.7163 305.203H224.786C228.246 305.203 231.605 306.367 234.323 308.508C237.039 310.649 238.957 313.643 239.765 317.007L282.228 416.358C282.687 418.274 282.705 420.27 282.283 422.195C281.859 424.119 281.006 425.923 279.785 427.471C278.565 429.019 277.01 430.269 275.237 431.13C273.464 431.99 271.519 432.437 269.548 432.438H111.792C108.358 432.44 105.022 431.294 102.315 429.182C99.6073 427.07 97.6836 424.114 96.8492 420.783Z" stroke="black" stroke-width="5.47" stroke-linecap="square" stroke-linejoin="round"/>
<path d="M102.525 416.781L66.738 325.065C66.2955 323.291 66.2633 321.439 66.6433 319.651C67.0232 317.862 67.8058 316.184 68.932 314.743C70.0576 313.302 71.497 312.137 73.1402 311.335C74.7839 310.534 76.5884 310.117 78.4168 310.117H220.552C223.743 310.116 226.842 311.189 229.348 313.164C231.855 315.139 233.624 317.901 234.369 321.003L273.551 412.665C273.973 414.434 273.99 416.276 273.599 418.052C273.209 419.828 272.42 421.492 271.294 422.919C270.168 424.347 268.733 425.501 267.097 426.294C265.461 427.088 263.666 427.501 261.848 427.501H116.306C113.143 427.504 110.07 426.45 107.574 424.509C105.077 422.567 103.301 419.847 102.525 416.781Z" fill="#3FBDF1"/>
<path d="M406.717 402.393L433.969 465.456" stroke="black" stroke-width="5.47" stroke-miterlimit="10"/>
<path d="M536 465.457H0" stroke="black" stroke-width="5.47" stroke-miterlimit="10"/>
<path d="M282.514 180.828C278.095 185.194 271.496 185.188 267.738 181.15" stroke="black" stroke-width="5.47" stroke-miterlimit="10"/>
<path d="M164.743 164.349C167.155 162.092 170.019 159.811 173.039 160.811C176.296 161.895 177.208 165.981 177.577 169.387C178.621 178.75 179.663 188.102 180.703 197.445C182.026 209.356 183.419 221.552 188.368 232.498C190.762 237.848 194.144 242.698 198.338 246.792" stroke="black" stroke-width="5.47" stroke-miterlimit="10"/>
<path d="M225.442 246.72V246.524C225.109 242.685 223.654 239.029 221.261 236.01C218.867 232.992 215.638 230.743 211.976 229.544C208.148 235.834 203.569 241.634 198.338 246.816C184.624 260.452 167.007 269.483 147.93 272.657C148.847 276.307 150.735 279.631 152.039 283.144C153.344 286.658 153.993 290.726 152.409 294.115C150.408 298.438 144.666 297.873 140.676 296.914C140.634 296.914 140.611 296.914 140.569 296.914" stroke="black" stroke-width="5.47" stroke-miterlimit="10"/>
<path d="M120.028 186.023C113.358 187.458 106.604 188.5 99.827 189.435C103.216 221.095 109.624 253.065 125.132 280.907C128.366 286.725 132.511 293.092 138.705 296.129C139.337 296.436 139.989 296.697 140.658 296.909C146.87 298.952 154.517 297.279 160.401 295.349C174.694 290.68 189.196 285.076 202.227 277.584C213.477 271.134 226.901 260.664 225.454 246.722C225.314 245.187 225 243.672 224.518 242.208" stroke="black" stroke-width="5.47" stroke-miterlimit="10"/>
<path d="M231.564 122.868C232.563 127.036 234.845 130.784 238.088 133.586C241.33 136.388 245.371 138.101 249.639 138.484C249.993 136.765 250.762 135.157 251.878 133.803C256.643 128.187 258.674 138.722 273.914 131.159C295.032 120.653 303.048 126.68 303.048 126.68C303.751 127.204 303.644 132.04 303.763 132.921C304.359 137.942 304.895 142.938 305.484 147.953C305.842 151.014 306.193 154.052 306.526 157.089C306.814 156.572 307.132 156.073 307.479 155.594C309.403 148.787 312.839 140.747 320.248 144.208C321.748 144.939 323.054 146.014 324.06 147.346C328.973 153.801 325.251 160.037 320.111 164.652C318.823 166.085 317.383 167.372 315.817 168.494C316.663 170.245 320.117 177.195 320.117 177.219C320.474 177.922 332.546 164.259 333.446 162.77C334.789 159.123 335.51 155.276 335.578 151.39C335.774 135.411 329.271 116.811 316.329 107.646C313.119 105.377 314.144 103.191 313.947 100.106C313.933 99.9393 313.87 99.7809 313.764 99.6511C313.658 99.5212 313.515 99.4266 313.355 99.3795C313.194 99.3325 313.023 99.3354 312.864 99.3872C312.705 99.4397 312.566 99.5385 312.464 99.6719C308.408 104.341 298.367 103.877 298.367 103.877C263.515 95.1457 251.801 110.642 244.767 113.405C241.897 114.492 238.739 114.545 235.834 113.554C235.663 114.516 235.233 115.412 234.589 116.147C233.946 116.882 233.114 117.427 232.183 117.723L232.362 119.337C232.514 120.571 232.232 121.819 231.564 122.868Z" fill="#3FBDF1"/>
<path d="M249.663 138.51C245.394 138.126 241.354 136.413 238.111 133.612C234.869 130.81 232.586 127.061 231.588 122.894C231.196 121.296 230.949 119.665 230.849 118.023L231.123 117.993C231.498 117.965 231.866 117.884 232.219 117.755C233.15 117.458 233.981 116.913 234.625 116.178C235.268 115.444 235.699 114.547 235.87 113.586C235.979 113.053 236.001 112.505 235.935 111.966L235.042 104.081C235.042 104.081 241.343 108.768 248.335 106.028C255.327 103.289 267.065 87.7922 301.935 96.4992C301.935 96.4992 309.808 96.9638 313.846 92.2946C313.948 92.1612 314.087 92.0623 314.246 92.0105C314.405 91.9581 314.576 91.9557 314.737 92.0028C314.897 92.0498 315.04 92.1445 315.145 92.2737C315.251 92.4036 315.315 92.5626 315.329 92.7293C315.537 95.8203 316.681 98.006 319.897 100.269C332.838 109.441 339.342 128.034 339.139 144.013C339.08 150.641 336.876 157.186 333.475 162.802C332.576 164.291 320.504 177.953 320.147 177.251C320.147 177.251 316.693 170.277 315.847 168.526L315.644 168.139L316.032 167.882C317.469 166.906 318.842 165.838 320.141 164.684C325.275 160.069 329.003 153.833 324.089 147.378C323.084 146.046 321.778 144.97 320.278 144.239C312.845 140.779 309.433 148.819 307.509 155.626C307.136 156.927 306.906 158.265 306.824 159.616C306.735 158.782 306.646 157.978 306.556 157.145C306.223 154.107 305.871 151.07 305.514 148.009C304.918 142.994 304.359 137.998 303.793 132.977C303.704 132.119 303.793 127.26 303.078 126.736C303.078 126.736 295.056 120.709 273.944 131.214C258.703 138.778 256.673 128.236 251.908 133.858C250.792 135.213 250.023 136.82 249.669 138.539C249.56 139.092 249.49 139.651 249.46 140.213C249.449 140.286 249.449 140.36 249.46 140.433C249.389 141.666 249.365 142.893 249.335 144.096C249.222 155.703 250.497 167.829 255.053 178.608C260.591 191.675 275.248 204.563 290.488 198.47C295.253 196.559 299.523 193.479 303.43 190.21" stroke="black" stroke-width="5.47" stroke-miterlimit="10"/>
<path d="M260.092 166.819C261.608 166.312 262.339 164.414 261.726 162.58C261.112 160.746 259.386 159.67 257.87 160.177C256.354 160.684 255.623 162.582 256.236 164.417C256.85 166.251 258.577 167.326 260.092 166.819Z" fill="black"/>
<path d="M282.769 166.093C284.284 165.586 285.016 163.688 284.402 161.854C283.788 160.019 282.062 158.944 280.546 159.451C279.03 159.959 278.299 161.857 278.912 163.69C279.526 165.525 281.252 166.6 282.769 166.093Z" fill="black"/>
<path d="M274.098 170.021C274.098 170.021 266.553 174.303 266.094 169.86C265.951 168.49 264.105 155.072 264.105 155.072C264.105 155.072 258.007 148.611 248.662 153.387" stroke="black" stroke-width="5.47" stroke-miterlimit="10"/>
<path d="M272.401 151.312C272.401 151.312 284.586 145.226 292.65 153.998" stroke="black" stroke-width="5.47" stroke-miterlimit="10"/>
<path d="M283.574 199.964L284.973 207.147C280.56 211.214 277.44 217.045 278.351 223.185C279.161 228.628 283.616 233.697 288.183 236.549C295.818 241.314 305.973 240.939 314.191 237.907C322.225 234.929 329.175 229.278 334.214 222.381C336.587 219.047 338.167 215.216 338.835 211.179V211.107" stroke="black" stroke-width="5.47" stroke-miterlimit="10"/>
<path d="M284.973 207.146L287.701 220.118" stroke="black" stroke-width="5.47" stroke-miterlimit="10"/>
<path d="M323.547 174.124L327.669 201.489C328.075 204.168 329.429 206.612 331.485 208.377C333.541 210.142 336.161 211.111 338.871 211.108C351.698 213.186 364.35 216.22 376.725 220.184C425.066 235.775 454.82 279.322 463.223 327.979C466.719 348.353 466.981 369.722 462.592 389.983C460.096 401.388 456.487 414.198 448.108 422.738C437.227 433.875 420.528 429.289 407.67 424.257C367.75 408.731 334.547 381.109 305.877 349.485C290.548 332.571 270.74 319.016 270.74 319.016" stroke="black" stroke-width="5.47" stroke-miterlimit="10"/>
<path d="M115.716 396.254C111.238 396.213 107.337 392.598 106.33 387.565C104.341 377.667 103.817 362.361 118.331 359.02C136.466 354.851 150.414 374.6 157.25 387.083C159.549 391.252 156.947 396.612 152.665 396.612L115.716 396.254Z" fill="#D7E8F0"/>
<path d="M121.704 350.616C125.553 348.053 125.613 341.375 121.835 335.699C118.058 330.022 111.875 327.497 108.025 330.059C104.175 332.621 104.116 339.299 107.893 344.976C111.67 350.652 117.853 353.178 121.704 350.616Z" fill="#D7E8F0"/>
<path d="M419.73 439.483C419.45 439.525 419.134 439.567 418.86 439.632H418.753L376.391 439.412L312.827 439.084C312.583 439.084 312.345 439.084 312.107 439.084C311.635 439.073 311.163 439.037 310.695 438.977C315.002 438.477 318.994 436.473 321.969 433.32C324.944 430.167 326.712 426.064 326.96 421.736C326.972 421.512 326.972 421.287 326.96 421.063V420.717C326.943 416.482 325.467 412.383 322.781 409.108C320.096 405.833 316.364 403.583 312.214 402.738C311.779 402.63 311.303 402.565 310.844 402.499C311.565 402.434 312.28 402.386 312.976 402.386L366.678 402.672L376.564 402.714L389.898 402.779C394.464 403.196 398.71 405.301 401.806 408.682C404.902 412.063 406.626 416.478 406.639 421.063C406.64 421.928 406.574 422.792 406.443 423.648C405.808 428.012 403.628 432.004 400.298 434.897C396.969 437.79 392.713 439.392 388.302 439.412H420.569C418.711 439.412 419.229 439.412 419.73 439.483Z" fill="white"/>
<path d="M333.803 461.635C335.013 462.851 336.453 463.816 338.038 464.472C339.624 465.129 341.324 465.463 343.04 465.458H311.845C305.889 465.458 302.638 464.005 300.267 461.635C297.831 459.188 296.46 455.879 296.45 452.427C296.45 445.281 302.31 439.42 311.845 439.42H343.04C340.465 439.416 337.946 440.177 335.803 441.606C333.661 443.035 331.99 445.067 331.004 447.447C330.018 449.826 329.76 452.445 330.264 454.97C330.767 457.496 332.01 459.815 333.833 461.635H333.803Z" fill="#D7E8F0"/>
<path d="M436.828 421.39C436.82 424.141 436.18 426.853 434.958 429.317C434.085 431.18 432.887 432.872 431.42 434.314C429.002 436.71 425.965 438.387 422.648 439.156C421.28 439.471 419.882 439.632 418.479 439.632C418.765 439.567 419.075 439.525 419.349 439.483C418.848 439.436 418.33 439.418 420.194 439.418H387.921C392.335 439.401 396.595 437.799 399.927 434.905C403.258 432.01 405.44 428.015 406.074 423.648C406.205 422.792 406.271 421.928 406.27 421.063C406.256 416.478 404.532 412.062 401.435 408.681C398.337 405.299 394.09 403.195 389.523 402.779L406.943 402.869L418.58 402.934C423.444 402.975 428.092 404.939 431.512 408.398C434.931 411.856 436.842 416.527 436.828 421.39Z" fill="#3FBDF1"/>
<path d="M436.828 421.385C436.792 426.252 434.829 430.905 431.368 434.326C427.908 437.748 423.232 439.658 418.366 439.639L312.405 439.091C311.696 439.091 310.987 439.038 310.273 438.966C314.739 438.46 318.865 436.333 321.868 432.988C324.871 429.643 326.543 425.313 326.566 420.818C326.59 416.323 324.963 411.976 321.995 408.599C319.027 405.223 314.924 403.053 310.463 402.5C311.171 402.426 311.883 402.39 312.595 402.393L418.556 402.941C423.422 402.974 428.076 404.934 431.501 408.39C434.925 411.847 436.841 416.52 436.828 421.385Z" stroke="black" stroke-width="5.47" stroke-linecap="square" stroke-linejoin="round"/>
<path d="M406.258 421.057C406.249 425.923 404.312 430.586 400.871 434.026C397.431 437.466 392.768 439.403 387.903 439.412H312.512C311.8 439.408 311.088 439.368 310.38 439.293C314.843 438.763 318.957 436.615 321.942 433.254C324.927 429.894 326.576 425.555 326.576 421.06C326.576 416.566 324.927 412.227 321.942 408.866C318.957 405.506 314.843 403.358 310.38 402.827C311.088 402.762 311.803 402.714 312.512 402.714H387.903C392.766 402.725 397.426 404.661 400.866 408.098C404.305 411.536 406.244 416.195 406.258 421.057Z" stroke="black" stroke-width="5.47" stroke-linecap="square" stroke-linejoin="round"/>
<path d="M296.45 452.431C296.449 454.139 296.786 455.83 297.44 457.409C298.094 458.986 299.052 460.42 300.261 461.626C302.643 464.009 305.877 465.456 311.839 465.456H420.188C418.324 465.456 418.83 465.42 419.337 465.372C416.166 465 413.244 463.476 411.122 461.09C409.001 458.705 407.829 455.623 407.829 452.431C407.829 449.239 409.001 446.158 411.122 443.772C413.244 441.387 416.166 439.863 419.337 439.49C418.83 439.442 418.324 439.406 420.188 439.406H311.839C302.298 439.412 296.45 445.272 296.45 452.431Z" stroke="black" stroke-width="5.47" stroke-linecap="square" stroke-linejoin="round"/>
<path d="M329.979 452.431C329.987 455.883 331.362 459.192 333.803 461.632C336.244 464.074 339.552 465.448 343.004 465.456H417.824C418.324 465.456 418.83 465.42 419.337 465.372C416.166 465 413.243 463.476 411.122 461.09C409.001 458.705 407.829 455.623 407.829 452.431C407.829 449.239 409.001 446.158 411.122 443.772C413.243 441.387 416.166 439.863 419.337 439.49C418.83 439.442 418.324 439.406 417.824 439.406H343.004C339.553 439.416 336.245 440.791 333.805 443.232C331.364 445.672 329.989 448.98 329.979 452.431Z" stroke="black" stroke-width="5.47" stroke-linecap="square" stroke-linejoin="round"/>
<path d="M208.695 353.057H175.272C173.743 353.055 172.247 352.607 170.968 351.77C169.689 350.932 168.68 349.741 168.066 348.341C167.829 347.82 167.727 347.247 167.771 346.675C167.814 346.104 168.002 345.554 168.316 345.075C168.63 344.596 169.06 344.204 169.566 343.935C170.072 343.667 170.637 343.532 171.21 343.54H206.741C205.068 346.357 205.919 350.27 208.695 353.057Z" fill="#D7E8F0"/>
<path d="M230.307 349.614C230.305 350.525 229.943 351.398 229.299 352.042C228.655 352.686 227.782 353.049 226.871 353.05H208.695C205.919 350.269 205.068 346.356 206.741 343.521H222.791C224.319 343.522 225.813 343.966 227.094 344.798C228.374 345.632 229.385 346.818 230.004 348.214C230.196 348.657 230.299 349.132 230.307 349.614Z" fill="#3FBDF1"/>
<path d="M221.946 353.057C221.852 353.238 221.742 353.412 221.618 353.575C219.236 356.833 214.061 357.148 210.041 354.206C209.565 353.855 209.116 353.471 208.695 353.057C205.919 350.276 205.068 346.363 206.741 343.528C206.835 343.346 206.945 343.173 207.069 343.01C209.451 339.728 214.602 339.436 218.622 342.355C219.107 342.717 219.562 343.115 219.986 343.546C222.738 346.315 223.595 350.204 221.946 353.057Z" fill="white"/>
<path d="M238.711 370.597C238.704 371.509 238.338 372.381 237.69 373.024C237.044 373.667 236.168 374.027 235.256 374.027H200.184C201.875 371.181 201.03 367.298 198.249 364.499H231.195C232.725 364.499 234.221 364.945 235.502 365.781C236.782 366.618 237.792 367.809 238.407 369.209C238.603 369.646 238.706 370.118 238.711 370.597Z" fill="#3FBDF1"/>
<path d="M200.184 374.026H183.681C182.154 374.027 180.658 373.584 179.378 372.751C178.097 371.917 177.087 370.73 176.469 369.333C176.274 368.896 176.171 368.424 176.165 367.945C176.165 367.495 176.253 367.048 176.425 366.631C176.597 366.215 176.85 365.837 177.168 365.518C177.487 365.199 177.866 364.946 178.282 364.774C178.699 364.602 179.145 364.514 179.596 364.515H198.249C201.03 367.296 201.893 371.179 200.184 374.026Z" fill="#D7E8F0"/>
<path d="M200.184 374.026C200.107 374.213 200.004 374.39 199.88 374.55C197.498 377.826 192.341 378.124 188.327 375.199C187.841 374.837 187.383 374.439 186.957 374.008C184.199 371.227 183.354 367.344 185.003 364.479C185.099 364.296 185.208 364.121 185.331 363.955C187.713 360.698 192.889 360.382 196.903 363.33C197.381 363.677 197.83 364.061 198.249 364.479C201.03 367.296 201.893 371.179 200.184 374.026Z" fill="white"/>
<path d="M211.869 394.855H190.87C189.343 394.853 187.849 394.408 186.569 393.576C185.289 392.743 184.277 391.557 183.657 390.162C183.421 389.639 183.32 389.065 183.364 388.493C183.409 387.92 183.597 387.369 183.911 386.888C184.225 386.408 184.655 386.015 185.161 385.745C185.668 385.475 186.234 385.337 186.808 385.343H209.915C208.26 388.196 209.111 392.073 211.869 394.855Z" fill="#3FBDF1"/>
<path d="M245.899 391.447C245.894 392.353 245.53 393.221 244.888 393.859C244.244 394.497 243.374 394.855 242.469 394.854H211.869C209.111 392.072 208.26 388.189 209.915 385.325H238.383C239.912 385.325 241.409 385.771 242.69 386.607C243.971 387.444 244.98 388.635 245.595 390.036C245.791 390.48 245.895 390.96 245.899 391.447Z" fill="#D7E8F0"/>
<path d="M225.12 394.854C225.025 395.037 224.915 395.212 224.792 395.378C222.41 398.654 217.259 398.952 213.239 396.027C212.756 395.664 212.3 395.266 211.875 394.836C209.117 392.055 208.266 388.172 209.921 385.307C210.013 385.123 210.12 384.948 210.243 384.783C212.625 381.526 217.801 381.246 221.821 384.158C222.298 384.505 222.748 384.889 223.167 385.307C225.942 388.124 226.788 392.031 225.12 394.854Z" fill="white"/>
<path d="M66.47 204.985L66.994 205.134L66.7975 205.897C66.673 205.599 66.5635 205.294 66.47 204.985Z" fill="#353642"/>
<path d="M159.672 252.632C167.512 250.331 171.631 240.848 168.873 231.453C166.115 222.058 157.524 216.307 149.685 218.608C141.845 220.91 137.726 230.392 140.484 239.787C143.242 249.183 151.833 254.933 159.672 252.632Z" fill="#D7E8F0"/>
</svg>
