<svg width="641" height="641" viewBox="0 0 641 641" fill="none" xmlns="http://www.w3.org/2000/svg">
<path d="M481.968 156.192C479.301 148.795 476.333 141.449 473.084 134.308C466.61 120.097 465.122 106.63 456.027 94.7456" stroke="#CCDDE2" stroke-width="7.24" stroke-miterlimit="10"/>
<path d="M434.944 81.1241C427.118 73.1629 419.797 64.6055 406.497 58.2146C378.389 44.7536 342.448 43.3883 296.571 62.426" stroke="#CCDDE2" stroke-width="7.24" stroke-miterlimit="10"/>
<path d="M103.701 602.847C59.2476 540.01 44.87 468.968 52.2992 396.311" stroke="#CCDDE2" stroke-width="7.24" stroke-miterlimit="10"/>
<path d="M506.98 293.508V294.284C506.544 308.386 519.575 366.845 556.535 385.415C593.495 403.985 619.847 485.494 536.517 517.474C453.187 549.453 457.725 602.849 457.725 602.849" stroke="#CCDDE2" stroke-width="7.24" stroke-miterlimit="10"/>
<path d="M296.565 122.783V53.7215C296.554 48.9769 294.663 44.4301 291.308 41.0751C287.953 37.7202 283.407 35.8302 278.662 35.8184H49.9531C45.2086 35.8302 40.6617 37.7202 37.3068 41.0751C33.9518 44.4301 32.0619 48.9769 32.05 53.7215V378.452C32.0585 383.194 33.9486 387.739 37.3054 391.089C40.6622 394.438 45.2111 396.319 49.9531 396.317H278.662C280.88 396.331 283.08 395.908 285.136 395.073" stroke="black" stroke-width="7.24" stroke-linecap="round" stroke-linejoin="round"/>
<path d="M272.54 46.7603H56.0747C47.242 46.7603 40.0817 53.9205 40.0817 62.7532V369.414C40.0817 378.247 47.242 385.407 56.0747 385.407H272.54C281.373 385.407 288.533 378.247 288.533 369.414V62.7532C288.533 53.9205 281.373 46.7603 272.54 46.7603Z" fill="#3FBDF1"/>
<path d="M268.624 72.9639H62.7091C58.291 72.9639 54.7094 76.5458 54.7094 80.9635V128.372C54.7094 132.79 58.291 136.372 62.7091 136.372H268.624C273.042 136.372 276.624 132.79 276.624 128.372V80.9635C276.624 76.5458 273.042 72.9639 268.624 72.9639Z" fill="#3FBDF1"/>
<path d="M164.308 99.6695C167.929 99.6695 170.865 96.7338 170.865 93.1121C170.865 89.4905 167.929 86.5547 164.308 86.5547C160.686 86.5547 157.75 89.4905 157.75 93.1121C157.75 96.7338 160.686 99.6695 164.308 99.6695Z" fill="#D7E8F0"/>
<path d="M145.981 122.784C145.981 117.923 147.912 113.262 151.349 109.826C154.785 106.389 159.447 104.458 164.308 104.458C169.168 104.458 173.829 106.389 177.266 109.826C180.703 113.262 182.634 117.923 182.634 122.784H145.981Z" fill="#D7E8F0"/>
<path d="M165.641 204.311C158.65 204.307 151.815 206.377 146.001 210.259C140.186 214.14 135.654 219.659 132.977 226.117C130.3 232.575 129.599 239.682 130.961 246.539C132.324 253.396 135.69 259.694 140.633 264.637C145.577 269.581 151.875 272.947 158.732 274.31C165.589 275.673 172.696 274.971 179.154 272.294C185.612 269.617 191.131 265.085 195.012 259.27C198.894 253.456 200.964 246.622 200.96 239.63C200.955 230.264 197.232 221.284 190.61 214.662C183.987 208.039 175.006 204.316 165.641 204.311ZM165.641 266.43C164.273 266.43 162.961 265.887 161.994 264.92C161.028 263.953 160.484 262.641 160.484 261.274C160.484 259.906 161.028 258.594 161.994 257.628C162.961 256.66 164.273 256.117 165.641 256.117C167.009 256.117 168.32 256.66 169.287 257.628C170.254 258.594 170.798 259.906 170.798 261.274C170.798 262.641 170.254 263.953 169.287 264.92C168.32 265.887 167.009 266.43 165.641 266.43ZM172.185 226.688C171.076 234.342 170.141 242.412 167.891 249.854C167.339 251.623 163.981 251.623 163.404 249.854C161.791 244.253 160.554 238.55 159.699 232.784C159.006 228.592 156.551 221.81 158.904 217.721C160.949 214.086 166.763 213.638 170.121 215.541C174.294 217.939 172.666 222.906 172.185 226.714V226.688Z" fill="#D7E8F0"/>
<path d="M76.9008 164.679H249.452" stroke="white" stroke-width="7.24" stroke-miterlimit="10"/>
<path d="M76.9008 181.658H249.452" stroke="white" stroke-width="7.24" stroke-miterlimit="10"/>
<path d="M76.9008 291.034H249.452" stroke="white" stroke-width="7.24" stroke-miterlimit="10"/>
<path d="M116.982 307.097H209.37" stroke="white" stroke-width="7.24" stroke-miterlimit="10"/>
<path d="M95.2334 412.291C95.2334 412.291 125.937 290.283 221.568 260.483L260.438 251.207C260.438 251.207 266.585 223.753 264.323 220.869C262.06 217.984 257.413 212.074 248.9 213.356C240.388 214.638 218.382 215.048 212.748 188.146C207.114 161.243 227.933 97.2968 282.04 87.733C336.147 78.1693 337.41 117.898 337.41 117.898L297.668 209.991L303.834 284.283L304.61 394.952L95.2334 412.291Z" fill="white"/>
<path d="M425.701 318.04C425.06 318.226 416.881 320.604 413.663 326.271C413.05 324.974 412.081 323.877 410.869 323.11C409.657 322.343 408.252 321.936 406.817 321.937H310.763C309.054 321.935 307.395 322.512 306.057 323.575C304.719 324.638 303.781 326.124 303.398 327.789L284.482 408.896C283.2 408.646 281.918 408.492 280.585 408.364L235.946 397.223C234.031 396.742 232.005 396.993 230.266 397.926C228.525 398.859 227.196 400.407 226.536 402.267C226.238 403.102 226.091 403.984 226.1 404.87C226.1 406.883 226.863 408.821 228.236 410.294C229.609 411.767 231.489 412.664 233.497 412.806L254.605 414.164C234.273 423.734 209.536 441.964 188.89 458.714C168.801 427.26 187.653 395.813 201.832 378.878C200.005 360.212 190.749 316.873 144.565 318.053C160.474 297.65 180.313 280.164 204.896 268.458C289.097 361.789 385.427 285.483 387.472 283.842C401.877 293.24 414.768 304.776 425.701 318.053" fill="#2E2E2E"/>
<path d="M416.951 585.772V601.899H138.879V579.054C149.712 579.695 161.109 577.131 171.474 572.458C184.595 566.484 195.928 557.203 205.62 546.613C215.588 535.652 221.062 520.454 227.414 507.237C236.952 487.334 249.586 473.155 269.637 467.148L268.355 472.661C268.098 473.771 268.094 474.924 268.344 476.036C268.594 477.147 269.091 478.188 269.799 479.08C270.506 479.973 271.406 480.694 272.431 481.191C273.457 481.688 274.581 481.947 275.72 481.949H372.254C370.331 498.615 362.223 589.637 416.951 585.791" fill="#2E2E2E"/>
<path d="M372.299 161.615C372.222 170.239 371.098 178.82 368.953 187.172C367.975 191.132 365.874 194.725 362.905 197.521C359.935 200.317 356.222 202.196 352.21 202.934C352.05 197.114 349.576 192.005 345.8 188.832C346.145 183.905 346.096 178.958 345.653 174.038C345.403 170.788 345.012 167.756 344.602 165.032C344.357 163.481 344.004 161.95 343.544 160.449C342.256 159.065 340.738 157.913 339.057 157.045C333.115 153.699 320.885 150.141 298.225 155.372C294.525 156.219 291.045 157.833 288.008 160.109C287.94 160.151 287.88 160.202 287.828 160.263C285.783 162.147 283.181 164.532 280.489 165.769C277.7 167.051 274.79 167.102 272.348 164.07C272.284 164.006 272.252 163.948 272.194 163.884C270.912 162.211 269.688 160.038 267.425 159.609C262.656 158.712 260.336 163.455 259.733 167.442C259.208 171.128 260.291 174.378 261.874 177.474C263.2 179.991 264.933 182.271 267.002 184.223C267.534 184.737 268.02 185.294 268.457 185.89C268.259 185.925 268.063 185.979 267.874 186.05C267.435 186.198 267.007 186.373 266.592 186.576C260.823 189.172 256.714 195.678 256.624 203.293C256.624 203.53 246.952 203.389 245.727 203.293C241.01 202.857 236.362 201.498 233.042 197.941C223.619 187.845 223.664 172.865 227.536 161.147C231.202 150.026 235.869 139.167 241.984 129.161C255.233 107.508 275.79 91.5347 301.815 90.0989C308.056 89.7854 314.312 90.1508 320.474 91.1886C323.39 91.6482 326.274 92.2904 329.109 93.1116C355.64 104.688 372.479 130.931 372.325 161.615" fill="#2E2E2E"/>
<path d="M356.934 408.464C353.8 416.509 346.339 421.111 340.268 418.72C334.198 416.329 331.814 407.919 334.942 399.875C338.07 391.83 345.537 387.221 351.608 389.619C357.678 392.016 360.069 400.426 356.934 408.471" fill="#3FBDF1"/>
<path d="M373.062 480.307C373.062 480.307 356.037 598.989 424.137 585.835C491.865 572.74 517.499 297.206 321.455 257.579" stroke="black" stroke-width="7.24" stroke-miterlimit="10"/>
<path d="M213.62 366.051C213.62 366.051 158.673 412.389 188.281 458.734" stroke="black" stroke-width="7.24" stroke-miterlimit="10"/>
<path d="M374.299 447.343C373.357 447.401 372.011 446.772 371.094 446.522C369.932 446.215 368.78 445.885 367.639 445.535C360.945 443.451 354.647 440.262 349.005 436.1C347.723 435.183 345.441 434.593 343.877 435.196C343.007 435.515 342.238 436.063 341.652 436.781C341.065 437.499 340.683 438.362 340.544 439.279C340.063 442.587 342.397 445.824 344.941 447.945C347.96 450.471 351.095 452.798 354.755 454.311C358.288 455.728 361.933 456.85 365.652 457.663C367.338 458.054 369.049 458.304 370.722 458.733" stroke="black" stroke-width="7.24" stroke-miterlimit="10"/>
<path d="M395.388 415.232C396.08 418.886 396.587 422.681 396.241 426.392C395.952 429.533 394.824 433.2 391.33 433.962C390.666 434.138 389.977 434.201 389.292 434.148C376.139 433.373 365.299 428.828 352.922 419.88C340.544 410.931 336.185 431.539 347.492 435.193" stroke="black" stroke-width="7.24" stroke-miterlimit="10"/>
<path d="M347.967 450.431C347.663 450.181 347.375 449.913 347.102 449.63C340.942 443.188 339.826 456.129 346.294 459.937L347.127 460.431C347.563 460.617 348.031 460.834 348.492 461.072C348.71 461.129 348.954 461.225 349.178 461.29M349.178 461.29C355.024 463.854 361.248 465.494 367.376 467.167C361.313 465.187 355.268 463.238 349.178 461.29ZM349.178 461.29C348.653 461.072 348.153 460.854 347.627 460.604C347.466 460.536 347.298 460.485 347.127 460.45C347.018 460.4 346.898 460.38 346.779 460.391C346.66 460.402 346.546 460.445 346.448 460.514C346.302 460.634 346.195 460.795 346.14 460.975C345.146 463.36 345.954 466.366 347.223 468.501C348.557 470.757 350.845 472.494 353.101 473.731C359.172 477.135 366.229 479.148 373.043 480.353C374.307 480.614 375.602 480.699 376.889 480.603" stroke="black" stroke-width="7.24" stroke-miterlimit="10"/>
<path d="M431.855 495.287C431.855 495.287 410.964 459.686 408.638 428.732C407.215 409.572 401.587 405.515 397.561 405.239" stroke="black" stroke-width="7.24" stroke-miterlimit="10"/>
<path d="M391.331 433.957L395.394 415.233L397.561 405.234L413.625 331.096C413.863 329.992 413.851 328.849 413.59 327.749C413.328 326.651 412.825 325.625 412.116 324.746C411.407 323.867 410.51 323.157 409.491 322.67C408.472 322.183 407.357 321.93 406.227 321.929H310.167C308.459 321.928 306.8 322.505 305.462 323.569C304.124 324.632 303.187 326.117 302.802 327.782L283.886 408.894L270.079 468.077L268.797 473.622C268.542 474.732 268.54 475.885 268.792 476.995C269.043 478.106 269.541 479.145 270.249 480.037C270.957 480.929 271.857 481.649 272.882 482.145C273.906 482.642 275.03 482.901 276.168 482.904H372.697" stroke="black" stroke-width="7.24" stroke-miterlimit="10"/>
<path d="M272.233 161.937C272.233 161.937 277.316 140.38 306.02 137.521C334.724 134.662 341.916 156.11 341.916 156.11L341.012 158.27C341.012 158.27 303.276 143.13 282.437 164.738C282.437 164.738 274.931 168.142 272.233 161.95" fill="#3FBDF1"/>
<path d="M279.976 408.362L235.33 397.208C234.266 396.945 233.157 396.906 232.077 397.093C230.996 397.281 229.966 397.691 229.052 398.298C228.138 398.905 227.361 399.696 226.768 400.62C226.177 401.543 225.784 402.58 225.614 403.664C225.445 404.748 225.503 405.855 225.784 406.916C226.065 407.976 226.564 408.966 227.249 409.823C227.933 410.68 228.789 411.386 229.761 411.895C230.733 412.403 231.8 412.704 232.895 412.778L254.003 414.169" stroke="black" stroke-width="7.24" stroke-miterlimit="10"/>
<path d="M386.895 283.811C386.895 283.811 289.379 362.808 204.293 268.458" stroke="black" stroke-width="7.24" stroke-miterlimit="10"/>
<path d="M201.236 378.863C199.409 360.197 190.159 316.827 143.937 318.039" stroke="black" stroke-width="7.24" stroke-miterlimit="10"/>
<path d="M425.118 318.026C425.118 318.026 416.406 320.424 413.067 326.282" stroke="black" stroke-width="7.24" stroke-miterlimit="10"/>
<path d="M71.2279 602.86H485.256" stroke="black" stroke-width="7.24" stroke-miterlimit="10"/>
<path d="M345.8 188.857C349.704 192.139 352.21 197.498 352.21 203.561C352.21 213.625 345.217 221.766 336.576 221.766C335.599 221.761 334.625 221.647 333.673 221.426C343.736 213.734 345.775 188.857 345.775 188.857" fill="#3FBDF1"/>
<path d="M288.873 229.48C293.724 231.894 299.033 233.25 304.447 233.459C309.862 233.668 315.259 232.725 320.282 230.691C348.601 218.865 347.518 184.007 344.576 165.059C344.341 163.522 344.007 162.002 343.576 160.508V160.476C340.326 149.643 331.846 140.817 320.673 138.31C299.033 133.42 279.245 145.688 271.034 162.207" stroke="black" stroke-width="7.24" stroke-miterlimit="10"/>
<path d="M343.845 160.846C343.845 160.846 343.755 160.718 343.57 160.507V160.475C341.647 158.308 330.512 147.969 298.283 155.398C294.585 156.243 291.106 157.857 288.072 160.135C288 160.176 287.935 160.228 287.88 160.289" stroke="black" stroke-width="7.24" stroke-miterlimit="10"/>
<path d="M257.938 213.357H241.997C230.491 213.357 221.369 202.819 217.402 192.929C211.825 179.019 215.395 164.782 220.414 151.264C224.619 139.95 229.965 128.957 236.997 119.117C252.74 97.0991 276.508 84.6253 303.828 86.9329C306.251 87.138 308.663 87.4367 311.064 87.8303C347.749 93.7788 372.485 124.451 372.299 161.597C372.222 170.226 371.099 178.814 368.953 187.172C367.967 191.129 365.864 194.719 362.894 197.514C359.924 200.308 356.213 202.19 352.204 202.935" stroke="black" stroke-width="7.24" stroke-miterlimit="10"/>
<path d="M268.47 185.89C268.031 185.294 267.544 184.734 267.015 184.217C264.945 182.268 263.211 179.99 261.887 177.474C260.304 174.378 259.22 171.128 259.746 167.442C260.336 163.481 262.656 158.712 267.438 159.609C269.701 160.045 270.906 162.212 272.207 163.885C277.156 170.295 283.969 163.852 288.149 159.981" stroke="black" stroke-width="7.24" stroke-miterlimit="10"/>
<path d="M345.8 188.857C349.704 192.139 352.21 197.498 352.21 203.561C352.21 213.625 345.217 221.766 336.576 221.766C335.599 221.761 334.625 221.647 333.673 221.426" stroke="black" stroke-width="7.24" stroke-miterlimit="10"/>
<path d="M312.346 201.211C315.846 203.563 324.301 205.493 322.602 198.519C320.564 190.256 317.821 172.603 334.621 171.257C334.621 171.257 342.018 171.571 345.672 174.084" stroke="black" stroke-width="7.24" stroke-miterlimit="10"/>
<path d="M318.673 215.023C318.673 215.023 310.212 219.51 306.02 210.568" stroke="black" stroke-width="7.24" stroke-miterlimit="10"/>
<path d="M301.514 183.326C301.187 186.166 302.296 188.621 303.994 188.82C305.693 189.019 307.334 186.897 307.667 184.038C308.001 181.179 306.879 178.75 305.187 178.551C303.494 178.352 301.84 180.474 301.514 183.326Z" fill="black"/>
<path d="M329.064 184.999C328.737 187.832 329.846 190.294 331.544 190.492C333.243 190.691 334.884 188.569 335.211 185.711C335.538 182.852 334.429 180.416 332.737 180.224C331.045 180.031 329.391 182.147 329.064 184.999Z" fill="black"/>
<path d="M312.346 173.071C312.346 173.071 307.167 165.084 295.431 172.661" stroke="black" stroke-width="7.24" stroke-miterlimit="10"/>
<path d="M321.449 230.164V274.469" stroke="black" stroke-width="7.24" stroke-miterlimit="10"/>
<path d="M146.289 495.288C146.289 495.288 164.551 477.981 188.268 458.751C208.915 442.001 233.677 423.739 254.015 414.175C256.618 412.964 259.143 411.881 261.599 410.97C267.457 408.738 273.744 407.861 279.989 408.406C281.296 408.514 282.597 408.689 283.886 408.932" stroke="black" stroke-width="7.24" stroke-miterlimit="10"/>
<path d="M270.079 468.078C250.022 474.084 237.388 488.263 227.856 508.166C221.517 521.384 216.03 536.582 206.062 547.543C196.377 558.126 185.044 567.414 171.923 573.388C148.116 584.221 118.803 583.388 103.336 559.831C92.8745 543.857 88.7593 524.012 86.6696 505.346C83.08 472.905 94.4129 381.46 143.937 318.033C159.846 297.63 179.692 280.143 204.267 268.439C221.517 260.247 241.016 254.888 263.118 253.369L269.31 221.428" stroke="black" stroke-width="7.24" stroke-miterlimit="10"/>
<path d="M417.394 586.848V602.86" stroke="black" stroke-width="7.24" stroke-miterlimit="10"/>
<path d="M139.321 581.132V602.862" stroke="black" stroke-width="7.24" stroke-miterlimit="10"/>
<path d="M287.847 203.563C287.908 208.369 286.202 213.029 283.053 216.659C281.287 217.476 279.364 217.897 277.418 217.896C268.784 217.896 261.784 209.755 261.784 199.692C261.722 194.887 263.432 190.227 266.586 186.602C268.35 185.781 270.273 185.357 272.22 185.359C280.854 185.359 287.847 193.506 287.847 203.563Z" fill="#3FBDF1"/>
<path d="M272.233 221.768C280.857 221.768 287.847 213.617 287.847 203.563C287.847 193.509 280.857 185.359 272.233 185.359C263.609 185.359 256.618 193.509 256.618 203.563C256.618 213.617 263.609 221.768 272.233 221.768Z" stroke="black" stroke-width="7.24" stroke-miterlimit="10"/>
<path d="M457.879 44.4736C448.259 41.6058 438.005 41.6551 428.413 44.6153C418.821 47.5754 410.323 53.3133 403.992 61.1035C397.661 68.8939 393.782 78.3864 392.846 88.3809C391.911 98.3754 393.959 108.423 398.734 117.253C403.508 126.083 410.794 133.3 419.67 137.989C428.545 142.678 438.612 144.63 448.597 143.599C458.582 142.567 468.037 138.597 475.766 132.191C483.495 125.786 489.151 117.232 492.019 107.612C495.864 94.7121 494.428 80.8133 488.025 68.9721C481.623 57.1316 470.779 48.3191 457.879 44.4736ZM432.38 130.009C431.447 129.73 430.577 129.27 429.821 128.656C429.066 128.041 428.438 127.283 427.975 126.426C427.512 125.569 427.222 124.629 427.123 123.66C427.023 122.691 427.114 121.712 427.393 120.778C427.672 119.845 428.132 118.975 428.746 118.219C429.361 117.464 430.119 116.836 430.976 116.373C432.706 115.438 434.738 115.229 436.624 115.791C438.509 116.354 440.093 117.643 441.029 119.374C441.964 121.105 442.173 123.137 441.611 125.022C441.048 126.907 439.759 128.491 438.028 129.427C436.297 130.362 434.265 130.572 432.38 130.009ZM458.02 78.1262C457.913 78.3826 457.811 78.6326 457.712 78.8762C453.553 89.1078 448.38 98.8978 442.271 108.099C440.79 110.343 436.149 108.958 436.136 106.266C436.223 97.8998 436.865 89.5482 438.059 81.2671C438.803 75.216 438.226 64.8575 443.117 60.2038C447.456 56.0373 455.642 57.8257 459.501 61.8255C463.763 66.2677 460.071 73.2482 458.001 78.1262H458.02Z" fill="#D7E8F0"/>
<path d="M492.993 335.5C489.471 339.081 487.091 343.625 486.152 348.559C485.214 353.493 485.759 358.595 487.72 363.218C489.682 367.842 492.969 371.78 497.169 374.534C501.368 377.289 506.291 378.736 511.312 378.693C516.334 378.65 521.231 377.119 525.383 374.293C529.535 371.466 532.754 367.472 534.636 362.816C536.518 358.159 536.975 353.049 535.953 348.132C534.93 343.216 532.472 338.712 528.889 335.192C524.087 330.475 517.609 327.857 510.877 327.915C504.146 327.973 497.713 330.701 492.993 335.5ZM524.838 366.8C524.148 367.503 523.207 367.902 522.222 367.91C521.237 367.919 520.29 367.535 519.588 366.845C518.886 366.155 518.487 365.214 518.479 364.23C518.47 363.245 518.853 362.298 519.543 361.595C519.885 361.248 520.292 360.971 520.741 360.78C521.189 360.59 521.671 360.49 522.159 360.485C522.646 360.482 523.13 360.573 523.582 360.756C524.034 360.939 524.446 361.209 524.793 361.55C525.141 361.892 525.417 362.299 525.608 362.748C525.798 363.197 525.899 363.678 525.903 364.166C525.907 364.653 525.815 365.137 525.632 365.589C525.449 366.041 525.18 366.453 524.838 366.8ZM507.762 343.436C511.14 347.858 514.813 352.41 517.466 357.307C518.107 358.486 516.409 360.217 515.217 359.589C511.534 357.594 507.99 355.354 504.608 352.884C502.108 351.14 497.39 348.967 496.48 345.717C495.653 342.82 498.358 339.622 501.031 338.852C504.313 337.917 506.057 341.269 507.762 343.436Z" fill="#3FBDF1"/>
<path d="M592.54 132.143C595.07 129.032 596.62 125.239 596.993 121.247C597.368 117.255 596.551 113.241 594.644 109.714C592.737 106.186 589.827 103.304 586.282 101.429C582.737 99.5558 578.716 98.7751 574.727 99.1866C570.739 99.5982 566.961 101.183 563.874 103.741C560.786 106.299 558.526 109.715 557.379 113.558C556.232 117.4 556.251 121.496 557.432 125.328C558.614 129.16 560.905 132.555 564.016 135.085C566.082 136.765 568.459 138.022 571.01 138.783C573.562 139.545 576.239 139.796 578.888 139.522C581.536 139.249 584.105 138.457 586.448 137.191C588.791 135.924 590.861 134.209 592.54 132.143ZM564.868 109.65C565.114 109.348 565.416 109.097 565.759 108.912C566.101 108.727 566.477 108.611 566.864 108.57C567.251 108.53 567.642 108.566 568.015 108.678C568.388 108.789 568.736 108.972 569.038 109.218C569.341 109.463 569.591 109.766 569.777 110.108C569.962 110.45 570.078 110.825 570.118 111.213C570.159 111.6 570.122 111.991 570.011 112.364C569.9 112.737 569.716 113.085 569.471 113.387C568.975 113.998 568.257 114.386 567.475 114.467C566.694 114.548 565.911 114.316 565.301 113.82C564.691 113.325 564.302 112.607 564.221 111.825C564.14 111.043 564.373 110.261 564.868 109.65ZM580.208 126.957C577.188 123.695 573.939 120.374 571.445 116.656C570.843 115.765 572.086 114.266 573.06 114.676C576.147 115.992 579.143 117.512 582.028 119.227C584.143 120.426 588.06 121.791 589.028 124.316C589.899 126.553 587.989 129.303 585.919 130.085C583.361 131.073 581.72 128.541 580.208 126.919V126.957Z" fill="#3FBDF1"/>
<path d="M391.01 265.817C398.164 277.996 397.837 286.669 395.978 300.726C395.234 306.078 400.997 309.7 405.67 307.008C446.956 283.291 485.493 302.046 534.722 290.419C552.798 286.175 575.336 277.381 590.784 263.24C595.91 255.629 598.649 246.661 598.649 237.485C598.649 199.025 546.087 167.802 481.263 167.802C439.72 167.802 403.221 180.622 382.356 199.935C382.356 199.935 382.356 199.935 382.299 199.993C377.004 207.922 374.094 216.588 374.094 225.633C374.062 239.434 384.324 254.394 391.01 265.817Z" fill="#D7E8F0"/>
<path d="M374.248 225.632C374.248 225.952 374.248 226.273 374.248 226.606C374.479 240.067 381.235 252.612 389.234 263.464C394.593 270.72 400.952 278.784 399.446 287.681C398.805 291.604 396.593 295.161 396.042 299.097C395.491 303.033 397.587 307.943 401.561 308.148C404.086 308.276 406.234 306.481 408.234 304.943C420.06 295.776 435.431 292.347 450.379 291.745C465.328 291.142 480.256 293.116 495.211 293.539C516.774 294.18 538.677 291.463 558.593 283.194C576.438 275.796 592.79 263.656 603.527 247.439C614.078 231.516 607.841 208.395 596.585 194.55C586.034 181.557 570.746 173.243 555.068 167.384C512.896 151.641 464.763 152 423.175 169.249C410.83 174.377 398.888 181.044 389.632 190.691C380.613 200.088 374.344 212.613 374.248 225.632Z" stroke="black" stroke-width="7.24" stroke-miterlimit="10"/>
<path d="M547.279 240.951C556.222 240.951 563.471 233.702 563.471 224.76C563.471 215.817 556.222 208.568 547.279 208.568C538.337 208.568 531.088 215.817 531.088 224.76C531.088 233.702 538.337 240.951 547.279 240.951Z" fill="white"/>
<path d="M494.91 240.951C503.852 240.951 511.101 233.702 511.101 224.76C511.101 215.817 503.852 208.568 494.91 208.568C485.967 208.568 478.718 215.817 478.718 224.76C478.718 233.702 485.967 240.951 494.91 240.951Z" fill="white"/>
<path d="M441.521 240.951C450.463 240.951 457.712 233.702 457.712 224.76C457.712 215.817 450.463 208.568 441.521 208.568C432.578 208.568 425.329 215.817 425.329 224.76C425.329 233.702 432.578 240.951 441.521 240.951Z" fill="white"/>
</svg>
