<svg width="722" height="722" viewBox="0 0 722 722" fill="none" xmlns="http://www.w3.org/2000/svg">
<path d="M231.654 283.284H178.847C177.377 283.284 175.921 282.994 174.564 282.431C173.206 281.868 171.972 281.043 170.934 280.003C169.895 278.963 169.071 277.728 168.51 276.37C167.949 275.011 167.661 273.555 167.663 272.086V145.122C167.663 143.653 167.952 142.199 168.514 140.843C169.077 139.487 169.9 138.254 170.939 137.216C171.978 136.178 173.211 135.355 174.567 134.794C175.924 134.233 177.378 133.944 178.847 133.945H266.028C267.5 133.94 268.957 134.226 270.318 134.785C271.678 135.345 272.915 136.167 273.957 137.205C274.999 138.243 275.826 139.477 276.391 140.835C276.956 142.194 277.247 143.65 277.248 145.122V179.366" stroke="#CCDDE2" stroke-width="4.5" stroke-miterlimit="10"/>
<path d="M263.378 149.33H182.637C179.547 149.33 177.042 151.835 177.042 154.925V170C177.042 173.091 179.547 175.596 182.637 175.596H263.378C266.469 175.596 268.974 173.091 268.974 170V154.925C268.974 151.835 266.469 149.33 263.378 149.33Z" stroke="#CCDDE2" stroke-width="4.5" stroke-miterlimit="10"/>
<path d="M222.441 160.391C223.941 160.391 225.156 159.176 225.156 157.677C225.156 156.177 223.941 154.962 222.441 154.962C220.941 154.962 219.726 156.177 219.726 157.677C219.726 159.176 220.941 160.391 222.441 160.391Z" fill="#D7E8F0"/>
<path d="M214.853 169.971C214.789 168.937 214.937 167.9 215.29 166.925C215.642 165.949 216.19 165.056 216.9 164.301C217.61 163.546 218.468 162.944 219.419 162.532C220.371 162.12 221.397 161.908 222.434 161.908C223.471 161.908 224.496 162.12 225.448 162.532C226.4 162.944 227.257 163.546 227.968 164.301C228.678 165.056 229.226 165.949 229.578 166.925C229.93 167.9 230.079 168.937 230.015 169.971H214.853Z" fill="#D7E8F0"/>
<path d="M222.997 203.748C220.102 203.748 217.273 204.606 214.866 206.214C212.459 207.823 210.584 210.108 209.476 212.782C208.368 215.456 208.078 218.399 208.643 221.238C209.208 224.077 210.602 226.684 212.648 228.731C214.695 230.778 217.302 232.172 220.141 232.737C222.98 233.301 225.923 233.011 228.597 231.903C231.272 230.796 233.558 228.92 235.165 226.514C236.773 224.107 237.632 221.277 237.632 218.382C237.633 216.461 237.255 214.557 236.52 212.781C235.784 211.005 234.706 209.391 233.348 208.032C231.988 206.673 230.374 205.595 228.599 204.86C226.823 204.124 224.919 203.747 222.997 203.748ZM222.997 229.48C222.49 229.396 222.03 229.135 221.698 228.744C221.366 228.353 221.183 227.856 221.183 227.343C221.183 226.829 221.366 226.332 221.698 225.941C222.03 225.55 222.49 225.289 222.997 225.205C223.307 225.154 223.624 225.171 223.928 225.255C224.23 225.339 224.511 225.488 224.751 225.691C224.99 225.894 225.183 226.148 225.315 226.433C225.447 226.718 225.515 227.028 225.515 227.343C225.515 227.657 225.447 227.968 225.315 228.253C225.183 228.538 224.99 228.791 224.751 228.994C224.511 229.197 224.23 229.346 223.928 229.43C223.624 229.514 223.307 229.531 222.997 229.48ZM225.704 213.025C225.356 216.262 224.76 219.468 223.921 222.613C223.833 222.782 223.701 222.922 223.538 223.02C223.376 223.118 223.19 223.17 223.001 223.17C222.811 223.17 222.625 223.118 222.463 223.02C222.3 222.922 222.168 222.782 222.08 222.613C221.412 220.294 220.9 217.933 220.549 215.545C220.253 213.812 219.243 210.996 220.21 209.307C221.062 207.798 223.473 207.617 224.867 208.404C226.578 209.379 225.907 211.444 225.704 213.025Z" fill="#D7E8F0"/>
<path d="M186.233 187.322H257.718" stroke="#CCDDE2" stroke-width="4.5" stroke-miterlimit="10"/>
<path d="M186.233 194.362H257.718" stroke="#CCDDE2" stroke-width="4.5" stroke-miterlimit="10"/>
<path d="M186.233 239.667H257.718" stroke="#CCDDE2" stroke-width="4.5" stroke-miterlimit="10"/>
<path d="M202.839 246.326H241.112" stroke="#CCDDE2" stroke-width="4.5" stroke-miterlimit="10"/>
<path d="M627.858 256.152H518.281C509.157 256.152 501.761 263.548 501.761 272.671V459.821C501.761 468.945 509.157 476.34 518.281 476.34H627.858C636.982 476.34 644.378 468.945 644.378 459.821V272.671C644.378 263.548 636.982 256.152 627.858 256.152Z" fill="#3FBDF1"/>
<path d="M478.072 256.152H401.771C392.648 256.152 385.252 263.548 385.252 272.671V459.821C385.252 468.945 392.648 476.34 401.771 476.34H478.072C487.196 476.34 494.592 468.945 494.592 459.821V272.671C494.592 263.548 487.196 256.152 478.072 256.152Z" fill="#3FBDF1"/>
<path d="M391.569 588.308H643.591C647.945 588.306 652.121 586.576 655.201 583.497C658.281 580.419 660.013 576.244 660.016 571.89V259.054C660.017 256.897 659.593 254.761 658.768 252.767C657.943 250.774 656.733 248.963 655.208 247.437C653.682 245.912 651.871 244.702 649.878 243.877C647.884 243.052 645.748 242.627 643.591 242.629H472.318L427.554 242.896H427.424L404.789 243.777H404.717L398.761 244.008H398.234L397.793 247.553L396.927 254.145C396.936 254.157 396.941 254.172 396.941 254.188C396.941 254.203 396.936 254.218 396.927 254.231L389.88 264.672L388.436 266.787L384.458 292.245V292.368C384.371 292.331 384.284 292.281 384.176 292.223C384.09 292.173 384.007 292.115 383.931 292.05C382.592 291.042 381.586 289.656 381.043 288.072C379.721 284.722 379.404 280.281 379.389 276.758L378.523 296.1V296.172L377.317 322.013L377.021 328.951C377.584 327.948 378.393 326.504 379.332 324.778L376.335 343.926L375.714 357.723L374.169 392.588L374.111 393.888V394.386L373.707 402.877V403.072C373.707 403.072 372.552 427.988 372.552 428.024L372.444 430.334L371.108 440.421L367.209 468.644V571.89C367.21 574.831 368.003 577.719 369.504 580.248C371.006 582.777 373.161 584.855 375.743 586.265C380.631 588.915 386.039 588.561 391.411 588.38C392.855 588.337 394.299 588.272 395.743 588.193" fill="#3FBDF1"/>
<path d="M382.003 582.922C381.902 582.922 381.794 582.829 381.671 582.792C380.298 582.301 379.001 581.62 377.815 580.771C375.735 579.293 374.041 577.337 372.873 575.068C371.707 572.799 371.101 570.283 371.108 567.732V429.945L367.209 431.815L366.964 431.938L366.437 430.631L363.83 424.133L363.108 422.335L356.516 405.881C356.516 405.881 369.036 355.225 377.317 322.013C380.35 309.819 382.819 299.971 383.859 295.834C384.176 294.599 384.364 293.877 384.4 293.754C384.403 293.725 384.403 293.696 384.4 293.668C384.422 293.421 384.384 293.174 384.292 292.946C384.189 292.679 384.066 292.421 383.924 292.173C383.907 292.122 383.882 292.073 383.851 292.029C382.993 290.568 382.028 289.173 380.963 287.855L379.592 270.867L379.815 270.694L380.855 269.863L387.96 264.232L389.613 259.856L392.855 251.351L394.299 247.561H397.735H398.616H404.833L427.807 247.488H429.778L473.365 247.229H640.14C642.24 247.229 644.319 247.642 646.259 248.447C648.199 249.251 649.962 250.43 651.445 251.916C652.929 253.402 654.106 255.165 654.907 257.107C655.709 259.048 656.12 261.128 656.117 263.228V567.732C656.12 569.832 655.709 571.911 654.907 573.853C654.106 575.793 652.929 577.557 651.445 579.044C649.962 580.53 648.199 581.708 646.259 582.512C644.319 583.317 642.24 583.731 640.14 583.731H391.873" fill="#3FBDF1"/>
<path d="M398.688 243.055L404.594 243.019H404.717L427.388 242.896H427.547L472.311 242.629H643.591C647.947 242.63 652.123 244.362 655.203 247.442C658.284 250.522 660.014 254.699 660.016 259.054V571.89C660.013 576.244 658.281 580.419 655.201 583.497C652.121 586.576 647.945 588.306 643.591 588.308H383.187C378.944 588.308 374.874 586.622 371.874 583.622C368.873 580.621 367.188 576.552 367.188 572.309V538.151" stroke="black" stroke-width="4.5" stroke-miterlimit="10"/>
<path d="M627.858 492.511H401.771C392.648 492.511 385.252 499.907 385.252 509.03V554.957C385.252 564.08 392.648 571.476 401.771 571.476H627.858C636.982 571.476 644.378 564.08 644.378 554.957V509.03C644.378 499.907 636.982 492.511 627.858 492.511Z" fill="white"/>
<path d="M553.11 510.102H407.064C403.973 510.102 401.468 512.607 401.468 515.697V549.429C401.468 552.519 403.973 555.024 407.064 555.024H553.11C556.2 555.024 558.705 552.519 558.705 549.429V515.697C558.705 512.607 556.2 510.102 553.11 510.102Z" fill="#3FBDF1"/>
<path d="M526.908 529.024C529.477 529.024 531.558 526.942 531.558 524.374C531.558 521.806 529.477 519.725 526.908 519.725C524.34 519.725 522.259 521.806 522.259 524.374C522.259 526.942 524.34 529.024 526.908 529.024Z" fill="white"/>
<path d="M513.927 545.397C513.927 541.951 515.296 538.645 517.733 536.208C520.171 533.771 523.476 532.401 526.923 532.401C530.37 532.401 533.675 533.771 536.112 536.208C538.55 538.645 539.919 541.951 539.919 545.397H513.927Z" fill="white"/>
<path d="M598.372 510.107C593.844 510.103 589.416 511.442 585.65 513.954C581.883 516.467 578.946 520.04 577.211 524.223C575.475 528.404 575.02 533.008 575.9 537.449C576.782 541.891 578.961 545.971 582.162 549.173C585.362 552.376 589.441 554.557 593.882 555.441C598.322 556.326 602.926 555.872 607.109 554.139C611.292 552.407 614.867 549.472 617.382 545.707C619.898 541.942 621.239 537.515 621.238 532.988C621.238 529.983 620.648 527.009 619.499 524.233C618.351 521.458 616.667 518.936 614.543 516.811C612.42 514.687 609.899 513.001 607.125 511.851C604.35 510.701 601.375 510.108 598.372 510.107ZM598.372 550.344C597.919 550.365 597.467 550.294 597.043 550.136C596.619 549.977 596.231 549.734 595.903 549.421C595.576 549.108 595.315 548.732 595.137 548.316C594.958 547.899 594.867 547.451 594.867 546.998C594.867 546.545 594.958 546.096 595.137 545.68C595.315 545.263 595.576 544.888 595.903 544.574C596.231 544.262 596.619 544.018 597.043 543.86C597.467 543.701 597.919 543.63 598.372 543.652C599.233 543.691 600.045 544.061 600.64 544.685C601.235 545.308 601.567 546.136 601.567 546.998C601.567 547.859 601.235 548.687 600.64 549.311C600.045 549.934 599.233 550.304 598.372 550.344ZM602.581 524.605C601.859 529.573 601.274 534.785 599.794 539.594C599.462 540.756 597.274 540.756 596.906 539.594C595.857 535.97 595.056 532.279 594.509 528.547C594.047 525.84 592.466 521.436 593.982 518.808C595.318 516.447 599.087 516.165 601.253 517.364C603.953 518.894 602.87 522.136 602.581 524.605Z" fill="#3FBDF1"/>
<path d="M622.674 415.323C621.565 424.89 617.605 433.902 611.309 441.189C605.012 448.476 596.67 453.701 587.366 456.187C578.061 458.672 568.225 458.302 559.133 455.126C550.042 451.949 542.116 446.111 536.384 438.372C530.653 430.633 527.381 421.349 526.992 411.726C526.604 402.104 529.119 392.587 534.209 384.412C539.3 376.236 546.731 369.78 555.537 365.882C564.343 361.984 574.119 360.824 583.593 362.552C584.009 362.632 584.405 362.798 584.755 363.037C585.106 363.276 585.403 363.584 585.63 363.942C585.857 364.301 586.008 364.702 586.073 365.121C586.138 365.541 586.117 365.969 586.011 366.379L585.066 370.068L576.589 403.165C576.454 403.693 576.46 404.247 576.607 404.771C576.753 405.296 577.035 405.773 577.425 406.155C577.814 406.535 578.296 406.807 578.824 406.943C579.352 407.079 579.905 407.073 580.43 406.926L613.332 397.728L617.83 396.472C618.231 396.359 618.65 396.328 619.063 396.381C619.475 396.434 619.874 396.569 620.233 396.778C620.593 396.987 620.907 397.267 621.156 397.6C621.406 397.933 621.586 398.314 621.685 398.717C622.981 404.153 623.316 409.773 622.674 415.323Z" fill="white"/>
<path d="M623.808 381.216C623.964 381.619 624.033 382.051 624.011 382.483C623.989 382.915 623.877 383.337 623.682 383.724C623.487 384.109 623.212 384.45 622.877 384.723C622.542 384.997 622.153 385.196 621.736 385.31L618.639 386.176L591.845 393.663C591.32 393.809 590.766 393.815 590.239 393.679C589.711 393.544 589.229 393.272 588.839 392.891C588.45 392.51 588.168 392.032 588.021 391.508C587.875 390.983 587.869 390.43 588.004 389.902L594.928 362.957L595.592 360.372C595.697 359.961 595.885 359.576 596.145 359.241C596.404 358.906 596.73 358.628 597.102 358.425C597.474 358.222 597.884 358.097 598.306 358.059C598.729 358.022 599.154 358.072 599.556 358.206C605.007 360.087 609.992 363.114 614.175 367.083C618.358 371.053 621.643 375.871 623.808 381.216Z" fill="white"/>
<path d="M574.308 299.21C581.597 299.21 587.506 293.301 587.506 286.012C587.506 278.724 581.597 272.814 574.308 272.814C567.018 272.814 561.11 278.724 561.11 286.012C561.11 293.301 567.018 299.21 574.308 299.21Z" fill="#D7E8F0"/>
<path d="M622.992 315.181H526.916V317.824H622.992V315.181Z" fill="#D7E8F0"/>
<path d="M622.992 324.956H526.916V327.599H622.992V324.956Z" fill="#D7E8F0"/>
<path d="M622.992 333.869H526.916V336.511H622.992V333.869Z" fill="#D7E8F0"/>
<path d="M477.769 370.386H402.508V373.028H477.769V370.386Z" fill="#D7E8F0"/>
<path d="M477.769 381.05H402.508V383.692H477.769V381.05Z" fill="#D7E8F0"/>
<path d="M477.769 391.708H402.508V394.35H477.769V391.708Z" fill="#D7E8F0"/>
<path d="M477.769 402.371H402.508V405.014H477.769V402.371Z" fill="#D7E8F0"/>
<path d="M477.769 413.035H402.508V415.677H477.769V413.035Z" fill="#D7E8F0"/>
<path d="M392.183 295.3C392.183 295.3 415.056 331.32 441.12 342.641C467.185 353.962 475.329 358.966 485.3 354.915C495.27 350.865 514.411 345.19 527.898 305.097C541.384 265.005 547.81 243.9 548.287 234.19C548.763 224.479 521.948 232.457 521.948 232.457C521.948 232.457 507.508 275.019 475.87 294.014L430.81 246.42L392.183 295.3Z" fill="white"/>
<path d="M365.455 350.655L383.866 355.652C383.866 355.652 362.487 385.131 381.498 415.996C400.508 446.862 439.655 509.134 439.655 509.134L514.584 628.264L444.506 618.496L392.183 561.183L365.469 534.549L331.99 430.039L365.455 350.655Z" fill="white"/>
<path d="M64.8429 502.997C66.4983 503.893 68.4145 504.181 70.2602 503.813C72.1059 503.446 73.7653 502.444 74.9508 500.983L102.199 467.576L124.184 439.981L106.185 429.873C104.32 428.82 102.114 428.55 100.051 429.123C97.9877 429.696 96.2361 431.064 95.1813 432.927L61.6372 491.842C61.1029 492.782 60.7617 493.819 60.6338 494.893C60.506 495.966 60.5939 497.055 60.8925 498.094C61.1912 499.133 61.6945 500.103 62.3729 500.945C63.0512 501.786 63.891 502.484 64.8429 502.997Z" fill="#2E2E2E"/>
<path d="M479.603 660.574L502.281 682.884C504.238 684.813 506.875 685.897 509.624 685.902H566.337C568.096 685.909 569.819 685.403 571.296 684.448C572.773 683.492 573.94 682.127 574.654 680.519C575.368 678.912 575.599 677.131 575.319 675.394C575.038 673.658 574.258 672.04 573.073 670.74C571.582 669.072 569.522 668.021 567.297 667.794L535.84 664.566L479.603 660.574Z" fill="#2E2E2E"/>
<path d="M272.504 381.532C272.504 381.532 316.366 393.734 345.607 397.373C374.848 401.012 372.797 388.882 372.797 388.882L376.371 373.561C385.757 358.269 391.208 325.736 391.208 325.736L394.977 300.285L400.479 309.968L418.262 327.88L418.478 328.054C417.937 319.498 418.348 307.477 420.341 291.102C424.933 253.197 440.138 257.594 440.138 257.594L437.907 255.146C427.402 237.666 393.865 219.19 383.151 214.772C372.436 210.353 377.021 216.613 378.386 221.27C379.75 225.927 375.852 239.031 360.235 232.36C344.618 225.688 343.831 211.176 343.831 211.176H336.575C292.063 216.526 269.429 240.266 269.429 240.266C316.713 251.421 305.861 291.528 305.861 291.528L301.572 295.448C284.786 310.004 283.616 324.039 285.067 329.887C286.518 335.736 296.872 343.605 315.565 348.169C334.257 352.732 337.658 352.739 341.881 344.66C346.105 336.58 351.029 335.584 357.765 334.371C364.502 333.158 372.754 337.945 370.87 341.714C368.985 345.483 367.621 342.19 372.314 352.371C377.007 362.551 374.826 367.728 362.206 377.106C349.585 386.485 293.471 381.222 293.471 381.222C266.635 373.8 272.504 381.532 272.504 381.532Z" fill="#2E2E2E"/>
<path d="M375.093 211.417V212.955V213.345C387.639 216.48 399.454 222.027 409.879 229.676C411.569 230.911 413.215 232.167 414.84 233.488C414.883 228.182 414.428 222.853 412.717 217.828C411.331 213.516 408.719 209.701 405.201 206.847C402.103 204.377 398.443 202.796 394.761 201.367C391.079 199.937 387.461 198.681 384.082 196.753C381.235 195.196 378.747 193.055 376.783 190.472C376.094 189.537 375.665 188.438 375.537 187.284C375.411 186.13 375.592 184.964 376.061 183.901C375.729 183.878 375.402 183.813 375.086 183.707L375.093 211.417Z" fill="#3FBDF1"/>
<path d="M375.093 211.417V212.955V213.345C387.639 216.48 399.454 222.027 409.879 229.676C411.569 230.911 413.215 232.167 414.84 233.488C414.883 228.182 414.428 222.853 412.717 217.828C411.331 213.516 408.719 209.701 405.201 206.847C402.103 204.377 398.443 202.796 394.761 201.367C391.079 199.937 387.461 198.681 384.082 196.753C381.235 195.196 378.747 193.055 376.783 190.472C376.094 189.537 375.665 188.438 375.537 187.284C375.411 186.13 375.592 184.964 376.061 183.901C375.729 183.878 375.402 183.813 375.086 183.707L375.093 211.417Z" fill="#3FBDF1"/>
<path d="M201.763 331.284C206.477 334.657 211.717 337.226 217.271 338.887C219.661 339.623 222.088 340.23 224.542 340.706C214.846 317.855 222.102 287.791 252.7 255.734C257.939 250.236 263.517 245.071 269.4 240.269C278.909 232.536 287.356 226.775 297.32 222.139C301.78 220.081 306.361 218.295 311.038 216.789C319.33 214.029 327.889 212.148 336.575 211.179C338.546 210.941 340.495 210.768 342.466 210.66C341.985 207.274 342.081 203.832 342.748 200.479C344.567 191.274 347.737 185.982 353.498 178.725C357.108 174.155 362.747 163.239 355.231 159.47C350.488 157.109 350.054 152.25 352.285 149.362C354.17 146.849 357.982 145.701 362.682 148.64C365.931 150.719 369.787 150.849 373.512 149.831C376.406 148.145 378.914 145.873 380.877 143.16C386.335 135.34 386.53 123.492 377.989 117.753C373.332 114.612 367.397 113.854 361.83 114.46C359.338 114.734 356.881 115.271 354.502 116.063C354.492 116.058 354.48 116.056 354.469 116.056C354.458 116.056 354.447 116.058 354.437 116.063C344.329 121.5 337.145 131.55 333.68 142.878C331.643 149.571 329.348 156.199 326.662 162.697C324.452 168.025 322.915 174.502 317.998 178.141C315.943 179.66 313.61 180.764 311.131 181.39C301.839 187.281 288.952 183.881 278.793 182.624C270.671 181.514 262.402 182.345 254.664 185.05C246 189.433 238.549 196.429 232.506 205.526C222.52 220.58 233.09 242.283 216.391 254.153C211.337 257.727 205.561 259.893 200.037 262.665C192.153 266.672 185.785 272.369 183.431 281.141C178.782 298.837 187.056 320.606 201.763 331.284Z" fill="#3FBDF1"/>
<path d="M610.09 685.9H214.983" stroke="black" stroke-width="4.5" stroke-miterlimit="10"/>
<path d="M389.584 136.031C390.599 138.135 391.467 140.306 392.183 142.529C393.223 146.139 392.097 148.378 393.678 151.822C394.219 153.013 394.999 155.027 395.844 157.063C396.082 156.587 396.299 156.197 396.429 155.894C402.623 142.096 394.479 135.447 390.559 133.172C390.309 134.15 389.983 135.106 389.584 136.031Z" fill="#3FBDF1"/>
<path d="M389.584 136.031C390.599 138.135 391.467 140.306 392.183 142.529C393.223 146.139 392.097 148.378 393.678 151.822C394.219 153.013 394.999 155.027 395.844 157.063C396.082 156.587 396.299 156.197 396.429 155.894C402.623 142.096 394.479 135.447 390.559 133.172C390.309 134.15 389.983 135.106 389.584 136.031Z" fill="#3FBDF1"/>
<path d="M252.317 368.798C248.534 398.631 251.595 450.384 312.691 489.979C323.687 497.105 333.586 507.169 343.282 515.87C369.728 539.768 394.887 565.054 418.652 591.622C433.2 607.751 448.052 624.704 462.802 641.035C470.363 649.382 478.007 657.651 485.733 665.843C491.422 671.843 500.447 685.893 509.595 685.893H565.81C570.864 685.893 575.456 681.756 575.383 676.681C575.342 674.487 574.512 672.383 573.044 670.753C571.553 669.085 569.493 668.035 567.268 667.807L535.811 664.58L383.822 422.869C375.981 410.393 369.029 389.859 375.093 376.408C398.197 325.247 396.212 275.66 396.212 275.66" stroke="black" stroke-width="4.5" stroke-miterlimit="10"/>
<path d="M331.008 505.53C324.38 528.815 313.68 552.46 304.843 567.348C301.641 572.783 297.419 577.549 292.41 581.383C274.302 595.253 248.707 593.773 231.343 578.994L144.985 505.487L102.206 467.574L74.958 500.981C73.67 502.549 71.8404 503.576 69.8315 503.861C67.8226 504.145 65.78 503.667 64.107 502.519C62.4339 501.371 61.2521 499.636 60.7949 497.66C60.3376 495.683 60.6382 493.607 61.6371 491.841L95.1885 432.94C96.2433 431.077 97.9949 429.708 100.058 429.136C102.121 428.563 104.328 428.833 106.192 429.886L124.191 439.994L227.322 497.754C229.037 498.714 230.956 499.253 232.921 499.327C234.886 499.4 236.84 499.007 238.622 498.177C240.405 497.348 241.966 496.108 243.175 494.559C244.385 493.008 245.21 491.194 245.581 489.263L257.797 425.208" stroke="black" stroke-width="4.5" stroke-miterlimit="10"/>
<path d="M375.093 179.416V211.184V212.722V213.112C378.364 217.877 380.01 224.664 376.891 229.718C372.711 236.497 363.484 235.371 357.635 231.58C355.914 230.467 354.271 229.237 352.719 227.898C347.513 223.376 344.143 217.104 343.246 210.267C342.765 206.882 342.86 203.44 343.528 200.087C345.361 190.889 348.524 185.604 354.293 178.326C357.903 173.777 363.534 162.846 356.011 159.077C347.195 154.68 353.303 141.814 363.462 148.247C371.346 153.251 382.674 147.013 387.353 140.305C392.811 132.486 393.006 120.638 384.465 114.898C379.808 111.757 373.873 110.999 368.307 111.606C351.347 113.469 339.275 126.724 334.445 142.493C332.409 149.186 330.113 155.814 327.427 162.312C325.218 167.64 323.68 174.117 318.763 177.755C309.377 184.752 295.847 181.091 285.255 179.791C263.205 177.084 245.422 186.853 233.271 205.141C223.286 220.195 233.856 241.898 217.156 253.768C212.102 257.341 206.326 259.507 200.803 262.28C192.918 266.287 186.55 271.984 184.233 280.756C179.554 298.43 187.843 320.199 202.535 330.877C209.272 335.772 217.156 338.696 225.343 340.299" stroke="black" stroke-width="4.5" stroke-miterlimit="10"/>
<path d="M418.623 237.603C418.666 237.199 418.681 236.809 418.702 236.426C419.07 229.444 419.027 222.21 416.753 215.488C415.357 211.181 412.744 207.369 409.23 204.514C406.125 202.052 402.464 200.456 398.797 199.027C395.129 197.597 391.49 196.355 388.118 194.42C385.264 192.869 382.775 190.725 380.819 188.132C380.134 187.2 379.706 186.104 379.579 184.954C379.452 183.805 379.631 182.641 380.097 181.583" stroke="black" stroke-width="4.5" stroke-miterlimit="10"/>
<path d="M368.256 172.254C370.812 175.907 374.278 179.849 378.646 181.272C384.299 183.113 388.104 178.311 390.133 173.64C391.346 170.86 392.183 167.9 393.165 165.027C393.483 164.081 393.678 163.626 394.761 163.583C395.844 163.539 396.984 163.756 398.096 163.756C398.176 163.754 398.253 163.731 398.32 163.689C398.387 163.648 398.443 163.59 398.48 163.52C398.517 163.45 398.536 163.372 398.533 163.292C398.53 163.214 398.506 163.136 398.465 163.07C396.97 160.796 394.739 154.594 393.613 152.11C392.046 148.666 393.18 146.435 392.125 142.818C391.408 140.597 390.545 138.426 389.541 136.32" stroke="black" stroke-width="4.5" stroke-miterlimit="10"/>
<path d="M391.208 129.642C391.208 129.642 406.623 135.555 398.659 153.323C398.169 154.399 396.963 156.644 396.392 157.655" stroke="black" stroke-width="4.5" stroke-miterlimit="10"/>
<path d="M557.478 78.9805C557.478 78.9805 557.565 79.0238 557.738 79.0888L557.478 78.9805Z" fill="#3FBDF1"/>
<path d="M390.357 173.128C389.123 173.297 387.869 173.011 386.831 172.323C385.793 171.634 385.042 170.591 384.718 169.388" stroke="black" stroke-width="4.5" stroke-miterlimit="10"/>
<path d="M392.963 149.332C389.772 146.733 386.27 150.054 384.133 152.466" stroke="black" stroke-width="4.5" stroke-miterlimit="10"/>
<path d="M343.268 210.274C332.565 210.952 321.994 213.007 311.817 216.389C295.211 221.833 283.775 228.858 270.208 239.869C264.326 244.68 258.749 249.853 253.509 255.356C222.881 287.412 215.64 317.491 225.351 340.335C233.242 358.948 251.436 370.493 270.079 376.377C282.273 380.218 294.98 381.872 307.731 382.24C322.929 382.673 338.257 382.095 353.217 379.207C359.52 377.995 366.783 376.998 370.545 371.143C374.306 365.287 374.624 357.389 371.83 351.114C369.209 345.273 362.134 338.992 355.737 343.577C355.028 344.089 354.444 344.755 354.03 345.525C353.616 346.297 353.382 347.151 353.347 348.024" stroke="black" stroke-width="4.5" stroke-miterlimit="10"/>
<path d="M331.708 248.901C332.503 272.842 312.214 286.192 312.214 286.192C305.485 291.643 298.944 297.499 293.442 304.206C289.926 308.488 286.663 313.282 285.046 318.646C283.836 322.304 283.857 326.257 285.103 329.902C286.482 333.273 288.76 336.2 291.688 338.364C297.161 342.645 303.818 344.862 310.417 346.782C317.688 348.863 325.094 350.441 332.582 351.504C336.914 352.125 338.741 350.782 340.719 347.035C342.51 343.642 343.975 339.714 347.289 337.497C351.881 334.415 358.047 333.7 363.361 334.97C371.556 336.92 373.649 343.418 366.971 344.732" stroke="black" stroke-width="4.5" stroke-miterlimit="10"/>
<path d="M326.705 411.33L202.196 381.244L172.565 503.869L293.623 533.962L297.507 532.178L326.705 411.33Z" fill="white"/>
<path d="M269.255 394.09C275.161 352.748 287.962 342.525 296.294 340.482L295.746 340.178C270.591 330.388 253.148 378.827 249.444 390.155L269.255 394.09Z" fill="#D7E8F0"/>
<path d="M268.909 397.366C274.815 356.025 287.962 342.494 296.294 340.48L295.746 340.177C270.591 330.386 252.426 381.157 248.707 392.478L268.909 397.366Z" fill="#D7E8F0"/>
<path d="M295.746 340.177C267.299 329.116 248.707 392.478 248.707 392.478L268.923 397.366C280.67 333.83 305.875 345.382 305.875 345.382C304.987 345.115 295.746 340.177 295.746 340.177Z" stroke="black" stroke-width="4.5" stroke-miterlimit="10"/>
<path d="M200.809 387.089L172.57 503.909L270.798 527.654L299.038 410.835L200.809 387.089Z" fill="#3FBDF1"/>
<path d="M202.308 380.905L172.572 503.913L276 528.917L305.737 405.908L202.308 380.905Z" fill="white"/>
<path d="M202.795 390.261L177.185 496.202C176.459 499.205 178.305 502.229 181.309 502.955L268.661 524.072C271.664 524.798 274.688 522.951 275.414 519.948L301.024 414.006C301.751 411.002 299.904 407.979 296.9 407.253L209.549 386.137C206.545 385.41 203.522 387.256 202.795 390.261Z" fill="#3FBDF1"/>
<path d="M202.216 381.288L172.573 503.911L276.003 528.914L305.645 406.291L202.216 381.288Z" stroke="black" stroke-width="4.5" stroke-miterlimit="10"/>
<path d="M306.08 406.389L276.436 529.012L297.083 534.003L326.726 411.38L306.08 406.389Z" fill="white"/>
<path d="M306.08 406.389L276.436 529.012L297.083 534.003L326.726 411.38L306.08 406.389Z" stroke="black" stroke-width="4.5" stroke-miterlimit="10"/>
<path d="M297.074 533.963L290.424 516.859L276.425 528.974" stroke="black" stroke-width="4.5" stroke-miterlimit="10"/>
<path d="M316.388 408.841L290.424 516.86" stroke="black" stroke-width="4.5" stroke-miterlimit="10"/>
<path d="M544.15 209.921C543.76 209.986 543.428 210.051 543.002 210.138C539.096 210.82 535.393 212.375 532.172 214.687C528.641 217.416 525.436 222.159 523.876 226.239C521.517 232.433 518.925 238.527 516.1 244.52C511.834 253.758 506.76 262.6 500.938 270.945C494.895 279.436 487.639 288.042 478.498 293.327C477.351 294.02 476.142 294.608 474.888 295.081C473.35 295.731 451.712 270.837 449.329 268.064C439.777 256.952 429.9 245.949 418.702 236.44C415.865 234.015 412.926 231.675 409.908 229.488C399.475 221.832 387.653 216.277 375.101 213.134" stroke="black" stroke-width="4.5" stroke-miterlimit="10"/>
<path d="M583.08 209.01C583.123 209.021 583.167 209.021 583.21 209.01C593.217 210.18 589.296 220.967 582.257 220.62C574.481 220.23 566.727 220.62 558.972 220.75C556.835 220.68 554.707 221.071 552.734 221.898C548.836 223.761 548.467 227.919 547.883 231.688C547.103 236.627 546.215 241.565 545.168 246.46C543.132 256.164 540.619 265.738 537.738 275.225C535.876 281.376 533.818 287.499 531.652 293.556C525.327 311.404 517.356 330.335 503.949 344.096C496.541 351.721 486.837 357.352 475.899 356.529C460.499 355.381 445.683 347.649 432.622 338.855C432.568 338.817 432.516 338.774 432.471 338.725C427.596 335.443 422.923 331.87 418.478 328.025C418.478 328.025 400.479 311.996 394.977 300.257" stroke="black" stroke-width="4.5" stroke-miterlimit="10"/>
<path d="M611.534 199.309V200.32C611.534 207.295 605.917 208.493 601.065 208.609L507.154 210.775C503.039 210.883 499.581 207.28 499.494 202.782V202.594C499.494 198.183 502.729 194.515 506.793 194.414C506.793 194.414 559.326 192.934 600.011 191.815C600.783 194.277 602.675 196.183 605.022 197.67C606.983 198.849 609.249 199.42 611.534 199.309Z" stroke="black" stroke-width="4.5" stroke-miterlimit="10"/>
<path d="M661.424 99.9385C661.424 101.088 661.151 102.221 660.63 103.245L618.66 189.344C618.167 190.339 617.465 191.215 616.601 191.913C615.738 192.611 614.733 193.113 613.657 193.387C611.922 193.826 610.089 193.636 608.48 192.853C607.194 192.22 606.112 191.24 605.355 190.025C604.598 188.808 604.198 187.404 604.199 185.972C604.205 184.826 604.466 183.697 604.964 182.665L646.955 96.5595C647.719 95.0217 648.978 93.7871 650.531 93.055C652.084 92.3236 653.839 92.138 655.51 92.5279C657.182 92.9185 658.673 93.8622 659.741 95.2058C660.809 96.5494 661.392 98.2144 661.395 99.9313L661.424 99.9385Z" stroke="black" stroke-width="4.5" stroke-miterlimit="10"/>
<path d="M547.218 82.23C559.954 82.23 570.279 71.9052 570.279 59.1691C570.279 46.433 559.954 36.1084 547.218 36.1084C534.482 36.1084 524.158 46.433 524.158 59.1691C524.158 71.9052 534.482 82.23 547.218 82.23Z" fill="#3FBDF1"/>
<path d="M539.89 67.1032C539.125 66.817 538.41 66.4152 537.767 65.9119C536.636 65.0585 535.858 63.819 535.58 62.4291C535.304 61.0392 535.547 59.5961 536.266 58.3742C536.733 57.5807 537.38 56.9069 538.153 56.4058C538.926 55.9046 539.805 55.5898 540.72 55.4862C540.213 54.294 540.107 52.969 540.42 51.7115C540.733 50.4541 541.446 49.3327 542.452 48.5169C543.46 47.7011 544.704 47.2354 546 47.1902C547.294 47.145 548.568 47.5226 549.63 48.2662C551.861 49.8185 553.406 52.5549 554.352 55.053C554.84 56.3648 555.198 57.7215 555.42 59.1034C555.528 59.8254 556.265 63.7964 555.687 64.2008C551.875 66.8433 544.778 68.966 539.89 67.1032Z" fill="white"/>
<g opacity="0.72">
<path opacity="0.72" d="M527.76 130.335C534.77 130.335 540.453 124.653 540.453 117.642C540.453 110.632 534.77 104.949 527.76 104.949C520.75 104.949 515.068 110.632 515.068 117.642C515.068 124.653 520.75 130.335 527.76 130.335Z" fill="#3FBDF1"/>
<path opacity="0.72" d="M530.273 123.028C529.967 123.36 529.612 123.643 529.219 123.866C528.546 124.259 527.753 124.393 526.989 124.243C526.225 124.092 525.542 123.669 525.067 123.05C524.757 122.645 524.545 122.173 524.449 121.672C524.352 121.171 524.373 120.654 524.511 120.162C523.801 120.166 523.108 119.94 522.537 119.518C521.966 119.095 521.547 118.498 521.343 117.818C521.14 117.136 521.163 116.408 521.409 115.741C521.654 115.074 522.11 114.505 522.706 114.119C524.061 113.369 525.603 113.029 527.147 113.137C527.918 113.159 528.685 113.26 529.435 113.44C529.818 113.527 531.999 113.989 532.085 114.364C532.641 116.87 532.244 120.934 530.273 123.028Z" fill="white"/>
</g>
<path d="M599.216 89.9408L586.76 96.581C582.242 98.9889 580.532 104.605 582.94 109.122L589.58 121.578C591.988 126.096 597.603 127.807 602.121 125.398L614.577 118.759C619.096 116.35 620.806 110.735 618.397 106.217L611.758 93.7609C609.349 89.2433 603.734 87.5329 599.216 89.9408Z" fill="#3FBDF1"/>
<path d="M604.206 121.859L613.224 117.05C615.104 116.041 616.509 114.329 617.13 112.288C617.753 110.246 617.543 108.042 616.545 106.155L610.769 95.3254C609.761 93.4438 608.049 92.0381 606.007 91.4157C603.965 90.7934 601.76 91.0049 599.874 92.0042L599.267 92.3291C597.015 95.4553 594.018 100.805 598.545 102.488C605.043 104.921 603.144 108.567 600.711 113.238C598.646 117.159 598.119 121.743 604.206 121.859Z" fill="white"/>
<path d="M590.163 108.748C592.045 108.748 593.571 107.222 593.571 105.34C593.571 103.458 592.045 101.932 590.163 101.932C588.281 101.932 586.755 103.458 586.755 105.34C586.755 107.222 588.281 108.748 590.163 108.748Z" fill="white"/>
<path d="M548.186 165.626C549.449 166.24 550.793 166.668 552.178 166.897C554.722 167.287 557.323 167.01 559.727 166.094C562.132 165.178 564.257 163.654 565.896 161.669C567.16 160.096 568.106 158.124 569.434 156.536C570.343 155.377 571.558 154.497 572.943 153.995C573.418 153.894 573.862 153.678 574.236 153.366C575.145 152.428 573.6 151.634 573.29 150.876C572.824 149.653 572.824 148.301 573.29 147.078C574.475 143.863 574.508 140.336 573.384 137.098C572.259 133.861 570.047 131.114 567.125 129.325C564.201 127.536 560.748 126.817 557.354 127.289C553.96 127.762 550.834 129.398 548.511 131.916C546.215 134.392 544.836 137.555 543.406 140.58C542.135 143.273 540.785 145.952 540.085 148.847C538.46 155.706 542.128 162.673 548.186 165.626Z" fill="#3FBDF1"/>
<path d="M561.081 141.259C562.855 141.259 564.294 139.821 564.294 138.046C564.294 136.272 562.855 134.833 561.081 134.833C559.306 134.833 557.868 136.272 557.868 138.046C557.868 139.821 559.306 141.259 561.081 141.259Z" fill="white"/>
<path d="M556.871 150.126C558.646 150.126 560.084 148.688 560.084 146.913C560.084 145.139 558.646 143.7 556.871 143.7C555.097 143.7 553.659 145.139 553.659 146.913C553.659 148.688 555.097 150.126 556.871 150.126Z" fill="white"/>
<path d="M552.922 158.443C554.697 158.443 556.135 157.004 556.135 155.23C556.135 153.456 554.697 152.018 552.922 152.018C551.147 152.018 549.709 153.456 549.709 155.23C549.709 157.004 551.147 158.443 552.922 158.443Z" fill="white"/>
<g opacity="0.54">
<path opacity="0.54" d="M475.798 178.716C476.774 178.586 477.739 178.386 478.686 178.116L489.559 175.055C492.888 174.117 496.389 173.077 498.75 170.543C503.126 165.842 501.711 158.377 500.014 152.182C498.633 147.114 497.249 142.045 495.862 136.977C494.909 133.482 493.927 129.93 492.029 126.869C490.13 123.808 487.126 121.179 483.545 120.616C480.91 120.205 478.238 120.912 475.661 121.613L465.228 124.501C461.806 125.432 458.196 126.479 455.799 129.1C451.539 133.757 452.911 141.063 454.542 147.15L458.708 162.709C461.264 172.059 466.051 179.943 475.798 178.716Z" fill="#3FBDF1"/>
<path opacity="0.54" d="M475.076 157.497C475.72 158.126 476.519 158.573 477.391 158.796C478.263 159.018 479.178 159.007 480.045 158.763C480.911 158.519 481.698 158.052 482.326 157.407C482.954 156.763 483.403 155.965 483.625 155.093L484.837 150.342L486.043 145.584C486.265 144.712 486.253 143.796 486.008 142.93C485.764 142.064 485.296 141.278 484.651 140.65C484.006 140.022 483.208 139.575 482.336 139.354C481.464 139.133 480.548 139.144 479.682 139.389L474.968 140.718L470.246 142.046C469.381 142.292 468.597 142.762 467.971 143.408C467.345 144.053 466.9 144.852 466.681 145.725C466.461 146.596 466.475 147.511 466.72 148.376C466.967 149.241 467.435 150.026 468.08 150.652L471.596 154.075L475.076 157.497Z" fill="white"/>
</g>
</svg>
