<svg width="715" height="715" viewBox="0 0 715 715" fill="none" xmlns="http://www.w3.org/2000/svg">
<g clip-path="url(#clip0_464_625)">
<mask id="mask0_464_625" style="mask-type:luminance" maskUnits="userSpaceOnUse" x="0" y="0" width="715" height="715">
<path d="M715 0H0V715H715V0Z" fill="white"/>
</mask>
<g mask="url(#mask0_464_625)">
<path d="M469.326 134.735V-256.241H648.434V185.987" stroke="#CCDDE2" stroke-width="4.82" stroke-miterlimit="10"/>
<path d="M487.129 5.7208V28.6008H510.009V-13.384H487.129V5.7208ZM490.89 -9.63743H506.22V5.7208H490.89V-9.63743ZM490.89 9.47452H506.22V24.8471H490.89V9.47452Z" fill="#D7E8F0"/>
<path d="M527.47 5.7208V28.6008H550.35V-13.384H527.47V5.7208ZM531.245 -9.62313H546.603V5.7208H531.245V-9.62313ZM531.245 9.48882H546.603V24.8471H531.245V9.48882Z" fill="#D7E8F0"/>
<path d="M566.709 5.7208V28.6008H589.589V-13.384H566.709V5.7208ZM570.47 -9.63743H585.828V5.7208H570.47V-9.63743ZM570.47 9.47452H585.828V24.8471H570.47V9.47452Z" fill="#D7E8F0"/>
<path d="M603.646 5.7208V28.6008H626.526V-13.384H603.646V5.7208ZM607.4 -9.63743H622.765V5.7208H607.4V-9.63743ZM607.4 9.47452H622.765V24.8471H607.4V9.47452Z" fill="#D7E8F0"/>
<path d="M461.425 487.007C455.384 493.099 449.399 499.877 443.021 506.033C441.267 507.745 439.473 509.399 437.637 510.995C435.599 512.769 433.497 514.456 431.345 516C431.189 515.55 430.998 515.113 430.773 514.692C427.162 507.542 417.367 503.016 416.151 494.908C415.043 487.336 421.871 480.379 420.756 472.957C419.498 464.563 409.173 459.58 407.264 451.379C406.049 446.288 407.135 440.418 406.692 435.17C406.185 429.302 405.193 423.485 403.725 417.781C404.44 417.731 405.155 417.709 405.87 417.688C420.384 417.445 434.67 425.596 439.368 437.05C443.15 446.345 441.227 457.006 446.253 465.693C446.555 466.255 446.897 466.795 447.275 467.309C447.942 468.221 448.658 469.094 449.42 469.926L451.015 471.585C451.279 471.849 451.573 472.092 451.837 472.378C452.102 472.664 452.388 472.914 452.652 473.2C455.155 475.596 457.707 478.005 459.366 480.865C459.516 481.114 459.65 481.372 459.766 481.638C459.917 481.903 460.051 482.178 460.167 482.46C460.317 482.767 460.431 483.06 460.539 483.346C460.646 483.632 460.782 484.061 460.896 484.362C461.053 484.898 461.204 485.406 461.318 485.935C461.318 486.071 461.318 486.185 461.361 486.292C461.404 486.399 461.361 486.378 461.361 486.428C461.371 486.47 461.371 486.515 461.361 486.557C461.361 486.65 461.361 486.714 461.404 486.778V486.821C461.393 486.884 461.401 486.949 461.425 487.007Z" fill="white"/>
<path d="M461.518 487.451H461.54L461.518 487.473V487.451Z" fill="white"/>
<path d="M461.561 487.41C461.74 487.252 461.89 487.145 462.069 486.988C461.919 487.124 461.74 487.274 461.583 487.431C461.583 487.431 461.583 487.431 461.54 487.431L461.561 487.41Z" fill="white"/>
<path d="M512.376 452.209C512.222 454.702 512.222 457.202 512.376 459.695C508.015 460.761 503.717 461.933 499.506 463.349C496.889 464.214 494.322 465.165 491.756 466.252C484.634 469.14 477.928 472.963 471.814 477.62C473.146 475.349 474.084 472.868 474.588 470.284C474.588 470.177 474.631 470.063 474.653 469.934C475.761 464.579 475.847 458.952 478.371 453.832C483.068 444.394 496.803 437.552 511.182 437.108H511.447C512.755 437.108 514.085 437.108 515.415 437.173C513.926 442.077 512.908 447.112 512.376 452.209Z" fill="white"/>
<path d="M505.841 445.316L499.463 463.32C496.846 464.185 494.279 465.136 491.713 466.223C495.81 458.258 500.5 451.058 505.841 445.316Z" fill="white"/>
<path d="M461.59 487.479C461.59 487.336 461.568 487.194 461.525 487.057C461.568 487.322 461.59 487.479 461.59 487.479Z" fill="white"/>
<path d="M413.091 427.221C427.391 445.761 436.886 477.271 443.021 506.036C441.267 507.747 439.473 509.4 437.637 510.998L413.091 427.221Z" fill="white"/>
<path d="M463.585 458.479C460.725 467.21 460.617 476.026 460.953 481.61C461.04 483.414 461.231 485.212 461.525 486.994L463.585 458.479Z" fill="white"/>
<path d="M461.425 487.007C455.384 493.099 449.399 499.877 443.021 506.033C441.267 507.745 439.473 509.399 437.637 510.995C435.599 512.769 433.497 514.456 431.345 516C431.189 515.55 430.998 515.113 430.773 514.692C427.162 507.542 417.367 503.016 416.151 494.908C415.043 487.336 421.871 480.379 420.756 472.957C419.498 464.563 409.173 459.58 407.264 451.379C406.049 446.288 407.135 440.418 406.692 435.17C406.185 429.302 405.193 423.485 403.725 417.781C404.44 417.731 405.155 417.709 405.87 417.688C420.384 417.445 434.67 425.596 439.368 437.05C443.15 446.345 441.227 457.006 446.253 465.693C446.555 466.255 446.897 466.795 447.275 467.309C447.942 468.221 448.658 469.094 449.42 469.926L451.015 471.585C451.279 471.849 451.573 472.092 451.837 472.378C452.102 472.664 452.388 472.914 452.652 473.2C455.155 475.596 457.707 478.005 459.366 480.865C459.516 481.114 459.65 481.372 459.766 481.638C459.917 481.903 460.051 482.178 460.167 482.46C460.317 482.767 460.431 483.06 460.539 483.346C460.646 483.632 460.782 484.061 460.896 484.362C461.053 484.898 461.204 485.406 461.318 485.935C461.318 486.071 461.318 486.185 461.361 486.292C461.404 486.399 461.361 486.378 461.361 486.428C461.371 486.47 461.371 486.515 461.361 486.557C461.361 486.65 461.361 486.714 461.404 486.778V486.821C461.393 486.884 461.401 486.949 461.425 487.007Z" stroke="#CCDDE2" stroke-width="4.65" stroke-miterlimit="10"/>
<path d="M474.588 470.306C474.082 472.883 473.144 475.355 471.814 477.62" stroke="#CCDDE2" stroke-width="4.65" stroke-miterlimit="10"/>
<path d="M512.355 459.694C512.201 457.201 512.201 454.701 512.355 452.207C512.888 447.117 513.906 442.09 515.393 437.192C514.064 437.107 512.734 437.107 511.425 437.128H511.161C496.782 437.571 483.047 444.414 478.349 453.852C475.825 458.971 475.74 464.577 474.631 469.954" stroke="#CCDDE2" stroke-width="4.65" stroke-miterlimit="10"/>
<path d="M474.596 470.314C474.596 470.199 474.638 470.092 474.66 469.956" stroke="#CCDDE2" stroke-width="4.65" stroke-miterlimit="10"/>
<path d="M474.653 469.925C474.653 470.054 474.61 470.168 474.588 470.276C474.085 472.863 473.147 475.346 471.814 477.619" stroke="#CCDDE2" stroke-width="4.65" stroke-miterlimit="10"/>
<path d="M474.596 470.314C474.596 470.199 474.638 470.092 474.66 469.956" stroke="#CCDDE2" stroke-width="4.65" stroke-miterlimit="10"/>
<path d="M461.518 487.346V487.453" stroke="#CCDDE2" stroke-width="4.65" stroke-miterlimit="10"/>
<path d="M505.841 445.316C500.5 451.036 495.831 458.258 491.713 466.252" stroke="#CCDDE2" stroke-width="4.65" stroke-miterlimit="10"/>
<path d="M461.59 487.479C461.59 487.336 461.568 487.194 461.525 487.057C461.568 487.322 461.59 487.479 461.59 487.479Z" stroke="#CCDDE2" stroke-width="4.65" stroke-miterlimit="10"/>
<path d="M413.091 427.221C427.391 445.761 436.886 477.271 443.021 506.036" stroke="#CCDDE2" stroke-width="4.65" stroke-miterlimit="10"/>
<path d="M463.585 458.479C460.725 467.21 460.617 476.026 460.953 481.61C461.04 483.414 461.231 485.212 461.525 486.994" stroke="#CCDDE2" stroke-width="4.65" stroke-miterlimit="10"/>
<path d="M615.672 252.666C624.774 286.757 634.162 323.487 633.39 358.529C632.568 395.459 613.763 426.454 580.072 442.184C558.143 452.416 534.57 454.296 512.355 459.68C507.993 460.745 503.696 461.918 499.485 463.334C496.868 464.199 494.301 465.15 491.734 466.237C484.619 469.132 477.92 472.959 471.814 477.619" stroke="#CCDDE2" stroke-width="4.65" stroke-miterlimit="10"/>
<path d="M251.873 58.6297C251.873 58.6297 209.431 48.9415 174.103 60.882C169.702 62.332 165.437 64.1695 161.361 66.3732C141.341 77.2056 126.233 97.5617 127.342 134.534C127.935 153.839 126.805 172.88 123.001 191.355C121.757 197.351 120.22 203.286 118.39 209.159C113.906 223.518 107.434 237.178 99.1634 249.742C72.8228 289.682 76.8124 331.195 106.027 369.691C107.557 371.707 109.13 373.702 110.746 375.654" stroke="#CCDDE2" stroke-width="4.65" stroke-miterlimit="10"/>
<path d="M561.125 40.9424H299.892C269.763 40.9424 245.338 65.3673 245.338 95.4971V341.7C245.338 371.83 269.763 396.255 299.892 396.255H561.125C591.254 396.255 615.679 371.83 615.679 341.7V95.4971C615.679 65.3673 591.254 40.9424 561.125 40.9424Z" fill="#3FBDF1"/>
<path d="M557.5 35.75H298.112C265.981 35.75 239.933 61.7979 239.933 93.9295V338.073C239.933 370.205 265.981 396.253 298.112 396.253H557.5C589.631 396.253 615.679 370.205 615.679 338.073V93.9295C615.679 61.7979 589.631 35.75 557.5 35.75Z" stroke="black" stroke-width="4.65" stroke-miterlimit="10"/>
<path d="M553.839 47.9272H307.178C277.049 47.9272 252.624 72.3522 252.624 102.482V334.706C252.624 364.837 277.049 389.261 307.178 389.261H553.839C583.968 389.261 608.394 364.837 608.394 334.706V102.482C608.394 72.3522 583.968 47.9272 553.839 47.9272Z" fill="#3FBDF1"/>
<path d="M566.359 65.8442H491.863C481.738 65.8442 473.523 74.6818 473.523 85.5569V257.986C473.523 268.883 481.738 277.742 491.863 277.742H566.359C576.504 277.742 584.748 268.883 584.748 257.986V85.5569C584.748 74.6818 576.504 65.8442 566.359 65.8442ZM579.472 258.737C579.459 262.361 578.012 265.834 575.448 268.397C572.884 270.959 569.412 272.404 565.787 272.415H492.485C488.855 272.404 485.376 270.958 482.808 268.393C480.239 265.828 478.788 262.353 478.771 258.723V84.8491C478.788 81.219 480.239 77.7427 482.808 75.178C485.376 72.6133 488.855 71.168 492.485 71.1567H565.787C569.414 71.1681 572.889 72.6147 575.453 75.1801C578.017 77.7456 579.462 81.2219 579.472 84.8491V258.737Z" fill="#D7E8F0"/>
<path d="M565.379 297.977H490.883C480.766 297.977 472.544 306.814 472.544 317.689V343.915C472.544 354.819 480.766 363.678 490.883 363.678H565.379C575.525 363.678 583.769 354.819 583.769 343.915V317.689C583.769 306.814 575.525 297.977 565.379 297.977ZM578.492 344.673C578.483 348.3 577.038 351.775 574.473 354.339C571.909 356.904 568.434 358.349 564.807 358.358H491.505C487.876 358.349 484.397 356.905 481.828 354.341C479.259 351.777 477.809 348.303 477.792 344.673V316.981C477.809 313.351 479.259 309.876 481.828 307.311C484.397 304.745 487.875 303.3 491.505 303.289H564.807C568.434 303.3 571.91 304.747 574.474 307.312C577.038 309.878 578.483 313.354 578.492 316.981V344.673Z" fill="#D7E8F0"/>
<path d="M398.434 317.039L289.268 315.438C288.093 315.419 286.974 314.934 286.157 314.092C285.339 313.249 284.889 312.115 284.906 310.94C284.905 310.534 284.963 310.129 285.078 309.739C285.359 308.815 285.933 308.008 286.714 307.438C287.494 306.868 288.437 306.566 289.403 306.579L398.57 308.166C397.753 309.434 397.296 310.899 397.247 312.406C397.188 314.033 397.6 315.642 398.434 317.039Z" fill="#3FBDF1"/>
<path d="M424.903 314.178C424.626 315.1 424.059 315.909 423.286 316.483C422.514 317.058 421.576 317.368 420.613 317.367L412.748 317.252C413.592 315.935 414.051 314.407 414.075 312.842C414.099 311.278 413.687 309.737 412.884 308.394L420.749 308.508C421.922 308.532 423.038 309.018 423.854 309.861C424.671 310.702 425.122 311.833 425.11 313.005C425.097 313.404 425.027 313.799 424.903 314.178Z" fill="#D7E8F0"/>
<path d="M424.646 331.759C424.369 332.68 423.801 333.487 423.028 334.057C422.255 334.629 421.317 334.934 420.356 334.927L311.854 333.34C312.868 332.131 313.517 330.66 313.729 329.097C313.94 327.534 313.704 325.944 313.048 324.509L420.456 326.039C421.629 326.062 422.746 326.548 423.563 327.39C424.38 328.232 424.831 329.363 424.817 330.537C424.821 330.951 424.763 331.363 424.646 331.759Z" fill="#D7E8F0"/>
<path d="M298.799 333.14L289.017 332.997C287.845 332.98 286.728 332.5 285.909 331.661C285.091 330.822 284.637 329.693 284.649 328.521C284.654 328.108 284.714 327.696 284.827 327.298C285.102 326.378 285.669 325.572 286.444 325.005C287.218 324.437 288.157 324.137 289.117 324.152L297.833 324.288C297.323 325.346 297.036 326.497 296.99 327.67C296.917 329.651 297.559 331.593 298.799 333.14Z" fill="#3FBDF1"/>
<path d="M390.712 352.266L289.418 350.793C288.246 350.768 287.131 350.281 286.315 349.439C285.499 348.598 285.046 347.469 285.056 346.296C285.059 345.899 285.121 345.503 285.242 345.123C285.517 344.2 286.084 343.39 286.857 342.815C287.63 342.241 288.568 341.932 289.532 341.935L390.676 343.422C389.85 344.75 389.413 346.281 389.413 347.844C389.413 349.408 389.85 350.939 390.676 352.266H390.712Z" fill="#3FBDF1"/>
<path d="M425.067 349.541C424.793 350.463 424.225 351.269 423.452 351.839C422.677 352.41 421.738 352.712 420.777 352.701L404.862 352.494L390.712 352.301C389.886 350.974 389.448 349.443 389.448 347.879C389.448 346.316 389.886 344.784 390.712 343.457L405.126 343.671L420.856 343.9C422.027 343.919 423.143 344.4 423.96 345.239C424.777 346.078 425.229 347.205 425.218 348.376C425.223 348.77 425.173 349.162 425.067 349.541Z" fill="#D7E8F0"/>
<path d="M412.705 317.253C411.605 318.971 409.92 320.233 407.962 320.802C406.003 321.371 403.904 321.21 402.055 320.349C400.206 319.488 398.732 317.985 397.907 316.12C397.082 314.254 396.962 312.152 397.57 310.205C398.178 308.258 399.471 306.598 401.21 305.531C402.95 304.466 405.017 304.068 407.027 304.411C409.038 304.754 410.855 305.815 412.143 307.397C413.431 308.979 414.1 310.975 414.028 313.013C413.976 314.52 413.519 315.984 412.705 317.253Z" fill="white"/>
<g opacity="0.72">
<path opacity="0.72" d="M409.538 312.105C409.348 313.111 408.874 314.042 408.172 314.786C407.83 315.165 407.457 315.514 407.057 315.83C406.835 315.987 405.684 316.91 405.462 316.795C403.946 316.03 402.037 314.107 401.801 312.226C401.762 311.932 401.762 311.634 401.801 311.34C401.885 310.834 402.147 310.374 402.541 310.045C402.935 309.715 403.433 309.538 403.946 309.545C404.282 309.557 404.611 309.649 404.905 309.811C405.2 309.974 405.452 310.204 405.641 310.482C405.855 310.223 406.126 310.016 406.432 309.876C406.738 309.736 407.071 309.667 407.407 309.674C407.709 309.684 408.007 309.756 408.281 309.886C408.555 310.016 408.799 310.2 408.999 310.428C409.198 310.656 409.349 310.922 409.442 311.21C409.535 311.499 409.567 311.803 409.538 312.105Z" fill="#3FBDF1"/>
</g>
<path d="M311.84 333.341C311.039 334.301 310.033 335.07 308.897 335.591C307.76 336.112 306.522 336.373 305.271 336.353C304.022 336.335 302.791 336.036 301.671 335.48C300.551 334.924 299.57 334.125 298.798 333.141C297.564 331.592 296.927 329.65 297.004 327.671C297.051 326.498 297.338 325.347 297.848 324.289C298.565 322.831 299.69 321.611 301.086 320.777C302.481 319.943 304.088 319.532 305.713 319.592C307.277 319.641 308.796 320.131 310.095 321.005C311.394 321.879 312.42 323.101 313.056 324.532C313.711 325.967 313.947 327.557 313.736 329.12C313.525 330.683 312.875 332.154 311.862 333.363L311.84 333.341Z" fill="white"/>
<g opacity="0.72">
<path opacity="0.72" d="M309.302 327.357C309.108 328.361 308.632 329.288 307.929 330.031C307.593 330.415 307.219 330.765 306.814 331.075C306.599 331.232 305.441 332.162 305.226 332.04C303.711 331.282 301.801 329.359 301.558 327.471C301.519 327.177 301.519 326.879 301.558 326.585C301.632 326.166 301.829 325.778 302.123 325.471C302.417 325.165 302.796 324.952 303.211 324.861C303.626 324.77 304.059 324.804 304.455 324.96C304.851 325.115 305.191 325.384 305.434 325.734C305.718 325.34 306.127 325.053 306.594 324.922C307.062 324.79 307.559 324.822 308.007 325.01C308.455 325.198 308.825 325.533 309.058 325.96C309.29 326.386 309.371 326.879 309.288 327.357H309.302Z" fill="#3FBDF1"/>
</g>
<path d="M404.862 352.494C403.852 354.019 402.373 355.173 400.648 355.781C398.924 356.39 397.047 356.42 395.305 355.865C393.562 355.312 392.047 354.204 390.99 352.712C389.932 351.22 389.39 349.424 389.446 347.596C389.499 346.131 389.93 344.705 390.697 343.457C391.286 342.516 392.055 341.701 392.96 341.059C393.865 340.417 394.888 339.961 395.971 339.716C397.053 339.472 398.173 339.445 399.266 339.636C400.359 339.827 401.404 340.233 402.339 340.829C403.274 341.426 404.082 342.202 404.716 343.113C405.35 344.024 405.797 345.051 406.031 346.136C406.266 347.22 406.283 348.341 406.083 349.432C405.882 350.523 405.466 351.564 404.862 352.494Z" fill="white"/>
<g opacity="0.72">
<path opacity="0.72" d="M401.751 347.247C401.56 348.254 401.083 349.184 400.379 349.928C400.042 350.312 399.669 350.662 399.263 350.972C399.049 351.129 397.89 352.052 397.676 351.937C396.16 351.172 394.251 349.256 394.008 347.369C393.969 347.074 393.969 346.776 394.008 346.482C394.082 346.063 394.278 345.675 394.572 345.369C394.867 345.062 395.246 344.85 395.66 344.758C396.076 344.667 396.509 344.702 396.904 344.857C397.301 345.012 397.641 345.282 397.883 345.631C398.167 345.238 398.575 344.953 399.042 344.822C399.508 344.69 400.005 344.721 400.452 344.908C400.899 345.096 401.269 345.429 401.503 345.854C401.736 346.278 401.819 346.769 401.737 347.247H401.751Z" fill="#3FBDF1"/>
</g>
<path d="M284.069 86.7719L284.255 112.648C284.303 117.161 286.094 121.482 289.253 124.705C292.413 127.928 296.696 129.806 301.208 129.944L326.819 130.387C329.022 130.42 331.209 130.011 333.25 129.184C335.291 128.356 337.145 127.127 338.703 125.569C340.26 124.012 341.488 122.157 342.315 120.115C343.141 118.074 343.55 115.887 343.515 113.684L343.322 87.8086C343.277 83.2955 341.488 78.9755 338.329 75.7523C335.171 72.5298 330.887 70.6544 326.376 70.5198L300.765 70.0693C298.563 70.0355 296.375 70.4446 294.334 71.272C292.293 72.0993 290.439 73.3284 288.881 74.8864C287.324 76.4444 286.096 78.2991 285.269 80.3404C284.443 82.3825 284.034 84.5697 284.069 86.7719Z" fill="white"/>
<path d="M288.009 93.2653L288.145 111.998C288.187 115.917 289.743 119.668 292.487 122.466C295.231 125.264 298.95 126.894 302.867 127.013L325.111 127.399C327.023 127.429 328.923 127.073 330.695 126.355C332.469 125.637 334.079 124.57 335.433 123.218C336.786 121.866 337.855 120.256 338.575 118.483C339.295 116.711 339.652 114.813 339.625 112.899V111.634C336.5 105.242 330.416 95.6748 323.895 101.395C314.536 109.617 310.253 103.361 304.797 95.2887C300.243 88.532 293.314 83.5985 288.009 93.2653Z" fill="#3FBDF1"/>
<path d="M329.858 90.6777C332.684 88.8009 333.412 84.927 331.484 82.0262C329.557 79.1255 325.704 78.2954 322.878 80.1722C320.053 82.0498 319.325 85.923 321.253 88.8237C323.18 91.7245 327.033 92.5546 329.858 90.6777Z" fill="#3FBDF1"/>
<path d="M432.847 97.241C428.844 97.2395 424.939 98.4772 421.668 100.784C418.397 103.091 415.921 106.354 414.578 110.125C413.236 113.896 413.094 117.99 414.172 121.845C415.251 125.699 417.495 129.126 420.599 131.654L369.834 235.122C369.521 235.072 369.206 235.041 368.89 235.029C368.081 235.039 367.276 235.164 366.502 235.4L333.476 194.367C334.95 192.332 335.785 189.904 335.875 187.392C335.964 184.881 335.302 182.4 333.975 180.266C332.648 178.132 330.716 176.441 328.424 175.41C326.132 174.379 323.585 174.054 321.108 174.476C318.631 174.899 316.336 176.049 314.515 177.781C312.695 179.514 311.431 181.749 310.886 184.202C310.341 186.655 310.54 189.216 311.456 191.555C312.372 193.895 313.964 195.91 316.03 197.341L292.885 263.207C290.868 263.328 288.954 264.143 287.469 265.515C285.984 266.887 285.02 268.731 284.741 270.733C284.461 272.735 284.883 274.773 285.936 276.499C286.988 278.225 288.605 279.533 290.513 280.202C292.421 280.87 294.501 280.858 296.401 280.167C298.301 279.475 299.902 278.147 300.934 276.409C301.966 274.67 302.364 272.628 302.06 270.63C301.757 268.631 300.771 266.799 299.27 265.445L322.415 199.572C322.701 199.572 322.98 199.615 323.266 199.615C324.987 199.615 326.689 199.264 328.271 198.585L361.29 239.605C360.594 240.867 360.225 242.282 360.217 243.723C360.183 244.891 360.385 246.054 360.808 247.143C361.232 248.232 361.87 249.224 362.684 250.062C363.499 250.9 364.473 251.566 365.549 252.021C366.626 252.476 367.782 252.711 368.951 252.711C370.119 252.711 371.276 252.476 372.352 252.021C373.428 251.566 374.403 250.9 375.217 250.062C376.031 249.224 376.669 248.232 377.092 247.143C377.516 246.054 377.718 244.891 377.684 243.723C377.679 241.78 377.019 239.896 375.811 238.375L426.576 134.907C429.245 135.847 432.086 136.191 434.902 135.915C437.717 135.64 440.439 134.751 442.874 133.313C445.31 131.873 447.401 129.919 449.001 127.586C450.6 125.252 451.67 122.598 452.135 119.807C452.599 117.016 452.447 114.158 451.69 111.432C450.932 108.707 449.587 106.18 447.749 104.03C445.91 101.879 443.624 100.157 441.05 98.9841C438.475 97.8115 435.675 97.2166 432.847 97.241Z" fill="#D7E8F0"/>
<path d="M494.194 134.526H562.119" stroke="white" stroke-width="4.65" stroke-miterlimit="10"/>
<path d="M494.194 145.016H562.119" stroke="white" stroke-width="4.65" stroke-miterlimit="10"/>
<path d="M494.194 155.498H562.119" stroke="white" stroke-width="4.65" stroke-miterlimit="10"/>
<path d="M494.194 165.981H562.119" stroke="white" stroke-width="4.65" stroke-miterlimit="10"/>
<path d="M494.194 176.468H562.119" stroke="white" stroke-width="4.65" stroke-miterlimit="10"/>
<path d="M494.194 237.701H562.119" stroke="white" stroke-width="4.65" stroke-miterlimit="10"/>
<path d="M494.194 246.955H562.119" stroke="white" stroke-width="4.65" stroke-miterlimit="10"/>
<path d="M547.847 317.802C548.53 318.369 549.077 319.081 549.448 319.887C549.819 320.692 550.005 321.571 549.992 322.457L549.835 343.428C549.829 344.22 549.668 345.002 549.359 345.731C549.05 346.46 548.601 347.121 548.036 347.675C547.471 348.23 546.803 348.668 546.068 348.964C545.334 349.259 544.549 349.407 543.758 349.398L512.298 349.127C510.702 349.112 509.178 348.464 508.06 347.326C506.941 346.187 506.321 344.652 506.334 343.056L506.52 322.071C506.58 320.49 507.242 318.992 508.371 317.884C509.499 316.775 511.009 316.14 512.591 316.108L544.051 316.38C545.444 316.392 546.789 316.896 547.847 317.802Z" fill="white"/>
<path d="M543.4 321.637L528.728 334.242C528.541 334.402 528.303 334.489 528.056 334.489C527.81 334.489 527.571 334.402 527.384 334.242L512.448 321.372C512.282 321.233 512.165 321.046 512.112 320.837C512.059 320.628 512.074 320.408 512.152 320.207C512.232 320.007 512.372 319.836 512.553 319.718C512.734 319.602 512.947 319.545 513.163 319.556L542.771 319.821C542.979 319.827 543.18 319.897 543.347 320.021C543.515 320.145 543.641 320.315 543.709 320.512C543.778 320.709 543.784 320.922 543.729 321.123C543.674 321.323 543.559 321.502 543.4 321.637Z" fill="#3FBDF1"/>
<path d="M529.143 193.321C526.008 193.318 522.944 194.245 520.336 195.984C517.729 197.723 515.696 200.197 514.494 203.092C513.293 205.987 512.977 209.173 513.587 212.248C514.197 215.322 515.704 218.146 517.92 220.364C520.135 222.581 522.958 224.092 526.032 224.704C529.106 225.316 532.292 225.004 535.189 223.805C538.085 222.606 540.56 220.575 542.302 217.969C544.043 215.364 544.973 212.3 544.973 209.165C544.974 207.085 544.565 205.026 543.77 203.104C542.975 201.182 541.809 199.435 540.339 197.965C538.87 196.493 537.124 195.326 535.203 194.529C533.282 193.732 531.223 193.322 529.143 193.321ZM529.143 221.206C528.529 221.206 527.94 220.962 527.505 220.527C527.07 220.093 526.826 219.503 526.826 218.889C526.826 218.275 527.07 217.685 527.505 217.251C527.94 216.816 528.529 216.573 529.143 216.573C529.757 216.573 530.346 216.816 530.781 217.251C531.216 217.685 531.459 218.275 531.459 218.889C531.459 219.503 531.216 220.093 530.781 220.527C530.346 220.962 529.757 221.206 529.143 221.206ZM532.053 203.388C531.567 206.827 531.152 210.438 530.13 213.77C530.034 213.951 529.891 214.103 529.716 214.209C529.541 214.315 529.34 214.37 529.136 214.37C528.931 214.37 528.73 214.315 528.555 214.209C528.38 214.103 528.237 213.951 528.142 213.77C527.417 211.26 526.863 208.704 526.483 206.119C526.161 204.246 525.053 201.193 526.118 199.377C527.041 197.74 529.651 197.546 531.123 198.397C533.004 199.405 532.275 201.629 532.053 203.359V203.388Z" fill="white"/>
<path d="M433.126 131.224C440.983 131.224 447.354 124.854 447.354 116.996C447.354 109.138 440.983 102.767 433.126 102.767C425.268 102.767 418.897 109.138 418.897 116.996C418.897 124.854 425.268 131.224 433.126 131.224Z" fill="white"/>
<path d="M529.029 96.6111C531.655 96.6111 533.783 94.4825 533.783 91.8563C533.783 89.2308 531.655 87.1016 529.029 87.1016C526.402 87.1016 524.274 89.2308 524.274 91.8563C524.274 94.4825 526.402 96.6111 529.029 96.6111Z" fill="white"/>
<path d="M515.751 113.355C515.751 109.834 517.15 106.456 519.64 103.967C522.13 101.476 525.507 100.078 529.029 100.078C532.55 100.078 535.927 101.476 538.417 103.967C540.907 106.456 542.306 109.834 542.306 113.355H515.751Z" fill="white"/>
<path d="M437.58 567.846C437.577 568.926 437.245 569.979 436.628 570.866C436.011 571.752 435.138 572.43 434.127 572.808L384.327 591.398C384.327 591.398 381.953 586.993 377.813 579.636L349.37 532.053C341.684 571.592 333.111 611.182 327.799 635.856L322.679 660.424L343.2 667.173C344.433 667.471 345.532 668.174 346.318 669.17C347.105 670.165 347.536 671.396 347.54 672.665C347.538 673.526 347.341 674.374 346.962 675.148C346.584 675.921 346.035 676.598 345.356 677.128C344.678 677.657 343.888 678.026 343.046 678.205C342.205 678.385 341.332 678.37 340.497 678.163L292.935 666.108V654.482L291.806 654.261L292.785 518.647L246.31 507.657C240.483 509.473 234.327 511.139 228.035 512.49C227.967 512.5 227.901 512.514 227.835 512.533C212.563 516.537 196.611 517.224 181.052 514.55C180.916 514.55 180.759 514.485 180.63 514.457C179.501 514.242 178.371 513.992 177.263 513.742C176.927 513.677 176.598 513.613 176.262 513.52C175.289 513.298 174.317 513.012 173.345 512.748C172.808 512.59 172.279 512.462 171.772 512.304C171.264 512.147 170.885 512.018 170.442 511.861C162.068 509.232 154.333 504.885 147.733 499.098C142.673 494.849 138.382 489.761 135.049 484.055C133.619 481.795 132.282 479.422 131.038 476.983C123.488 462.076 121.915 457.006 124.11 456.871C119.276 455.167 114.593 453.063 110.11 450.579C110.11 450.579 100.229 392.914 121.779 334.877C121.366 331.287 121.441 327.658 122 324.088C126.541 291.527 151.53 258.058 181.345 244.501C197.319 237.237 223.366 226.09 214.95 203.896C212.291 196.875 208.515 190.826 207.8 183.54C207.736 182.825 207.65 182.189 207.6 181.481C206.406 164.321 216.395 148.026 232.568 142.156C237.86 140.163 243.516 139.324 249.159 139.694C254.802 140.064 260.3 141.635 265.286 144.301C267.009 145.21 268.554 146.421 269.848 147.876C274.767 148.005 280.945 148.87 283.848 150.221C288.767 152.524 292.707 156.556 295.652 161.096C301.086 169.559 303.268 179.705 301.794 189.654C300.948 195.159 298.987 200.434 296.031 205.155C294.574 207.52 292.883 209.734 290.984 211.761C289.318 213.506 286.951 216.051 284.67 216.988C284.696 217.008 284.727 217.019 284.759 217.019C284.792 217.019 284.824 217.008 284.849 216.988L284.184 227.62C297.84 224.51 334.327 211.697 361.075 158.794C363.005 154.697 364.993 150.622 367.081 146.589C373.259 134.584 379.879 122.644 388.653 112.319C390.798 109.817 393.972 107.557 397.383 108.644C400.371 109.595 402.388 112.934 400.307 115.737L385.95 135.356L390.533 134.763C391.033 134.884 391.5 135.112 391.902 135.432C392.304 135.752 392.632 136.155 392.862 136.615C393.092 137.075 393.219 137.579 393.234 138.092C393.249 138.606 393.152 139.117 392.95 139.589L390.047 146.482L391.42 144.866C392.364 143.751 393.703 143.043 395.157 142.893C396.61 142.742 398.066 143.159 399.219 144.056C400.372 144.954 401.134 146.262 401.345 147.709C401.555 149.155 401.199 150.626 400.35 151.816L392.785 161.59C391.772 162.88 390.485 163.931 389.017 164.664L374.045 171.886C378.473 177.329 382.591 183.018 386.379 188.924C378.158 204.681 368.52 219.658 357.586 233.669C339.153 257.414 312.612 283.955 280.208 295.052C279.493 314.678 276.026 334.126 270.642 353.153C287.451 353.153 303.489 353.153 319.705 353.153L331.932 319.791C332.494 318.251 333.515 316.922 334.858 315.983C336.201 315.045 337.8 314.541 339.439 314.543H388.309C389.159 314.545 390.002 314.711 390.79 315.029C391.988 315.524 393.013 316.362 393.734 317.438C394.456 318.515 394.842 319.781 394.844 321.078C394.836 321.872 394.686 322.659 394.401 323.401L391.162 331.824H391.055H377.277L371.671 347.883L373.266 343.829H380.158C381.238 343.829 382.3 344.096 383.252 344.605C384.204 345.115 385.015 345.852 385.612 346.751C386.21 347.649 386.577 348.682 386.679 349.756C386.782 350.831 386.617 351.914 386.2 352.91L380.33 366.952C378.56 371.181 375.754 374.895 372.17 377.753C368.586 380.611 364.34 382.52 359.824 383.304L359.202 383.411L358.051 386.815L358.644 385.642C358.451 386.107 358.229 386.615 358.029 387.172H373.487C373.487 387.172 370.055 397.182 363.742 397.783C363.231 397.823 362.719 397.806 362.212 397.733H330.18C331.974 399.728 333.991 402.144 336.143 404.983C345.438 404.847 358.959 405.841 362.305 412.333C362.88 412.979 363.407 413.667 363.878 414.392C365.158 416.537 365.579 421.542 365.272 428.771C365.362 436.226 364.737 443.672 363.406 451.008C365.027 454.048 366.585 457.106 368.082 460.181C371.337 466.263 374.272 472.511 376.876 478.9C376.966 479.069 377.04 479.246 377.098 479.429C384.903 497.327 391.751 515.629 397.611 534.255L397.94 535.406C402.373 548.476 405.984 560.352 407.357 567.581L430.594 562.819C431.392 562.555 432.24 562.483 433.07 562.61C433.901 562.737 434.688 563.059 435.371 563.549C436.052 564.04 436.608 564.685 436.992 565.432C437.376 566.178 437.578 567.006 437.58 567.846Z" fill="white"/>
<path d="M357.393 388.03H372.851C372.217 389.773 371.41 391.45 370.441 393.035C368.532 396.023 365.587 399.148 361.69 398.619H314.793C312.97 398.631 311.194 398.037 309.745 396.931C309.424 395.446 309.516 393.9 310.01 392.463C328.95 389.56 348.355 386.435 357.035 384.64L358.673 384.354L357.393 388.03Z" fill="#3FBDF1"/>
<path d="M394.208 322.021C394.2 322.815 394.049 323.603 393.765 324.345L390.533 332.76H376.748L371.085 348.919L369.026 354.082H324.095L334.506 325.725C335.07 324.186 336.094 322.858 337.438 321.919C338.782 320.981 340.381 320.477 342.02 320.477H390.883C391.734 320.478 392.576 320.643 393.364 320.963C393.638 321.074 393.906 321.201 394.165 321.342C394.187 321.556 394.208 321.799 394.208 322.021Z" fill="#3FBDF1"/>
<path d="M394.215 322.014C394.206 322.808 394.056 323.596 393.772 324.338L390.533 332.753H376.755L381.545 319.755C382.075 318.313 383.094 317.104 384.426 316.339C385.758 315.575 387.316 315.304 388.828 315.573C390.339 315.843 391.708 316.636 392.692 317.813C393.678 318.991 394.217 320.478 394.215 322.014Z" fill="#3FBDF1"/>
<path d="M372.844 388.031C372.844 388.031 368.411 401.058 360.36 398.255C355.355 396.532 356.106 391.548 357.414 388.002L372.844 388.031Z" fill="#3FBDF1"/>
<path d="M361.518 332.755H339.046" stroke="white" stroke-width="4.65" stroke-linecap="round" stroke-linejoin="round"/>
<path d="M358.751 341.22H336.279" stroke="white" stroke-width="4.65" stroke-linecap="round" stroke-linejoin="round"/>
<path d="M376.355 479.764C372.463 470.354 367.924 461.226 362.77 452.444C364.857 441.383 366.28 422.007 361.754 413.212C358.408 406.713 344.902 405.726 335.578 405.862C328.378 396.345 322.558 391.44 322.558 391.44C322.558 391.44 279.215 398.462 269.319 398.519C259.423 398.576 259.431 404.06 259.431 404.06C259.431 404.06 252.538 424.86 244.745 435.191C236.951 445.523 215.987 458.071 185.778 462.905C155.57 467.738 131.81 461.782 126.362 458.751C120.914 455.719 120.735 458.643 130.487 477.855C140.24 497.067 155.255 510.881 180.473 515.436C196.027 518.114 211.975 517.426 227.241 513.419C227.241 513.419 267.145 503.359 278.85 495.687C290.555 488.015 292.385 498.447 292.385 498.447L291.241 655.161L322.129 661.324L348.813 532.96L377.27 580.579L406.835 568.424C403.353 550.142 385.471 501.929 376.355 479.764Z" fill="#2E2E2E"/>
<path d="M295.631 270.221C294.998 274.574 293.146 278.658 290.29 282.004C288.096 284.807 285.304 287.087 282.118 288.675C281.37 289.036 280.592 289.333 279.794 289.561C279.794 287.08 279.751 284.556 279.615 282.097C279.107 272.88 277.248 263.285 271.378 256.199C268.554 252.814 264.99 250.123 260.961 248.334C261.075 246.633 261.211 244.945 261.318 243.244C261.626 240.334 261.611 237.399 261.275 234.492C260.896 232.728 260.681 230.933 260.632 229.13C260.696 227.449 260.453 221 261.783 219.606C264.002 220.53 266.379 221.016 268.783 221.036C274.167 220.993 278.442 217.69 281.324 213.464C282.384 213.118 283.485 212.915 284.599 212.863C287.859 213.349 278.128 222.123 281.302 221.129C279.236 221.765 277.727 224.868 276.755 226.641C275.325 229.387 274.496 232.619 275.897 235.522C277.27 238.296 280.144 240.684 282.182 242.965C284.929 245.849 287.499 248.899 289.875 252.095C293.636 257.329 296.382 263.757 295.631 270.221Z" fill="#3FBDF1"/>
<path d="M246.146 244.687C251.266 245.005 256.287 246.235 260.975 248.319C265.001 250.109 268.563 252.8 271.385 256.184C277.256 263.277 279.115 272.865 279.622 282.081C279.758 284.562 279.822 287.086 279.801 289.546C279.694 311.367 276.062 332.96 270.098 354.074C288.617 354.074 306.184 354.074 324.081 354.074H369.026L371.085 348.919L372.73 344.772H379.665C380.745 344.772 381.809 345.039 382.761 345.549C383.713 346.059 384.525 346.796 385.123 347.696C385.722 348.595 386.089 349.629 386.192 350.704C386.295 351.779 386.131 352.863 385.714 353.86L379.844 367.902C378.07 372.128 375.261 375.84 371.676 378.697C368.091 381.553 363.846 383.462 359.33 384.247L358.708 384.362L357.071 384.648C348.391 386.442 328.986 389.567 310.045 392.47C292.721 395.151 275.776 397.632 267.76 398.783C264.722 399.227 261.619 399.556 258.465 399.756C239.754 400.907 220.435 396.746 215.43 375.446C212.169 361.804 212.884 347.096 213.034 332.896" stroke="black" stroke-width="4.65" stroke-miterlimit="10"/>
<path d="M335.728 406.477C347.84 405.919 358.694 407.714 363.349 415.293C365.694 419.125 365.122 432.639 362.705 451.486" stroke="black" stroke-width="4.65" stroke-miterlimit="10"/>
<path d="M132.818 481.86C132.845 481.892 132.866 481.929 132.883 481.967C138.067 492.535 147.183 501.658 158.844 508.043C199.935 530.523 261.74 504.182 283.969 493.221C284.857 492.784 285.841 492.581 286.828 492.631C287.815 492.681 288.774 492.981 289.613 493.504C290.452 494.028 291.143 494.756 291.622 495.621C292.101 496.486 292.351 497.459 292.349 498.448V667.023L339.904 679.071C340.64 679.26 341.407 679.299 342.158 679.183C342.91 679.068 343.63 678.802 344.276 678.401C344.922 678.001 345.481 677.473 345.917 676.851C346.354 676.229 346.661 675.525 346.818 674.781C347.131 673.336 346.866 671.826 346.079 670.575C345.291 669.324 344.044 668.431 342.607 668.089L322.093 661.332C323.044 654.668 336.958 593.729 348.784 532.968" stroke="black" stroke-width="4.65" stroke-miterlimit="10"/>
<path d="M321.643 390.646C333.798 400.942 342.528 416.773 350.7 430.222C370.613 462.99 385.507 498.654 397.075 535.148C400.572 546.173 403.789 557.313 406.828 568.453L430.051 563.684C431.369 563.255 432.802 563.36 434.044 563.975C435.286 564.59 436.239 565.666 436.697 566.973C437.156 568.281 437.085 569.717 436.498 570.972C435.913 572.229 434.859 573.205 433.562 573.694L383.762 592.284C383.762 592.284 369.19 565.064 348.827 532.939C318.983 485.806 263.835 413.162 249.278 428.656" stroke="black" stroke-width="4.65" stroke-miterlimit="10"/>
<path d="M278.199 229.357C278.199 229.357 327.034 225.975 360.51 159.702C360.51 159.702 371.092 167.002 385.843 189.839C385.843 189.839 344.458 273.83 279.622 295.995" stroke="black" stroke-width="4.65" stroke-miterlimit="10"/>
<path d="M273.781 151.865L276.641 156.212L278.364 158.857C280.112 162.93 281.649 167.09 282.968 171.32L283.054 171.62L286.329 184.133C286.335 184.147 286.335 184.162 286.329 184.176C287.429 185.987 288.947 187.51 290.755 188.616C291.182 188.847 291.581 189.128 291.942 189.452C293.908 191.426 288.724 191.998 287.652 192.648C287.178 192.974 286.79 193.408 286.521 193.914C286.25 194.421 286.106 194.985 286.1 195.558C279.944 221.177 283.905 214.449 281.26 220.147C283.555 218.202 289.26 212.018 289.26 212.018C289.975 211.553 290.648 210.159 291.112 209.465C292.589 207.2 293.859 204.807 294.909 202.315C298.171 194.873 298.924 186.572 297.054 178.663C294.101 166.372 287.216 154.074 273.781 151.865Z" fill="#3FBDF1"/>
<path d="M273.194 159.595C272.671 162.254 271.41 164.712 269.555 166.688C267.541 168.889 265.196 170.764 262.605 172.244C257.729 175.146 252.302 177.341 248.205 181.26C244.103 185.204 241.648 190.556 241.334 196.239C241.048 202.059 243.129 208.086 244.394 213.535C248.405 231.145 247.118 248.069 244.902 265.794C242.8 282.518 238.324 298.884 229.644 313.442C219.405 330.602 202.595 344.337 183.676 351.387C167.946 357.257 137.38 362.462 125.819 346.132C123.824 340.976 123.802 335.078 124.574 329.522C129.115 296.932 154.104 263.485 183.919 249.928C199.893 242.664 225.94 231.503 217.524 209.302C214.843 202.302 211.089 196.26 210.374 188.946C210.31 188.281 210.246 187.616 210.181 186.908C208.98 169.748 218.969 153.461 235.142 147.583C240.433 145.585 246.09 144.743 251.734 145.113C257.377 145.483 262.875 147.056 267.86 149.728C269.63 150.67 271.215 151.925 272.537 153.432C272.627 153.534 272.709 153.644 272.78 153.761C272.88 154.014 272.961 154.274 273.023 154.54C273.417 156.197 273.476 157.916 273.194 159.595Z" fill="#3FBDF1"/>
<path d="M279.837 288.81C288.474 286.815 296.053 280.63 298.219 271.593C300.236 263.22 297.047 254.626 292.106 247.891C287.523 241.67 277.978 236.451 278.728 227.628C278.972 224.768 280.387 222.265 282.232 220.049C282.897 219.276 283.583 218.561 284.334 217.832" stroke="black" stroke-width="4.65" stroke-miterlimit="10"/>
<path d="M262.026 219.404L261.626 248.598" stroke="black" stroke-width="4.65" stroke-miterlimit="10"/>
<path d="M214.407 204.768C211.74 197.761 207.972 191.72 207.257 184.412C207.186 183.74 207.121 183.068 207.071 182.353C205.863 165.193 215.859 148.913 232.025 143.028C237.317 141.032 242.975 140.19 248.62 140.561C254.264 140.93 259.764 142.503 264.75 145.173C266.516 146.118 268.095 147.376 269.412 148.884L269.748 149.292C270.916 150.719 271.764 152.379 272.236 154.161C272.709 155.943 272.794 157.806 272.486 159.623C271.966 162.275 270.713 164.727 268.869 166.702C266.847 168.908 264.499 170.789 261.904 172.279C257.028 175.182 251.608 177.362 247.497 181.281C243.393 185.236 240.944 190.604 240.648 196.296C240.354 202.116 242.442 208.136 243.686 213.599C247.697 231.209 246.418 248.126 244.201 265.844C242.099 282.568 237.63 298.941 228.936 313.498C218.697 330.658 201.895 344.401 182.968 351.443C166.931 357.421 135.485 362.712 124.439 345.216C120.728 339.346 120.485 331.917 121.443 325.039C125.983 292.456 150.987 258.994 180.788 245.445C196.789 238.095 222.837 226.962 214.407 204.768Z" stroke="black" stroke-width="4.65" stroke-miterlimit="10"/>
<path d="M275.804 184.955C277.34 184.955 278.585 183.71 278.585 182.173C278.585 180.638 277.34 179.392 275.804 179.392C274.268 179.392 273.023 180.638 273.023 182.173C273.023 183.71 274.268 184.955 275.804 184.955Z" fill="black"/>
<path d="M275.153 173.209C275.153 173.209 265.737 177.456 268.718 185.714" stroke="black" stroke-width="4.65" stroke-miterlimit="10"/>
<path d="M283.855 217.968C286.215 217.11 288.731 214.393 290.447 212.613C292.345 210.587 294.04 208.382 295.51 206.028C299.647 199.408 301.808 191.744 301.738 183.937C301.669 176.132 299.371 168.508 295.116 161.962C292.17 157.415 288.245 153.382 283.326 151.094C279.225 149.163 274.637 148.515 270.163 149.235C272.663 151.277 274.906 153.616 276.841 156.2C279.755 160.024 281.796 164.442 282.818 169.141C282.976 169.963 283.111 170.778 283.254 171.608C283.969 176.027 284.37 180.502 286.536 184.12C287.641 185.946 289.166 187.484 290.984 188.603C291.411 188.834 291.809 189.115 292.17 189.44C294.137 191.413 288.953 191.978 287.88 192.629C285.128 194.238 286.15 198.856 285.786 201.531C285.346 204.652 284.412 207.683 283.018 210.511C282.525 211.516 281.964 212.485 281.338 213.414C278.478 217.654 274.188 220.971 268.797 221C266.398 220.979 264.026 220.492 261.812 219.57C258.013 218.026 254.617 215.638 251.88 212.584" stroke="black" stroke-width="4.65" stroke-miterlimit="10"/>
<path d="M278.678 203.174C278.678 203.174 272.193 206.871 269.383 198.362" stroke="black" stroke-width="4.65" stroke-miterlimit="10"/>
<path d="M372.315 173.386L388.474 165.578C389.951 164.866 391.242 163.818 392.242 162.518L399.785 152.73C400.654 151.541 401.026 150.062 400.823 148.604C400.619 147.146 399.855 145.825 398.694 144.92C397.533 144.015 396.065 143.598 394.601 143.758C393.138 143.917 391.794 144.639 390.855 145.773L389.475 147.382L392.385 140.496C392.582 140.023 392.676 139.513 392.659 139C392.642 138.488 392.515 137.984 392.286 137.525C392.058 137.066 391.733 136.662 391.335 136.339C390.936 136.017 390.472 135.783 389.975 135.656L385.378 136.263L399.749 116.637C401.787 113.855 399.807 110.495 396.825 109.544C393.393 108.45 390.218 110.709 388.088 113.212C379.322 123.536 372.679 135.477 366.509 147.489C364.436 151.526 362.436 155.597 360.51 159.701" stroke="black" stroke-width="4.65" stroke-linejoin="round"/>
<path d="M385.385 136.263C385.385 136.263 376.011 147.925 389.482 147.381" stroke="black" stroke-width="4.65" stroke-miterlimit="10"/>
<path d="M359.288 384.24C359.288 384.24 352.338 395.515 360.432 398.282C368.525 401.049 372.951 388.036 372.951 388.036H357.328" stroke="black" stroke-width="4.65" stroke-miterlimit="10"/>
<path d="M361.776 398.612H329.543" stroke="black" stroke-width="4.65" stroke-miterlimit="10"/>
<path d="M394.315 322.014C394.306 322.808 394.156 323.596 393.872 324.338L390.64 332.753H376.862L381.646 319.755C382.175 318.313 383.195 317.104 384.526 316.339C385.858 315.575 387.416 315.304 388.928 315.573C390.439 315.843 391.808 316.636 392.793 317.813C393.778 318.991 394.317 320.478 394.315 322.014Z" stroke="black" stroke-width="4.65" stroke-miterlimit="10"/>
<path d="M327.041 332.754L319.176 354.068L331.381 320.728C331.946 319.186 332.971 317.856 334.318 316.917C335.665 315.978 337.268 315.477 338.91 315.48H387.773" stroke="black" stroke-width="4.65" stroke-miterlimit="10"/>
<path d="M369.04 354.069L376.862 332.755" stroke="black" stroke-width="4.65" stroke-miterlimit="10"/>
<path d="M121.257 335.771C99.6996 393.807 109.581 451.486 109.581 451.486C142.142 469.604 188.31 468.031 221.378 452.108C233.076 446.46 245.688 437.951 250.793 425.482C254.54 416.351 258.437 407.292 261.647 398.033" stroke="black" stroke-width="4.65" stroke-miterlimit="10"/>
<path d="M102.667 516.853H292.378" stroke="black" stroke-width="4.65" stroke-miterlimit="10"/>
<path d="M270.113 354.089L268.068 361.003" stroke="black" stroke-width="4.65" stroke-miterlimit="10"/>
<path d="M132.883 481.968C132.883 481.968 124.532 467.067 121.815 457.15" stroke="black" stroke-width="4.65" stroke-miterlimit="10"/>
<path d="M174.103 60.8813V209.158H118.39C120.225 203.29 121.762 197.356 123.001 191.354C126.805 172.879 127.935 153.802 127.342 134.533C126.233 97.5606 141.32 77.2045 161.361 66.3725C165.437 64.169 169.702 62.3314 174.103 60.8813Z" stroke="#CCDDE2" stroke-width="4.65" stroke-miterlimit="10"/>
<path d="M161.361 66.3721V191.354H122.98C126.784 172.878 127.914 153.802 127.32 134.533C126.233 97.5603 141.32 77.2185 161.361 66.3721Z" stroke="#CCDDE2" stroke-width="4.65" stroke-miterlimit="10"/>
</g>
</g>
<defs>
<clipPath id="clip0_464_625">
<rect width="715" height="715" fill="white"/>
</clipPath>
</defs>
</svg>
