<svg width="184" height="86" viewBox="0 0 184 86" fill="none" xmlns="http://www.w3.org/2000/svg">
<g filter="url(#filter0_d_45_32)">
<rect x="17" y="6" width="150" height="52" rx="16" fill="white"/>
</g>
<path d="M30.704 17.8103C30.3253 17.8103 29.9733 17.741 29.648 17.6023C29.328 17.4636 29.0507 17.2716 28.816 17.0263C28.5867 16.7756 28.4187 16.485 28.312 16.1543L29.216 15.7623C29.36 16.1036 29.568 16.373 29.84 16.5703C30.112 16.7623 30.4187 16.8583 30.76 16.8583C30.952 16.8583 31.1173 16.829 31.256 16.7703C31.4 16.7063 31.5093 16.621 31.584 16.5143C31.664 16.4076 31.704 16.2796 31.704 16.1303C31.704 15.9543 31.6507 15.8103 31.544 15.6983C31.4427 15.581 31.288 15.4903 31.08 15.4263L29.936 15.0583C29.472 14.9143 29.1227 14.6983 28.888 14.4103C28.6533 14.1223 28.536 13.7836 28.536 13.3943C28.536 13.053 28.6187 12.7516 28.784 12.4903C28.9547 12.229 29.1893 12.0263 29.488 11.8823C29.792 11.733 30.1387 11.6583 30.528 11.6583C30.8853 11.6583 31.2133 11.7223 31.512 11.8503C31.8107 11.973 32.0667 12.1463 32.28 12.3703C32.4987 12.589 32.6613 12.8476 32.768 13.1463L31.872 13.5463C31.7547 13.2476 31.5787 13.0183 31.344 12.8583C31.1093 12.693 30.8373 12.6103 30.528 12.6103C30.3467 12.6103 30.1867 12.6423 30.048 12.7063C29.9093 12.765 29.8 12.8503 29.72 12.9623C29.6453 13.069 29.608 13.197 29.608 13.3463C29.608 13.5116 29.6613 13.6583 29.768 13.7863C29.8747 13.909 30.0373 14.005 30.256 14.0743L31.352 14.4183C31.8267 14.573 32.1813 14.7863 32.416 15.0583C32.656 15.3303 32.776 15.6663 32.776 16.0663C32.776 16.4076 32.688 16.709 32.512 16.9703C32.336 17.2316 32.0933 17.437 31.784 17.5863C31.4747 17.7356 31.1147 17.8103 30.704 17.8103ZM34.9486 17.8103C34.6446 17.8103 34.3806 17.7596 34.1566 17.6583C33.9326 17.557 33.7593 17.413 33.6366 17.2263C33.514 17.0343 33.4526 16.813 33.4526 16.5623C33.4526 16.3223 33.506 16.109 33.6126 15.9223C33.7193 15.7303 33.8846 15.5703 34.1086 15.4423C34.3326 15.3143 34.6153 15.2236 34.9566 15.1703L36.3806 14.9383V15.7383L35.1566 15.9463C34.9486 15.9836 34.794 16.0503 34.6926 16.1463C34.5913 16.2423 34.5406 16.3676 34.5406 16.5223C34.5406 16.6716 34.5966 16.7916 34.7086 16.8823C34.826 16.9676 34.97 17.0103 35.1406 17.0103C35.3593 17.0103 35.5513 16.965 35.7166 16.8743C35.8873 16.7783 36.018 16.6476 36.1086 16.4823C36.2046 16.317 36.2526 16.1356 36.2526 15.9383V14.8183C36.2526 14.6316 36.178 14.477 36.0286 14.3543C35.8846 14.2263 35.6926 14.1623 35.4526 14.1623C35.2286 14.1623 35.0286 14.2236 34.8526 14.3463C34.682 14.4636 34.5566 14.621 34.4766 14.8183L33.6206 14.4023C33.706 14.173 33.8393 13.9756 34.0206 13.8103C34.2073 13.6396 34.426 13.5063 34.6766 13.4103C34.9273 13.3143 35.1993 13.2663 35.4926 13.2663C35.85 13.2663 36.1646 13.333 36.4366 13.4663C36.7086 13.5943 36.9193 13.7756 37.0686 14.0103C37.2233 14.2396 37.3006 14.509 37.3006 14.8183V17.7143H36.3086V16.9703L36.5326 16.9543C36.4206 17.141 36.2873 17.2983 36.1326 17.4263C35.978 17.549 35.802 17.645 35.6046 17.7143C35.4073 17.7783 35.1886 17.8103 34.9486 17.8103ZM39.5031 17.7143L37.7911 13.3623H38.9351L40.1751 16.7863H39.7511L40.9991 13.3623H42.1431L40.4311 17.7143H39.5031ZM44.7083 17.8103C44.2603 17.8103 43.8683 17.709 43.5323 17.5063C43.1963 17.3036 42.9349 17.029 42.7483 16.6823C42.5616 16.3356 42.4683 15.9516 42.4683 15.5303C42.4683 15.093 42.5616 14.7063 42.7483 14.3703C42.9403 14.029 43.1989 13.7596 43.5243 13.5623C43.8549 13.365 44.2229 13.2663 44.6283 13.2663C44.9696 13.2663 45.2683 13.3223 45.5243 13.4343C45.7856 13.5463 46.0069 13.701 46.1883 13.8983C46.3696 14.0956 46.5083 14.3223 46.6043 14.5783C46.7003 14.829 46.7483 15.101 46.7483 15.3943C46.7483 15.469 46.7429 15.5463 46.7323 15.6263C46.7269 15.7063 46.7136 15.7756 46.6923 15.8343H43.3322V15.0343H46.1003L45.6043 15.4103C45.6523 15.165 45.6389 14.9463 45.5643 14.7543C45.4949 14.5623 45.3776 14.4103 45.2123 14.2983C45.0523 14.1863 44.8576 14.1303 44.6283 14.1303C44.4096 14.1303 44.2149 14.1863 44.0443 14.2983C43.8736 14.405 43.7429 14.565 43.6523 14.7783C43.5669 14.9863 43.5349 15.2396 43.5563 15.5383C43.5349 15.805 43.5696 16.0423 43.6603 16.2503C43.7563 16.453 43.8949 16.6103 44.0763 16.7223C44.2629 16.8343 44.4763 16.8903 44.7163 16.8903C44.9563 16.8903 45.1589 16.8396 45.3243 16.7383C45.4949 16.637 45.6283 16.501 45.7243 16.3303L46.5723 16.7463C46.4869 16.9543 46.3536 17.1383 46.1723 17.2983C45.9909 17.4583 45.7749 17.5836 45.5243 17.6743C45.2789 17.765 45.0069 17.8103 44.7083 17.8103ZM49.5667 17.8103C49.1454 17.8103 48.7694 17.7116 48.4387 17.5143C48.108 17.3116 47.8467 17.037 47.6547 16.6903C47.4627 16.3436 47.3667 15.9596 47.3667 15.5383C47.3667 15.1116 47.4627 14.7276 47.6547 14.3863C47.8467 14.045 48.108 13.773 48.4387 13.5703C48.7747 13.3676 49.148 13.2663 49.5587 13.2663C49.8894 13.2663 50.1827 13.333 50.4387 13.4663C50.7 13.5943 50.9054 13.7756 51.0547 14.0103L50.8947 14.2263V11.6583H51.9427V17.7143H50.9507V16.8743L51.0627 17.0823C50.9134 17.317 50.7054 17.4983 50.4387 17.6263C50.172 17.749 49.8814 17.8103 49.5667 17.8103ZM49.6787 16.8503C49.9187 16.8503 50.1294 16.7943 50.3107 16.6823C50.492 16.5703 50.6334 16.4156 50.7347 16.2183C50.8414 16.021 50.8947 15.7943 50.8947 15.5383C50.8947 15.2876 50.8414 15.0636 50.7347 14.8663C50.6334 14.6636 50.492 14.5063 50.3107 14.3943C50.1294 14.2823 49.9187 14.2263 49.6787 14.2263C49.444 14.2263 49.2334 14.285 49.0467 14.4023C48.86 14.5143 48.7134 14.669 48.6067 14.8663C48.5054 15.0583 48.4547 15.2823 48.4547 15.5383C48.4547 15.7943 48.5054 16.021 48.6067 16.2183C48.7134 16.4156 48.86 16.5703 49.0467 16.6823C49.2334 16.7943 49.444 16.8503 49.6787 16.8503ZM54.4276 17.7143V11.7543H55.4676L57.6996 14.7863H57.2036L59.3876 11.7543H60.4276V17.7143H59.3316V12.9943L59.7556 13.0983L57.4916 16.1143H57.3636L55.1556 13.0983L55.5156 12.9943V17.7143H54.4276ZM63.6082 17.8103C63.1815 17.8103 62.7922 17.7116 62.4402 17.5143C62.0935 17.317 61.8162 17.0476 61.6082 16.7063C61.4055 16.365 61.3042 15.9756 61.3042 15.5383C61.3042 15.101 61.4055 14.7116 61.6082 14.3703C61.8162 14.029 62.0935 13.7596 62.4402 13.5623C62.7869 13.365 63.1762 13.2663 63.6082 13.2663C64.0349 13.2663 64.4215 13.365 64.7682 13.5623C65.1149 13.7596 65.3895 14.029 65.5922 14.3703C65.8002 14.7063 65.9042 15.0956 65.9042 15.5383C65.9042 15.9756 65.8002 16.365 65.5922 16.7063C65.3842 17.0476 65.1069 17.317 64.7602 17.5143C64.4135 17.7116 64.0295 17.8103 63.6082 17.8103ZM63.6082 16.8503C63.8429 16.8503 64.0482 16.7943 64.2242 16.6823C64.4055 16.5703 64.5469 16.4156 64.6482 16.2183C64.7549 16.0156 64.8082 15.789 64.8082 15.5383C64.8082 15.2823 64.7549 15.0583 64.6482 14.8663C64.5469 14.669 64.4055 14.5143 64.2242 14.4023C64.0482 14.285 63.8429 14.2263 63.6082 14.2263C63.3682 14.2263 63.1575 14.285 62.9762 14.4023C62.7949 14.5143 62.6509 14.669 62.5442 14.8663C62.4429 15.0583 62.3922 15.2823 62.3922 15.5383C62.3922 15.789 62.4429 16.0156 62.5442 16.2183C62.6509 16.4156 62.7949 16.5703 62.9762 16.6823C63.1575 16.7943 63.3682 16.8503 63.6082 16.8503ZM66.6989 17.7143V13.3623H67.6829V14.2183L67.6029 14.0663C67.7043 13.805 67.8696 13.6076 68.0989 13.4743C68.3336 13.3356 68.6056 13.2663 68.9149 13.2663C69.2349 13.2663 69.5176 13.3356 69.7629 13.4743C70.0136 13.613 70.2083 13.8076 70.3469 14.0583C70.4856 14.3036 70.5549 14.589 70.5549 14.9143V17.7143H69.5069V15.1623C69.5069 14.9703 69.4696 14.805 69.3949 14.6663C69.3203 14.5276 69.2163 14.421 69.0829 14.3463C68.9549 14.2663 68.8029 14.2263 68.6269 14.2263C68.4563 14.2263 68.3043 14.2663 68.1709 14.3463C68.0376 14.421 67.9336 14.5276 67.8589 14.6663C67.7843 14.805 67.7469 14.9703 67.7469 15.1623V17.7143H66.6989ZM73.5051 17.8103C73.0571 17.8103 72.6651 17.709 72.3291 17.5063C71.9931 17.3036 71.7318 17.029 71.5451 16.6823C71.3585 16.3356 71.2651 15.9516 71.2651 15.5303C71.2651 15.093 71.3585 14.7063 71.5451 14.3703C71.7371 14.029 71.9958 13.7596 72.3211 13.5623C72.6518 13.365 73.0198 13.2663 73.4251 13.2663C73.7665 13.2663 74.0651 13.3223 74.3211 13.4343C74.5825 13.5463 74.8038 13.701 74.9851 13.8983C75.1665 14.0956 75.3051 14.3223 75.4011 14.5783C75.4971 14.829 75.5451 15.101 75.5451 15.3943C75.5451 15.469 75.5398 15.5463 75.5291 15.6263C75.5238 15.7063 75.5105 15.7756 75.4891 15.8343H72.1291V15.0343H74.8971L74.4011 15.4103C74.4491 15.165 74.4358 14.9463 74.3611 14.7543C74.2918 14.5623 74.1745 14.4103 74.0091 14.2983C73.8491 14.1863 73.6545 14.1303 73.4251 14.1303C73.2065 14.1303 73.0118 14.1863 72.8411 14.2983C72.6705 14.405 72.5398 14.565 72.4491 14.7783C72.3638 14.9863 72.3318 15.2396 72.3531 15.5383C72.3318 15.805 72.3665 16.0423 72.4571 16.2503C72.5531 16.453 72.6918 16.6103 72.8731 16.7223C73.0598 16.8343 73.2731 16.8903 73.5131 16.8903C73.7531 16.8903 73.9558 16.8396 74.1211 16.7383C74.2918 16.637 74.4251 16.501 74.5211 16.3303L75.3691 16.7463C75.2838 16.9543 75.1505 17.1383 74.9691 17.2983C74.7878 17.4583 74.5718 17.5836 74.3211 17.6743C74.0758 17.765 73.8038 17.8103 73.5051 17.8103ZM76.8676 19.4823C76.7502 19.4823 76.6356 19.4716 76.5236 19.4503C76.4116 19.4343 76.3102 19.405 76.2196 19.3623V18.4823C76.2889 18.4983 76.3716 18.5143 76.4676 18.5303C76.5689 18.5463 76.6622 18.5543 76.7476 18.5543C76.9876 18.5543 77.1609 18.4983 77.2676 18.3863C77.3796 18.2743 77.4782 18.1276 77.5636 17.9463L77.8516 17.2743L77.8356 18.1543L75.9396 13.3623H77.0676L78.3956 16.8983H77.9956L79.3156 13.3623H80.4516L78.5556 18.1543C78.4436 18.437 78.3076 18.677 78.1476 18.8743C77.9876 19.0716 77.8009 19.221 77.5876 19.3223C77.3796 19.429 77.1396 19.4823 76.8676 19.4823Z" fill="#4B4551"/>
<path d="M30.192 51.2857V49.7337H28.64V48.8297H30.192V47.2857H31.096V48.8297H32.64V49.7337H31.096V51.2857H30.192ZM34.6653 51.2857V46.2537H33.5133V45.3257H35.7533V51.2857H34.6653ZM37.0838 51.2857L39.5638 46.2457H36.7558V45.3257H40.7078V46.2457L38.2838 51.2857H37.0838ZM41.3446 51.2857V50.4617L42.9606 48.7737C43.2806 48.4377 43.5259 48.171 43.6966 47.9737C43.8726 47.771 43.9952 47.5977 44.0646 47.4537C44.1339 47.3097 44.1686 47.163 44.1686 47.0137C44.1686 46.763 44.0886 46.5657 43.9286 46.4217C43.7739 46.2777 43.5739 46.2057 43.3286 46.2057C43.0726 46.2057 42.8512 46.2804 42.6646 46.4297C42.4779 46.5737 42.3419 46.787 42.2566 47.0697L41.3046 46.7737C41.3686 46.459 41.4992 46.187 41.6966 45.9577C41.8939 45.723 42.1339 45.5444 42.4166 45.4217C42.7046 45.2937 43.0086 45.2297 43.3286 45.2297C43.7126 45.2297 44.0486 45.299 44.3366 45.4377C44.6299 45.5764 44.8566 45.771 45.0166 46.0217C45.1819 46.2724 45.2646 46.5657 45.2646 46.9017C45.2646 47.115 45.2246 47.3257 45.1446 47.5337C45.0646 47.7417 44.9446 47.955 44.7846 48.1737C44.6246 48.387 44.4166 48.627 44.1606 48.8937L42.7606 50.3657H45.3446V51.2857H41.3446Z" fill="#7AAF59"/>
<path d="M49.0359 52.6457C48.5879 52.123 48.2492 51.555 48.0199 50.9417C47.7959 50.3284 47.6839 49.675 47.6839 48.9817C47.6839 48.2884 47.7959 47.635 48.0199 47.0217C48.2439 46.4084 48.5825 45.843 49.0359 45.3257H49.9159C49.5319 45.8964 49.2439 46.4884 49.0519 47.1017C48.8652 47.7097 48.7719 48.3364 48.7719 48.9817C48.7719 49.627 48.8679 50.2564 49.0599 50.8697C49.2519 51.483 49.5372 52.075 49.9159 52.6457H49.0359ZM52.3951 51.2857V49.7337H50.8431V48.8297H52.3951V47.2857H53.2991V48.8297H54.8431V49.7337H53.2991V51.2857H52.3951ZM56.8684 51.2857V46.2537H55.7164V45.3257H57.9564V51.2857H56.8684ZM60.0949 51.2857V46.2537H58.9429V45.3257H61.1829V51.2857H60.0949ZM63.1615 51.2857L67.9935 45.3257H69.1135L64.2815 51.2857H63.1615ZM64.0895 48.3497C63.7962 48.3497 63.5295 48.2804 63.2895 48.1417C63.0548 47.9977 62.8682 47.8084 62.7295 47.5737C62.5908 47.339 62.5215 47.0777 62.5215 46.7897C62.5215 46.5017 62.5908 46.2404 62.7295 46.0057C62.8682 45.7657 63.0548 45.5764 63.2895 45.4377C63.5295 45.299 63.7962 45.2297 64.0895 45.2297C64.3882 45.2297 64.6548 45.299 64.8895 45.4377C65.1242 45.5764 65.3108 45.7657 65.4495 46.0057C65.5882 46.2404 65.6575 46.5017 65.6575 46.7897C65.6575 47.0777 65.5882 47.339 65.4495 47.5737C65.3108 47.8084 65.1242 47.9977 64.8895 48.1417C64.6548 48.2804 64.3882 48.3497 64.0895 48.3497ZM64.0895 47.5417C64.2495 47.5417 64.3828 47.507 64.4895 47.4377C64.5962 47.363 64.6762 47.2697 64.7295 47.1577C64.7882 47.0404 64.8175 46.9177 64.8175 46.7897C64.8175 46.6564 64.7882 46.5337 64.7295 46.4217C64.6762 46.3097 64.5962 46.2164 64.4895 46.1417C64.3828 46.067 64.2495 46.0297 64.0895 46.0297C63.9402 46.0297 63.8095 46.067 63.6975 46.1417C63.5908 46.2164 63.5082 46.3124 63.4495 46.4297C63.3908 46.5417 63.3615 46.6617 63.3615 46.7897C63.3615 46.9124 63.3908 47.0324 63.4495 47.1497C63.5082 47.267 63.5908 47.363 63.6975 47.4377C63.8095 47.507 63.9402 47.5417 64.0895 47.5417ZM68.1535 51.3817C67.8602 51.3817 67.5935 51.3124 67.3535 51.1737C67.1188 51.0297 66.9322 50.8404 66.7935 50.6057C66.6548 50.371 66.5855 50.1097 66.5855 49.8217C66.5855 49.5337 66.6548 49.2724 66.7935 49.0377C66.9322 48.7977 67.1188 48.6084 67.3535 48.4697C67.5935 48.331 67.8602 48.2617 68.1535 48.2617C68.4522 48.2617 68.7188 48.331 68.9535 48.4697C69.1882 48.6084 69.3748 48.7977 69.5135 49.0377C69.6522 49.2724 69.7215 49.5337 69.7215 49.8217C69.7215 50.1097 69.6522 50.371 69.5135 50.6057C69.3748 50.8404 69.1882 51.0297 68.9535 51.1737C68.7188 51.3124 68.4522 51.3817 68.1535 51.3817ZM68.1535 50.5737C68.3082 50.5737 68.4388 50.539 68.5455 50.4697C68.6575 50.395 68.7402 50.3017 68.7935 50.1897C68.8522 50.0724 68.8815 49.9497 68.8815 49.8217C68.8815 49.6884 68.8522 49.5657 68.7935 49.4537C68.7402 49.3417 68.6575 49.2484 68.5455 49.1737C68.4388 49.099 68.3082 49.0617 68.1535 49.0617C68.0042 49.0617 67.8735 49.099 67.7615 49.1737C67.6548 49.2484 67.5722 49.3444 67.5135 49.4617C67.4548 49.5737 67.4255 49.6937 67.4255 49.8217C67.4255 49.9444 67.4548 50.0644 67.5135 50.1817C67.5722 50.299 67.6548 50.395 67.7615 50.4697C67.8735 50.539 68.0042 50.5737 68.1535 50.5737ZM70.6007 52.6457C70.9794 52.075 71.262 51.483 71.4487 50.8697C71.6407 50.2564 71.7367 49.627 71.7367 48.9817C71.7367 48.3364 71.6407 47.7097 71.4487 47.1017C71.262 46.4884 70.9794 45.8964 70.6007 45.3257H71.4807C71.9287 45.843 72.2647 46.4084 72.4887 47.0217C72.7127 47.635 72.8247 48.2884 72.8247 48.9817C72.8247 49.675 72.7127 50.3284 72.4887 50.9417C72.2647 51.555 71.9287 52.123 71.4807 52.6457H70.6007Z" fill="#4B4551"/>
<path d="M101.192 51.6429V50.0909H99.64V49.1869H101.192V47.6429H102.096V49.1869H103.64V50.0909H102.096V51.6429H101.192ZM105.665 51.6429V46.6109H104.513V45.6829H106.753V51.6429H105.665ZM108.892 51.6429V46.6109H107.74V45.6829H109.98V51.6429H108.892ZM113.566 51.7389C113.092 51.7389 112.676 51.6109 112.318 51.3549C111.961 51.0989 111.681 50.7389 111.478 50.2749C111.281 49.8109 111.182 49.2722 111.182 48.6589C111.182 48.0402 111.281 47.5015 111.478 47.0429C111.676 46.5842 111.953 46.2269 112.31 45.9709C112.668 45.7149 113.084 45.5869 113.558 45.5869C114.044 45.5869 114.462 45.7149 114.814 45.9709C115.172 46.2269 115.452 46.5869 115.654 47.0509C115.857 47.5095 115.958 48.0455 115.958 48.6589C115.958 49.2722 115.857 49.8109 115.654 50.2749C115.457 50.7335 115.18 51.0935 114.822 51.3549C114.465 51.6109 114.046 51.7389 113.566 51.7389ZM113.574 50.7469C113.846 50.7469 114.078 50.6642 114.27 50.4989C114.462 50.3282 114.609 50.0882 114.71 49.7789C114.817 49.4642 114.87 49.0909 114.87 48.6589C114.87 48.2269 114.817 47.8562 114.71 47.5469C114.609 47.2322 114.46 46.9922 114.262 46.8269C114.07 46.6615 113.836 46.5789 113.558 46.5789C113.292 46.5789 113.062 46.6615 112.87 46.8269C112.678 46.9922 112.529 47.2322 112.422 47.5469C112.321 47.8562 112.27 48.2269 112.27 48.6589C112.27 49.0855 112.321 49.4562 112.422 49.7709C112.529 50.0802 112.678 50.3202 112.87 50.4909C113.068 50.6615 113.302 50.7469 113.574 50.7469Z" fill="#36CADE"/>
<path d="M119.684 53.0029C119.236 52.4802 118.898 51.9122 118.668 51.2989C118.444 50.6855 118.332 50.0322 118.332 49.3389C118.332 48.6455 118.444 47.9922 118.668 47.3789C118.892 46.7655 119.231 46.2002 119.684 45.6829H120.564C120.18 46.2535 119.892 46.8455 119.7 47.4589C119.514 48.0669 119.42 48.6935 119.42 49.3389C119.42 49.9842 119.516 50.6135 119.708 51.2269C119.9 51.8402 120.186 52.4322 120.564 53.0029H119.684ZM123.044 51.6429V50.0909H121.492V49.1869H123.044V47.6429H123.948V49.1869H125.492V50.0909H123.948V51.6429H123.044ZM126.501 51.6429V50.8189L128.117 49.1309C128.437 48.7949 128.682 48.5282 128.853 48.3309C129.029 48.1282 129.151 47.9549 129.221 47.8109C129.29 47.6669 129.325 47.5202 129.325 47.3709C129.325 47.1202 129.245 46.9229 129.085 46.7789C128.93 46.6349 128.73 46.5629 128.485 46.5629C128.229 46.5629 128.007 46.6375 127.821 46.7869C127.634 46.9309 127.498 47.1442 127.413 47.4269L126.461 47.1309C126.525 46.8162 126.655 46.5442 126.853 46.3149C127.05 46.0802 127.29 45.9015 127.573 45.7789C127.861 45.6509 128.165 45.5869 128.485 45.5869C128.869 45.5869 129.205 45.6562 129.493 45.7949C129.786 45.9335 130.013 46.1282 130.173 46.3789C130.338 46.6295 130.421 46.9229 130.421 47.2589C130.421 47.4722 130.381 47.6829 130.301 47.8909C130.221 48.0989 130.101 48.3122 129.941 48.5309C129.781 48.7442 129.573 48.9842 129.317 49.2509L127.917 50.7229H130.501V51.6429H126.501ZM133.852 51.6429V50.3309H131.116V49.4189L133.788 45.6829H134.924V49.4189H135.796V50.3309H134.924V51.6429H133.852ZM131.916 49.8109L131.724 49.4189H133.852V46.5389L134.132 46.6269L131.916 49.8109ZM137.287 51.6429L142.119 45.6829H143.239L138.407 51.6429H137.287ZM138.215 48.7069C137.921 48.7069 137.655 48.6375 137.415 48.4989C137.18 48.3549 136.993 48.1655 136.855 47.9309C136.716 47.6962 136.647 47.4349 136.647 47.1469C136.647 46.8589 136.716 46.5975 136.855 46.3629C136.993 46.1229 137.18 45.9335 137.415 45.7949C137.655 45.6562 137.921 45.5869 138.215 45.5869C138.513 45.5869 138.78 45.6562 139.015 45.7949C139.249 45.9335 139.436 46.1229 139.575 46.3629C139.713 46.5975 139.783 46.8589 139.783 47.1469C139.783 47.4349 139.713 47.6962 139.575 47.9309C139.436 48.1655 139.249 48.3549 139.015 48.4989C138.78 48.6375 138.513 48.7069 138.215 48.7069ZM138.215 47.8989C138.375 47.8989 138.508 47.8642 138.615 47.7949C138.721 47.7202 138.801 47.6269 138.855 47.5149C138.913 47.3975 138.943 47.2749 138.943 47.1469C138.943 47.0135 138.913 46.8909 138.855 46.7789C138.801 46.6669 138.721 46.5735 138.615 46.4989C138.508 46.4242 138.375 46.3869 138.215 46.3869C138.065 46.3869 137.935 46.4242 137.823 46.4989C137.716 46.5735 137.633 46.6695 137.575 46.7869C137.516 46.8989 137.487 47.0189 137.487 47.1469C137.487 47.2695 137.516 47.3895 137.575 47.5069C137.633 47.6242 137.716 47.7202 137.823 47.7949C137.935 47.8642 138.065 47.8989 138.215 47.8989ZM142.279 51.7389C141.985 51.7389 141.719 51.6695 141.479 51.5309C141.244 51.3869 141.057 51.1975 140.919 50.9629C140.78 50.7282 140.711 50.4669 140.711 50.1789C140.711 49.8909 140.78 49.6295 140.919 49.3949C141.057 49.1549 141.244 48.9655 141.479 48.8269C141.719 48.6882 141.985 48.6189 142.279 48.6189C142.577 48.6189 142.844 48.6882 143.079 48.8269C143.313 48.9655 143.5 49.1549 143.639 49.3949C143.777 49.6295 143.847 49.8909 143.847 50.1789C143.847 50.4669 143.777 50.7282 143.639 50.9629C143.5 51.1975 143.313 51.3869 143.079 51.5309C142.844 51.6695 142.577 51.7389 142.279 51.7389ZM142.279 50.9309C142.433 50.9309 142.564 50.8962 142.671 50.8269C142.783 50.7522 142.865 50.6589 142.919 50.5469C142.977 50.4295 143.007 50.3069 143.007 50.1789C143.007 50.0455 142.977 49.9229 142.919 49.8109C142.865 49.6989 142.783 49.6055 142.671 49.5309C142.564 49.4562 142.433 49.4189 142.279 49.4189C142.129 49.4189 141.999 49.4562 141.887 49.5309C141.78 49.6055 141.697 49.7015 141.639 49.8189C141.58 49.9309 141.551 50.0509 141.551 50.1789C141.551 50.3015 141.58 50.4215 141.639 50.5389C141.697 50.6562 141.78 50.7522 141.887 50.8269C141.999 50.8962 142.129 50.9309 142.279 50.9309ZM144.726 53.0029C145.104 52.4322 145.387 51.8402 145.574 51.2269C145.766 50.6135 145.862 49.9842 145.862 49.3389C145.862 48.6935 145.766 48.0669 145.574 47.4589C145.387 46.8455 145.104 46.2535 144.726 45.6829H145.606C146.054 46.2002 146.39 46.7655 146.614 47.3789C146.838 47.9922 146.95 48.6455 146.95 49.3389C146.95 50.0322 146.838 50.6855 146.614 51.2989C146.39 51.9122 146.054 52.4802 145.606 53.0029H144.726Z" fill="#4B4551"/>
<path d="M99.576 17.5V11.54H101.792C102.197 11.54 102.555 11.6147 102.864 11.764C103.179 11.908 103.424 12.1213 103.6 12.404C103.776 12.6813 103.864 13.02 103.864 13.42C103.864 13.8307 103.765 14.18 103.568 14.468C103.376 14.756 103.115 14.9693 102.784 15.108L104.152 17.5H102.92L101.456 14.884L102.16 15.3H100.664V17.5H99.576ZM100.664 14.34H101.808C102.005 14.34 102.176 14.3027 102.32 14.228C102.464 14.148 102.576 14.0387 102.656 13.9C102.736 13.7613 102.776 13.6013 102.776 13.42C102.776 13.2333 102.736 13.0733 102.656 12.94C102.576 12.8013 102.464 12.6947 102.32 12.62C102.176 12.54 102.005 12.5 101.808 12.5H100.664V14.34ZM106.599 17.596C106.151 17.596 105.759 17.4947 105.423 17.292C105.087 17.0893 104.826 16.8147 104.639 16.468C104.452 16.1213 104.359 15.7373 104.359 15.316C104.359 14.8787 104.452 14.492 104.639 14.156C104.831 13.8147 105.09 13.5453 105.415 13.348C105.746 13.1507 106.114 13.052 106.519 13.052C106.86 13.052 107.159 13.108 107.415 13.22C107.676 13.332 107.898 13.4867 108.079 13.684C108.26 13.8813 108.399 14.108 108.495 14.364C108.591 14.6147 108.639 14.8867 108.639 15.18C108.639 15.2547 108.634 15.332 108.623 15.412C108.618 15.492 108.604 15.5613 108.583 15.62H105.223V14.82H107.991L107.495 15.196C107.543 14.9507 107.53 14.732 107.455 14.54C107.386 14.348 107.268 14.196 107.103 14.084C106.943 13.972 106.748 13.916 106.519 13.916C106.3 13.916 106.106 13.972 105.935 14.084C105.764 14.1907 105.634 14.3507 105.543 14.564C105.458 14.772 105.426 15.0253 105.447 15.324C105.426 15.5907 105.46 15.828 105.551 16.036C105.647 16.2387 105.786 16.396 105.967 16.508C106.154 16.62 106.367 16.676 106.607 16.676C106.847 16.676 107.05 16.6253 107.215 16.524C107.386 16.4227 107.519 16.2867 107.615 16.116L108.463 16.532C108.378 16.74 108.244 16.924 108.063 17.084C107.882 17.244 107.666 17.3693 107.415 17.46C107.17 17.5507 106.898 17.596 106.599 17.596ZM111.417 17.548C110.927 17.548 110.545 17.4147 110.273 17.148C110.007 16.876 109.873 16.4947 109.873 16.004V14.084H109.121V13.148H109.201C109.415 13.148 109.58 13.092 109.697 12.98C109.815 12.868 109.873 12.7053 109.873 12.492V12.156H110.921V13.148H111.921V14.084H110.921V15.948C110.921 16.092 110.945 16.2147 110.993 16.316C111.047 16.4173 111.127 16.4947 111.233 16.548C111.345 16.6013 111.487 16.628 111.657 16.628C111.695 16.628 111.737 16.6253 111.785 16.62C111.839 16.6147 111.889 16.6093 111.937 16.604V17.5C111.863 17.5107 111.777 17.5213 111.681 17.532C111.585 17.5427 111.497 17.548 111.417 17.548ZM114.29 17.596C113.954 17.596 113.661 17.5213 113.41 17.372C113.165 17.2227 112.975 17.0147 112.842 16.748C112.714 16.4813 112.65 16.1693 112.65 15.812V13.148H113.698V15.724C113.698 15.9053 113.733 16.0653 113.802 16.204C113.877 16.3373 113.981 16.444 114.114 16.524C114.253 16.5987 114.407 16.636 114.578 16.636C114.749 16.636 114.901 16.5987 115.034 16.524C115.167 16.444 115.271 16.3347 115.346 16.196C115.421 16.0573 115.458 15.892 115.458 15.7V13.148H116.506V17.5H115.514V16.644L115.602 16.796C115.501 17.0627 115.333 17.2627 115.098 17.396C114.869 17.5293 114.599 17.596 114.29 17.596ZM117.48 17.5V13.148H118.464V14.116L118.384 13.972C118.486 13.6467 118.643 13.42 118.856 13.292C119.075 13.164 119.336 13.1 119.64 13.1H119.896V14.028H119.52C119.222 14.028 118.982 14.1213 118.8 14.308C118.619 14.4893 118.528 14.7453 118.528 15.076V17.5H117.48ZM120.472 17.5V13.148H121.456V14.004L121.376 13.852C121.478 13.5907 121.643 13.3933 121.872 13.26C122.107 13.1213 122.379 13.052 122.688 13.052C123.008 13.052 123.291 13.1213 123.536 13.26C123.787 13.3987 123.982 13.5933 124.12 13.844C124.259 14.0893 124.328 14.3747 124.328 14.7V17.5H123.28V14.948C123.28 14.756 123.243 14.5907 123.168 14.452C123.094 14.3133 122.99 14.2067 122.856 14.132C122.728 14.052 122.576 14.012 122.4 14.012C122.23 14.012 122.078 14.052 121.944 14.132C121.811 14.2067 121.707 14.3133 121.632 14.452C121.558 14.5907 121.52 14.756 121.52 14.948V17.5H120.472Z" fill="#4B4551"/>
<rect x="28" y="29.2857" width="61" height="3.71429" rx="1.85714" fill="#ECECEC"/>
<path d="M28 31.1428C28 30.1172 28.8315 29.2857 29.8571 29.2857H81.1429C82.1685 29.2857 83 30.1172 83 31.1428C83 32.1685 82.1685 33 81.1429 33H29.8571C28.8315 33 28 32.1685 28 31.1428Z" fill="#7AAF59"/>
<rect x="99" y="29.2857" width="61" height="3.71429" rx="1.85714" fill="#ECECEC"/>
<rect x="99" y="29.2857" width="45" height="3.71429" rx="1.85714" fill="#36CADE"/>
<defs>
<filter id="filter0_d_45_32" x="0" y="0" width="184" height="86" filterUnits="userSpaceOnUse" color-interpolation-filters="sRGB">
<feFlood flood-opacity="0" result="BackgroundImageFix"/>
<feColorMatrix in="SourceAlpha" type="matrix" values="0 0 0 0 0 0 0 0 0 0 0 0 0 0 0 0 0 0 127 0" result="hardAlpha"/>
<feOffset dy="11"/>
<feGaussianBlur stdDeviation="8.5"/>
<feComposite in2="hardAlpha" operator="out"/>
<feColorMatrix type="matrix" values="0 0 0 0 0.528671 0 0 0 0 0.349479 0 0 0 0 0.6875 0 0 0 0.2 0"/>
<feBlend mode="normal" in2="BackgroundImageFix" result="effect1_dropShadow_45_32"/>
<feBlend mode="normal" in="SourceGraphic" in2="effect1_dropShadow_45_32" result="shape"/>
</filter>
</defs>
</svg>
