<svg xmlns="http://www.w3.org/2000/svg" width="32" height="33" viewBox="0 0 32 33" >
  <path d="M31 15.9844C30.9987 14.6184 30.6223 13.2807 29.9144 12.1262C29.2065 10.9716 28.1961 10.0474 27 9.46043V9.28125C26.9988 7.95251 26.5829 6.65945 25.8138 5.59339C25.0447 4.52733 23.9633 3.74491 22.7295 3.36191C21.4957 2.9789 20.1751 3.01566 18.9631 3.46673C17.7512 3.91781 16.7122 4.75924 16 5.86652C15.2878 4.75924 14.2488 3.91781 13.0368 3.46673C11.8249 3.01566 10.5043 2.9789 9.27051 3.36191C8.03672 3.74491 6.95526 4.52733 6.18615 5.59339C5.41705 6.65945 5.00114 7.95251 4.99999 9.28125V9.46043C3.80291 10.0458 2.79149 10.9694 2.08325 12.124C1.37502 13.2787 0.999054 14.6169 0.999054 15.9831C0.999054 17.3493 1.37502 18.6875 2.08325 19.8421C2.79149 20.9967 3.80291 21.9204 4.99999 22.5057V22.6875C5.00114 24.0162 5.41705 25.3093 6.18615 26.3754C6.95526 27.4414 8.03672 28.2238 9.27051 28.6068C10.5043 28.9898 11.8249 28.9531 13.0368 28.502C14.2488 28.0509 15.2878 27.2095 16 26.1022C16.7122 27.2095 17.7512 28.0509 18.9631 28.502C20.1751 28.9531 21.4957 28.9898 22.7295 28.6068C23.9633 28.2238 25.0447 27.4414 25.8138 26.3754C26.5829 25.3093 26.9988 24.0162 27 22.6875V22.5057C28.1959 21.9192 29.2062 20.9955 29.9141 19.8413C30.622 18.6872 30.9985 17.35 31 15.9844ZM11 26.8125C10.0137 26.8124 9.06219 26.4364 8.32827 25.7569C7.59436 25.0774 7.12977 24.1422 7.02374 23.1309C7.34712 23.1785 7.67334 23.2026 7.99999 23.2031H8.99999C9.26521 23.2031 9.51956 23.0945 9.7071 22.9011C9.89463 22.7077 9.99999 22.4454 9.99999 22.1719C9.99999 21.8984 9.89463 21.6361 9.7071 21.4427C9.51956 21.2493 9.26521 21.1406 8.99999 21.1406H7.99999C6.81944 21.142 5.67648 20.7126 4.77346 19.9284C3.87045 19.1442 3.26563 18.0558 3.06609 16.8559C2.86655 15.656 3.08516 14.4219 3.68321 13.3723C4.28127 12.3226 5.22019 11.525 6.33374 11.1207C6.52858 11.0496 6.69726 10.918 6.81657 10.7439C6.93588 10.5698 6.99996 10.3619 6.99999 10.1488V9.28125C6.99999 8.18723 7.42142 7.13802 8.17156 6.36443C8.92171 5.59085 9.93913 5.15625 11 5.15625C12.0609 5.15625 13.0783 5.59085 13.8284 6.36443C14.5786 7.13802 15 8.18723 15 9.28125V18.0804C13.9019 17.0619 12.4769 16.4989 11 16.5C10.7348 16.5 10.4804 16.6086 10.2929 16.802C10.1053 16.9954 9.99999 17.2577 9.99999 17.5312C9.99999 17.8048 10.1053 18.0671 10.2929 18.2605C10.4804 18.4539 10.7348 18.5625 11 18.5625C12.0609 18.5625 13.0783 18.9971 13.8284 19.7707C14.5786 20.5443 15 21.5935 15 22.6875C15 23.7815 14.5786 24.8307 13.8284 25.6043C13.0783 26.3779 12.0609 26.8125 11 26.8125ZM24 21.1406H23C22.7348 21.1406 22.4804 21.2493 22.2929 21.4427C22.1053 21.6361 22 21.8984 22 22.1719C22 22.4454 22.1053 22.7077 22.2929 22.9011C22.4804 23.0945 22.7348 23.2031 23 23.2031H24C24.3266 23.2026 24.6529 23.1785 24.9762 23.1309C24.8932 23.9233 24.5893 24.6738 24.1014 25.2919C23.6134 25.9099 22.9624 26.369 22.2268 26.6135C21.4913 26.858 20.7028 26.8776 19.9567 26.6699C19.2106 26.4621 18.5389 26.036 18.0227 25.4429C17.5064 24.8498 17.1679 24.1152 17.0479 23.3279C16.9279 22.5406 17.0317 21.7343 17.3466 21.0065C17.6616 20.2787 18.1742 19.6606 18.8225 19.2269C19.4709 18.7931 20.2272 18.5624 21 18.5625C21.2652 18.5625 21.5196 18.4539 21.7071 18.2605C21.8946 18.0671 22 17.8048 22 17.5312C22 17.2577 21.8946 16.9954 21.7071 16.802C21.5196 16.6086 21.2652 16.5 21 16.5C19.5231 16.4989 18.0981 17.0619 17 18.0804V9.28125C17 8.18723 17.4214 7.13802 18.1716 6.36443C18.9217 5.59085 19.9391 5.15625 21 5.15625C22.0609 5.15625 23.0783 5.59085 23.8284 6.36443C24.5786 7.13802 25 8.18723 25 9.28125V10.1488C25 10.3619 25.0641 10.5698 25.1834 10.7439C25.3027 10.918 25.4714 11.0496 25.6662 11.1207C26.7798 11.525 27.7187 12.3226 28.3168 13.3723C28.9148 14.4219 29.1334 15.656 28.9339 16.8559C28.7344 18.0558 28.1295 19.1442 27.2265 19.9284C26.3235 20.7126 25.1805 21.142 24 21.1406ZM26 14.4375C26 14.711 25.8946 14.9733 25.7071 15.1667C25.5196 15.3601 25.2652 15.4688 25 15.4688H24.5C23.3065 15.4687 22.1619 14.9798 21.318 14.1095C20.4741 13.2393 20 12.0589 20 10.8281V10.3125C20 10.039 20.1053 9.77669 20.2929 9.5833C20.4804 9.3899 20.7348 9.28125 21 9.28125C21.2652 9.28125 21.5196 9.3899 21.7071 9.5833C21.8946 9.77669 22 10.039 22 10.3125V10.8281C22 11.5119 22.2634 12.1676 22.7322 12.6511C23.2011 13.1346 23.837 13.4062 24.5 13.4062H25C25.2652 13.4062 25.5196 13.5149 25.7071 13.7083C25.8946 13.9017 26 14.164 26 14.4375ZM7.49999 15.4688H6.99999C6.73477 15.4688 6.48042 15.3601 6.29288 15.1667C6.10535 14.9733 5.99999 14.711 5.99999 14.4375C5.99999 14.164 6.10535 13.9017 6.29288 13.7083C6.48042 13.5149 6.73477 13.4062 6.99999 13.4062H7.49999C8.16303 13.4062 8.79892 13.1346 9.26776 12.6511C9.7366 12.1676 9.99999 11.5119 9.99999 10.8281V10.3125C9.99999 10.039 10.1053 9.77669 10.2929 9.5833C10.4804 9.3899 10.7348 9.28125 11 9.28125C11.2652 9.28125 11.5196 9.3899 11.7071 9.5833C11.8946 9.77669 12 10.039 12 10.3125V10.8281C12 12.0589 11.5259 13.2393 10.682 14.1095C9.83806 14.9798 8.69347 15.4687 7.49999 15.4688Z" fill="#d2de32"/>
</svg>